<?xml version="1.0" encoding="UTF-8"?><svg id="_レイヤー_1" xmlns="http://www.w3.org/2000/svg" viewBox="0 0 751.15 731.27"><defs><style>.cls-1{fill:#f2b600;}.cls-1,.cls-2,.cls-3,.cls-4{stroke-width:0px;}.cls-2{fill:#1a1a1a;}.cls-5{fill:none;stroke:#f2b600;stroke-miterlimit:10;stroke-width:4px;}.cls-3{fill:#fff;}.cls-4{fill:#577082;}</style></defs><rect class="cls-3" x="-2.44" y="-2.76" width="752.19" height="733.55"/><path class="cls-2" d="M66.35,396.46h8.41v2.99h-8.41v3.21c1.98,1.54,7,5.85,8.27,7l-1.89,2.69c-1.32-1.45-4.14-4.27-6.38-6.34v17.34h-3.17v-18.97c-2.29,5.02-5.37,9.99-8.36,12.98-.4-.88-1.23-2.24-1.8-3.04,3.52-3.35,7.35-9.42,9.5-14.88h-8.54v-2.99h9.2v-7.44c-2.86.53-5.76.97-8.49,1.37-.13-.79-.62-1.89-1.01-2.6,6.42-.97,14.08-2.46,18.17-4.27l2.42,2.51c-2.2.88-4.97,1.67-7.92,2.33v8.1ZM80.87,412.56h-3.17v-24.07h3.17v24.07ZM91.69,384.13v34.94c0,2.24-.62,3.26-1.98,3.83-1.45.48-3.92.57-7.92.57-.18-.88-.66-2.38-1.19-3.3,3.08.09,5.85.09,6.69.04.79,0,1.14-.26,1.14-1.1v-34.99h3.26Z"/><path class="cls-2" d="M133.68,419.03c0,2.11-.57,3.08-1.98,3.65-1.5.53-4.05.57-8.18.53-.13-.88-.66-2.29-1.1-3.17,3.08.13,6.07.09,6.87.09.88-.04,1.19-.31,1.19-1.14v-8.93h-11.84v12.98h-3.26v-12.98h-11c-.66,4.88-2.16,9.9-5.5,13.64-.48-.66-1.8-1.76-2.51-2.16,4.84-5.46,5.28-13.2,5.28-19.32v-15.84h32.04v32.65ZM115.38,406.93v-7.3h-10.52v2.6c0,1.45-.04,3.08-.18,4.71h10.69ZM104.86,389.5v7.04h10.52v-7.04h-10.52ZM130.47,389.5h-11.84v7.04h11.84v-7.04ZM130.47,406.93v-7.3h-11.84v7.3h11.84Z"/><path class="cls-2" d="M145.18,399.85v23.63h-3.21v-38.33h15.93v14.7h-12.72ZM145.18,387.66v3.56h9.64v-3.56h-9.64ZM154.81,397.34v-3.79h-9.64v3.79h9.64ZM165.73,412.83v9.81h-2.91v-9.81h-6.25c-.26,2.95-1.67,7.52-5.9,10.38-.48-.57-1.45-1.5-2.16-1.94,3.7-2.25,4.93-5.9,5.19-8.45h-5.5v-2.77h5.59v-4.75h-4.75v-2.69h21.7v2.69h-5.02v4.75h5.98v2.77h-5.98ZM162.82,410.05v-4.75h-6.16v4.75h6.16ZM178.09,419.21c0,1.94-.44,2.99-1.72,3.56-1.32.53-3.52.62-6.82.57-.09-.84-.57-2.38-1.06-3.26,2.42.09,4.8.09,5.46.04.7,0,.92-.26.92-.97v-19.28h-13.11v-14.74h16.33v34.06ZM164.89,387.66v3.56h9.99v-3.56h-9.99ZM174.88,397.38v-3.83h-9.99v3.83h9.99Z"/><path class="cls-2" d="M199.4,392.63c-.57,7.96-1.94,14.26-4.09,19.14,2.11,1.63,3.92,3.3,5.1,4.75l-1.98,2.6c-1.1-1.37-2.68-2.91-4.53-4.45-2.24,3.92-5.06,6.82-8.49,8.89-.48-.79-1.32-1.98-2.02-2.64,3.21-1.67,5.9-4.44,7.97-8.27-1.45-1.1-3.04-2.2-4.53-3.12l-.53,1.89-2.73-1.45c1.1-3.74,2.42-9.15,3.7-14.61h-4.14v-3.04h4.8c.7-3.21,1.32-6.34,1.85-9.06l3.12.35c-.53,2.68-1.19,5.68-1.89,8.71h5.85l.57-.09,1.98.4ZM190.33,395.36c-.92,3.92-1.89,7.79-2.77,11.22,1.67.97,3.48,2.07,5.15,3.26,1.63-3.92,2.77-8.76,3.34-14.48h-5.72ZM199.62,398.44l3.48-.18c1.85-4.27,3.92-10.47,5.06-15.01l3.56.75c-1.54,4.49-3.56,9.99-5.41,14.08,3.61-.22,7.7-.48,11.79-.75-1.19-2.07-2.6-4.18-4-5.99l2.64-1.32c2.86,3.65,5.9,8.49,7.04,11.71l-2.82,1.58c-.31-.92-.75-1.98-1.32-3.12-7.13.53-14.48,1.1-19.67,1.41l-.35-3.17ZM202.61,405.74h18.66v17.56h-3.26v-1.8h-12.28v1.98h-3.12v-17.73ZM205.73,408.73v9.81h12.28v-9.81h-12.28Z"/><path class="cls-2" d="M239.23,385.94c-.22,1.41-.35,2.95-.44,4.36-.18,4.93-.53,15.22-.53,21.74,0,4.8,3.08,6.47,7.13,6.47,8.01,0,12.54-4.49,15.67-9.02l2.42,3.04c-2.95,4.14-8.58,9.59-18.17,9.59-6.25,0-10.56-2.64-10.56-9.73,0-6.47.44-17.47.44-22.09,0-1.59-.13-3.12-.4-4.4l4.44.04Z"/><path class="cls-2" d="M275.1,390.65c2.86-.26,11.09-1.1,19.1-1.76,4.75-.4,8.85-.62,11.75-.75v3.52c-2.46,0-6.29.04-8.54.71-6.21,1.98-9.95,8.58-9.95,13.73,0,8.54,7.92,11.22,15.01,11.49l-1.28,3.65c-8.05-.31-17.25-4.62-17.25-14.35,0-6.82,4.09-12.32,8.1-14.7-3.83.44-15.71,1.59-20.42,2.55l-.4-3.87c1.67-.04,3.04-.13,3.87-.22Z"/><path class="cls-2" d="M337.73,394.04c0,2.46.04,5.15.09,7.13.92,1.5,1.41,3.43,1.41,5.59,0,5.9-2.86,12.46-12.98,15.49l-3.04-2.95c5.72-1.32,9.77-3.7,11.57-7.57-1.06.75-2.29,1.1-3.74,1.1-3.7,0-7.22-2.6-7.22-7.31,0-4.31,3.56-7.61,7.7-7.61,1.06,0,2.02.18,2.9.48,0-1.28,0-2.82-.04-4.31-6.6.04-13.99.35-19.45.75l-.09-3.43c4.84-.09,13.03-.35,19.5-.44,0-1.23-.04-2.25-.09-2.86-.04-.92-.18-2.2-.26-2.73h4l-.22,2.73c0,.66-.04,1.67-.04,2.82h.66c5.28,0,10.65.04,12.76.04l-.04,3.3c-2.46-.13-6.42-.22-12.81-.22h-.57ZM335.4,403.59c-.7-1.89-2.16-2.68-3.87-2.68-2.24,0-4.4,1.76-4.4,4.58s2.02,4.31,4.44,4.31c2.55,0,4.22-2.07,3.83-6.21Z"/><path class="cls-2" d="M383.9,387.74c-.92.7-2.24,1.85-2.99,2.46-2.99,2.6-9.24,7.61-12.45,10.25-2.64,2.29-2.68,2.95.13,5.28,3.96,3.17,12.06,9.86,16.28,14.08l-3.12,2.86c-.88-1.06-2.07-2.16-2.99-3.17-2.38-2.55-9.68-8.76-13.73-12.1-4.14-3.43-3.65-5.41.26-8.71,3.3-2.77,9.9-7.96,12.85-10.96.88-.88,1.98-2.11,2.51-2.9l3.26,2.9ZM385.52,401.52l-2.46,1.06c-.92-1.8-2.55-4.8-3.7-6.51l2.33-1.01c1.1,1.63,2.9,4.8,3.83,6.47ZM390.72,399.41l-2.38,1.05c-1.01-1.85-2.64-4.66-3.87-6.34l2.38-1.06c1.14,1.54,2.95,4.58,3.87,6.34Z"/><path class="cls-2" d="M408.55,387.08c-.26.75-.66,2.16-.84,2.95-.84,4.01-2.11,11.79-2.11,16.68,0,2.11.09,3.87.35,5.98.75-1.98,1.72-4.53,2.42-6.25l1.89,1.41c-1.1,3.08-2.68,7.7-3.08,9.77-.13.62-.22,1.45-.22,1.94l.13,1.54-3.17.22c-.88-3.08-1.58-8.1-1.58-13.99,0-6.42,1.41-13.91,1.94-17.47.13-1.01.31-2.16.31-3.08l3.96.31ZM418.49,408.21c-.4,1.58-.57,2.82-.57,4,0,1.98,1.32,3.92,7.31,3.92,3.92,0,7.26-.35,10.78-1.14l.04,3.7c-2.68.53-6.34.88-10.87.88-7.3,0-10.56-2.42-10.56-6.51,0-1.58.31-3.3.7-5.15l3.17.31ZM416.78,390.43c4.75.79,13.55.62,17.91,0v3.61c-4.67.48-13.11.48-17.87,0l-.04-3.61Z"/><path class="cls-2" d="M466.69,389.64c-.97,1.63-2.02,3.21-3.12,4.84v28.87h-3.48v-24.47c-4.45,5.06-9.81,9.59-15.93,12.81-.48-.84-1.54-2.11-2.2-2.86,8.67-4.36,16.19-11.66,20.55-19.19h-19.45v-3.26h37.58v3.26h-13.95ZM466.86,396.98c5.11,3.3,11.79,8.23,15.01,11.57l-2.6,2.51c-3.12-3.34-9.64-8.54-14.83-11.97l2.42-2.11Z"/><path class="cls-2" d="M501.5,417.14c-3.74,2.38-9.37,4.8-13.86,6.25-.53-.66-1.5-1.8-2.25-2.51,4.49-1.37,10.17-3.79,13.11-5.85l2.99,2.11ZM524.38,410.8v3.04h-38.77v-3.04h38.77ZM518.49,385.1v22.71h-26.58v-22.71h26.58ZM495.12,391.84h20.02v-4.14h-20.02v4.14ZM495.12,398.48h20.02v-4.14h-20.02v4.14ZM495.12,405.21h20.02v-4.22h-20.02v4.22ZM510.96,415.25c5.06,1.8,10.52,4.14,13.91,5.94l-3.12,2.24c-3.04-1.8-8.14-4.18-13.11-5.99l2.33-2.2Z"/><path class="cls-2" d="M549.47,383.39c4.67,6.47,12.41,12.59,19.32,15.71-.79.75-1.58,1.89-2.16,2.82-6.82-3.56-14.52-9.73-18.62-15.36-3.61,5.37-10.74,11.62-18.26,15.62-.4-.75-1.28-1.89-2.02-2.6,7.66-3.87,15.01-10.56,18.44-16.2h3.3ZM534.82,405.96h26.76v17.51h-3.34v-1.8h-20.2v1.8h-3.21v-17.51ZM559.15,397.56v2.9h-22.05v-2.9h22.05ZM538.03,408.91v9.81h20.2v-9.81h-20.2Z"/><path class="cls-2" d="M587.99,386.03c-.18.84-.4,1.72-.53,2.6-.26,1.28-.66,3.83-1.14,6.16,2.02-.18,3.83-.31,4.88-.31,3.92,0,7.08,1.54,7.08,7.44,0,5.19-.7,12.06-2.51,15.71-1.41,2.91-3.56,3.61-6.38,3.61-1.67,0-3.74-.31-5.15-.62l-.57-3.74c1.85.62,4.14.97,5.37.97,1.58,0,2.86-.35,3.79-2.24,1.41-2.9,2.07-8.58,2.07-13.29,0-3.96-1.8-4.67-4.62-4.67-1.06,0-2.77.13-4.67.31-1.58,6.25-4.58,16.06-9.15,23.37l-3.56-1.45c4.45-5.94,7.66-15.76,9.15-21.56-2.29.22-4.36.44-5.5.57-1.06.13-2.82.31-3.92.53l-.35-3.83c1.36.04,2.46.04,3.87,0,1.45-.04,3.96-.26,6.6-.48.62-3.12,1.14-6.51,1.1-9.46l4.14.4ZM602.95,391c2.73,3.52,6.51,11.44,7.96,15.49l-3.39,1.67c-1.32-4.49-4.75-12.1-7.79-15.67l3.21-1.5ZM604.75,391.7c-.88-1.76-2.38-4.45-3.56-6.12l2.33-.97c1.1,1.54,2.73,4.27,3.65,6.03l-2.42,1.06ZM609.73,389.9c-.97-1.89-2.42-4.4-3.65-6.07l2.33-.97c1.14,1.58,2.86,4.36,3.7,5.98l-2.38,1.06Z"/><path class="cls-2" d="M649.25,420c1.76,0,2.11-.79,2.29-6.21.7.57,2.11,1.1,3.04,1.32-.4,6.38-1.36,7.96-5.06,7.96h-7.08c-4.14,0-5.24-.97-5.24-4.53v-8.8h-7.22c-1.06,7.04-3.87,11.44-13.86,13.73-.26-.84-1.19-2.2-1.85-2.86,9.02-1.8,11.35-5.24,12.28-10.87h-5.94v-24.95h27.68v24.95h-7.79v8.76c0,1.28.35,1.5,2.24,1.5h6.51ZM623.77,392.23h21.21v-4.49h-21.21v4.49ZM623.77,399.49h21.21v-4.53h-21.21v4.53ZM623.77,406.84h21.21v-4.58h-21.21v4.58Z"/><path class="cls-2" d="M663.69,395.84c3.7-1.14,12.23-4.31,18.61-4.31,7.22,0,12.98,4.18,12.98,11.49,0,10.47-10.39,15.54-23.85,16.28l-1.54-3.65c11.4-.31,21.52-3.74,21.52-12.67,0-4.58-3.3-8.14-9.2-8.14-7.17,0-18.26,4.8-21.7,6.16l-1.63-3.87c1.58-.31,3.17-.79,4.8-1.28Z"/><path class="cls-2" d="M70.97,458.89c-.18.79-.35,1.72-.53,2.55-.22,1.28-.62,3.83-1.1,6.16,2.02-.13,3.83-.27,4.88-.27,3.87,0,7.08,1.5,7.08,7.39,0,5.19-.75,12.06-2.55,15.71-1.36,2.9-3.52,3.65-6.38,3.65-1.63,0-3.74-.35-5.1-.66l-.57-3.7c1.8.57,4.14.97,5.33.97,1.63,0,2.9-.35,3.83-2.25,1.36-2.95,2.02-8.58,2.02-13.33,0-3.96-1.8-4.66-4.58-4.66-1.06,0-2.77.13-4.67.31-1.58,6.25-4.53,16.02-9.15,23.41l-3.61-1.45c4.44-5.94,7.7-15.8,9.15-21.61-2.24.22-4.36.44-5.5.57-1.01.13-2.77.35-3.92.53l-.35-3.83c1.36.09,2.51.04,3.87,0,1.45-.04,4-.26,6.64-.48.62-3.12,1.1-6.51,1.1-9.46l4.09.44ZM85.97,463.51c2.73,3.52,6.47,11.53,7.96,15.58l-3.43,1.63c-1.28-4.49-4.71-12.15-7.79-15.8l3.26-1.41Z"/><path class="cls-2" d="M109.79,458.5c-.92,3.21-1.76,9.06-2.02,12.1,1.72-4.49,6.29-9.9,11.79-9.9,5.81,0,9.99,5.81,9.99,14.96,0,12.1-7.61,17.43-18.44,19.41l-2.07-3.17c9.46-1.45,16.85-5.24,16.85-16.2,0-6.86-2.29-11.79-6.91-11.79-5.41,0-10.43,7.88-10.96,13.6-.22,1.67-.22,3.17.09,5.32l-3.43.27c-.22-1.63-.44-4.09-.44-6.91,0-4.14.79-10.56,1.32-14.08.18-1.36.31-2.68.35-3.74l3.87.13Z"/><path class="cls-2" d="M149.92,495.55c-2.82-3.52-6.6-7.26-9.73-9.81l2.86-2.51c3.17,2.55,7.13,6.56,9.86,9.77l-2.99,2.55Z"/><path class="cls-2" d="M217.55,467.96c1.94,0,3.43-.13,4-.22v3.7c-.44-.04-2.07-.13-4-.13h-4.84v1.54c0,11.75-2.51,17.78-12.59,22.27l-2.95-2.77c8.01-3.08,12.01-6.87,12.01-19.19v-1.85h-12.54v7.13c0,1.63.13,3.56.18,4.01h-3.87c.04-.44.18-2.33.18-4.01v-7.13h-4.71c-1.94,0-3.92.13-4.44.18v-3.83c.4.09,2.55.31,4.44.31h4.71v-5.63c0-1.41-.13-2.77-.18-3.21h3.92c-.04.44-.22,1.67-.22,3.21v5.63h12.54v-5.5c0-1.71-.13-3.17-.22-3.61h3.96c-.04.44-.22,1.89-.22,3.61v5.5h4.84Z"/><path class="cls-2" d="M238.33,476.94c-1.85,3.79-5.98,9.37-8.45,12.1l-3.04-2.07c2.9-2.73,6.69-7.96,8.41-11.53l3.08,1.5ZM247.74,470.16v21.3c0,2.33-1.14,3.52-3.78,3.52-1.85,0-4.49-.13-6.25-.31l-.35-3.52c1.94.35,3.96.53,5.1.53s1.72-.53,1.72-1.67v-19.85h-12.23c-1.32,0-2.55.04-3.74.13v-3.7c1.23.13,2.33.22,3.74.22h12.23v-4.53c0-.97-.13-2.46-.31-3.12h4.14c-.13.62-.26,2.2-.26,3.17v4.49h11.62c1.06,0,2.51-.04,3.61-.22v3.65c-1.19-.09-2.51-.09-3.56-.09h-11.66ZM256.72,475.49c2.33,2.82,5.85,8.32,7.61,11.48l-3.26,1.8c-1.72-3.43-5.02-8.93-7.35-11.71l2.99-1.58ZM255.36,460.57c0-2.64,2.16-4.84,4.8-4.84s4.84,2.2,4.84,4.84-2.16,4.8-4.84,4.8-4.8-2.11-4.8-4.8ZM257.38,460.57c0,1.58,1.23,2.82,2.77,2.82s2.82-1.23,2.82-2.82-1.23-2.82-2.82-2.82-2.77,1.28-2.77,2.82Z"/><path class="cls-2" d="M271.78,474.03c1.32.09,3.65.22,6.12.22h24.12c2.2,0,3.79-.13,4.75-.22v4.31c-.88-.04-2.73-.22-4.71-.22h-24.16c-2.42,0-4.75.09-6.12.22v-4.31Z"/><path class="cls-2" d="M346.2,481.78c-4.8-2.6-12.41-5.54-17.29-7.09l.04,14.52c0,1.41.09,3.74.26,5.19h-4.22c.18-1.41.26-3.56.26-5.19v-25.61c0-1.23-.09-3.21-.35-4.58h4.31c-.13,1.37-.31,3.26-.31,4.58v7.17c5.81,1.76,14.13,4.93,18.79,7.26l-1.5,3.74Z"/><path class="cls-2" d="M365.4,460.08c-.26.75-.66,2.16-.84,2.95-.84,4.01-2.11,11.79-2.11,16.68,0,2.11.09,3.87.35,5.98.75-1.98,1.72-4.53,2.42-6.25l1.89,1.41c-1.1,3.08-2.68,7.7-3.08,9.77-.13.62-.22,1.45-.22,1.94l.13,1.54-3.17.22c-.88-3.08-1.58-8.1-1.58-13.99,0-6.42,1.41-13.91,1.94-17.47.13-1.01.31-2.16.31-3.08l3.96.31ZM375.35,481.21c-.4,1.58-.57,2.82-.57,4,0,1.98,1.32,3.92,7.31,3.92,3.92,0,7.26-.35,10.78-1.14l.04,3.7c-2.68.53-6.34.88-10.87.88-7.3,0-10.56-2.42-10.56-6.51,0-1.58.31-3.3.7-5.15l3.17.31ZM373.63,463.43c4.75.79,13.55.62,17.91,0v3.61c-4.67.48-13.11.48-17.87,0l-.04-3.61Z"/><path class="cls-2" d="M407.56,487.63c2.07,3.26,5.94,4.75,11.09,4.93,4.84.22,14.96.09,20.24-.26-.4.75-.92,2.24-1.06,3.21-4.93.22-14.21.31-19.14.09-5.76-.22-9.73-1.76-12.45-5.19-1.94,1.89-3.96,3.74-6.12,5.63l-1.72-3.12c1.85-1.36,4.09-3.21,6.07-5.06v-11.27h-5.59v-3.08h8.67v14.12ZM406.25,466.55c-1.32-2.2-4.27-5.24-6.95-7.35l2.51-1.85c2.68,2.02,5.72,5.02,7.08,7.17l-2.64,2.03ZM421.91,486h-12.5v-2.77h12.5v-3.08h-9.73v-14.21h9.73v-2.99h-11.84v-2.77h11.84v-3.87h3.17v3.87h12.45v2.77h-12.45v2.99h10.17v14.21h-10.17v3.08h13.11v2.77h-13.11v5.02h-3.17v-5.02ZM415.18,471.88h6.73v-3.52h-6.73v3.52ZM421.91,477.68v-3.52h-6.73v3.52h6.73ZM425.08,468.36v3.52h7.04v-3.52h-7.04ZM432.12,474.17h-7.04v3.52h7.04v-3.52Z"/><path class="cls-2" d="M446.78,481.73c-.62,4.14-1.67,8.36-3.12,11.18-.53-.4-1.85-1.01-2.55-1.23,1.45-2.68,2.38-6.6,2.86-10.47l2.82.53ZM479.35,461.53c-1.58,4.22-4,7.88-6.91,10.91,3.17,2.51,6.82,4.53,10.47,5.81-.7.62-1.67,1.8-2.16,2.64-3.65-1.45-7.26-3.65-10.47-6.34-2.64,2.33-5.54,4.31-8.58,5.81h17.47v16.06h-3.21v-2.11h-12.28v2.16h-3.04v-15.58c-.53.22-1.1.48-1.63.71-.31-.53-.84-1.37-1.41-1.98l-1.8.84c-.18-.71-.44-1.54-.79-2.46l-3.43.22v18.31h-2.9v-18.13c-2.51.13-4.88.26-6.91.4l-.26-2.9,2.9-.13c.92-1.19,1.94-2.6,2.91-4.05-1.36-1.98-3.65-4.45-5.68-6.25l1.67-2.11c.44.35.84.75,1.28,1.14,1.5-2.46,3.04-5.77,3.96-8.19l2.86,1.14c-1.5,2.9-3.34,6.38-4.97,8.85.97.97,1.85,1.98,2.55,2.86,1.72-2.73,3.3-5.54,4.44-7.88l2.77,1.23c-2.51,4.18-5.85,9.33-8.76,13.11l6.47-.26c-.62-1.36-1.32-2.77-2.02-3.96l2.29-.92c1.63,2.55,3.17,5.81,3.87,8.1,3.56-1.45,7.04-3.48,9.99-6.07-1.89-1.8-3.56-3.83-4.97-5.94-1.41,1.72-2.99,3.34-4.8,4.84-.53-.66-1.54-1.63-2.24-2.07,4.84-3.78,8.19-8.93,9.86-13.03l3.21.53c-.53,1.19-1.19,2.46-1.89,3.7h9.55l.62-.13,1.98,1.14ZM455.41,480.9c1.19,2.51,2.38,5.85,2.82,8.01l-2.51.84c-.44-2.2-1.54-5.5-2.68-8.05l2.38-.79ZM463.68,483.19v8.32h12.28v-8.32h-12.28ZM464.91,464.13c1.36,2.24,3.17,4.4,5.24,6.38,2.02-2.11,3.74-4.49,5.02-7.09h-9.77l-.48.71Z"/><path class="cls-2" d="M498.02,458.94c-.22,1.41-.35,2.95-.44,4.36-.18,4.93-.53,15.22-.53,21.74,0,4.8,3.08,6.47,7.13,6.47,8.01,0,12.54-4.49,15.67-9.02l2.42,3.04c-2.95,4.14-8.58,9.59-18.17,9.59-6.25,0-10.56-2.64-10.56-9.73,0-6.47.44-17.47.44-22.09,0-1.59-.13-3.12-.4-4.4l4.44.04Z"/><path class="cls-2" d="M533.89,463.65c2.86-.26,11.09-1.1,19.1-1.76,4.75-.4,8.85-.62,11.75-.75v3.52c-2.46,0-6.29.04-8.54.71-6.21,1.98-9.95,8.58-9.95,13.73,0,8.54,7.92,11.22,15.01,11.49l-1.28,3.65c-8.05-.31-17.25-4.62-17.25-14.35,0-6.82,4.09-12.32,8.1-14.7-3.83.44-15.71,1.59-20.42,2.55l-.4-3.87c1.67-.04,3.04-.13,3.87-.22Z"/><path class="cls-2" d="M609.19,485.96c-1.32-1.14-2.86-2.33-4.53-3.43-1.8,5.68-5.15,9.81-11.49,12.98l-2.9-2.42c6.91-2.9,9.99-7.57,11.4-12.32-3.65-1.98-7.88-3.52-12.41-3.92-1.67,3.83-3.83,8.93-5.5,11.35-1.54,2.2-3.26,3.04-5.5,3.04-3.21,0-5.68-2.33-5.68-5.98,0-6.43,5.94-11.35,14.48-11.57,1.58-3.43,3.17-7.17,4.53-9.9-1.72.13-7,.35-9.02.48-.97.04-2.2.13-3.21.31l-.18-3.7c1.1.13,2.38.18,3.3.18,2.29,0,8.01-.31,9.86-.44.79-.09,1.54-.26,2.11-.48l2.24,1.8c-.44.48-.84.88-1.14,1.45-1.23,1.94-3.08,6.38-4.93,10.47,4.36.44,8.36,1.8,11.84,3.48.18-1.1.26-2.2.35-3.26.09-1.19.13-2.6.04-4.01l3.61.4c-.18,3.12-.44,5.9-.92,8.45,2.07,1.14,3.83,2.33,5.24,3.35l-1.58,3.7ZM585.61,476.81c-6.25.53-9.81,4.27-9.81,7.96,0,1.85,1.23,2.9,2.51,2.9,1.01,0,1.72-.35,2.64-1.54,1.54-1.98,3.17-5.94,4.66-9.33Z"/><path class="cls-2" d="M638.82,467.17c-2.86.66-5.99,1.14-9.02,1.5-.4,1.89-.88,3.92-1.36,5.77-1.58,6.25-4.53,15.23-6.82,19.98l-3.87-1.28c2.6-4.49,5.68-13.33,7.3-19.5.4-1.45.75-3.04,1.1-4.62-1.41.09-2.73.13-3.96.13-1.94,0-3.52-.09-5.06-.18l-.13-3.43c2.07.26,3.65.31,5.24.31,1.45,0,2.99-.09,4.67-.18.31-1.58.53-2.95.66-3.83.13-1.23.22-2.68.13-3.61l4.27.35c-.31.97-.62,2.6-.79,3.48l-.66,3.21c2.82-.35,5.68-.88,8.32-1.58v3.48ZM637.1,482.44c-.4,1.45-.62,2.82-.62,3.92,0,2.07.97,4.05,7.17,4.05,2.82,0,5.85-.35,8.49-.84l-.13,3.56c-2.33.31-5.24.57-8.41.57-6.86,0-10.47-2.11-10.47-6.43,0-1.67.26-3.3.66-5.15l3.3.31ZM636,471.83c2.29-.22,5.15-.35,7.96-.35,2.51,0,5.19.09,7.53.35l-.09,3.34c-2.2-.26-4.8-.53-7.35-.53-2.73,0-5.37.18-8.05.48v-3.3Z"/><path class="cls-2" d="M690.31,466.9c-.97.62-2.07,1.19-3.34,1.85-2.9,1.5-8.98,4.36-13.25,7.17-4.05,2.64-6.47,5.5-6.47,8.8,0,3.61,3.43,5.85,10.3,5.85,4.75,0,10.56-.62,13.95-1.5v3.96c-3.3.57-8.32,1.05-13.77,1.05-8.19,0-14.13-2.46-14.13-8.98,0-4.49,2.86-8.05,7.53-11.31-2.02-3.56-4.31-8.67-6.34-13.42l3.48-1.41c1.76,4.75,3.96,9.46,5.85,12.89,4.09-2.46,8.8-4.75,11.18-6.12,1.28-.7,2.2-1.28,3.12-2.07l1.89,3.21Z"/><path class="cls-2" d="M63.88,552.84c-.53,1.76-.88,3.35-.88,4.97,0,3.26,3.34,5.54,10.3,5.54,6.03,0,11.62-.66,14.92-1.67l.04,3.79c-3.12.84-8.67,1.5-14.87,1.5-8.85,0-13.99-2.9-13.99-8.36,0-2.29.48-4.31.88-6.12l3.61.35ZM62.08,535.24c3.17.4,7.17.57,11.53.57s8.62-.31,11.75-.62v3.61c-2.95.22-7.75.53-11.75.53-4.36,0-8.05-.18-11.53-.48v-3.61Z"/><path class="cls-2" d="M108.34,534.14c2.29,0,11.4-.22,14.17-.4.75-.04,1.76-.18,2.42-.4l2.07,2.6c-.57.27-1.45.92-1.89,1.23-3.26,2.51-8.49,6.69-11.71,9.51,2.42-.97,4.53-1.23,6.56-1.23,7.04,0,12.19,4.09,12.19,10.08,0,8.49-8.45,13.16-21.83,12.1l-1.06-3.56c11.22,1.36,19.23-1.94,19.23-8.58,0-4.14-3.61-7.04-9.2-7.04-7.92,0-12.37,4.4-16.99,9.29l-2.55-2.73c6.07-5.68,17.07-14.87,20.82-18.22-2.68.13-9.9.44-12.06.57-.97.09-2.11.18-2.99.31l-.13-3.65c.79.09,1.76.13,2.95.13Z"/><path class="cls-2" d="M149.92,568.55c-2.82-3.52-6.6-7.26-9.73-9.81l2.86-2.51c3.17,2.55,7.13,6.56,9.86,9.77l-2.99,2.55Z"/><path class="cls-2" d="M215.83,539.9c-.97.62-2.07,1.19-3.34,1.85-2.9,1.5-8.98,4.36-13.25,7.17-4.05,2.64-6.47,5.5-6.47,8.8,0,3.61,3.43,5.85,10.3,5.85,4.75,0,10.56-.62,13.95-1.5v3.96c-3.3.57-8.32,1.05-13.77,1.05-8.19,0-14.13-2.46-14.13-8.98,0-4.49,2.86-8.05,7.52-11.31-2.02-3.56-4.31-8.67-6.34-13.42l3.48-1.41c1.76,4.75,3.96,9.46,5.85,12.89,4.09-2.46,8.8-4.75,11.18-6.12,1.28-.7,2.2-1.28,3.12-2.07l1.89,3.21Z"/><path class="cls-2" d="M231.95,536.65c2.86-.26,11.09-1.1,19.1-1.76,4.75-.4,8.85-.62,11.75-.75v3.52c-2.46,0-6.29.04-8.54.71-6.21,1.98-9.95,8.58-9.95,13.73,0,8.54,7.92,11.22,15.01,11.49l-1.28,3.65c-8.05-.31-17.25-4.62-17.25-14.35,0-6.82,4.09-12.32,8.1-14.7-3.83.44-15.71,1.59-20.42,2.55l-.4-3.87c1.67-.04,3.04-.13,3.87-.22Z"/><path class="cls-2" d="M301,547.38c2.99,3.3,4.49,6.34,4.49,10.08,0,6.47-5.85,10.43-14.43,10.43-5.94,0-10.74-2.6-10.74-9.72,0-1.19.13-2.95.35-5.02-3.26-.26-6.42-.75-9.07-1.58l.18-3.34c2.86,1.01,6.12,1.54,9.2,1.76.31-2.55.66-5.28.97-7.83-3.12-.26-6.56-.79-9.29-1.5l.18-3.26c2.73.88,6.25,1.41,9.5,1.58.22-1.76.4-3.34.48-4.53.09-1.01.13-1.98.04-3.04l3.96.22c-.31,1.19-.44,2.07-.57,3.04-.13,1.1-.35,2.64-.57,4.45,3.3,0,6.25-.18,8.8-.53l-.09,3.3c-2.77.26-5.37.44-8.85.44h-.31c-.35,2.55-.66,5.28-.97,7.79h.84c2.95,0,6.03-.13,9.07-.53l-.09,3.34c-2.9.31-5.59.4-8.54.4h-1.58c-.18,1.72-.26,3.26-.26,4.31,0,4.14,2.38,6.78,7.35,6.78,6.6,0,10.83-2.82,10.83-7.35,0-2.95-1.58-6.21-4.8-8.89l3.92-.79Z"/><path class="cls-2" d="M351.62,536.65h-16.06v27.5c0,2.6-.75,3.7-2.6,4.27-1.89.62-5.15.66-10.21.66-.26-1.05-.92-2.73-1.58-3.7,4.09.13,8.05.13,9.24.09,1.06-.04,1.45-.35,1.45-1.37v-27.46h-18.61v-3.35h38.37v3.35Z"/><path class="cls-2" d="M395.02,560.37h-17.78v5.59c0,1.71-.4,2.55-1.85,2.99-1.41.44-3.74.44-7.35.44-.13-.84-.62-2.02-1.06-2.82,2.77.09,5.37.04,6.12.04.75-.04.97-.18.97-.75v-5.5h-17.73v-2.77h38.68v2.77ZM360.12,539.95h-2.95v-7.35h16.77v-3.3h3.21v3.3h16.77v7.35h-3.04v-4.58h-17.73c2.29.79,4.97,2.11,6.42,3.17l-1.8,1.94c-1.5-1.19-4.4-2.68-6.73-3.52l1.58-1.59h-12.5v4.58ZM366.41,539.11c-1.41,2.68-3.65,5.46-7.13,7.08l-2.07-1.98c3.17-1.28,5.5-3.78,6.78-6.21l2.42,1.1ZM390.66,555.22h-29.97v-8.4h29.97v8.4ZM369.58,549.01h-6.03v4h6.03v-4ZM370.68,537.75v3.7c0,.92.35,1.1,2.29,1.1h7.04c1.36,0,1.63-.26,1.76-2.51.62.4,1.76.79,2.55.92-.31,3.21-1.19,4-3.96,4h-7.61c-3.96,0-4.93-.66-4.93-3.48v-3.74h2.86ZM378.6,549.01h-6.29v4h6.29v-4ZM387.71,549.01h-6.34v4h6.34v-4ZM391.8,545.85c-1.54-1.98-4.88-4.71-7.79-6.51l2.02-1.67c2.9,1.72,6.29,4.36,7.92,6.34l-2.16,1.85Z"/><path class="cls-2" d="M408.53,533.08c-.26.75-.66,2.16-.84,2.95-.84,4.01-2.11,11.79-2.11,16.68,0,2.11.09,3.87.35,5.98.75-1.98,1.72-4.53,2.42-6.25l1.89,1.41c-1.1,3.08-2.68,7.7-3.08,9.77-.13.62-.22,1.45-.22,1.94l.13,1.54-3.17.22c-.88-3.08-1.58-8.1-1.58-13.99,0-6.42,1.41-13.91,1.94-17.47.13-1.01.31-2.16.31-3.08l3.96.31ZM418.48,554.21c-.4,1.58-.57,2.82-.57,4,0,1.98,1.32,3.92,7.31,3.92,3.92,0,7.26-.35,10.78-1.14l.04,3.7c-2.68.53-6.34.88-10.87.88-7.3,0-10.56-2.42-10.56-6.51,0-1.58.31-3.3.7-5.15l3.17.31ZM416.76,536.43c4.75.79,13.55.62,17.91,0v3.61c-4.67.48-13.11.48-17.87,0l-.04-3.61Z"/><path class="cls-2" d="M451.27,553.33c-.53,1.72-.88,3.3-.88,4.93,0,3.3,3.34,5.59,10.3,5.59,6.03,0,11.62-.66,14.92-1.67l.04,3.74c-3.12.88-8.67,1.54-14.87,1.54-8.85,0-13.99-2.95-13.99-8.41,0-2.29.48-4.31.92-6.07l3.56.35ZM449.47,535.72c3.17.39,7.17.57,11.53.57s8.62-.31,11.75-.62v3.61c-2.95.22-7.7.53-11.75.53-4.36,0-8.05-.18-11.53-.48v-3.61ZM477.72,536.82l-2.38,1.1c-.88-1.8-2.38-4.49-3.61-6.16l2.38-.97c1.1,1.54,2.68,4.27,3.61,6.03ZM482.69,535.02l-2.42,1.06c-.92-1.89-2.38-4.4-3.65-6.07l2.33-1.01c1.19,1.63,2.86,4.4,3.74,6.03Z"/><path class="cls-2" d="M502.06,541c-.88,5.15-2.07,9.73-3.74,13.69,2.07,2.73,3.78,5.37,4.88,7.52l-2.64,2.25c-.88-1.85-2.24-4.09-3.83-6.43-2.46,4.53-5.68,8.23-9.95,11.04-.4-.62-1.58-1.94-2.29-2.51,4.58-2.73,7.83-6.56,10.21-11.4-2.42-3.26-5.19-6.6-7.79-9.37l2.29-1.85c2.29,2.38,4.71,5.15,6.91,7.88,1.23-3.34,2.16-7.13,2.77-11.27l3.17.44ZM505.89,539.55h-20.33v-3.04h8.36v-7.17h3.12v7.17h8.85v3.04ZM524.99,542.94h-5.24v22.05c0,2.2-.53,3.17-1.85,3.79-1.32.53-3.52.62-7.31.62-.13-.88-.57-2.42-1.06-3.39,2.77.09,5.19.09,5.94.04.75-.04,1.06-.26,1.06-1.06v-22.05h-12.01v-3.12h12.01v-10.56h3.21v10.56h5.24v3.12ZM509.81,558.61c-.7-2.6-2.68-6.82-4.75-9.86l2.68-1.23c2.11,2.99,4.18,7.04,4.84,9.68l-2.77,1.41Z"/><path class="cls-2" d="M534.77,538.06v8.23c0,6.69-.62,16.55-4.36,23.19-.57-.57-1.98-1.5-2.77-1.85,3.56-6.29,3.92-15.09,3.92-21.34v-11.35h16.15v-5.63h3.34v5.63h16.77v3.12h-33.05ZM534.81,563.93c2.2-3.34,3.34-8.71,3.87-13.33l2.99.66c-.62,4.8-1.72,10.52-3.96,13.99l-2.9-1.32ZM555.72,565.6c1.8,0,2.07-1.1,2.2-7.52.75.53,2.07,1.1,2.95,1.32-.35,7.26-1.19,9.2-4.93,9.2h-6.42c-3.83,0-4.84-1.1-4.84-4.75v-16.99h3.21v16.99c0,1.5.35,1.76,2.02,1.76h5.81ZM555.45,548.4c-2.11-1.98-6.51-4.93-10.12-6.78l2.24-2.11c3.52,1.72,7.97,4.49,10.21,6.47l-2.33,2.42ZM562.19,549.63c2.9,4.49,5.68,10.38,6.42,14.3l-3.12,1.37c-.75-3.87-3.34-9.9-6.21-14.48l2.9-1.19Z"/><path class="cls-2" d="M578.83,539.68c-.04,2.73,0,6.73.31,10.3.7,7.3,2.82,12.1,5.9,12.1,2.25,0,4.27-4.49,5.41-8.89l2.77,3.17c-2.6,7.39-5.28,9.9-8.27,9.9-4.09,0-8.05-4.09-9.24-15.4-.44-3.78-.48-9.06-.48-11.62,0-1.01-.04-2.82-.26-3.87l4.22.09c-.18,1.06-.31,3.08-.35,4.22ZM609.54,557.99l-3.56,1.41c-.75-7.83-3.39-16.46-7.52-21.56l3.43-1.19c3.92,5.06,7.04,13.99,7.66,21.34Z"/><path class="cls-2" d="M638.82,540.17c-2.86.66-5.99,1.14-9.02,1.5-.4,1.89-.88,3.92-1.36,5.77-1.58,6.25-4.53,15.23-6.82,19.98l-3.87-1.28c2.6-4.49,5.68-13.33,7.3-19.5.4-1.45.75-3.04,1.1-4.62-1.41.09-2.73.13-3.96.13-1.94,0-3.52-.09-5.06-.18l-.13-3.43c2.07.26,3.65.31,5.24.31,1.45,0,2.99-.09,4.67-.18.31-1.58.53-2.95.66-3.83.13-1.23.22-2.68.13-3.61l4.27.35c-.31.97-.62,2.6-.79,3.48l-.66,3.21c2.82-.35,5.68-.88,8.32-1.58v3.48ZM637.1,555.44c-.4,1.45-.62,2.82-.62,3.92,0,2.07.97,4.05,7.17,4.05,2.82,0,5.85-.35,8.49-.84l-.13,3.56c-2.33.31-5.24.57-8.41.57-6.86,0-10.47-2.11-10.47-6.43,0-1.67.26-3.3.66-5.15l3.3.31ZM636,544.83c2.29-.22,5.15-.35,7.96-.35,2.51,0,5.19.09,7.53.35l-.09,3.34c-2.2-.26-4.8-.53-7.35-.53-2.73,0-5.37.18-8.05.48v-3.3Z"/><path class="cls-2" d="M680.63,540.83c-2.86.62-5.99,1.14-9.02,1.45-.4,1.94-.88,3.92-1.36,5.81-1.58,6.21-4.53,15.23-6.82,19.94l-3.87-1.28c2.6-4.49,5.68-13.33,7.3-19.49.4-1.45.75-3.04,1.1-4.62-1.41.09-2.73.13-3.96.13-1.94,0-3.52-.04-5.06-.18l-.13-3.43c2.07.26,3.65.31,5.24.31,1.45,0,2.99-.09,4.67-.18.31-1.58.53-2.95.66-3.83.13-1.23.22-2.68.13-3.56l4.27.35c-.31.92-.62,2.6-.79,3.43l-.66,3.21c2.82-.35,5.68-.88,8.32-1.58v3.52ZM678.91,556.05c-.4,1.45-.62,2.82-.62,3.96,0,2.02.97,4,7.17,4,2.82,0,5.85-.31,8.49-.84l-.13,3.56c-2.33.31-5.24.62-8.4.62-6.87,0-10.47-2.16-10.47-6.47,0-1.63.26-3.3.66-5.15l3.3.31ZM677.81,545.45c2.29-.18,5.15-.35,7.96-.35,2.51,0,5.19.09,7.53.35l-.09,3.34c-2.2-.26-4.8-.48-7.35-.48-2.73,0-5.37.13-8.05.44v-3.3ZM689.96,540.56c-.88-1.8-2.38-4.45-3.56-6.12l2.33-1.01c1.14,1.58,2.73,4.27,3.61,6.07l-2.38,1.06ZM693.57,531.63c1.19,1.67,2.9,4.4,3.74,6.07l-2.38,1.05c-.97-1.94-2.42-4.44-3.65-6.12l2.29-1.01Z"/><path class="cls-2" d="M89.36,618.54c-1.94.66-4.45,1.28-7.39,1.85,1.28,2.77,2.68,5.72,3.92,8.01l-1.72,2.16c-2.2-.4-5.72-.88-8.49-1.23l.31-2.68c2.11.26,4.18.48,5.54.62-.84-1.71-1.85-4-2.86-6.29-5.63.75-12.76.84-19.49.4l-.13-3.21c6.65.62,13.11.57,18.31-.09l-1.54-3.56c-.35-.75-.66-1.54-.97-2.24-4.4.4-9.9.4-15.31-.09l-.22-3.21c5.19.57,10.08.66,14.26.35-.22-.48-.4-.93-.57-1.32-.66-1.37-1.06-2.16-1.63-3.08l3.96-.84c.4,1.5.97,3.17,1.63,4.84,3.04-.48,6.12-1.14,8.67-2.07l.62,3.12c-2.24.7-5.1,1.36-8.1,1.85l.79,1.8c.35.92.97,2.29,1.72,3.92,3.43-.62,6.07-1.41,8.05-2.16l.66,3.17ZM64.32,627.6c-.53,1.36-1.01,3.3-1.01,4.44,0,3.35,2.64,5.46,8.84,5.46,3.52,0,7.66-.31,10.74-1.01l-.09,3.56c-2.73.48-6.95.84-10.52.84-7.79,0-12.37-2.68-12.37-8.14,0-1.85.53-3.87,1.01-5.46l3.39.31Z"/><path class="cls-2" d="M130.72,638.56c-2.55-2.33-6.16-4.97-10.52-6.56.04,1.1.09,2.07.09,2.73,0,2.99-2.02,6.12-7.7,6.12-6.25,0-9.73-2.24-9.73-6.47,0-3.96,3.83-6.64,10.12-6.64,1.28,0,2.46.09,3.65.26-.09-1.94-.18-4-.22-5.81h-2.42c-2.99,0-7.83-.26-10.96-.62v-3.35c2.95.53,8.1.84,10.96.84h2.33v-6.25h-2.16c-3.04,0-7.66-.35-10.25-.66v-3.26c2.64.48,7.3.84,10.21.84h2.25v-2.86c0-.7-.04-1.98-.13-2.6h3.74c-.13.79-.18,1.63-.22,2.9-.04.53-.04,1.37-.04,2.42,3.79-.13,7.35-.48,11.18-1.05l.04,3.21c-3.43.35-7.17.71-11.27.92v6.25c4.18-.18,8.19-.57,12.1-1.14l.04,3.3c-4.09.53-7.97.84-12.1,1.01.09,2.24.22,4.53.31,6.6,5.76,1.58,10.21,4.8,12.67,6.78l-1.98,3.08ZM116.77,631.03c-1.36-.26-2.77-.4-4.22-.4-4.14,0-6.38,1.58-6.38,3.56s1.72,3.52,6.03,3.52c2.51,0,4.62-.75,4.62-3.74,0-.75-.04-1.76-.04-2.95Z"/><path class="cls-2" d="M152.94,604.94c-.22,1.41-.35,2.95-.44,4.36-.18,4.93-.53,15.22-.53,21.74,0,4.8,3.08,6.47,7.13,6.47,8.01,0,12.54-4.49,15.67-9.02l2.42,3.04c-2.95,4.14-8.58,9.59-18.17,9.59-6.25,0-10.56-2.64-10.56-9.73,0-6.47.44-17.47.44-22.09,0-1.59-.13-3.12-.4-4.4l4.44.04Z"/><path class="cls-2" d="M207.46,613.17c-2.86.66-5.99,1.14-9.02,1.5-.4,1.89-.88,3.92-1.36,5.77-1.58,6.25-4.53,15.23-6.82,19.98l-3.87-1.28c2.6-4.49,5.68-13.33,7.3-19.5.4-1.45.75-3.04,1.1-4.62-1.41.09-2.73.13-3.96.13-1.94,0-3.52-.09-5.06-.18l-.13-3.43c2.07.26,3.65.31,5.24.31,1.45,0,2.99-.09,4.67-.18.31-1.58.53-2.95.66-3.83.13-1.23.22-2.68.13-3.61l4.27.35c-.31.97-.62,2.6-.79,3.48l-.66,3.21c2.82-.35,5.68-.88,8.32-1.58v3.48ZM205.74,628.44c-.4,1.45-.62,2.82-.62,3.92,0,2.07.97,4.05,7.17,4.05,2.82,0,5.85-.35,8.49-.84l-.13,3.56c-2.33.31-5.24.57-8.41.57-6.86,0-10.47-2.11-10.47-6.43,0-1.67.26-3.3.66-5.15l3.3.31ZM204.64,617.83c2.29-.22,5.15-.35,7.96-.35,2.51,0,5.19.09,7.53.35l-.09,3.34c-2.2-.26-4.8-.53-7.35-.53-2.73,0-5.37.18-8.05.48v-3.3Z"/><path class="cls-2" d="M239.4,635.04c0,3.7-2.99,6.73-6.73,6.73s-6.69-3.04-6.69-6.73,3.04-6.69,6.69-6.69,6.73,2.99,6.73,6.69ZM237.11,635.04c0-2.42-1.94-4.44-4.44-4.44s-4.44,2.02-4.44,4.44,2.02,4.49,4.44,4.49,4.44-1.98,4.44-4.49Z"/><path class="cls-4" d="M87.62,207.38c-.91,1.65-1.77,3.19-2.51,4.45h11.34v30.9c0,3.36-.68,5.19-2.91,6.27-2.22,1.03-5.42,1.14-9.86,1.14-.29-1.6-1.14-4.05-1.94-5.76h-13.91v3.13h-5.99v-17.9h22.35v14.14c2,.06,3.76.06,4.45.06.97,0,1.25-.29,1.25-1.14v-17.5c-.86,1.71-2.28,2.28-4.56,2.28h-4.62c-5.07,0-6.1-1.54-6.1-6.16v-3.65h-4.62c-.51,6.33-2.62,9.98-11.29,11.97-.4-1.14-1.42-2.85-2.45-3.99v24.4h-6.44v-38.19h10.15c-.46-1.43-1.14-3.14-1.77-4.45h-10.32v-6.16h21.21v-4.28h6.9v4.28h21.78v6.16h-10.15ZM56.26,224.82c6.1-1.2,7.41-3.25,7.81-7.18h-7.81v7.18ZM77.64,211.83c.68-1.37,1.48-2.96,2.11-4.45h-14.25c.74,1.48,1.48,3.19,1.82,4.45h10.32ZM78.1,234.63h-10.26v4.79h10.26v-4.79ZM89.9,217.64h-9.46v3.59c0,1.2.17,1.37,1.14,1.37h2.96c.97,0,1.2-.4,1.37-3.14.85.57,2.57,1.2,3.99,1.6v-3.42Z"/><path class="cls-4" d="M109.17,224.48h21.72v25.37h-6.78v-2.57h-8.49v2.85h-6.44v-25.65ZM115.62,230.98v9.8h8.49v-9.8h-8.49ZM150.45,219.75h-33.41v-20.64h33.41v20.64ZM143.55,205.61h-19.95v7.7h19.95v-7.7ZM158.14,224.48v25.42h-6.84v-2.62h-9.06v2.85h-6.5v-25.65h22.4ZM151.3,240.78v-9.8h-9.06v9.8h9.06Z"/><path class="cls-4" d="M211,220.15c3.76,4.79,5.47,8.78,5.47,13.57,0,8.49-7.64,14.65-20.01,14.65-8.89,0-15.16-3.88-15.16-13.28,0-1.37.17-3.36.4-5.7-4.1-.4-7.81-1.03-10.83-1.88l.4-6.84c3.65,1.25,7.47,1.88,11.12,2.22.34-2.51.63-5.13.97-7.7-3.93-.4-7.92-1.08-11.23-2l.4-6.56c3.25,1.08,7.47,1.77,11.57,2.11.23-1.71.34-3.25.46-4.5.11-1.54.23-3.14.11-5.02l7.92.46c-.46,2.05-.74,3.53-.97,5.02-.17.97-.34,2.45-.63,4.28,4.05-.06,7.7-.29,10.38-.68l-.23,6.73c-3.36.34-6.44.51-11,.51-.34,2.51-.68,5.19-.97,7.7h.4c3.48,0,7.64-.29,11.34-.68l-.17,6.73c-3.19.29-6.5.51-9.98.51h-2.28c-.11,1.65-.23,3.08-.23,4.1,0,4.62,2.85,7.18,8.44,7.18,7.87,0,12.2-3.59,12.2-8.27,0-3.82-2.17-7.47-5.81-10.95l7.92-1.71Z"/><path class="cls-4" d="M281.07,206.58c-.63.74-1.71,2.11-2.22,2.96-2.68,4.45-8.1,11.63-13.74,15.62l-5.87-4.73c4.56-2.79,9.01-7.81,10.49-10.6h-29.7c-2.39,0-4.28.17-6.96.4v-7.92c2.17.34,4.56.57,6.96.57h30.73c1.6,0,4.73-.17,5.76-.51l4.56,4.22ZM257.81,214.28c0,14.14-.29,25.77-15.85,34.09l-6.61-5.42c1.82-.63,3.88-1.6,5.99-3.13,7.24-5.02,8.61-11.06,8.61-20.41,0-1.77-.11-3.31-.4-5.13h8.27Z"/><path class="cls-4" d="M338.09,207.21c-.51,1.14-.97,2.74-1.25,3.99-1.31,5.59-3.82,14.42-8.55,20.75-5.19,6.84-12.77,12.48-22.92,15.73l-6.21-6.84c11.29-2.62,17.73-7.58,22.35-13.34,3.76-4.73,5.93-11.23,6.67-16.08h-26.57c-2.56,0-5.3.11-6.78.23v-8.04c1.71.17,4.96.46,6.84.46h26.34c1.14,0,2.96-.06,4.5-.46l5.59,3.59Z"/><path class="cls-4" d="M399.44,208.8c-.63,1.08-1.37,2.62-1.88,4.05-1.48,4.39-4.1,10.15-7.87,15.62,2.11,1.31,4.05,2.62,5.47,3.65l-5.19,6.67c-1.37-1.2-3.19-2.57-5.3-4.05-5.07,5.53-11.8,10.66-21.04,14.2l-6.61-5.76c10.09-3.08,16.53-7.92,21.26-12.77-3.88-2.51-7.75-4.85-10.66-6.5l4.85-5.42c3.02,1.54,6.9,3.71,10.72,5.99,2.79-4.05,5.07-8.72,5.93-12.14h-16.36c-3.99,5.3-9.29,10.77-15.05,14.71l-6.16-4.73c10.03-6.16,15.33-13.97,18.19-18.93.85-1.37,2.05-3.99,2.57-5.99l8.27,2.57c-1.37,2-2.85,4.62-3.53,5.81l-.06.06h11.69c1.77,0,3.71-.23,4.96-.63l5.81,3.59Z"/><path class="cls-4" d="M414.21,218.78c2.05.17,6.21.34,9.18.34h30.61c2.62,0,5.19-.23,6.67-.34v8.95c-1.37-.06-4.28-.29-6.67-.29h-30.61c-3.25,0-7.07.11-9.18.29v-8.95Z"/><path class="cls-4" d="M516.61,211.08c3.02,0,4.73-.11,6.27-.4v7.58c-1.25-.11-3.25-.17-6.27-.17h-4.22v1.88c0,14.14-3.42,22.75-17.16,28.79l-6.1-5.76c11-3.82,15.85-8.78,15.85-22.75v-2.17h-13.51v7.75c0,2.51.17,4.85.23,5.99h-7.98c.17-1.14.34-3.42.34-5.99v-7.75h-4.85c-2.85,0-4.9.11-6.16.23v-7.75c1.03.17,3.31.51,6.16.51h4.85v-5.64c0-2.17-.23-4.05-.34-5.13h8.09c-.17,1.08-.34,2.91-.34,5.19v5.59h13.51v-5.99c0-2.28-.17-4.16-.34-5.3h8.1c-.11,1.14-.34,3.02-.34,5.3v5.99h4.22Z"/><path class="cls-4" d="M535.77,218.78c2.05.17,6.21.34,9.18.34h30.61c2.62,0,5.19-.23,6.67-.34v8.95c-1.37-.06-4.28-.29-6.67-.29h-30.61c-3.25,0-7.07.11-9.18.29v-8.95Z"/><path class="cls-4" d="M608.35,236.17c0,2.45,1.14,3.08,3.71,3.59,1.71.23,4.05.34,6.61.34,5.93,0,15.16-.74,19.84-2v8.32c-5.36.8-14.02,1.2-20.29,1.2-3.71,0-7.13-.29-9.58-.68-4.96-.86-7.81-3.59-7.81-8.49v-31.07c0-1.25-.17-4.16-.46-5.93h8.44c-.29,1.77-.46,4.33-.46,5.93v10.77c6.73-1.65,14.65-4.16,19.72-6.33,2.05-.8,3.99-1.71,6.21-3.08l3.08,7.24c-2.22.91-4.79,2-6.67,2.68-5.76,2.28-14.94,5.13-22.35,6.95v10.55ZM633.32,208.75c-1.14-2.34-2.91-5.7-4.45-7.87l4.5-1.88c1.42,2.11,3.48,5.7,4.56,7.81l-4.62,1.94ZM640.1,196.43c1.54,2.11,3.59,5.76,4.62,7.75l-4.5,1.94c-1.2-2.39-3.02-5.7-4.62-7.87l4.5-1.82Z"/><path class="cls-4" d="M699.63,206.52c-.46.63-1.48,2.39-2,3.53-1.94,4.45-5.13,10.55-8.95,15.68,5.64,4.9,12.54,12.2,15.9,16.3l-6.5,5.64c-3.71-5.13-9.01-10.95-14.37-16.13-6.04,6.38-13.62,12.31-21.43,16.02l-5.87-6.16c9.18-3.48,18.01-10.38,23.37-16.36,3.76-4.28,7.24-9.92,8.49-13.97h-19.33c-2.39,0-5.53.34-6.73.4v-8.09c1.54.23,5.02.4,6.73.4h20.07c2.51,0,4.79-.34,5.93-.74l4.67,3.48Z"/><path class="cls-4" d="M89.44,288.1c3.76,4.79,5.47,8.78,5.47,13.57,0,8.49-7.64,14.65-20.01,14.65-8.89,0-15.16-3.88-15.16-13.28,0-1.37.17-3.36.4-5.7-4.1-.4-7.81-1.03-10.83-1.88l.4-6.84c3.65,1.25,7.47,1.88,11.12,2.22.34-2.51.63-5.13.97-7.7-3.93-.4-7.92-1.08-11.23-2l.4-6.56c3.25,1.08,7.47,1.77,11.57,2.11.23-1.71.34-3.25.46-4.5.11-1.54.23-3.14.11-5.02l7.92.46c-.46,2.05-.74,3.53-.97,5.02-.17.97-.34,2.45-.63,4.28,4.05-.06,7.7-.29,10.38-.68l-.23,6.73c-3.36.34-6.44.51-11,.51-.34,2.51-.68,5.19-.97,7.7h.4c3.48,0,7.64-.29,11.34-.68l-.17,6.73c-3.19.29-6.5.51-9.98.51h-2.28c-.11,1.65-.23,3.08-.23,4.1,0,4.62,2.85,7.18,8.44,7.18,7.87,0,12.2-3.59,12.2-8.27,0-3.82-2.17-7.47-5.81-10.95l7.92-1.71Z"/><path class="cls-4" d="M135.04,287.14c3.76,11.12,10.66,20.07,21.32,24.4-1.71,1.42-3.93,4.45-5.02,6.38-10.32-4.85-16.93-13.17-21.38-24.17-3.08,9.52-9.24,18.41-21.32,24.23-1.08-1.88-3.08-4.33-5.07-5.76,13.05-5.81,18.47-15.28,20.69-25.08h-19.61v-7.01h20.75c.57-5.36.51-10.55.57-15.22h7.41c-.06,4.67-.11,9.92-.68,15.22h22.4v7.01h-20.07Z"/><path class="cls-4" d="M170.03,291.47c-2.11-1.82-6.61-4.16-10.15-5.59l3.59-5.13c3.48,1.08,8.04,3.19,10.32,5.02l-3.76,5.7ZM161.37,313.42c2.57-4.39,6.21-11.57,9.12-18.24l5.36,4.05c-2.57,6.1-5.53,12.66-8.49,18.19l-5.99-3.99ZM166.61,265.3c3.36,1.54,7.64,4.05,9.8,6.04l-4.22,5.36c-1.94-2-6.16-4.85-9.58-6.5l3.99-4.9ZM197,285.54v3.42h14.99v22.63c0,2.96-.57,4.5-2.51,5.42s-4.67.97-8.55.97c-.11-1.65-.8-4.05-1.54-5.64,2.11.11,4.56.11,5.3.11.74-.06.97-.29.97-.91v-16.7h-9.41v9.06h2.79v-6.73h3.93v13.51h-3.93v-1.88h-10.32v3.31h-4.05v-14.94h4.05v6.73h2.57v-9.06h-8.95v23.2h-5.99v-29.07h14.14v-3.42h-15.85v-5.93h9.06v-4.22h-7.3v-5.87h7.3v-4.62h6.33v4.62h7.64v-4.62h6.56v4.62h7.41v5.87h-7.41v4.22h9.01v5.93h-16.25ZM190.04,279.61h7.64v-4.22h-7.64v4.22Z"/><path class="cls-4" d="M247.73,310.39c2.74.46,5.76.63,8.84.63,2.45.06,10.89,0,14.02-.06-.91,1.54-2,4.67-2.34,6.56h-12.08c-11.46,0-20.29-2.05-26.22-10.77-1.88,4.39-4.33,8.32-7.81,11.17-1.03-1.37-3.36-3.59-4.79-4.62,6.16-4.85,8.66-14.14,9.46-21.89l7.07.8c-.34,2.22-.8,4.5-1.37,6.78,1.82,4.5,4.73,7.35,8.21,9.18v-20.18h-16.36v-20.75h40.13v20.75h-16.76v7.01h18.58v6.27h-18.58v9.12ZM231.14,281.55h26.11v-7.81h-26.11v7.81Z"/><path class="cls-4" d="M281.98,273.85c4.73-.4,14.08-1.25,24.4-2.17,5.81-.46,11.97-.8,15.96-.97l.06,7.3c-3.02,0-7.87.06-10.89.74-6.84,1.82-11.91,9.12-11.91,15.79,0,9.29,8.67,12.66,18.24,13.11l-2.62,7.81c-11.86-.74-23.03-7.13-23.03-19.38,0-8.15,4.5-14.54,8.32-17.39-4.9.51-16.76,1.77-23.32,3.19l-.74-7.75c2.28-.06,4.45-.17,5.53-.29ZM319.04,291.24l-4.33,1.94c-1.42-3.14-2.62-5.36-4.45-7.92l4.22-1.77c1.37,2.05,3.48,5.47,4.56,7.75ZM325.65,288.45l-4.28,2.05c-1.54-3.08-2.85-5.19-4.67-7.7l4.16-1.94c1.42,2,3.59,5.36,4.79,7.58Z"/><path class="cls-4" d="M382.31,280.58c-3.42-.17-8.72-.29-16.36-.29.06,2.85.06,5.93.06,8.38,1.42,2.11,2.11,4.85,2.11,7.81,0,7.35-4.33,16.7-18.13,20.58l-5.99-6.04c5.7-1.2,10.66-3.08,13.8-6.44-.8.17-1.65.29-2.57.29-4.39,0-9.75-3.48-9.75-10.38,0-6.38,5.13-10.55,11.29-10.55.8,0,1.54.06,2.22.17l-.06-3.76c-8.55.11-17.27.46-24.23.86l-.17-6.84c6.44,0,16.7-.29,24.29-.4,0-.68,0-1.31-.06-1.71-.11-1.82-.29-3.99-.51-4.9h8.21c-.17.91-.34,3.93-.4,4.85,0,.46-.06,1.03-.06,1.71,5.7,0,13.4-.06,16.36,0l-.06,6.67ZM356.6,298.59c2.34,0,4.45-1.77,3.71-6.67-.8-1.37-2.11-2-3.71-2-2.17,0-4.33,1.48-4.33,4.45,0,2.62,2.11,4.22,4.33,4.22Z"/><path class="cls-4" d="M406.53,308.23c0,5.07-4.1,9.23-9.24,9.23s-9.18-4.16-9.18-9.23,4.16-9.24,9.18-9.24,9.24,4.16,9.24,9.24ZM402.42,308.23c0-2.85-2.28-5.13-5.13-5.13s-5.07,2.28-5.07,5.13,2.34,5.07,5.07,5.07,5.13-2.22,5.13-5.07Z"/><path class="cls-1" d="M106.97,101.88c-.42-1.31-1.64-2.19-3.01-2.19h-18.18l-5.54-17.24c-.42-1.31-1.64-2.2-3.01-2.2s-2.59.89-3.01,2.2l-5.54,17.24h-18.18c-1.37,0-2.59.89-3.01,2.19-.42,1.31.05,2.74,1.17,3.54l14.74,10.58-5.67,17.23c-.43,1.31.03,2.74,1.14,3.55,1.11.81,2.62.81,3.73,0l14.63-10.72,14.63,10.72c1.11.81,2.62.82,3.73,0,1.11-.81,1.58-2.24,1.15-3.55l-5.68-17.23,14.74-10.58c1.12-.8,1.59-2.23,1.17-3.54Z"/><path class="cls-1" d="M172.02,101.88c-.42-1.31-1.64-2.19-3.01-2.19h-18.18l-5.54-17.24c-.42-1.31-1.64-2.2-3.01-2.2s-2.59.89-3.01,2.2l-5.54,17.24h-18.18c-1.37,0-2.59.89-3.01,2.19-.42,1.31.05,2.74,1.17,3.54l14.74,10.58-5.67,17.23c-.43,1.31.03,2.74,1.14,3.55,1.11.81,2.62.81,3.73,0l14.63-10.72,14.63,10.72c1.11.81,2.62.82,3.73,0,1.11-.81,1.58-2.24,1.15-3.55l-5.68-17.23,14.74-10.58c1.12-.8,1.59-2.23,1.17-3.54Z"/><path class="cls-1" d="M233.75,101.88c-.42-1.31-1.64-2.19-3.01-2.19h-18.18l-5.54-17.24c-.42-1.31-1.64-2.2-3.01-2.2s-2.59.89-3.01,2.2l-5.54,17.24h-18.18c-1.37,0-2.59.89-3.01,2.19-.42,1.31.05,2.74,1.17,3.54l14.74,10.58-5.67,17.23c-.43,1.31.03,2.74,1.14,3.55,1.11.81,2.62.81,3.73,0l14.63-10.72,14.63,10.72c1.11.81,2.62.82,3.73,0,1.11-.81,1.58-2.24,1.15-3.55l-5.68-17.23,14.74-10.58c1.12-.8,1.59-2.23,1.17-3.54Z"/><path class="cls-1" d="M299,101.88c-.42-1.31-1.64-2.19-3.01-2.19h-18.18l-5.54-17.24c-.42-1.31-1.64-2.2-3.01-2.2s-2.59.89-3.01,2.2l-5.54,17.24h-18.18c-1.37,0-2.59.89-3.01,2.19-.42,1.31.05,2.74,1.17,3.54l14.74,10.58-5.67,17.23c-.43,1.31.03,2.74,1.14,3.55,1.11.81,2.62.81,3.73,0l14.63-10.72,14.63,10.72c1.11.81,2.62.82,3.73,0,1.11-.81,1.58-2.24,1.15-3.55l-5.68-17.23,14.74-10.58c1.12-.8,1.59-2.23,1.17-3.54Z"/><path class="cls-5" d="M364.25,101.88c-.42-1.31-1.64-2.19-3.01-2.19h-18.18l-5.54-17.24c-.42-1.31-1.64-2.2-3.01-2.2s-2.59.89-3.01,2.2l-5.54,17.24h-18.18c-1.37,0-2.59.89-3.01,2.19-.42,1.31.05,2.74,1.17,3.54l14.74,10.58-5.67,17.23c-.43,1.31.03,2.74,1.14,3.55,1.11.81,2.62.81,3.73,0l14.63-10.72,14.63,10.72c1.11.81,2.62.82,3.73,0,1.11-.81,1.58-2.24,1.15-3.55l-5.68-17.23,14.74-10.58c1.12-.8,1.59-2.23,1.17-3.54Z"/></svg>