<?xml version="1.0" encoding="UTF-8"?><svg id="_レイヤー_1" xmlns="http://www.w3.org/2000/svg" viewBox="0 0 751.15 731.27"><defs><style>.cls-1{fill:#f2b600;}.cls-1,.cls-2,.cls-3,.cls-4{stroke-width:0px;}.cls-2{fill:#1a1a1a;}.cls-3{fill:#fff;}.cls-4{fill:#577082;}</style></defs><rect class="cls-3" x="-2.44" y="-2.76" width="752.19" height="733.55"/><path class="cls-2" d="M84.3,390.43c-.84,1.67-1.72,3.3-2.51,4.62h9.29v24.34c0,1.94-.44,2.99-1.85,3.52-1.45.48-3.87.53-7.48.53-.13-.84-.62-2.33-1.1-3.17,2.86.13,5.5.09,6.29.04.75,0,.97-.22.97-.92v-21.48h-9.2v4.36c0,.88.18.97,1.28.97h3.83c.97,0,1.14-.31,1.28-2.9.48.44,1.67.84,2.51,1.01-.31,3.52-1.1,4.4-3.43,4.4h-4.53c-3.08,0-3.83-.7-3.83-3.43v-4.4h-5.24c-.53,5.28-2.51,8.01-8.93,9.55-.26-.66-1.01-1.76-1.58-2.29,5.54-1.14,7.13-3.17,7.57-7.26h-7.88v25.48h-3.08v-28.34h8.62c-.48-1.41-1.32-3.26-2.07-4.62h-8.41v-2.99h17.03v-4.14h3.3v4.14h17.43v2.99h-8.27ZM68.46,418.72v2.68h-2.9v-13.42h16.59v10.74h-13.69ZM78.18,395.05c.75-1.28,1.67-3.12,2.29-4.62h-13.73c.88,1.5,1.67,3.34,2.07,4.62h9.37ZM68.46,410.54v5.63h10.69v-5.63h-10.69Z"/><path class="cls-2" d="M98.57,404.33h15.53v18.75h-3.21v-1.98h-9.2v2.38h-3.12v-19.14ZM101.69,407.5v10.43h9.2v-10.43h-9.2ZM128.89,399.71h-23.94v-14.57h23.94v14.57ZM125.59,388.27h-17.47v8.32h17.47v-8.32ZM135.27,404.33v18.83h-3.21v-2.07h-9.99v2.38h-3.17v-19.14h16.37ZM132.06,417.93v-10.43h-9.99v10.43h9.99Z"/><path class="cls-2" d="M156.66,386.03c-.18.84-.4,1.72-.53,2.6-.26,1.28-.66,3.83-1.14,6.16,2.02-.18,3.83-.31,4.88-.31,3.92,0,7.08,1.54,7.08,7.44,0,5.19-.7,12.06-2.51,15.71-1.41,2.91-3.56,3.61-6.38,3.61-1.67,0-3.74-.31-5.15-.62l-.57-3.74c1.85.62,4.14.97,5.37.97,1.58,0,2.86-.35,3.79-2.24,1.41-2.9,2.07-8.58,2.07-13.29,0-3.96-1.8-4.67-4.62-4.67-1.06,0-2.77.13-4.67.31-1.58,6.25-4.58,16.06-9.15,23.37l-3.56-1.45c4.45-5.94,7.66-15.75,9.15-21.56-2.29.22-4.36.44-5.5.57-1.06.13-2.82.31-3.92.53l-.35-3.83c1.36.04,2.46.04,3.87,0,1.45-.04,3.96-.26,6.6-.48.62-3.12,1.14-6.51,1.1-9.46l4.14.4ZM171.63,391c2.73,3.52,6.51,11.44,7.96,15.49l-3.39,1.67c-1.32-4.49-4.75-12.1-7.79-15.67l3.21-1.5ZM173.43,391.7c-.88-1.76-2.38-4.45-3.56-6.12l2.33-.97c1.1,1.54,2.73,4.27,3.65,6.03l-2.42,1.06ZM178.4,389.9c-.97-1.89-2.42-4.4-3.65-6.07l2.33-.97c1.14,1.58,2.86,4.36,3.7,5.99l-2.38,1.06Z"/><path class="cls-2" d="M196.94,415.42c-2.99,2.77-7.53,5.54-11.27,7.31-.57-.62-1.76-1.76-2.51-2.2,3.87-1.54,8.1-3.87,10.78-6.25l2.99,1.14ZM220.26,414.98c-.66-.7-1.54-1.54-2.6-2.38-4.36.13-8.8.26-13.11.35v10.43h-3.17v-10.34c-6.47.18-12.45.26-17.07.35l-.26-2.77c2.86,0,6.38-.04,10.25-.09.62-.4,1.28-.75,1.89-1.19-2.2-1.63-5.5-3.56-8.23-4.93l2.11-1.85c.88.44,1.85.92,2.86,1.41,1.58-1.19,3.39-2.82,4.84-4.27h-13.86v-2.6h17.47v-2.82h-12.72v-2.51h12.72v-2.82h-15.14v-2.51h15.14v-3.26h3.21v3.26h15.75v2.51h-15.75v2.82h13.2v2.51h-13.2v2.82h17.74v2.6h-20.24c-2.16,1.94-4.67,4.05-6.87,5.54,1.36.79,2.64,1.63,3.65,2.38,3.43-2.38,6.91-5.02,9.29-7.22l2.9,1.63c-3.43,2.82-7.88,5.94-11.88,8.41,4.84-.09,10.08-.18,15.23-.26-1.54-1.1-3.17-2.11-4.66-2.99l2.24-1.72c3.78,2.07,8.41,5.19,10.69,7.57l-2.42,1.94ZM211.33,414.28c3.65,1.58,8.41,4.27,10.83,6.29l-2.55,1.94c-2.29-1.98-6.91-4.75-10.69-6.51l2.42-1.72Z"/><path class="cls-2" d="M238.62,414.85h-8.23v3.52h-2.73v-32.04h10.96v28.52ZM230.39,389.24v9.77h5.46v-9.77h-5.46ZM235.85,411.9v-10.03h-5.46v10.03h5.46ZM266.21,397.42v2.51h-25.52v-2.51h11.27v-2.99h-8.98v-2.38h8.98v-2.68h-10.03v-2.51h10.03v-3.56h3.17v3.56h10.25v2.51h-10.25v2.68h9.42v2.38h-9.42v2.99h11.09ZM263.48,420.09c0,1.58-.35,2.38-1.5,2.86-1.1.44-2.95.48-5.68.48-.13-.84-.53-1.94-.92-2.73,1.98.04,3.79.04,4.31.04.57,0,.7-.18.7-.66v-3.78h-13.55v7.13h-3.04v-20.86h19.67v17.51ZM246.85,405.08v3.26h13.55v-3.26h-13.55ZM260.4,413.97v-3.26h-13.55v3.26h13.55Z"/><path class="cls-2" d="M279.47,405.79c4.18-3.65,8.89-5.24,14.08-5.24,6.69,0,11.13,4,11.13,9.11,0,7.83-6.91,13.11-23.1,11.75l-1.06-3.61c13.73,1.67,20.46-2.29,20.46-8.23,0-3.48-3.21-5.9-7.66-5.9-5.81,0-10.39,2.11-13.47,5.76-.62.75-1.01,1.5-1.32,2.2l-3.3-.79c.88-3.96,1.94-13.11,2.2-17.69l3.74.48c-.57,2.99-1.32,9.33-1.72,12.15ZM282.15,385.72c3.74,1.19,12.98,2.99,16.85,3.34l-.84,3.43c-4.14-.57-13.6-2.51-16.94-3.43l.92-3.34Z"/><path class="cls-2" d="M325.51,385.94c-.22,1.41-.35,2.95-.44,4.36-.18,4.93-.53,15.23-.53,21.74,0,4.8,3.08,6.47,7.13,6.47,8.01,0,12.54-4.49,15.67-9.02l2.42,3.04c-2.95,4.14-8.58,9.59-18.17,9.59-6.25,0-10.56-2.64-10.56-9.73,0-6.47.44-17.47.44-22.09,0-1.58-.13-3.12-.4-4.4l4.44.04Z"/><path class="cls-2" d="M363.18,393.68c-.04,2.73,0,6.73.31,10.3.7,7.31,2.82,12.1,5.9,12.1,2.25,0,4.27-4.49,5.41-8.89l2.77,3.17c-2.6,7.39-5.28,9.9-8.27,9.9-4.09,0-8.05-4.09-9.24-15.4-.44-3.78-.48-9.06-.48-11.62,0-1.01-.04-2.82-.26-3.87l4.22.09c-.18,1.06-.31,3.08-.35,4.22ZM393.9,411.99l-3.56,1.41c-.75-7.83-3.39-16.46-7.52-21.56l3.43-1.19c3.92,5.06,7.04,13.99,7.66,21.34Z"/><path class="cls-2" d="M404.25,390.91c2.86-.26,11.09-1.06,19.1-1.76,4.75-.4,8.84-.62,11.75-.75v3.52c-2.51,0-6.29.04-8.54.7-6.2,1.98-9.95,8.62-9.95,13.77,0,8.49,7.92,11.18,15.01,11.44l-1.28,3.7c-8.05-.35-17.25-4.67-17.25-14.39,0-6.78,4.09-12.32,8.1-14.7-3.83.44-15.71,1.58-20.42,2.55l-.4-3.87c1.67-.04,3.04-.13,3.87-.22ZM432.55,403.37l-2.24,1.06c-1.01-2.11-2.29-4.4-3.61-6.21l2.24-.97c1.01,1.45,2.68,4.18,3.61,6.12ZM437.56,401.47l-2.29,1.06c-1.06-2.11-2.33-4.27-3.74-6.12l2.2-1.01c1.06,1.45,2.77,4.14,3.83,6.07Z"/><path class="cls-2" d="M467.14,394.04c0,2.46.04,5.15.09,7.13.92,1.5,1.41,3.43,1.41,5.59,0,5.9-2.86,12.45-12.98,15.49l-3.04-2.95c5.72-1.32,9.77-3.7,11.57-7.57-1.06.75-2.29,1.1-3.74,1.1-3.7,0-7.22-2.6-7.22-7.31,0-4.31,3.56-7.61,7.7-7.61,1.06,0,2.02.18,2.9.48,0-1.28,0-2.82-.04-4.31-6.6.04-13.99.35-19.45.75l-.09-3.43c4.84-.09,13.03-.35,19.5-.44,0-1.23-.04-2.25-.09-2.86-.04-.92-.18-2.2-.26-2.73h4l-.22,2.73c0,.66-.04,1.67-.04,2.82h.66c5.28,0,10.65.04,12.76.04l-.04,3.3c-2.46-.13-6.42-.22-12.81-.22h-.57ZM464.81,403.59c-.7-1.89-2.16-2.68-3.87-2.68-2.24,0-4.4,1.76-4.4,4.58s2.02,4.31,4.44,4.31c2.55,0,4.22-2.07,3.83-6.2Z"/><path class="cls-2" d="M498.25,416.04c0,3.7-2.99,6.73-6.73,6.73s-6.69-3.04-6.69-6.73,3.04-6.69,6.69-6.69,6.73,2.99,6.73,6.69ZM495.96,416.04c0-2.42-1.94-4.44-4.44-4.44s-4.44,2.02-4.44,4.44,2.02,4.49,4.44,4.49,4.44-1.98,4.44-4.49Z"/><path class="cls-2" d="M564.47,391.88c-.35.62-.75,1.67-1.01,2.38-1.1,3.87-3.34,8.76-6.42,13.07,1.67,1.06,3.17,2.07,4.27,2.86l-2.42,3.17c-1.06-.84-2.51-1.89-4.18-3.04-3.96,4.53-9.51,8.85-17.25,11.71l-3.17-2.73c7.66-2.33,13.38-6.56,17.38-10.96-3.48-2.24-7.17-4.44-9.64-5.81l2.24-2.6c2.55,1.32,6.25,3.43,9.68,5.5,2.68-3.74,4.84-8.27,5.68-11.75h-14.96c-2.82,3.92-6.73,8.23-11.66,11.57l-2.95-2.29c7.57-4.67,12.15-11.27,14.13-15.27.44-.79,1.1-2.38,1.41-3.52l3.96,1.28c-.7,1.14-1.5,2.64-1.94,3.48-.26.53-.57,1.06-.92,1.63h12.01c1.19,0,2.16-.13,2.9-.44l2.86,1.76Z"/><path class="cls-2" d="M607.12,388.36c-3.04,3.08-7.26,6.69-11.79,9.55v18.83c0,1.67.09,3.83.26,4.71h-4.31c.13-.84.26-3.04.26-4.71v-16.63c-4.71,2.6-10.78,5.15-16.55,6.86l-2.02-3.43c7.35-1.72,14.83-5.06,19.67-8.1,4.49-2.77,9.11-6.6,11.57-9.73l2.9,2.64Z"/><path class="cls-2" d="M648.15,408.78c-4.8-2.6-12.41-5.54-17.29-7.08l.04,14.52c0,1.41.09,3.74.26,5.19h-4.22c.18-1.41.26-3.56.26-5.19v-25.61c0-1.23-.09-3.21-.35-4.58h4.31c-.13,1.36-.31,3.26-.31,4.58v7.17c5.81,1.76,14.13,4.93,18.79,7.26l-1.5,3.74Z"/><path class="cls-2" d="M658.41,418.94c3.7-2.64,6.34-6.56,7.66-10.83,1.28-4.05,1.32-12.81,1.32-17.69,0-1.32-.13-2.29-.31-3.21h4.05c-.04.53-.22,1.85-.22,3.17,0,4.88-.18,14.3-1.36,18.7-1.32,4.71-4.14,9.02-7.83,12.06l-3.3-2.2ZM678.56,419.16c.18-.7.31-1.58.31-2.46v-26.36c0-1.67-.22-2.9-.26-3.26h4.05c-.04.35-.18,1.58-.18,3.26v25.39c4.05-1.85,9.46-5.85,12.81-10.83l2.11,2.99c-3.78,5.15-9.9,9.64-15.01,12.19-.66.35-1.06.66-1.5,1.01l-2.33-1.94Z"/><path class="cls-2" d="M63.13,487.63c2.11,3.3,5.9,4.75,11.05,4.93,4.8.22,14.83.09,20.07-.26-.35.75-.84,2.24-1.01,3.21-4.88.22-14.21.31-19.05.09-5.76-.22-9.73-1.76-12.41-5.24-2.24,1.94-4.58,3.83-7.08,5.68l-1.58-3.17c2.11-1.32,4.62-3.17,6.87-4.97v-11.31h-6.34v-3.08h9.5v14.13ZM61.68,466.6c-1.36-2.16-4.53-5.24-7.3-7.3l2.29-2.02c2.77,1.98,6.03,4.93,7.44,7.08l-2.42,2.24ZM70.75,489.87h-3.08v-22.62h12.54c-2.6-1.28-5.72-2.68-8.36-3.65l2.07-1.85c1.89.66,4.05,1.54,6.12,2.42,2.11-.92,4.27-2.2,6.03-3.48h-18.35v-2.6h21.47l.62-.18,2.02,1.54c-2.33,2.2-5.63,4.4-8.89,6.03,1.28.62,2.42,1.23,3.39,1.76h5.54v19.36c0,1.58-.35,2.38-1.5,2.86-1.14.44-2.99.48-5.94.48-.13-.79-.53-1.94-.92-2.68,2.07.09,3.96.04,4.49.04.57,0,.75-.18.75-.75v-4h-7.66v7.13h-2.95v-7.13h-7.39v7.3ZM70.75,469.76v3.87h7.39v-3.87h-7.39ZM78.14,480.06v-4h-7.39v4h7.39ZM88.75,469.76h-7.66v3.87h7.66v-3.87ZM88.75,480.06v-4h-7.66v4h7.66Z"/><path class="cls-2" d="M113.1,458.5c-.92,3.21-1.76,9.07-2.02,12.1,1.72-4.49,6.29-9.9,11.79-9.9,5.81,0,9.99,5.81,9.99,14.96,0,12.1-7.61,17.43-18.44,19.41l-2.07-3.17c9.46-1.45,16.85-5.24,16.85-16.19,0-6.86-2.29-11.79-6.91-11.79-5.41,0-10.43,7.88-10.96,13.6-.22,1.67-.22,3.17.09,5.32l-3.43.26c-.22-1.63-.44-4.09-.44-6.91,0-4.14.79-10.56,1.32-14.08.18-1.36.31-2.68.35-3.74l3.87.13Z"/><path class="cls-2" d="M175.53,471.48c5.46,1.45,8.71,5.5,8.71,10.3,0,6.25-4.14,11.71-14.26,13.29l-1.89-2.95c7.83-.84,12.67-4.88,12.67-10.52,0-3.3-2.16-6.29-6.25-7.39-2.42,6.16-5.94,10.96-9.64,14.08.35,1.23.7,2.42,1.06,3.52l-3.21.97c-.22-.75-.48-1.54-.7-2.42-2.38,1.45-4.97,2.38-7.31,2.38-2.95,0-5.19-1.76-5.19-5.5,0-5.59,4.88-11.35,10.87-14.08.09-2.2.31-4.4.48-6.42-.92.04-1.8.04-2.64.04-1.89,0-5.28-.18-7.04-.26l-.09-3.3c1.5.22,5.33.53,7.17.53.97,0,1.94,0,2.9-.04.13-1.28.26-2.42.35-3.34.09-.71.13-1.54.13-2.07l3.7.09c-.22.57-.4,1.36-.53,1.94-.18.92-.35,2.02-.53,3.3,5.5-.26,10.78-.84,15.27-1.85l.04,3.3c-4.58.75-10.39,1.32-15.71,1.58-.18,1.67-.31,3.52-.44,5.37,2.42-.75,5.1-1.14,7.3-1.14.53,0,1.06,0,1.58.04l.13-.4c.18-.66.4-1.8.44-2.51l3.52.88c-.26.57-.62,1.76-.88,2.42l-.04.18ZM160.26,476.45c-4.22,2.42-7.44,6.73-7.44,10.25,0,1.76.84,2.64,2.46,2.64s3.79-.75,5.99-2.29c-.62-3.12-1.01-6.6-1.01-9.86v-.75ZM170.73,473.72c-2.82,0-5.32.62-7.39,1.36v1.72c0,2.77.31,5.41.75,7.92,2.86-2.68,5.46-6.21,7.35-11h-.7Z"/><path class="cls-2" d="M221.32,460.74c-.92.7-2.24,1.85-2.99,2.46-2.99,2.6-9.24,7.61-12.45,10.25-2.64,2.29-2.68,2.95.13,5.28,3.96,3.17,12.06,9.86,16.28,14.08l-3.12,2.86c-.88-1.06-2.07-2.16-2.99-3.17-2.38-2.55-9.68-8.76-13.73-12.1-4.14-3.43-3.65-5.41.26-8.71,3.3-2.77,9.9-7.97,12.85-10.96.88-.88,1.98-2.11,2.51-2.9l3.26,2.9ZM222.95,474.52l-2.46,1.06c-.92-1.8-2.55-4.8-3.7-6.51l2.33-1.01c1.1,1.63,2.9,4.8,3.83,6.47ZM228.14,472.41l-2.38,1.06c-1.01-1.85-2.64-4.66-3.87-6.34l2.38-1.06c1.14,1.54,2.95,4.58,3.87,6.34Z"/><path class="cls-2" d="M249.59,478.79c4.18-3.65,8.89-5.24,14.08-5.24,6.69,0,11.13,4,11.13,9.11,0,7.83-6.91,13.11-23.1,11.75l-1.06-3.61c13.73,1.67,20.46-2.29,20.46-8.23,0-3.48-3.21-5.9-7.66-5.9-5.81,0-10.39,2.11-13.47,5.76-.62.75-1.01,1.5-1.32,2.2l-3.3-.79c.88-3.96,1.94-13.11,2.2-17.69l3.74.48c-.57,2.99-1.32,9.33-1.72,12.15ZM252.28,458.72c3.74,1.19,12.98,2.99,16.85,3.34l-.84,3.43c-4.14-.57-13.6-2.51-16.94-3.43l.92-3.34Z"/><path class="cls-2" d="M306.56,487.15c.13-1.67.18-4.49.18-6.78-4.05,2.2-6.86,4.44-6.86,7.3,0,3.43,3.39,3.92,7.88,3.92,3.39,0,8.05-.4,11.88-1.06l-.09,3.56c-3.3.4-8.14.7-11.93.7-6.25,0-11.27-1.32-11.27-6.64s5.19-8.41,10.25-11.05c-.44-1.8-2.02-2.68-3.92-2.68-2.86,0-5.5,1.41-7.53,3.21-1.23,1.19-2.46,2.82-3.96,4.58l-2.99-2.25c5.54-5.37,8.41-9.86,10.03-13.29h-1.8c-1.85,0-4.8-.09-7.17-.26v-3.3c2.33.26,5.37.44,7.35.44.92,0,1.85,0,2.86-.04.62-1.94,1.01-3.92,1.1-5.41l3.61.31c-.31,1.23-.7,3.04-1.32,5.02,4.44-.22,9.2-.62,13.33-1.32l-.04,3.26c-4.31.66-9.68,1.06-14.43,1.23-.97,2.25-2.33,4.67-3.92,6.69,1.58-1.01,4.09-1.63,6.03-1.63,2.82,0,5.11,1.36,5.76,3.96,2.99-1.41,5.63-2.46,7.92-3.52,1.32-.57,2.38-1.1,3.61-1.72l1.41,3.3c-1.1.31-2.68.92-3.83,1.36-2.46.97-5.59,2.25-8.89,3.79.04,2.51.09,6.21.13,8.32h-3.39Z"/><path class="cls-2" d="M349.67,458.89c-.18.79-.35,1.72-.53,2.55-.22,1.28-.62,3.83-1.1,6.16,2.02-.13,3.83-.26,4.88-.26,3.87,0,7.08,1.5,7.08,7.39,0,5.19-.75,12.06-2.55,15.71-1.36,2.9-3.52,3.65-6.38,3.65-1.63,0-3.74-.35-5.1-.66l-.57-3.7c1.8.57,4.14.97,5.33.97,1.63,0,2.9-.35,3.83-2.25,1.36-2.95,2.02-8.58,2.02-13.33,0-3.96-1.8-4.66-4.58-4.66-1.06,0-2.77.13-4.67.31-1.58,6.25-4.53,16.02-9.15,23.41l-3.61-1.45c4.44-5.94,7.7-15.8,9.15-21.61-2.24.22-4.36.44-5.5.57-1.01.13-2.77.35-3.92.53l-.35-3.83c1.36.09,2.51.04,3.87,0,1.45-.04,4-.26,6.64-.48.62-3.12,1.1-6.51,1.1-9.46l4.09.44ZM364.68,463.52c2.73,3.52,6.47,11.53,7.96,15.58l-3.43,1.63c-1.28-4.49-4.71-12.15-7.79-15.8l3.26-1.41Z"/><path class="cls-2" d="M386.39,466.68c-.04,2.73,0,6.73.31,10.3.7,7.31,2.82,12.1,5.9,12.1,2.25,0,4.27-4.49,5.41-8.89l2.77,3.17c-2.6,7.39-5.28,9.9-8.27,9.9-4.09,0-8.05-4.09-9.24-15.4-.44-3.78-.48-9.06-.48-11.62,0-1.01-.04-2.82-.26-3.87l4.22.09c-.18,1.06-.31,3.08-.35,4.22ZM417.11,484.99l-3.56,1.41c-.75-7.83-3.39-16.46-7.52-21.56l3.43-1.19c3.92,5.06,7.04,13.99,7.66,21.34Z"/><path class="cls-2" d="M431.04,463.65c2.86-.26,11.09-1.1,19.1-1.76,4.75-.4,8.85-.62,11.75-.75v3.52c-2.46,0-6.29.04-8.54.7-6.21,1.98-9.95,8.58-9.95,13.73,0,8.54,7.92,11.22,15.01,11.49l-1.28,3.65c-8.05-.31-17.25-4.62-17.25-14.35,0-6.82,4.09-12.32,8.1-14.7-3.83.44-15.71,1.58-20.42,2.55l-.4-3.87c1.67-.04,3.04-.13,3.87-.22Z"/><path class="cls-2" d="M484.4,469.46h8.41v2.99h-8.41v3.21c1.98,1.54,7,5.85,8.27,7l-1.89,2.68c-1.32-1.45-4.14-4.27-6.38-6.34v17.34h-3.17v-18.97c-2.29,5.02-5.37,9.99-8.36,12.98-.4-.88-1.23-2.24-1.8-3.04,3.52-3.34,7.35-9.42,9.5-14.87h-8.54v-2.99h9.2v-7.44c-2.86.53-5.76.97-8.49,1.36-.13-.79-.62-1.89-1.01-2.6,6.42-.97,14.08-2.46,18.17-4.27l2.42,2.51c-2.2.88-4.97,1.67-7.92,2.33v8.1ZM498.92,485.56h-3.17v-24.07h3.17v24.07ZM509.75,457.13v34.94c0,2.24-.62,3.26-1.98,3.83-1.45.48-3.92.57-7.92.57-.18-.88-.66-2.38-1.19-3.3,3.08.09,5.85.09,6.69.04.79,0,1.14-.26,1.14-1.1v-34.99h3.26Z"/><path class="cls-2" d="M555.05,492.03c0,2.11-.57,3.08-1.98,3.65-1.5.53-4.05.57-8.18.53-.13-.88-.66-2.29-1.1-3.17,3.08.13,6.07.09,6.87.09.88-.04,1.19-.31,1.19-1.14v-8.93h-11.84v12.98h-3.26v-12.98h-11c-.66,4.88-2.16,9.9-5.5,13.64-.48-.66-1.8-1.76-2.51-2.16,4.84-5.46,5.28-13.2,5.28-19.32v-15.84h32.04v32.65ZM536.75,479.93v-7.3h-10.52v2.6c0,1.45-.04,3.08-.18,4.71h10.69ZM526.23,462.5v7.04h10.52v-7.04h-10.52ZM551.84,462.5h-11.84v7.04h11.84v-7.04ZM551.84,479.93v-7.3h-11.84v7.3h11.84Z"/><path class="cls-2" d="M570.13,463.91c2.86-.26,11.09-1.06,19.1-1.76,4.75-.4,8.84-.62,11.75-.75v3.52c-2.51,0-6.29.04-8.54.7-6.2,1.98-9.95,8.62-9.95,13.77,0,8.49,7.92,11.18,15.01,11.44l-1.28,3.7c-8.05-.35-17.25-4.67-17.25-14.39,0-6.78,4.09-12.32,8.1-14.7-3.83.44-15.71,1.58-20.42,2.55l-.4-3.87c1.67-.04,3.04-.13,3.87-.22ZM598.42,476.37l-2.24,1.06c-1.01-2.11-2.29-4.4-3.61-6.21l2.24-.97c1.01,1.45,2.68,4.18,3.61,6.12ZM603.44,474.47l-2.29,1.06c-1.06-2.11-2.33-4.27-3.74-6.12l2.2-1.01c1.06,1.45,2.77,4.14,3.83,6.07Z"/><path class="cls-2" d="M646.77,472.54c-1.94.66-4.45,1.28-7.39,1.85,1.28,2.77,2.68,5.72,3.92,8.01l-1.72,2.16c-2.2-.4-5.72-.88-8.49-1.23l.31-2.68c2.11.26,4.18.48,5.54.62-.84-1.72-1.85-4-2.86-6.29-5.63.75-12.76.84-19.49.4l-.13-3.21c6.65.62,13.11.57,18.31-.09l-1.54-3.56c-.35-.75-.66-1.54-.97-2.24-4.4.4-9.9.4-15.31-.09l-.22-3.21c5.19.57,10.08.66,14.26.35-.22-.48-.4-.92-.57-1.32-.66-1.36-1.06-2.16-1.63-3.08l3.96-.84c.4,1.5.97,3.17,1.63,4.84,3.04-.48,6.12-1.14,8.67-2.07l.62,3.12c-2.24.7-5.1,1.36-8.1,1.85l.79,1.8c.35.92.97,2.29,1.72,3.92,3.43-.62,6.07-1.41,8.05-2.16l.66,3.17ZM621.73,481.6c-.53,1.36-1.01,3.3-1.01,4.44,0,3.34,2.64,5.46,8.84,5.46,3.52,0,7.66-.31,10.74-1.01l-.09,3.56c-2.73.48-6.95.84-10.52.84-7.79,0-12.37-2.68-12.37-8.14,0-1.85.53-3.87,1.01-5.46l3.39.31Z"/><path class="cls-2" d="M691.46,492.56c-2.55-2.33-6.16-4.97-10.52-6.56.04,1.1.09,2.07.09,2.73,0,2.99-2.02,6.12-7.7,6.12-6.25,0-9.73-2.24-9.73-6.47,0-3.96,3.83-6.64,10.12-6.64,1.28,0,2.46.09,3.65.26-.09-1.94-.18-4-.22-5.81h-2.42c-2.99,0-7.83-.26-10.96-.62v-3.34c2.95.53,8.1.84,10.96.84h2.33v-6.25h-2.16c-3.04,0-7.66-.35-10.25-.66v-3.26c2.64.48,7.3.84,10.21.84h2.25v-2.86c0-.7-.04-1.98-.13-2.6h3.74c-.13.79-.18,1.63-.22,2.9-.04.53-.04,1.36-.04,2.42,3.79-.13,7.35-.48,11.18-1.06l.04,3.21c-3.43.35-7.17.7-11.27.92v6.25c4.18-.18,8.19-.57,12.1-1.14l.04,3.3c-4.09.53-7.97.84-12.1,1.01.09,2.24.22,4.53.31,6.6,5.76,1.58,10.21,4.8,12.67,6.78l-1.98,3.08ZM677.51,485.04c-1.36-.26-2.77-.4-4.22-.4-4.14,0-6.38,1.58-6.38,3.56s1.72,3.52,6.03,3.52c2.51,0,4.62-.75,4.62-3.74,0-.75-.04-1.76-.04-2.95Z"/><path class="cls-2" d="M78.93,540.04c0,2.46.04,5.15.09,7.13.92,1.5,1.41,3.43,1.41,5.59,0,5.9-2.86,12.45-12.98,15.49l-3.04-2.95c5.72-1.32,9.77-3.7,11.57-7.57-1.06.75-2.29,1.1-3.74,1.1-3.7,0-7.22-2.6-7.22-7.31,0-4.31,3.56-7.61,7.7-7.61,1.06,0,2.02.18,2.9.48,0-1.28,0-2.82-.04-4.31-6.6.04-13.99.35-19.45.75l-.09-3.43c4.84-.09,13.03-.35,19.5-.44,0-1.23-.04-2.25-.09-2.86-.04-.92-.18-2.2-.26-2.73h4l-.22,2.73c0,.66-.04,1.67-.04,2.82h.66c5.28,0,10.65.04,12.76.04l-.04,3.3c-2.46-.13-6.42-.22-12.81-.22h-.57ZM76.6,549.59c-.7-1.89-2.16-2.68-3.87-2.68-2.24,0-4.4,1.76-4.4,4.58s2.02,4.31,4.44,4.31c2.55,0,4.22-2.07,3.83-6.2Z"/><path class="cls-2" d="M110.04,562.04c0,3.7-2.99,6.73-6.73,6.73s-6.69-3.04-6.69-6.73,3.04-6.69,6.69-6.69,6.73,2.99,6.73,6.69ZM107.75,562.04c0-2.42-1.94-4.44-4.44-4.44s-4.44,2.02-4.44,4.44,2.02,4.49,4.44,4.49,4.44-1.98,4.44-4.49Z"/><path class="cls-2" d="M163.81,531.32c.31,1.36.62,3.43.88,5.85,8.1,0,12.94,5.15,12.94,11.66,0,7.13-4.4,12.67-13.38,12.67-.48,0-.97-.04-1.45-.09-1.36,2.86-3.34,5.33-6.25,7.22l-3.26-1.94c2.77-1.5,4.75-3.61,6.07-6.12-3.04-1.19-5.59-3.48-7.17-6.73l2.07-2.46c1.5,3.08,3.52,5.24,6.38,6.21,1.01-3.04,1.36-6.56,1.36-10.34,0-2.38-.13-4.71-.26-6.78-7.53,1.36-12.41,7.92-13.69,13.47-.22.79-.35,1.76-.31,2.68.04.97.31,2.95.57,4.09l-3.08.48c-.79-2.73-1.41-7.13-1.41-11.27,0-4.88.88-10.96,1.14-13.33.04-.79.09-1.45.04-2.02l3.79.31c-.18.62-.4,1.32-.57,2.07-.57,2.82-1.45,9.24-1.19,12.67,2.46-6.42,8.05-10.96,14.39-12.15-.18-1.41-.4-2.6-.57-3.39-.18-.92-.44-2.02-.7-2.68l3.65-.09ZM164.25,558.17c6.07,0,9.99-3.48,9.99-9.2,0-4.67-2.95-8.58-9.24-8.76.18,2.24.31,4.67.31,7.04,0,3.92-.35,7.61-1.28,10.91h.22Z"/><path class="cls-2" d="M192.29,547.38c3.12-.97,10.25-3.56,15.4-3.56,6.16,0,10.65,3.7,10.65,9.64,0,8.41-8.1,12.72-19.85,13.42l-1.41-3.39c9.42-.31,17.69-2.95,17.69-10.08,0-3.7-2.9-6.38-7.35-6.38-5.41,0-14.92,3.96-17.73,5.06l-1.45-3.65c1.28-.22,2.73-.62,4.05-1.06Z"/><path class="cls-2" d="M250.61,540.17c-2.86.66-5.99,1.14-9.02,1.5-.4,1.89-.88,3.92-1.36,5.77-1.58,6.25-4.53,15.23-6.82,19.98l-3.87-1.28c2.6-4.49,5.68-13.33,7.3-19.5.4-1.45.75-3.04,1.1-4.62-1.41.09-2.73.13-3.96.13-1.94,0-3.52-.09-5.06-.18l-.13-3.43c2.07.26,3.65.31,5.24.31,1.45,0,2.99-.09,4.67-.18.31-1.58.53-2.95.66-3.83.13-1.23.22-2.68.13-3.61l4.27.35c-.31.97-.62,2.6-.79,3.48l-.66,3.21c2.82-.35,5.68-.88,8.32-1.58v3.48ZM248.89,555.44c-.4,1.45-.62,2.82-.62,3.92,0,2.07.97,4.05,7.17,4.05,2.82,0,5.85-.35,8.49-.84l-.13,3.56c-2.33.31-5.24.57-8.41.57-6.86,0-10.47-2.11-10.47-6.42,0-1.67.26-3.3.66-5.15l3.3.31ZM247.79,544.83c2.29-.22,5.15-.35,7.96-.35,2.51,0,5.19.09,7.53.35l-.09,3.34c-2.2-.26-4.8-.53-7.35-.53-2.73,0-5.37.18-8.05.48v-3.3Z"/><path class="cls-2" d="M282.31,531.5c-.92,3.21-1.76,9.07-2.02,12.1,1.72-4.49,6.29-9.9,11.79-9.9,5.81,0,9.99,5.81,9.99,14.96,0,12.1-7.61,17.43-18.44,19.41l-2.07-3.17c9.46-1.45,16.85-5.24,16.85-16.19,0-6.86-2.29-11.79-6.91-11.79-5.41,0-10.43,7.88-10.96,13.6-.22,1.67-.22,3.17.09,5.32l-3.43.26c-.22-1.63-.44-4.09-.44-6.91,0-4.14.79-10.56,1.32-14.08.18-1.36.31-2.68.35-3.74l3.87.13Z"/><path class="cls-2" d="M325.49,531.94c-.22,1.41-.35,2.95-.44,4.36-.18,4.93-.53,15.23-.53,21.74,0,4.8,3.08,6.47,7.13,6.47,8.01,0,12.54-4.49,15.67-9.02l2.42,3.04c-2.95,4.14-8.58,9.59-18.17,9.59-6.25,0-10.56-2.64-10.56-9.73,0-6.47.44-17.47.44-22.09,0-1.58-.13-3.12-.4-4.4l4.44.04Z"/><path class="cls-2" d="M380.02,540.17c-2.86.66-5.99,1.14-9.02,1.5-.4,1.89-.88,3.92-1.36,5.77-1.58,6.25-4.53,15.23-6.82,19.98l-3.87-1.28c2.6-4.49,5.68-13.33,7.3-19.5.4-1.45.75-3.04,1.1-4.62-1.41.09-2.73.13-3.96.13-1.94,0-3.52-.09-5.06-.18l-.13-3.43c2.07.26,3.65.31,5.24.31,1.45,0,2.99-.09,4.67-.18.31-1.58.53-2.95.66-3.83.13-1.23.22-2.68.13-3.61l4.27.35c-.31.97-.62,2.6-.79,3.48l-.66,3.21c2.82-.35,5.68-.88,8.32-1.58v3.48ZM378.31,555.44c-.4,1.45-.62,2.82-.62,3.92,0,2.07.97,4.05,7.17,4.05,2.82,0,5.85-.35,8.49-.84l-.13,3.56c-2.33.31-5.24.57-8.41.57-6.86,0-10.47-2.11-10.47-6.42,0-1.67.26-3.3.66-5.15l3.3.31ZM377.21,544.83c2.29-.22,5.15-.35,7.96-.35,2.51,0,5.19.09,7.53.35l-.09,3.34c-2.2-.26-4.8-.53-7.35-.53-2.73,0-5.37.18-8.05.48v-3.3Z"/><path class="cls-2" d="M412.47,530.44c-1.19,3.17-2.77,6.38-4.49,9.42v29.53h-3.26v-24.47c-1.36,1.94-2.86,3.7-4.36,5.24-.31-.75-1.28-2.55-1.89-3.26,4.36-4.22,8.41-10.78,10.87-17.47l3.12,1.01ZM425.32,539.73v6.29h12.54v3.04h-12.54v6.64h13.16v3.08h-13.16v10.65h-3.3v-29.7h-3.04c-1.89,3.52-4.05,6.69-6.25,9.15-.53-.57-1.8-1.67-2.55-2.2,3.96-4.09,7.53-10.43,9.68-16.85l3.12.84c-.7,2.02-1.54,4-2.42,5.94h18.31v3.12h-13.55Z"/><path class="cls-2" d="M454.86,531.5c-.92,3.21-1.76,9.07-2.02,12.1,1.72-4.49,6.29-9.9,11.79-9.9,5.81,0,9.99,5.81,9.99,14.96,0,12.1-7.61,17.43-18.44,19.41l-2.07-3.17c9.46-1.45,16.85-5.24,16.85-16.19,0-6.86-2.29-11.79-6.91-11.79-5.41,0-10.43,7.88-10.96,13.6-.22,1.67-.22,3.17.09,5.32l-3.43.26c-.22-1.63-.44-4.09-.44-6.91,0-4.14.79-10.56,1.32-14.08.18-1.36.31-2.68.35-3.74l3.87.13Z"/><path class="cls-2" d="M490.51,536.91c2.86-.26,11.09-1.06,19.1-1.76,4.75-.4,8.84-.62,11.75-.75v3.52c-2.51,0-6.29.04-8.54.7-6.2,1.98-9.95,8.62-9.95,13.77,0,8.49,7.92,11.18,15.01,11.44l-1.28,3.7c-8.05-.35-17.25-4.67-17.25-14.39,0-6.78,4.09-12.32,8.1-14.7-3.83.44-15.71,1.58-20.42,2.55l-.4-3.87c1.67-.04,3.04-.13,3.87-.22ZM518.81,549.37l-2.24,1.06c-1.01-2.11-2.29-4.4-3.61-6.21l2.24-.97c1.01,1.45,2.68,4.18,3.61,6.12ZM523.83,547.47l-2.29,1.06c-1.06-2.11-2.33-4.27-3.74-6.12l2.2-1.01c1.06,1.45,2.77,4.14,3.83,6.07Z"/><path class="cls-2" d="M538.12,568.55c-2.82-3.52-6.6-7.26-9.73-9.81l2.86-2.51c3.17,2.55,7.13,6.56,9.86,9.77l-2.99,2.55Z"/><path class="cls-2" d="M610.86,565.38v2.68h-39.17v-2.68h17.78v-3.78h-14.48v-2.64h14.48v-3.04h-13.16v-13.55h13.16v-2.64h-17.56v-2.68h17.56v-3.17c-4.58.31-9.24.48-13.55.57-.04-.79-.4-1.89-.71-2.6,10.17-.26,22.49-1.06,29.4-2.33l1.76,2.55c-3.74.7-8.54,1.19-13.69,1.58v3.39h17.91v2.68h-17.91v2.64h13.77v13.55h-13.77v3.04h15.4v2.64h-15.4v3.78h18.17ZM579.53,548.04h9.95v-3.3h-9.95v3.3ZM589.47,553.59v-3.34h-9.95v3.34h9.95ZM592.68,544.74v3.3h10.47v-3.3h-10.47ZM603.16,550.25h-10.47v3.34h10.47v-3.34Z"/><path class="cls-2" d="M621.47,534.58v9.86c0,7.26-.57,17.82-4.67,24.91-.62-.48-1.98-1.32-2.77-1.63,3.92-6.82,4.22-16.41,4.22-23.32v-12.81h35.47v2.99h-32.26ZM654.26,561.56h-14.88v4.62c0,1.67-.4,2.46-1.8,2.86-1.45.44-3.74.44-7.31.44-.22-.79-.7-1.94-1.14-2.68,2.77.09,5.41.09,6.12.04.71-.04.92-.18.92-.75v-4.53h-14.39v-2.64h14.39v-2.46h2.38c1.76-.66,3.56-1.5,5.15-2.33h-18.35v-2.38h21.96l.7-.13,1.94,1.67c-2.86,2.07-6.91,4-10.56,5.24v.4h14.88v2.64ZM625.48,549.28v-12.37h23.94v12.37h-23.94ZM628.56,541.97h17.65v-2.86h-17.65v2.86ZM628.56,547.03h17.65v-2.95h-17.65v2.95Z"/><path class="cls-2" d="M678.39,553.85h-11.79v-9.2h11.97v9.06c2.07-1.36,3.96-3.08,5.63-5.06-1.72-3.34-3.12-7.57-3.96-12.23h-15.97v3.87c0,5.06-.79,12.23-4.8,17.16-.4-.62-1.72-1.67-2.38-2.02,3.7-4.53,4.18-10.69,4.18-15.18v-6.56h18.57c-.18-1.45-.31-2.95-.4-4.44h3.12c.04,1.5.18,2.99.35,4.44h8.01c-1.41-1.01-3.65-2.11-5.59-2.77l1.72-1.94c2.16.7,4.84,1.94,6.25,3.08l-1.36,1.63h4.84v2.73h-13.42c.66,3.61,1.67,6.82,2.86,9.5,1.5-2.24,2.68-4.71,3.56-7.39l3.04.7c-1.23,3.61-2.95,6.87-5.02,9.68,1.85,2.99,3.87,4.71,5.68,4.71,1.1-.04,1.54-1.58,1.76-5.54.62.57,1.72,1.19,2.55,1.45-.53,5.5-1.72,7.04-4.49,7.04s-5.28-1.94-7.48-5.15c-1.58,1.85-3.34,3.43-5.19,4.75-.48-.57-1.67-1.72-2.38-2.24l.13-.09ZM657.4,566.75c2.95-2.02,4.84-5.37,5.85-8.58l2.82.97c-1.1,3.48-2.82,7.17-5.98,9.42l-2.68-1.8ZM679.27,541.66h-13.42v-2.29h13.42v2.29ZM682.74,565.96c1.94,0,2.24-.53,2.38-4.62.7.53,2.07,1.01,2.99,1.19-.44,5.15-1.41,6.38-5.1,6.38h-8.54c-4.53,0-5.72-.88-5.72-4.22v-6.82h3.26v6.78c0,1.1.35,1.32,2.73,1.32h8.01ZM675.79,546.95h-6.47v4.58h6.47v-4.58ZM674.25,554.6c2.73,1.28,5.98,3.39,7.52,5.06l-2.24,2.07c-1.5-1.67-4.67-3.92-7.44-5.33l2.16-1.8ZM689.87,557.68c3.17,2.51,6.42,6.07,7.79,8.8l-2.9,1.58c-1.19-2.68-4.4-6.34-7.57-8.93l2.68-1.45Z"/><path class="cls-2" d="M86.46,612.9c-.97.62-2.07,1.19-3.34,1.85-2.9,1.5-8.98,4.36-13.25,7.17-4.05,2.64-6.47,5.5-6.47,8.8,0,3.61,3.43,5.85,10.3,5.85,4.75,0,10.56-.62,13.95-1.5v3.96c-3.3.57-8.32,1.06-13.77,1.06-8.19,0-14.13-2.46-14.13-8.98,0-4.49,2.86-8.05,7.52-11.31-2.02-3.56-4.31-8.67-6.34-13.42l3.48-1.41c1.76,4.75,3.96,9.46,5.85,12.89,4.09-2.46,8.8-4.75,11.18-6.12,1.28-.7,2.2-1.28,3.12-2.07l1.89,3.21Z"/><path class="cls-2" d="M128.21,622.1c-1.36,4.93-3.56,8.71-6.51,11.62,4.84,1.98,9.29,4.14,12.37,6.07l-2.38,2.73c-3.04-2.07-7.66-4.36-12.76-6.51-4.66,3.34-10.83,5.28-18.53,6.51-.31-.75-1.32-2.24-1.98-2.95,7.04-.88,12.67-2.38,16.99-4.97-2.9-1.14-5.85-2.2-8.62-3.04-.4.66-.75,1.28-1.1,1.85l-3.3-.88c1.67-2.77,3.74-6.56,5.76-10.43h-10.74v-3.08h12.37c1.23-2.51,2.46-4.93,3.48-7.09l3.34.75c-.92,1.98-2.02,4.14-3.12,6.34h22.71v3.08h-7.97ZM101.99,616.29h-3.3v-9.37h16.28v-4.66h3.39v4.66h16.72v9.37h-3.39v-6.34h-29.7v6.34ZM111.89,622.1c-1.23,2.38-2.51,4.75-3.7,6.87,3.26.97,6.73,2.16,10.17,3.43,2.91-2.55,4.93-5.9,6.12-10.3h-12.59Z"/><path class="cls-2" d="M147.22,618.62c-.7,5.9-2.07,12.81-5.19,17.03l-2.95-1.8c2.95-3.83,4.4-10.21,4.97-15.84l3.17.62ZM154.7,614.44v22c0,2.02.48,2.42,2.9,2.42h8.1c2.64,0,3.04-1.58,3.39-9.2.75.66,2.11,1.28,3.04,1.5-.44,8.27-1.5,10.69-6.25,10.69h-8.54c-4.67,0-5.94-1.19-5.94-5.46v-21.96h3.3ZM153.78,602.47c5.24,1.76,11.57,4.97,15.05,7.26l-2.07,2.86c-3.43-2.51-9.77-5.76-15.05-7.61l2.07-2.51ZM172.43,616.56c3.92,4.97,7.22,11.62,8.27,16.24l-3.21,1.54c-1.01-4.58-4.22-11.4-7.92-16.33l2.86-1.45Z"/><path class="cls-2" d="M203.89,626.85h-11.79v-9.2h11.97v9.06c2.07-1.36,3.96-3.08,5.63-5.06-1.72-3.34-3.12-7.57-3.96-12.23h-15.97v3.87c0,5.06-.79,12.23-4.8,17.16-.4-.62-1.72-1.67-2.38-2.02,3.7-4.53,4.18-10.69,4.18-15.18v-6.56h18.57c-.18-1.45-.31-2.95-.4-4.44h3.12c.04,1.5.18,2.99.35,4.44h8.01c-1.41-1.01-3.65-2.11-5.59-2.77l1.72-1.94c2.16.7,4.84,1.94,6.25,3.08l-1.36,1.63h4.84v2.73h-13.42c.66,3.61,1.67,6.82,2.86,9.5,1.5-2.24,2.68-4.71,3.56-7.39l3.04.7c-1.23,3.61-2.95,6.87-5.02,9.68,1.85,2.99,3.87,4.71,5.68,4.71,1.1-.04,1.54-1.58,1.76-5.54.62.57,1.72,1.19,2.55,1.45-.53,5.5-1.72,7.04-4.49,7.04s-5.28-1.94-7.48-5.15c-1.58,1.85-3.34,3.43-5.19,4.75-.48-.57-1.67-1.72-2.38-2.24l.13-.09ZM182.9,639.75c2.95-2.02,4.84-5.37,5.85-8.58l2.82.97c-1.1,3.48-2.82,7.17-5.98,9.42l-2.68-1.8ZM204.77,614.66h-13.42v-2.29h13.42v2.29ZM208.25,638.96c1.94,0,2.24-.53,2.38-4.62.7.53,2.07,1.01,2.99,1.19-.44,5.15-1.41,6.38-5.1,6.38h-8.54c-4.53,0-5.72-.88-5.72-4.22v-6.82h3.26v6.78c0,1.1.35,1.32,2.73,1.32h8.01ZM201.3,619.95h-6.47v4.58h6.47v-4.58ZM199.76,627.6c2.73,1.28,5.98,3.39,7.52,5.06l-2.24,2.07c-1.5-1.67-4.67-3.92-7.44-5.33l2.16-1.8ZM215.38,630.68c3.17,2.51,6.42,6.07,7.79,8.8l-2.9,1.58c-1.19-2.68-4.4-6.34-7.57-8.93l2.68-1.45Z"/><path class="cls-2" d="M242.88,605.03c-.18.84-.4,1.72-.53,2.6-.26,1.28-.66,3.83-1.14,6.16,2.02-.18,3.83-.31,4.88-.31,3.92,0,7.08,1.54,7.08,7.44,0,5.19-.7,12.06-2.51,15.71-1.41,2.91-3.56,3.61-6.38,3.61-1.67,0-3.74-.31-5.15-.62l-.57-3.74c1.85.62,4.14.97,5.37.97,1.58,0,2.86-.35,3.79-2.24,1.41-2.9,2.07-8.58,2.07-13.29,0-3.96-1.8-4.67-4.62-4.67-1.06,0-2.77.13-4.67.31-1.58,6.25-4.58,16.06-9.15,23.37l-3.56-1.45c4.45-5.94,7.66-15.75,9.15-21.56-2.29.22-4.36.44-5.5.57-1.06.13-2.82.31-3.92.53l-.35-3.83c1.36.04,2.46.04,3.87,0,1.45-.04,3.96-.26,6.6-.48.62-3.12,1.14-6.51,1.1-9.46l4.14.4ZM257.84,610c2.73,3.52,6.51,11.44,7.96,15.49l-3.39,1.67c-1.32-4.49-4.75-12.1-7.79-15.67l3.21-1.5ZM259.64,610.7c-.88-1.76-2.38-4.45-3.56-6.12l2.33-.97c1.1,1.54,2.73,4.27,3.65,6.03l-2.42,1.06ZM264.62,608.9c-.97-1.89-2.42-4.4-3.65-6.07l2.33-.97c1.14,1.58,2.86,4.36,3.7,5.99l-2.38,1.06Z"/><path class="cls-2" d="M298.23,617.48c5.46,1.45,8.71,5.5,8.71,10.3,0,6.25-4.14,11.71-14.26,13.29l-1.89-2.95c7.83-.84,12.67-4.88,12.67-10.52,0-3.3-2.16-6.29-6.25-7.39-2.42,6.16-5.94,10.96-9.64,14.08.35,1.23.7,2.42,1.06,3.52l-3.21.97c-.22-.75-.48-1.54-.7-2.42-2.38,1.45-4.97,2.38-7.31,2.38-2.95,0-5.19-1.76-5.19-5.5,0-5.59,4.88-11.35,10.87-14.08.09-2.2.31-4.4.48-6.42-.92.04-1.8.04-2.64.04-1.89,0-5.28-.18-7.04-.26l-.09-3.3c1.5.22,5.33.53,7.17.53.97,0,1.94,0,2.9-.04.13-1.28.26-2.42.35-3.34.09-.71.13-1.54.13-2.07l3.7.09c-.22.57-.4,1.36-.53,1.94-.18.92-.35,2.02-.53,3.3,5.5-.26,10.78-.84,15.27-1.85l.04,3.3c-4.58.75-10.39,1.32-15.71,1.58-.18,1.67-.31,3.52-.44,5.37,2.42-.75,5.1-1.14,7.3-1.14.53,0,1.06,0,1.58.04l.13-.4c.18-.66.4-1.8.44-2.51l3.52.88c-.26.57-.62,1.76-.88,2.42l-.04.18ZM282.96,622.45c-4.22,2.42-7.44,6.73-7.44,10.25,0,1.76.84,2.64,2.46,2.64s3.79-.75,5.99-2.29c-.62-3.12-1.01-6.6-1.01-9.86v-.75ZM293.43,619.72c-2.82,0-5.32.62-7.39,1.36v1.72c0,2.77.31,5.41.75,7.92,2.86-2.68,5.46-6.21,7.35-11h-.7Z"/><path class="cls-2" d="M325.37,604.5c-.92,3.21-1.76,9.07-2.02,12.1,1.72-4.49,6.29-9.9,11.79-9.9,5.81,0,9.99,5.81,9.99,14.96,0,12.1-7.61,17.43-18.44,19.41l-2.07-3.17c9.46-1.45,16.85-5.24,16.85-16.19,0-6.86-2.29-11.79-6.91-11.79-5.41,0-10.43,7.88-10.96,13.6-.22,1.67-.22,3.17.09,5.32l-3.43.26c-.22-1.63-.44-4.09-.44-6.91,0-4.14.79-10.56,1.32-14.08.18-1.36.31-2.68.35-3.74l3.87.13Z"/><path class="cls-2" d="M389.44,638.56c-2.55-2.33-6.16-4.97-10.52-6.56.04,1.1.09,2.07.09,2.73,0,2.99-2.02,6.12-7.7,6.12-6.25,0-9.72-2.24-9.72-6.47,0-3.96,3.83-6.64,10.12-6.64,1.28,0,2.46.09,3.65.26-.09-1.94-.18-4-.22-5.81h-2.42c-2.99,0-7.83-.26-10.96-.62v-3.34c2.95.53,8.1.84,10.96.84h2.33v-6.25h-2.16c-3.04,0-7.66-.35-10.25-.66v-3.26c2.64.48,7.3.84,10.21.84h2.24v-2.86c0-.7-.04-1.98-.13-2.6h3.74c-.13.79-.18,1.63-.22,2.9-.04.53-.04,1.36-.04,2.42,3.79-.13,7.35-.48,11.18-1.06l.04,3.21c-3.43.35-7.17.7-11.27.92v6.25c4.18-.18,8.19-.57,12.1-1.14l.04,3.3c-4.09.53-7.97.84-12.1,1.01.09,2.24.22,4.53.31,6.6,5.76,1.58,10.21,4.8,12.67,6.78l-1.98,3.08ZM375.49,631.04c-1.36-.26-2.77-.4-4.22-.4-4.14,0-6.38,1.58-6.38,3.56s1.72,3.52,6.03,3.52c2.51,0,4.62-.75,4.62-3.74,0-.75-.04-1.76-.04-2.95Z"/><path class="cls-2" d="M423.89,613.04c0,2.46.04,5.15.09,7.13.92,1.5,1.41,3.43,1.41,5.59,0,5.9-2.86,12.45-12.98,15.49l-3.04-2.95c5.72-1.32,9.77-3.7,11.57-7.57-1.06.75-2.29,1.1-3.74,1.1-3.7,0-7.22-2.6-7.22-7.31,0-4.31,3.56-7.61,7.7-7.61,1.06,0,2.02.18,2.9.48,0-1.28,0-2.82-.04-4.31-6.6.04-13.99.35-19.45.75l-.09-3.43c4.84-.09,13.03-.35,19.5-.44,0-1.23-.04-2.25-.09-2.86-.04-.92-.18-2.2-.26-2.73h4l-.22,2.73c0,.66-.04,1.67-.04,2.82h.66c5.28,0,10.65.04,12.76.04l-.04,3.3c-2.46-.13-6.42-.22-12.81-.22h-.57ZM421.56,622.59c-.7-1.89-2.16-2.68-3.87-2.68-2.24,0-4.4,1.76-4.4,4.58s2.02,4.31,4.44,4.31c2.55,0,4.22-2.07,3.83-6.2Z"/><path class="cls-2" d="M455,635.04c0,3.7-2.99,6.73-6.73,6.73s-6.69-3.04-6.69-6.73,3.04-6.69,6.69-6.69,6.73,2.99,6.73,6.69ZM452.71,635.04c0-2.42-1.94-4.44-4.44-4.44s-4.44,2.02-4.44,4.44,2.02,4.49,4.44,4.49,4.44-1.98,4.44-4.49Z"/><path class="cls-4" d="M78.04,256.45c3.76,11.12,10.66,20.07,21.32,24.4-1.71,1.42-3.93,4.45-5.02,6.38-10.32-4.85-16.93-13.17-21.38-24.17-3.08,9.52-9.24,18.41-21.32,24.23-1.08-1.88-3.08-4.33-5.07-5.76,13.05-5.81,18.47-15.28,20.69-25.08h-19.61v-7.01h20.75c.57-5.36.51-10.55.57-15.22h7.41c-.06,4.67-.12,9.92-.68,15.22h22.4v7.01h-20.07Z"/><path class="cls-4" d="M113.03,260.78c-2.11-1.82-6.61-4.16-10.15-5.59l3.59-5.13c3.48,1.08,8.04,3.19,10.32,5.02l-3.76,5.7ZM104.37,282.73c2.57-4.39,6.21-11.57,9.12-18.24l5.36,4.05c-2.56,6.1-5.53,12.66-8.49,18.19l-5.99-3.99ZM109.61,234.62c3.36,1.54,7.64,4.05,9.8,6.04l-4.22,5.36c-1.94-2-6.16-4.85-9.58-6.5l3.99-4.9ZM140,254.85v3.42h14.99v22.63c0,2.96-.57,4.5-2.51,5.42-1.94.91-4.68.97-8.55.97-.11-1.65-.8-4.05-1.54-5.64,2.11.11,4.56.11,5.3.11.74-.06.97-.29.97-.91v-16.7h-9.41v9.06h2.79v-6.73h3.93v13.51h-3.93v-1.88h-10.32v3.31h-4.05v-14.94h4.05v6.73h2.57v-9.06h-8.95v23.2h-5.98v-29.07h14.14v-3.42h-15.85v-5.93h9.06v-4.22h-7.3v-5.87h7.3v-4.62h6.33v4.62h7.64v-4.62h6.55v4.62h7.41v5.87h-7.41v4.22h9.01v5.93h-16.25ZM133.04,248.93h7.64v-4.22h-7.64v4.22Z"/><path class="cls-4" d="M190.73,279.71c2.74.46,5.76.63,8.84.63,2.45.06,10.89,0,14.02-.06-.91,1.54-1.99,4.67-2.34,6.56h-12.08c-11.46,0-20.29-2.05-26.22-10.77-1.88,4.39-4.33,8.32-7.81,11.17-1.03-1.37-3.36-3.59-4.79-4.62,6.16-4.85,8.66-14.14,9.46-21.89l7.07.8c-.34,2.22-.8,4.5-1.37,6.78,1.82,4.5,4.73,7.35,8.21,9.18v-20.18h-16.36v-20.75h40.13v20.75h-16.76v7.01h18.58v6.27h-18.58v9.12ZM174.14,250.86h26.11v-7.81h-26.11v7.81Z"/><path class="cls-4" d="M224.98,243.17c4.73-.4,14.08-1.25,24.4-2.17,5.81-.46,11.97-.8,15.96-.97l.06,7.3c-3.02,0-7.87.06-10.89.74-6.84,1.82-11.91,9.12-11.91,15.79,0,9.29,8.67,12.66,18.24,13.11l-2.62,7.81c-11.86-.74-23.03-7.13-23.03-19.38,0-8.15,4.5-14.54,8.32-17.39-4.9.51-16.76,1.77-23.32,3.19l-.74-7.75c2.28-.06,4.45-.17,5.53-.29ZM262.04,260.55l-4.33,1.94c-1.43-3.14-2.62-5.36-4.45-7.92l4.22-1.77c1.37,2.05,3.48,5.47,4.56,7.75ZM268.65,257.76l-4.28,2.05c-1.54-3.08-2.85-5.19-4.68-7.7l4.16-1.94c1.43,2,3.59,5.36,4.79,7.58Z"/><path class="cls-4" d="M325.31,249.89c-3.42-.17-8.72-.29-16.36-.29.06,2.85.06,5.93.06,8.38,1.43,2.11,2.11,4.85,2.11,7.81,0,7.35-4.33,16.7-18.13,20.58l-5.98-6.04c5.7-1.2,10.66-3.08,13.79-6.44-.8.17-1.65.29-2.56.29-4.39,0-9.75-3.48-9.75-10.38,0-6.38,5.13-10.55,11.29-10.55.8,0,1.54.06,2.22.17l-.06-3.76c-8.55.11-17.27.46-24.23.86l-.17-6.84c6.44,0,16.7-.29,24.29-.4,0-.68,0-1.31-.06-1.71-.11-1.82-.29-3.99-.51-4.9h8.21c-.17.91-.34,3.93-.4,4.85,0,.46-.06,1.03-.06,1.71,5.7,0,13.4-.06,16.36,0l-.06,6.67ZM299.6,267.91c2.34,0,4.45-1.77,3.71-6.67-.8-1.37-2.11-2-3.71-2-2.17,0-4.33,1.48-4.33,4.45,0,2.62,2.11,4.22,4.33,4.22Z"/><path class="cls-4" d="M349.53,277.54c0,5.07-4.11,9.23-9.24,9.23s-9.18-4.16-9.18-9.23,4.16-9.24,9.18-9.24,9.24,4.16,9.24,9.24ZM345.42,277.54c0-2.85-2.28-5.13-5.13-5.13s-5.07,2.28-5.07,5.13,2.34,5.07,5.07,5.07,5.13-2.22,5.13-5.07Z"/><path class="cls-1" d="M106.97,101.88c-.42-1.31-1.64-2.19-3.01-2.19h-18.18l-5.54-17.24c-.42-1.31-1.64-2.2-3.01-2.2s-2.59.89-3.01,2.2l-5.54,17.24h-18.18c-1.37,0-2.59.89-3.01,2.19-.42,1.31.05,2.74,1.17,3.54l14.74,10.58-5.67,17.23c-.43,1.31.03,2.74,1.14,3.55,1.11.81,2.62.81,3.73,0l14.63-10.72,14.63,10.72c1.11.81,2.62.82,3.73,0,1.11-.81,1.58-2.24,1.15-3.55l-5.68-17.23,14.74-10.58c1.12-.8,1.59-2.23,1.17-3.54Z"/><path class="cls-1" d="M172.02,101.88c-.42-1.31-1.64-2.19-3.01-2.19h-18.18l-5.54-17.24c-.42-1.31-1.64-2.2-3.01-2.2s-2.59.89-3.01,2.2l-5.54,17.24h-18.18c-1.37,0-2.59.89-3.01,2.19-.42,1.31.05,2.74,1.17,3.54l14.74,10.58-5.67,17.23c-.43,1.31.03,2.74,1.14,3.55,1.11.81,2.62.81,3.73,0l14.63-10.72,14.63,10.72c1.11.81,2.62.82,3.73,0,1.11-.81,1.58-2.24,1.15-3.55l-5.68-17.23,14.74-10.58c1.12-.8,1.59-2.23,1.17-3.54Z"/><path class="cls-1" d="M233.75,101.88c-.42-1.31-1.64-2.19-3.01-2.19h-18.18l-5.54-17.24c-.42-1.31-1.64-2.2-3.01-2.2s-2.59.89-3.01,2.2l-5.54,17.24h-18.18c-1.37,0-2.59.89-3.01,2.19-.42,1.31.05,2.74,1.17,3.54l14.74,10.58-5.67,17.23c-.43,1.31.03,2.74,1.14,3.55,1.11.81,2.62.81,3.73,0l14.63-10.72,14.63,10.72c1.11.81,2.62.82,3.73,0,1.11-.81,1.58-2.24,1.15-3.55l-5.68-17.23,14.74-10.58c1.12-.8,1.59-2.23,1.17-3.54Z"/><path class="cls-1" d="M299,101.88c-.42-1.31-1.64-2.19-3.01-2.19h-18.18l-5.54-17.24c-.42-1.31-1.64-2.2-3.01-2.2s-2.59.89-3.01,2.2l-5.54,17.24h-18.18c-1.37,0-2.59.89-3.01,2.19-.42,1.31.05,2.74,1.17,3.54l14.74,10.58-5.67,17.23c-.43,1.31.03,2.74,1.14,3.55,1.11.81,2.62.81,3.73,0l14.63-10.72,14.63,10.72c1.11.81,2.62.82,3.73,0,1.11-.81,1.58-2.24,1.15-3.55l-5.68-17.23,14.74-10.58c1.12-.8,1.59-2.23,1.17-3.54Z"/><path class="cls-1" d="M364.25,101.88c-.42-1.31-1.64-2.19-3.01-2.19h-18.18l-5.54-17.24c-.42-1.31-1.64-2.2-3.01-2.2s-2.59.89-3.01,2.2l-5.54,17.24h-18.18c-1.37,0-2.59.89-3.01,2.19-.42,1.31.05,2.74,1.17,3.54l14.74,10.58-5.67,17.23c-.43,1.31.03,2.74,1.14,3.55,1.11.81,2.62.81,3.73,0l14.63-10.72,14.63,10.72c1.11.81,2.62.82,3.73,0,1.11-.81,1.58-2.24,1.15-3.55l-5.68-17.23,14.74-10.58c1.12-.8,1.59-2.23,1.17-3.54Z"/></svg>