<?xml version="1.0" encoding="UTF-8"?><svg id="_レイヤー_1" xmlns="http://www.w3.org/2000/svg" viewBox="0 0 751.15 731.27"><defs><style>.cls-1{fill:#f2b600;}.cls-1,.cls-2,.cls-3,.cls-4{stroke-width:0px;}.cls-2{fill:#1a1a1a;}.cls-3{fill:#fff;}.cls-4{fill:#577082;}</style></defs><rect class="cls-3" x="-2.44" y="-2.76" width="752.19" height="733.55"/><path class="cls-2" d="M92.84,390.65h-16.06v27.5c0,2.6-.75,3.7-2.6,4.27-1.89.62-5.15.66-10.21.66-.26-1.05-.92-2.73-1.58-3.7,4.09.13,8.05.13,9.24.09,1.06-.04,1.45-.35,1.45-1.37v-27.46h-18.61v-3.35h38.37v3.35Z"/><path class="cls-2" d="M141.66,414.37h-17.78v5.59c0,1.71-.4,2.55-1.85,2.99-1.41.44-3.74.44-7.35.44-.13-.84-.62-2.02-1.06-2.82,2.77.09,5.37.04,6.12.04.75-.04.97-.18.97-.75v-5.5h-17.73v-2.77h38.68v2.77ZM106.77,393.95h-2.95v-7.35h16.77v-3.3h3.21v3.3h16.77v7.35h-3.04v-4.58h-17.73c2.29.79,4.97,2.11,6.42,3.17l-1.8,1.94c-1.5-1.19-4.4-2.68-6.73-3.52l1.58-1.59h-12.5v4.58ZM113.06,393.11c-1.41,2.68-3.65,5.46-7.13,7.08l-2.07-1.98c3.17-1.28,5.5-3.78,6.78-6.21l2.42,1.1ZM137.31,409.22h-29.97v-8.4h29.97v8.4ZM116.23,403.01h-6.03v4h6.03v-4ZM117.33,391.75v3.7c0,.92.35,1.1,2.29,1.1h7.04c1.36,0,1.63-.26,1.76-2.51.62.4,1.76.79,2.55.92-.31,3.21-1.19,4-3.96,4h-7.61c-3.96,0-4.93-.66-4.93-3.48v-3.74h2.86ZM125.25,403.01h-6.29v4h6.29v-4ZM134.36,403.01h-6.34v4h6.34v-4ZM138.45,399.85c-1.54-1.98-4.88-4.71-7.79-6.51l2.02-1.67c2.9,1.72,6.29,4.36,7.92,6.34l-2.16,1.85Z"/><path class="cls-2" d="M173.86,393.68c-2.29.66-5.02,1.23-7.88,1.59-2.16,6.16-6.03,13.73-9.5,18.44l-3.43-1.76c3.65-4.22,7.35-11.18,9.33-16.28-1.28.09-2.55.13-3.83.13-1.63,0-3.43-.04-5.06-.13l-.26-3.3c1.63.22,3.48.31,5.37.31,1.54,0,3.17-.09,4.84-.22.66-2.42,1.28-5.19,1.36-7.53l3.92.35c-.44,1.58-1.01,4.22-1.72,6.73,2.29-.35,4.58-.88,6.78-1.58l.09,3.26ZM178.96,398.75c-.13,1.8-.09,3.08-.04,4.71.04,1.59.22,4.45.31,7.09,3.74,1.36,6.78,3.52,9.02,5.46l-1.89,2.99c-1.85-1.67-4.18-3.61-7-4.97.04.66.04,1.28.04,1.76,0,3.48-2.29,6.34-7.66,6.34-4.8,0-8.71-1.98-8.71-6.29,0-4.01,3.79-6.6,8.71-6.6,1.45,0,2.86.13,4.14.4-.13-3.56-.35-7.83-.44-10.87h3.52ZM176.01,412.69c-1.36-.4-2.86-.62-4.4-.62-3.21,0-5.32,1.45-5.32,3.43s1.63,3.39,5.02,3.39c3.56,0,4.75-1.98,4.75-4.14,0-.57,0-1.28-.04-2.07ZM187.63,399.93c-2.33-1.98-7.04-4.66-9.95-5.98l1.72-2.73c3.17,1.41,8.14,4.22,10.21,5.81l-1.98,2.9Z"/><path class="cls-2" d="M215.07,393.33h-15.89v-2.68h15.89v2.68ZM235.84,420.22c1.01,0,1.23-.88,1.32-6.82.66.57,1.94,1.06,2.82,1.28-.26,6.78-1.06,8.4-3.79,8.4h-3.65c-2.99,0-3.65-.92-3.65-4.18v-12.98h-3.96c-.62,7.75-2.29,14.08-9.02,17.78-.44-.75-1.32-1.89-2.07-2.46v.18h-9.81v1.98h-2.86v-14.7h12.67v12.41c6.03-3.08,7.31-8.54,7.83-15.18h-4.67v-14.57h4.14c-.57-1.98-1.89-4.8-3.17-6.95l2.82-.92c1.5,2.16,2.86,5.02,3.43,7.04l-2.29.84h11.13l-2.51-.79c1.06-2.03,2.42-5.15,3.04-7.35l3.34.97c-1.19,2.51-2.51,5.32-3.56,7.17h4.49v14.57h-5.94v12.94c0,1.19.13,1.37,1.1,1.37h2.82ZM213.57,399.32h-12.32v-2.6h12.32v2.6ZM201.25,402.7h12.32v2.6h-12.32v-2.6ZM213.53,387.43h-12.01v-2.64h12.01v2.64ZM210.93,411.37h-6.91v7.3h6.91v-7.3ZM220.17,403.06h14.43v-8.8h-14.43v8.8Z"/><path class="cls-2" d="M252.63,412.03v4.05h-3.08v-30.1h14.35v26.05h-11.27ZM252.63,388.93v8.32h8.23v-8.32h-8.23ZM260.86,409v-8.76h-8.23v8.76h8.23ZM286.56,419.12c0,2.07-.44,3.08-1.85,3.65-1.41.48-3.83.57-7.57.57-.18-.88-.7-2.33-1.23-3.17,2.86.09,5.63.04,6.34.04.84-.04,1.14-.31,1.14-1.1v-9.68h-12.98c-.97,5.24-3.21,10.47-8.19,14.3-.53-.7-1.76-1.8-2.42-2.24,7.39-5.68,8.14-13.95,8.14-20.77v-15.58h18.62v33.97ZM283.39,406.45v-7.7h-12.28v1.98c0,1.8-.04,3.74-.26,5.72h12.54ZM271.11,388.23v7.52h12.28v-7.52h-12.28Z"/><path class="cls-2" d="M335.91,405.48v2.42h-38.9v-2.42h17.69v-2.6h-14.7v-2.25h14.7v-2.42h-13.47v-2.2h13.47v-2.6h-17.6v-2.46h17.6v-2.46h-12.98v-2.2h12.98v-3.08h3.21v3.08h12.59v4.67h5.37v2.46h-5.37v4.8h-12.59v2.42h15.01v2.25h-15.01v2.6h18ZM302.64,409.97h28.08v13.51h-3.26v-1.36h-21.65v1.45h-3.17v-13.6ZM305.81,412.21v2.69h21.65v-2.69h-21.65ZM327.46,419.82v-2.82h-21.65v2.82h21.65ZM317.91,390.96h9.37v-2.46h-9.37v2.46ZM317.91,396.02h9.37v-2.6h-9.37v2.6Z"/><path class="cls-2" d="M350.54,390.91c2.86-.26,11.09-1.06,19.1-1.76,4.75-.4,8.84-.62,11.75-.75v3.52c-2.51,0-6.29.04-8.54.71-6.2,1.98-9.95,8.62-9.95,13.77,0,8.49,7.92,11.18,15.01,11.44l-1.28,3.7c-8.05-.35-17.25-4.67-17.25-14.39,0-6.78,4.09-12.32,8.1-14.7-3.83.44-15.71,1.58-20.42,2.55l-.4-3.87c1.67-.04,3.04-.13,3.87-.22ZM378.84,403.36l-2.24,1.06c-1.01-2.11-2.29-4.4-3.61-6.21l2.24-.97c1.01,1.45,2.68,4.18,3.61,6.12ZM383.85,401.47l-2.29,1.05c-1.06-2.11-2.33-4.27-3.74-6.12l2.2-1.01c1.06,1.45,2.77,4.14,3.83,6.07Z"/><path class="cls-2" d="M409.14,393.42c-.53.79-1.28,1.98-1.94,3.04-.09.88-.13,1.85-.22,2.77,4.8-3.92,9.68-5.41,13.82-5.41,6.07,0,11.44,4.22,11.49,11,.04,8.76-6.38,13.42-15.89,15.23l-1.58-3.3c7.35-1.1,13.95-4.49,13.91-12.01,0-3.35-2.64-7.7-8.41-7.7-5.02,0-9.64,2.51-13.6,6.25-.09,1.8-.13,3.56-.13,5.11,0,3.96,0,6.6.18,10.52.04.75.13,1.85.22,2.64h-3.83c.04-.62.13-1.89.13-2.6.04-4.18.04-6.34.13-11.18,0-.44.04-1.01.04-1.67-2.11,3.21-4.97,7.39-7.08,10.3l-2.2-3.04c2.42-3.04,7.44-9.81,9.64-13.25.09-1.41.18-2.82.26-4.18-1.98.22-5.76.75-8.49,1.1l-.35-3.65c.97.04,1.8.04,2.86-.04,1.41-.09,3.96-.35,6.21-.7.13-2.07.22-3.61.22-4.09,0-1.01.04-2.16-.18-3.26l4.18.13c-.22,1.05-.57,3.52-.88,6.56l.22-.09,1.28,1.54Z"/><path class="cls-2" d="M459.46,385.89c-.18.79-.35,1.72-.53,2.55-.22,1.28-.62,3.83-1.1,6.16,2.02-.13,3.83-.27,4.88-.27,3.87,0,7.08,1.5,7.08,7.39,0,5.19-.75,12.06-2.55,15.71-1.36,2.9-3.52,3.65-6.38,3.65-1.63,0-3.74-.35-5.1-.66l-.57-3.7c1.8.57,4.14.97,5.33.97,1.63,0,2.9-.35,3.83-2.25,1.36-2.95,2.02-8.58,2.02-13.33,0-3.96-1.8-4.66-4.58-4.66-1.06,0-2.77.13-4.67.31-1.58,6.25-4.53,16.02-9.15,23.41l-3.61-1.45c4.44-5.94,7.7-15.8,9.15-21.61-2.24.22-4.36.44-5.5.57-1.01.13-2.77.35-3.92.53l-.35-3.83c1.36.09,2.51.04,3.87,0,1.45-.04,4-.26,6.64-.48.62-3.12,1.1-6.51,1.1-9.46l4.09.44ZM474.46,390.51c2.73,3.52,6.47,11.53,7.96,15.58l-3.43,1.63c-1.28-4.49-4.71-12.15-7.79-15.8l3.26-1.41Z"/><path class="cls-2" d="M503.71,385.5c-.92,3.21-1.76,9.06-2.02,12.1,1.72-4.49,6.29-9.9,11.79-9.9,5.81,0,9.99,5.81,9.99,14.96,0,12.1-7.61,17.43-18.44,19.41l-2.07-3.17c9.46-1.45,16.85-5.24,16.85-16.2,0-6.86-2.29-11.79-6.91-11.79-5.41,0-10.43,7.88-10.96,13.6-.22,1.67-.22,3.17.09,5.32l-3.43.27c-.22-1.63-.44-4.09-.44-6.91,0-4.14.79-10.56,1.32-14.08.18-1.36.31-2.68.35-3.74l3.87.13Z"/><path class="cls-2" d="M547.82,388.49c.35.7,1.1,2.11,1.54,2.86.75,1.45,1.63,3.21,2.51,5.02,5.24-2.33,11.13-4.66,15.67-4.66,6.03,0,9.73,3.48,9.73,8.23,0,5.02-3.21,8.85-10.03,8.85-2.42,0-4.88-.62-6.51-1.23l.13-3.52c1.63.79,3.83,1.45,6.16,1.45,4.8,0,6.73-2.6,6.73-5.68,0-2.64-2.02-4.97-6.34-4.97-3.79,0-9.15,2.07-14.17,4.4.57,1.19,1.14,2.42,1.67,3.61,2.38,5.37,5.1,13.51,6.6,18.31l-3.78,1.01c-1.36-5.15-3.43-12.19-5.94-17.87-.53-1.23-1.1-2.46-1.63-3.61-3.34,1.63-6.38,3.21-8.36,4.09l-1.72-3.61c1.28-.35,2.82-.88,3.61-1.19,1.45-.57,3.21-1.36,5.1-2.2-.88-1.94-1.72-3.56-2.46-4.8-.53-.92-1.41-2.2-2.11-3.08l3.61-1.41ZM560.89,391.62c-1.67-1.67-3.79-3.7-5.68-5.06l2.55-1.85c1.45,1.1,4.05,3.21,5.68,4.93l-2.55,1.98Z"/><path class="cls-2" d="M613.11,394.04c0,2.46.04,5.15.09,7.13.92,1.5,1.41,3.43,1.41,5.59,0,5.9-2.86,12.46-12.98,15.49l-3.04-2.95c5.72-1.32,9.77-3.7,11.57-7.57-1.06.75-2.29,1.1-3.74,1.1-3.7,0-7.22-2.6-7.22-7.31,0-4.31,3.56-7.61,7.7-7.61,1.06,0,2.02.18,2.9.48,0-1.28,0-2.82-.04-4.31-6.6.04-13.99.35-19.45.75l-.09-3.43c4.84-.09,13.03-.35,19.5-.44,0-1.23-.04-2.25-.09-2.86-.04-.92-.18-2.2-.26-2.73h4l-.22,2.73c0,.66-.04,1.67-.04,2.82h.66c5.28,0,10.65.04,12.76.04l-.04,3.3c-2.46-.13-6.42-.22-12.81-.22h-.57ZM610.77,403.59c-.7-1.89-2.16-2.68-3.87-2.68-2.24,0-4.4,1.76-4.4,4.58s2.02,4.31,4.44,4.31c2.55,0,4.22-2.07,3.83-6.21Z"/><path class="cls-2" d="M665.32,387.74c-.97.7-2.29,1.85-2.99,2.46-3.04,2.6-9.29,7.61-12.5,10.25-2.64,2.29-2.64,2.95.18,5.28,3.96,3.17,12.01,9.86,16.28,14.08l-3.17,2.86c-.88-1.06-2.07-2.16-2.99-3.17-2.38-2.55-9.64-8.76-13.73-12.1-4.09-3.43-3.65-5.41.31-8.71,3.26-2.77,9.86-7.96,12.81-10.96.88-.88,2.02-2.11,2.51-2.9l3.3,2.9Z"/><path class="cls-2" d="M689.52,422.55c-2.82-3.52-6.6-7.26-9.73-9.81l2.86-2.51c3.17,2.55,7.13,6.56,9.86,9.77l-2.99,2.55Z"/><path class="cls-2" d="M77.57,460.32c.31,1.36.62,3.43.88,5.85,8.1,0,12.94,5.15,12.94,11.66,0,7.13-4.4,12.67-13.38,12.67-.48,0-.97-.04-1.45-.09-1.36,2.86-3.34,5.32-6.25,7.22l-3.26-1.94c2.77-1.5,4.75-3.61,6.07-6.12-3.04-1.19-5.59-3.48-7.17-6.73l2.07-2.46c1.5,3.08,3.52,5.24,6.38,6.21,1.01-3.04,1.36-6.56,1.36-10.34,0-2.38-.13-4.71-.26-6.78-7.53,1.37-12.41,7.92-13.69,13.47-.22.79-.35,1.76-.31,2.68.04.97.31,2.95.57,4.09l-3.08.48c-.79-2.73-1.41-7.13-1.41-11.27,0-4.88.88-10.96,1.14-13.33.04-.79.09-1.45.04-2.02l3.79.31c-.18.62-.4,1.32-.57,2.07-.57,2.82-1.45,9.24-1.19,12.67,2.46-6.43,8.05-10.96,14.39-12.15-.18-1.41-.4-2.6-.57-3.39-.18-.92-.44-2.02-.7-2.68l3.65-.09ZM78.01,487.17c6.07,0,9.99-3.48,9.99-9.2,0-4.67-2.95-8.58-9.24-8.76.18,2.24.31,4.66.31,7.04,0,3.92-.35,7.61-1.28,10.91h.22Z"/><path class="cls-2" d="M106.03,476.38c3.12-.97,10.25-3.56,15.4-3.56,6.16,0,10.65,3.7,10.65,9.64,0,8.4-8.1,12.72-19.85,13.42l-1.41-3.39c9.42-.31,17.69-2.95,17.69-10.08,0-3.7-2.9-6.38-7.35-6.38-5.41,0-14.92,3.96-17.73,5.06l-1.45-3.65c1.28-.22,2.73-.62,4.05-1.06Z"/><path class="cls-2" d="M168.83,462.74c-.97.7-2.29,1.85-2.99,2.46-3.04,2.6-9.29,7.61-12.5,10.25-2.64,2.29-2.64,2.95.18,5.28,3.96,3.17,12.01,9.86,16.28,14.08l-3.17,2.86c-.88-1.06-2.07-2.16-2.99-3.17-2.38-2.55-9.64-8.76-13.73-12.1-4.09-3.43-3.65-5.41.31-8.71,3.26-2.77,9.86-7.96,12.81-10.96.88-.88,2.02-2.11,2.51-2.9l3.3,2.9Z"/><path class="cls-2" d="M196.02,460.5c-.92,3.21-1.76,9.06-2.02,12.1,1.72-4.49,6.29-9.9,11.79-9.9,5.81,0,9.99,5.81,9.99,14.96,0,12.1-7.61,17.43-18.44,19.41l-2.07-3.17c9.46-1.45,16.85-5.24,16.85-16.2,0-6.86-2.29-11.79-6.91-11.79-5.41,0-10.43,7.88-10.96,13.6-.22,1.67-.22,3.17.09,5.32l-3.43.27c-.22-1.63-.44-4.09-.44-6.91,0-4.14.79-10.56,1.32-14.08.18-1.36.31-2.68.35-3.74l3.87.13Z"/><path class="cls-2" d="M231.08,483.73c-.62,4.14-1.67,8.36-3.12,11.18-.53-.4-1.85-1.01-2.55-1.23,1.45-2.68,2.38-6.6,2.86-10.47l2.82.53ZM236.27,480.21v18.31h-2.99v-18.13l-7.17.35-.26-2.95c.88,0,1.89-.04,2.91-.09.97-1.14,1.98-2.51,2.95-3.92-1.32-1.98-3.7-4.49-5.76-6.34l1.67-2.11c.44.35.88.75,1.32,1.14,1.45-2.46,2.99-5.77,3.92-8.19l2.9,1.1c-1.5,2.95-3.34,6.47-5.02,8.85,1.06,1.06,1.98,2.11,2.68,3.04,1.8-2.77,3.48-5.63,4.71-8.01l2.82,1.23c-2.55,4.14-6.07,9.33-9.11,13.11,2.2-.09,4.62-.22,7.04-.31-.66-1.37-1.41-2.73-2.16-3.92l2.42-1.05c1.85,2.82,3.74,6.56,4.36,8.93l-2.6,1.23c-.18-.75-.44-1.58-.84-2.51l-3.79.22ZM240.28,483.03c1.28,2.68,2.55,6.16,2.95,8.45l-2.6.88c-.4-2.29-1.63-5.81-2.82-8.54l2.46-.79ZM266.51,494.21v2.99h-25.61v-2.99h4.66v-33.45h17.56v33.45h3.39ZM248.73,463.71v8.1h11.18v-8.1h-11.18ZM259.91,474.76h-11.18v8.1h11.18v-8.1ZM248.73,494.21h11.18v-8.41h-11.18v8.41Z"/><path class="cls-2" d="M308.88,493.33v3.21h-39.17v-3.21h22.22c2.2-5.63,4.67-14.74,5.94-21.21l3.7.7c-1.67,6.69-4.14,14.96-6.25,20.51h13.55ZM307.6,470.05h-36.44v-3.17h16.33v-8.58h3.34v8.58h16.77v3.17ZM281.11,491.13c-.22-4.84-1.89-12.28-4.05-17.95l3.04-.79c2.33,5.77,3.96,13.03,4.31,17.96l-3.3.79Z"/><path class="cls-2" d="M333.03,489.15c.13-1.67.18-4.49.18-6.78-4.05,2.2-6.86,4.44-6.86,7.3,0,3.43,3.39,3.92,7.88,3.92,3.39,0,8.05-.4,11.88-1.06l-.09,3.56c-3.3.4-8.14.71-11.93.71-6.25,0-11.27-1.32-11.27-6.64s5.19-8.41,10.25-11.05c-.44-1.8-2.02-2.68-3.92-2.68-2.86,0-5.5,1.41-7.53,3.21-1.23,1.19-2.46,2.82-3.96,4.58l-2.99-2.24c5.54-5.37,8.41-9.86,10.03-13.29h-1.8c-1.85,0-4.8-.09-7.17-.26v-3.3c2.33.27,5.37.44,7.35.44.92,0,1.85,0,2.86-.04.62-1.94,1.01-3.92,1.1-5.41l3.61.31c-.31,1.23-.7,3.04-1.32,5.02,4.44-.22,9.2-.62,13.33-1.32l-.04,3.26c-4.31.66-9.68,1.05-14.43,1.23-.97,2.25-2.33,4.67-3.92,6.69,1.58-1.01,4.09-1.63,6.03-1.63,2.82,0,5.11,1.36,5.77,3.96,2.99-1.41,5.63-2.46,7.92-3.52,1.32-.57,2.38-1.1,3.61-1.72l1.41,3.3c-1.1.31-2.68.92-3.83,1.36-2.46.97-5.59,2.25-8.89,3.79.04,2.51.09,6.21.13,8.32h-3.39Z"/><path class="cls-2" d="M368.54,460.94c-.22,1.41-.35,2.95-.44,4.36-.18,4.93-.53,15.22-.53,21.74,0,4.8,3.08,6.47,7.13,6.47,8.01,0,12.54-4.49,15.67-9.02l2.42,3.04c-2.95,4.14-8.58,9.59-18.17,9.59-6.25,0-10.56-2.64-10.56-9.73,0-6.47.44-17.47.44-22.09,0-1.59-.13-3.12-.4-4.4l4.44.04Z"/><path class="cls-2" d="M404.4,465.65c2.86-.26,11.09-1.1,19.1-1.76,4.75-.4,8.85-.62,11.75-.75v3.52c-2.46,0-6.29.04-8.54.71-6.21,1.98-9.95,8.58-9.95,13.73,0,8.54,7.92,11.22,15.01,11.49l-1.28,3.65c-8.05-.31-17.25-4.62-17.25-14.35,0-6.82,4.09-12.32,8.1-14.7-3.83.44-15.71,1.59-20.42,2.55l-.4-3.87c1.67-.04,3.04-.13,3.87-.22Z"/><path class="cls-2" d="M482.41,486.2h-4.27v8.89h-3.83v-8.89h-14.04v-2.64l13.42-20.73h4.45v20.15h4.27v3.21ZM474.31,482.99v-9.9c0-1.59.18-4.18.26-5.85h-.18c-.79,1.58-1.67,3.17-2.6,4.75l-7.35,11h9.86Z"/><path class="cls-2" d="M485.09,478.85c0-11.22,3.92-16.63,10.08-16.63s10.03,5.46,10.03,16.63-3.92,16.81-10.03,16.81-10.08-5.59-10.08-16.81ZM501.29,478.85c0-9.42-2.46-13.38-6.12-13.38s-6.16,3.96-6.16,13.38,2.46,13.6,6.16,13.6,6.12-4.09,6.12-13.6Z"/><path class="cls-2" d="M543.92,460.15c-3.17,7.39-8.27,13.95-13.82,18.09-.57-.71-1.98-1.94-2.77-2.55,5.54-3.7,10.43-9.77,13.16-16.5l3.43.97ZM561.79,474.8s-.04,1.14-.09,1.58c-.62,13.51-1.28,18.57-2.77,20.24-.92,1.1-1.85,1.36-3.39,1.54-1.45.13-4.18.04-6.91-.09-.09-.97-.48-2.29-1.1-3.26,2.86.26,5.59.31,6.6.31.92,0,1.45-.09,1.85-.57,1.14-1.1,1.76-5.5,2.29-16.59h-11.35c-1.14,8.67-3.96,16.63-15.14,20.68-.44-.84-1.36-2.16-2.11-2.86,10.34-3.43,12.76-10.43,13.77-17.82h-8.98v-3.17h27.33ZM555.67,459.09c2.86,5.9,8.49,12.5,13.25,15.84-.84.7-2.07,1.98-2.68,2.9-4.84-3.92-10.39-11-13.64-17.51l3.08-1.23Z"/><path class="cls-2" d="M584.58,459.35c-1.23,3.08-2.77,6.16-4.49,9.06v29.88h-3.08v-25.17c-1.54,2.11-3.17,4.09-4.84,5.72-.35-.75-1.32-2.42-1.89-3.21,4.45-4.14,8.71-10.61,11.27-17.25l3.04.97ZM611.55,493.33v3.08h-28.87v-3.08h15.18c2.02-5.54,4.31-14.43,5.46-20.81l3.52.62c-1.5,6.51-3.78,14.74-5.81,20.2h10.52ZM595.14,466.88v-8.1h3.3v8.1h12.01v3.08h-26.71v-3.08h11.4ZM590.65,491.26c-.31-4.4-1.67-12.01-3.26-17.82l2.9-.53c1.67,5.81,3.17,13.29,3.56,17.65l-3.21.7Z"/><path class="cls-2" d="M619.91,465.91c2.86-.26,11.09-1.06,19.1-1.76,4.75-.4,8.84-.62,11.75-.75v3.52c-2.51,0-6.29.04-8.54.71-6.2,1.98-9.95,8.62-9.95,13.77,0,8.49,7.92,11.18,15.01,11.44l-1.28,3.7c-8.05-.35-17.25-4.67-17.25-14.39,0-6.78,4.09-12.32,8.1-14.7-3.83.44-15.71,1.58-20.42,2.55l-.4-3.87c1.67-.04,3.04-.13,3.87-.22ZM648.21,478.36l-2.24,1.06c-1.01-2.11-2.29-4.4-3.61-6.21l2.24-.97c1.01,1.45,2.68,4.18,3.61,6.12ZM653.22,476.47l-2.29,1.05c-1.06-2.11-2.33-4.27-3.74-6.12l2.2-1.01c1.06,1.45,2.77,4.14,3.83,6.07Z"/><path class="cls-2" d="M692.25,494.69c1.63,0,1.94-.79,2.07-5.81.75.48,2.11,1.01,2.99,1.28-.35,5.98-1.32,7.53-4.8,7.53h-6.78c-4,0-5.06-1.01-5.06-4.49v-11.13h-7.7c-1.01,7.96-3.61,13.6-13.86,16.46-.35-.79-1.23-2.16-1.94-2.77,9.37-2.33,11.53-7.04,12.32-13.69h-11.35v-3.08h38.73v3.08h-12.94v11.13c0,1.23.31,1.5,2.16,1.5h6.16ZM662.46,472.16h-3.3v-9.2h16.55v-4.66h3.39v4.66h16.72v9.2h-3.39v-6.12h-29.97v6.12ZM665.63,473.96v-3.04h23.72v3.04h-23.72Z"/><path class="cls-2" d="M90.68,548.17c-1.89,5.68-4.49,10.69-7.75,14.87,1.63,4.31,3.65,6.82,5.9,6.82,1.23,0,1.76-2.29,2.07-8.14.75.75,1.94,1.5,2.82,1.76-.62,7.48-1.8,9.64-5.15,9.64s-6.03-2.69-8.05-7.22c-2.64,2.86-5.68,5.32-9.07,7.3-.48-.66-1.63-1.98-2.38-2.6,3.92-2.11,7.3-4.84,10.12-8.14-1.58-4.97-2.64-11.44-3.21-18.53h-15.18v5.72h11.22v1.41c-.22,9.86-.48,13.55-1.41,14.7-.66.84-1.41,1.14-2.64,1.28-1.1.09-3.08.09-5.24,0-.04-1.01-.4-2.25-.92-3.08,2.02.18,3.92.22,4.67.22.62,0,1.06-.09,1.32-.48.62-.66.84-3.43,1.01-11h-8.01v.35c0,6.16-.66,15.01-4.62,20.73-.57-.66-1.98-1.8-2.73-2.2,3.61-5.37,4-12.89,4-18.57v-12.28h18.35c-.18-2.42-.22-4.88-.26-7.39h3.39c0,2.55.04,5.02.18,7.39h14.21v3.21h-13.99c.44,5.85,1.23,11.09,2.42,15.27,2.38-3.48,4.27-7.44,5.63-11.88l3.3.84ZM83.07,533.47c2.73,1.37,6.16,3.48,7.88,5.02l-2.02,2.24c-1.67-1.54-5.02-3.79-7.79-5.28l1.94-1.98Z"/><path class="cls-2" d="M109.82,535.94c-.22,1.41-.35,2.95-.44,4.36-.18,4.93-.53,15.22-.53,21.74,0,4.8,3.08,6.47,7.13,6.47,8.01,0,12.54-4.49,15.67-9.02l2.42,3.04c-2.95,4.14-8.58,9.59-18.17,9.59-6.25,0-10.56-2.64-10.56-9.73,0-6.47.44-17.47.44-22.09,0-1.59-.13-3.12-.4-4.4l4.44.04Z"/><path class="cls-2" d="M173.84,569.56c-2.55-2.33-6.16-4.97-10.52-6.56.04,1.1.09,2.07.09,2.73,0,2.99-2.02,6.12-7.7,6.12-6.25,0-9.72-2.24-9.72-6.47,0-3.96,3.83-6.64,10.12-6.64,1.28,0,2.46.09,3.65.26-.09-1.94-.18-4-.22-5.81h-2.42c-2.99,0-7.83-.26-10.96-.62v-3.35c2.95.53,8.1.84,10.96.84h2.33v-6.25h-2.16c-3.04,0-7.66-.35-10.25-.66v-3.26c2.64.48,7.3.84,10.21.84h2.24v-2.86c0-.7-.04-1.98-.13-2.6h3.74c-.13.79-.18,1.63-.22,2.9-.04.53-.04,1.37-.04,2.42,3.79-.13,7.35-.48,11.18-1.05l.04,3.21c-3.43.35-7.17.71-11.27.92v6.25c4.18-.18,8.19-.57,12.1-1.14l.04,3.3c-4.09.53-7.97.84-12.1,1.01.09,2.24.22,4.53.31,6.6,5.76,1.58,10.21,4.8,12.67,6.78l-1.98,3.08ZM159.89,562.03c-1.36-.26-2.77-.4-4.22-.4-4.14,0-6.38,1.58-6.38,3.56s1.72,3.52,6.03,3.52c2.51,0,4.62-.75,4.62-3.74,0-.75-.04-1.76-.04-2.95Z"/><path class="cls-2" d="M196.06,535.94c-.22,1.41-.35,2.95-.44,4.36-.18,4.93-.53,15.22-.53,21.74,0,4.8,3.08,6.47,7.13,6.47,8.01,0,12.54-4.49,15.67-9.02l2.42,3.04c-2.95,4.14-8.58,9.59-18.17,9.59-6.25,0-10.56-2.64-10.56-9.73,0-6.47.44-17.47.44-22.09,0-1.59-.13-3.12-.4-4.4l4.44.04Z"/><path class="cls-2" d="M250.58,544.17c-2.86.66-5.99,1.14-9.02,1.5-.4,1.89-.88,3.92-1.36,5.77-1.58,6.25-4.53,15.23-6.82,19.98l-3.87-1.28c2.6-4.49,5.68-13.33,7.3-19.5.4-1.45.75-3.04,1.1-4.62-1.41.09-2.73.13-3.96.13-1.94,0-3.52-.09-5.06-.18l-.13-3.43c2.07.26,3.65.31,5.24.31,1.45,0,2.99-.09,4.67-.18.31-1.58.53-2.95.66-3.83.13-1.23.22-2.68.13-3.61l4.27.35c-.31.97-.62,2.6-.79,3.48l-.66,3.21c2.82-.35,5.68-.88,8.32-1.58v3.48ZM248.86,559.44c-.4,1.45-.62,2.82-.62,3.92,0,2.07.97,4.05,7.17,4.05,2.82,0,5.85-.35,8.49-.84l-.13,3.56c-2.33.31-5.24.57-8.41.57-6.86,0-10.47-2.11-10.47-6.43,0-1.67.26-3.3.66-5.15l3.3.31ZM247.76,548.83c2.29-.22,5.15-.35,7.96-.35,2.51,0,5.19.09,7.53.35l-.09,3.34c-2.2-.26-4.8-.53-7.35-.53-2.73,0-5.37.18-8.05.48v-3.3Z"/><path class="cls-2" d="M282.52,566.04c0,3.7-2.99,6.73-6.73,6.73s-6.69-3.04-6.69-6.73,3.04-6.69,6.69-6.69,6.73,2.99,6.73,6.69ZM280.23,566.04c0-2.42-1.94-4.44-4.44-4.44s-4.44,2.02-4.44,4.44,2.02,4.49,4.44,4.49,4.44-1.98,4.44-4.49Z"/><path class="cls-4" d="M90.3,216.61c-1.71,7.92-4.1,14.02-7.64,18.76,5.93,2.85,11.4,5.93,15.16,8.66l-5.19,6.38c-3.65-2.96-9.24-6.27-15.39-9.46-6.21,4.85-14.65,7.58-26.17,9.29-.63-2.17-2.17-4.96-3.59-6.78,9.58-1.08,16.7-2.91,22.12-6.21-3.13-1.43-6.21-2.74-9.23-3.93l-.97,2.11-6.84-2.51c2.17-4.45,4.73-10.2,7.24-16.3h-12.77v-6.9h15.56c1.71-4.45,3.36-8.84,4.73-12.77l7.47,1.25c-1.37,3.65-2.85,7.58-4.45,11.52h28.39v6.9h-8.44ZM67.55,216.61c-1.48,3.71-3.02,7.3-4.45,10.66,3.88,1.37,8.15,3.02,12.43,4.9,3.25-3.88,5.47-8.95,7.01-15.56h-14.99Z"/><path class="cls-4" d="M160.65,241.87v6.44h-35.46v-6.44h15.22v-11.4h-11v-6.33h11v-9.35h-6.27c-.85,2.96-2,5.7-3.19,7.87-1.37-.86-4.45-2.39-6.04-3.08.57-1.03,1.14-2.11,1.71-3.31l-3.25,1.48c-.34-1.71-1.2-4.22-2.17-6.56v38.94h-6.78v-40.76c-.34,4.79-1.25,11.06-2.57,15.11l-5.02-1.82c1.37-3.76,2.39-10.15,2.79-14.82l4.79.68v-11.63h6.78v10.77l3.31-1.37c1.14,2.22,2.34,4.96,3.14,7.18,1.42-4.16,2.45-9.06,3.02-13.91l6.61.91c-.4,2.68-.86,5.36-1.42,7.92h4.56v-11.17h6.78v11.17h11.63v6.38h-11.63v9.35h10.43v6.33h-10.43v11.4h13.45Z"/><path class="cls-4" d="M180.02,238.39h9.06v-26.68h-7.64v-5.19c4.22-.8,7.13-1.88,9.81-3.54h6.21v35.4h7.92v6.78h-25.37v-6.78Z"/><path class="cls-4" d="M252.98,198.2c-.06.91-.11,2.05-.17,3.25.46,7.87,3.31,32.44,24.57,42.41-2.11,1.6-4.16,3.93-5.25,5.76-12.88-6.38-19.27-18.13-22.46-28.62-3.08,10.26-9.06,21.26-21.09,28.62-1.2-1.77-3.42-3.82-5.7-5.42,22.75-12.6,21.95-38.48,22.35-46h7.75Z"/><path class="cls-4" d="M292.67,205.9c4.73-.4,14.08-1.25,24.4-2.17,5.82-.46,11.97-.8,15.96-.97l.06,7.3c-3.02,0-7.87.06-10.89.74-6.84,1.82-11.91,9.12-11.91,15.79,0,9.29,8.67,12.66,18.24,13.11l-2.62,7.81c-11.86-.74-23.03-7.13-23.03-19.38,0-8.15,4.5-14.54,8.32-17.39-4.9.51-16.76,1.77-23.32,3.19l-.74-7.75c2.28-.06,4.45-.17,5.53-.29ZM329.72,223.28l-4.33,1.94c-1.42-3.14-2.62-5.36-4.45-7.92l4.22-1.77c1.37,2.05,3.48,5.47,4.56,7.75ZM336.34,220.49l-4.28,2.05c-1.54-3.08-2.85-5.19-4.67-7.7l4.16-1.94c1.43,2,3.59,5.36,4.79,7.58Z"/><path class="cls-4" d="M389.65,220.15c3.76,4.79,5.47,8.78,5.47,13.57,0,8.49-7.64,14.65-20.01,14.65-8.89,0-15.16-3.88-15.16-13.28,0-1.37.17-3.36.4-5.7-4.1-.4-7.81-1.03-10.83-1.88l.4-6.84c3.65,1.25,7.47,1.88,11.12,2.22.34-2.51.63-5.13.97-7.7-3.93-.4-7.92-1.08-11.23-2l.4-6.56c3.25,1.08,7.47,1.77,11.57,2.11.23-1.71.34-3.25.46-4.5.11-1.54.23-3.14.11-5.02l7.92.46c-.46,2.05-.74,3.53-.97,5.02-.17.97-.34,2.45-.63,4.28,4.05-.06,7.7-.29,10.38-.68l-.23,6.73c-3.36.34-6.44.51-11,.51-.34,2.51-.68,5.19-.97,7.7h.4c3.48,0,7.64-.29,11.34-.68l-.17,6.73c-3.19.29-6.5.51-9.98.51h-2.28c-.11,1.65-.23,3.08-.23,4.1,0,4.62,2.85,7.18,8.44,7.18,7.87,0,12.2-3.59,12.2-8.27,0-3.82-2.17-7.47-5.81-10.95l7.92-1.71Z"/><path class="cls-4" d="M415.65,231.21c-.57,5.36-1.77,11.06-3.42,14.71-1.2-.74-3.71-1.94-5.19-2.45,1.65-3.36,2.57-8.44,3.02-13.23l5.59.97ZM422.66,226.76v23.43h-5.99v-22.97l-8.44.57-.57-5.93,4.22-.17c.85-1.08,1.77-2.28,2.62-3.54-1.65-2.45-4.45-5.53-6.84-7.81l3.19-4.67c.46.4.91.8,1.37,1.2,1.6-3.14,3.19-6.96,4.16-9.92l5.99,2.11c-2.05,3.93-4.39,8.32-6.44,11.51.74.8,1.43,1.65,2,2.39,2.05-3.19,3.88-6.5,5.25-9.35l5.76,2.39c-3.19,5.02-7.18,10.83-10.89,15.45l5.76-.23c-.63-1.37-1.31-2.74-2-3.93l4.79-2.11c2.28,3.82,4.56,8.78,5.25,12.03l-5.13,2.39c-.17-.91-.46-1.94-.8-3.08l-3.25.23ZM427.79,229.9c1.54,3.36,3.02,7.81,3.71,10.72l-5.36,1.88c-.46-2.91-1.94-7.52-3.36-11l5.02-1.6ZM461.31,242.49v6.1h-33.35v-6.1h5.25v-42.75h24.29v42.75h3.82ZM439.76,205.84v7.92h10.89v-7.92h-10.89ZM450.65,219.81h-10.89v8.15h10.89v-8.15ZM439.76,242.49h10.89v-8.44h-10.89v8.44Z"/><path class="cls-4" d="M518.72,237.59c-1.48-1.31-3.14-2.68-4.85-3.93-2.51,6.38-6.78,11.34-14.31,15.28l-6.04-4.9c8.55-3.65,12.48-9.06,14.37-14.19-3.99-2.17-8.44-3.88-13.22-4.56-2.11,4.85-4.56,10.43-6.56,13.57-2.22,3.42-4.9,4.96-8.78,4.96-4.96,0-8.67-3.42-8.67-9.12,0-8.72,7.92-15.45,19.27-15.96,1.6-3.65,3.19-7.47,4.5-10.15-2.22.06-7.07.23-9.63.4-1.2.06-3.19.29-4.62.51l-.29-7.3c1.48.17,3.42.23,4.67.23,3.19,0,9.24-.23,11.86-.46,1.37-.11,2.85-.46,3.82-.86l4.5,3.53c-.8.86-1.43,1.6-1.88,2.39-1.48,2.39-3.54,7.3-5.53,12.09,4.39.68,8.49,2.05,12.14,3.65.06-.68.11-1.31.17-1.94.11-2.17.17-4.33-.06-6.16l7.41.86c-.23,3.76-.51,7.3-1.08,10.49,2.34,1.31,4.39,2.68,6.04,3.76l-3.25,7.81ZM487.03,225.22c-6.27.97-9.69,4.79-9.69,8.32,0,1.6.97,2.68,2.11,2.68s1.94-.51,2.96-1.94c1.42-2.11,3.02-5.59,4.62-9.06Z"/><path class="cls-4" d="M583.44,241.13v6.78h-51.59v-6.78h28.39c2.57-6.9,5.3-17.5,6.5-25.71l7.81,1.43c-2,8.38-4.67,17.62-7.13,24.28h16.02ZM581.78,213.54h-48.11v-6.67h20.24v-9.92h7.07v9.92h20.81v6.67ZM545.87,239.36c-.4-5.93-2.39-15.05-4.9-22l6.5-1.71c2.68,7.01,4.79,15.85,5.36,21.83l-6.95,1.88Z"/><path class="cls-4" d="M600.43,205.78c4.67-.46,14.02-1.25,24.34-2.17,5.81-.46,12.03-.8,15.96-.97l.06,7.3c-3.02,0-7.87.06-10.89.74-6.78,1.82-11.92,9.12-11.92,15.79,0,9.29,8.72,12.6,18.24,13.11l-2.62,7.81c-11.86-.8-23.03-7.18-23.03-19.38,0-8.15,4.56-14.54,8.32-17.39-4.85.51-16.76,1.77-23.32,3.19l-.68-7.75c2.22-.06,4.39-.17,5.53-.29Z"/><path class="cls-4" d="M696.15,206.07c-1.37.85-2.68,1.71-3.93,2.57-3.02,2.11-8.95,7.12-12.48,9.98,1.88-.51,3.48-.63,5.3-.63,9.58,0,16.87,5.99,16.87,14.19,0,8.89-6.78,15.96-20.41,15.96-7.87,0-13.8-3.59-13.8-9.24,0-4.56,4.16-8.78,10.15-8.78,6.95,0,11.17,4.28,12.03,9.63,3.08-1.65,4.62-4.28,4.62-7.7,0-5.07-5.13-8.49-11.69-8.49-8.67,0-14.31,4.62-20.35,11.46l-5.13-5.3c3.99-3.25,10.77-9.01,14.14-11.74,3.13-2.62,9.01-7.35,11.8-9.8-2.91.06-10.66.4-13.62.63-1.54.06-3.31.23-4.62.46l-.23-7.35c1.6.17,3.53.29,5.13.29,2.96,0,15.05-.29,18.24-.57,2.34-.17,3.65-.4,4.33-.57l3.65,5.02ZM683.38,241.58c-.34-3.65-2.45-6.04-5.53-6.04-2.11,0-3.48,1.25-3.48,2.68,0,2.11,2.39,3.54,5.7,3.54,1.2,0,2.28-.06,3.31-.17Z"/><path class="cls-4" d="M61.62,295.74c-.51,2.05-.97,3.82-.97,5.7,0,3.59,3.42,6.21,11.57,6.21,7.64,0,14.82-.86,19.84-2.22l.06,7.92c-4.9,1.2-11.69,1.94-19.61,1.94-12.94,0-19.44-4.33-19.44-12.08,0-3.31.68-6.04,1.14-8.15l7.41.68ZM56.83,271.8c4.22.46,9.46.68,15.39.68,5.59,0,12.03-.34,16.36-.8v7.58c-3.93.29-10.95.68-16.3.68-5.93,0-10.83-.29-15.45-.63v-7.53Z"/><path class="cls-4" d="M148.61,279.95c-1.71,1.03-3.53,2-5.59,3.02-3.53,1.77-10.6,5.07-15.73,8.38-4.73,3.08-7.87,6.33-7.87,10.26s3.93,6.21,11.74,6.21c5.81,0,13.45-.91,18.47-2.05l-.11,8.15c-4.79.8-10.77,1.37-18.13,1.37-11.23,0-19.72-3.13-19.72-12.83,0-6.27,3.93-10.89,9.35-14.88-2.62-4.85-5.36-10.83-7.92-16.82l7.13-2.91c2.17,5.87,4.79,11.29,7.07,15.62,4.62-2.68,9.52-5.19,12.2-6.67,2.11-1.25,3.76-2.22,5.19-3.42l3.93,6.56Z"/><path class="cls-4" d="M186.51,268.67c-.34,1.48-.68,3.25-.97,4.67-.34,1.71-.8,3.76-1.2,5.81,1.88-.11,3.59-.23,4.73-.23,5.99,0,10.21,2.68,10.21,10.77,0,6.67-.8,15.68-3.19,20.58-1.88,3.93-4.96,5.19-9.29,5.19-2.11,0-4.85-.34-6.73-.8l-1.25-7.47c2.17.63,5.47,1.2,6.96,1.2,1.88,0,3.31-.57,4.22-2.45,1.54-3.14,2.28-9.86,2.28-15.45,0-4.5-1.94-5.13-5.47-5.13-.91,0-2.28.11-3.88.23-2.22,8.55-6.33,21.83-11.52,30.16l-7.35-2.96c5.47-7.41,9.35-18.7,11.34-26.39-2,.23-3.76.46-4.84.63-1.6.17-4.5.57-6.27.86l-.63-7.64c2.05.17,3.93.06,5.99,0,1.77-.06,4.45-.23,7.3-.46.8-4.33,1.25-8.44,1.2-11.97l8.38.86ZM206.75,275.39c3.31,5.19,7.52,14.71,9.18,19.67l-7.18,3.36c-1.48-6.27-5.47-16.25-9.52-21.26l5.25-2.22c-1.14-2.17-2.57-4.9-3.88-6.73l4.5-1.88c1.42,2.11,3.42,5.7,4.56,7.81l-2.91,1.25ZM211.93,273.51c-1.2-2.39-3.02-5.76-4.62-7.87l4.5-1.88c1.54,2.17,3.65,5.76,4.62,7.75l-4.5,2Z"/><path class="cls-4" d="M228.4,273.85c4.73-.4,14.08-1.25,24.4-2.17,5.81-.46,11.97-.8,15.96-.97l.06,7.3c-3.02,0-7.87.06-10.89.74-6.84,1.82-11.91,9.12-11.91,15.79,0,9.29,8.67,12.66,18.24,13.11l-2.62,7.81c-11.86-.74-23.03-7.13-23.03-19.38,0-8.15,4.5-14.54,8.32-17.39-4.9.51-16.76,1.77-23.32,3.19l-.74-7.75c2.28-.06,4.45-.17,5.53-.29ZM265.46,291.24l-4.33,1.94c-1.42-3.14-2.62-5.36-4.45-7.92l4.22-1.77c1.37,2.05,3.48,5.47,4.56,7.75ZM272.07,288.45l-4.28,2.05c-1.54-3.08-2.85-5.19-4.67-7.7l4.16-1.94c1.42,2,3.59,5.36,4.79,7.58Z"/><path class="cls-4" d="M326.39,287.14c-2.34.86-5.42,1.6-8.72,2.28,1.42,3.02,3.02,6.33,4.67,9.41l-3.36,4.28c-3.13-.57-8.55-1.42-12.31-1.88l.63-5.42c2.22.29,4.45.46,5.99.63l-2.57-5.87c-7.07.8-16.25.97-24.8.34l-.29-6.5c8.44.8,16.13.8,22.52.11l-.97-2.22-1.37-3.19c-5.53.46-12.6.46-19.44-.23l-.34-6.44c6.44.68,12.09.91,17.1.63v-.06c-1.03-2.05-1.77-3.31-2.74-4.85l8.04-1.54c.4,1.71,1.03,3.65,1.77,5.64,3.82-.63,7.47-1.48,10.83-2.62l1.2,6.33c-2.91.85-5.99,1.65-9.69,2.28l1.08,2.45,1.31,2.85c4.33-.85,7.58-1.82,10.09-2.79l1.37,6.38ZM294.75,297.74c-.74,1.71-1.37,4.1-1.37,5.47,0,3.53,2.51,5.93,9.86,5.93,5.36,0,10.95-.46,14.94-1.25l-.23,7.24c-3.13.51-8.89,1.08-14.54,1.08-10.55,0-17.04-3.59-17.04-11.4,0-2.57.74-5.59,1.37-7.7l7.01.63Z"/><path class="cls-4" d="M380.71,313.42c-3.02-2.85-6.9-5.76-11.4-7.81.06.74.06,1.43.06,2,0,4.85-3.65,8.55-11.12,8.55-9.01,0-13.8-3.42-13.8-9.41s5.25-9.69,13.97-9.69c1.2,0,2.34.06,3.48.17-.11-1.71-.17-3.48-.23-5.13h-2.91c-3.31,0-9.8-.29-13.57-.74l.06-6.67c3.25.63,10.6,1.03,13.62,1.03h2.68v-5.87h-2.68c-3.59,0-9.01-.34-12.26-.86l-.06-6.44c3.53.68,8.78,1.08,12.26,1.08h2.79v-2.57c0-1.03-.06-2.79-.29-3.88h7.7c-.17,1.14-.34,2.57-.4,3.99l-.06,2.22c4.39-.17,8.55-.63,13.45-1.37l.17,6.5c-3.71.34-8.27.8-13.68,1.08l-.06,5.87c5.7-.23,10.43-.74,15.05-1.31v6.67c-5.07.57-9.46.97-14.94,1.14.11,2.11.23,4.39.4,6.56,7.13,2.05,12.54,5.81,15.79,8.55l-4.05,6.33ZM362.13,303.27c-1.48-.23-3.02-.4-4.62-.4-3.99,0-6.16,1.54-6.16,3.48,0,2.11,2,3.48,5.87,3.48,3.02,0,4.96-.91,4.96-4.16,0-.63,0-1.42-.06-2.39Z"/><path class="cls-4" d="M414.39,268.1c-.4,2.39-.68,5.24-.74,7.52-.29,6.04-.68,18.7-.68,25.71,0,5.7,3.42,7.53,7.75,7.53,9.35,0,15.28-5.36,19.33-11.52l5.13,6.33c-3.65,5.36-11.63,12.88-24.51,12.88-9.24,0-15.22-4.05-15.22-13.68,0-7.58.57-22.4.57-27.25,0-2.68-.23-5.42-.74-7.64l9.12.11Z"/><path class="cls-4" d="M486.1,280.52c-3.36.74-7.18,1.37-10.95,1.82-.51,2.45-1.08,4.96-1.71,7.24-2.05,7.92-5.87,19.5-8.95,26.11l-7.92-2.62c3.36-5.64,7.64-17.5,9.75-25.43.4-1.48.8-3.08,1.2-4.67-1.31.06-2.57.11-3.71.11-2.74,0-4.84-.11-6.84-.23l-.17-7.07c2.91.34,4.79.46,7.13.46,1.65,0,3.31-.06,5.02-.17.23-1.25.4-2.34.51-3.25.29-2.11.34-4.39.23-5.7l8.61.68c-.4,1.54-.91,4.05-1.2,5.3l-.46,2.17c3.19-.51,6.38-1.14,9.46-1.88v7.13ZM484.96,299.05c-.46,1.6-.8,3.48-.8,4.73,0,2.45,1.43,4.28,7.47,4.28,3.76,0,7.7-.4,11.74-1.14l-.29,7.24c-3.19.4-7.01.8-11.52.8-9.52,0-14.37-3.31-14.37-9.01,0-2.57.51-5.3.97-7.53l6.78.63ZM481.66,284.86c3.13-.29,7.18-.57,10.83-.57,3.19,0,6.61.17,9.92.51l-.17,6.78c-2.79-.34-6.27-.68-9.69-.68-3.93,0-7.35.17-10.89.63v-6.67Z"/><path class="cls-1" d="M106.97,101.88c-.42-1.31-1.64-2.19-3.01-2.19h-18.18l-5.54-17.24c-.42-1.31-1.64-2.2-3.01-2.2s-2.59.89-3.01,2.2l-5.54,17.24h-18.18c-1.37,0-2.59.89-3.01,2.19-.42,1.31.05,2.74,1.17,3.54l14.74,10.58-5.67,17.23c-.43,1.31.03,2.74,1.14,3.55,1.11.81,2.62.81,3.73,0l14.63-10.72,14.63,10.72c1.11.81,2.62.82,3.73,0,1.11-.81,1.58-2.24,1.15-3.55l-5.68-17.23,14.74-10.58c1.12-.8,1.59-2.23,1.17-3.54Z"/><path class="cls-1" d="M172.02,101.88c-.42-1.31-1.64-2.19-3.01-2.19h-18.18l-5.54-17.24c-.42-1.31-1.64-2.2-3.01-2.2s-2.59.89-3.01,2.2l-5.54,17.24h-18.18c-1.37,0-2.59.89-3.01,2.19-.42,1.31.05,2.74,1.17,3.54l14.74,10.58-5.67,17.23c-.43,1.31.03,2.74,1.14,3.55,1.11.81,2.62.81,3.73,0l14.63-10.72,14.63,10.72c1.11.81,2.62.82,3.73,0,1.11-.81,1.58-2.24,1.15-3.55l-5.68-17.23,14.74-10.58c1.12-.8,1.59-2.23,1.17-3.54Z"/><path class="cls-1" d="M233.75,101.88c-.42-1.31-1.64-2.19-3.01-2.19h-18.18l-5.54-17.24c-.42-1.31-1.64-2.2-3.01-2.2s-2.59.89-3.01,2.2l-5.54,17.24h-18.18c-1.37,0-2.59.89-3.01,2.19-.42,1.31.05,2.74,1.17,3.54l14.74,10.58-5.67,17.23c-.43,1.31.03,2.74,1.14,3.55,1.11.81,2.62.81,3.73,0l14.63-10.72,14.63,10.72c1.11.81,2.62.82,3.73,0,1.11-.81,1.58-2.24,1.15-3.55l-5.68-17.23,14.74-10.58c1.12-.8,1.59-2.23,1.17-3.54Z"/><path class="cls-1" d="M299,101.88c-.42-1.31-1.64-2.19-3.01-2.19h-18.18l-5.54-17.24c-.42-1.31-1.64-2.2-3.01-2.2s-2.59.89-3.01,2.2l-5.54,17.24h-18.18c-1.37,0-2.59.89-3.01,2.19-.42,1.31.05,2.74,1.17,3.54l14.74,10.58-5.67,17.23c-.43,1.31.03,2.74,1.14,3.55,1.11.81,2.62.81,3.73,0l14.63-10.72,14.63,10.72c1.11.81,2.62.82,3.73,0,1.11-.81,1.58-2.24,1.15-3.55l-5.68-17.23,14.74-10.58c1.12-.8,1.59-2.23,1.17-3.54Z"/><path class="cls-1" d="M364.25,101.88c-.42-1.31-1.64-2.19-3.01-2.19h-18.18l-5.54-17.24c-.42-1.31-1.64-2.2-3.01-2.2s-2.59.89-3.01,2.2l-5.54,17.24h-18.18c-1.37,0-2.59.89-3.01,2.19-.42,1.31.05,2.74,1.17,3.54l14.74,10.58-5.67,17.23c-.43,1.31.03,2.74,1.14,3.55,1.11.81,2.62.81,3.73,0l14.63-10.72,14.63,10.72c1.11.81,2.62.82,3.73,0,1.11-.81,1.58-2.24,1.15-3.55l-5.68-17.23,14.74-10.58c1.12-.8,1.59-2.23,1.17-3.54Z"/></svg>