<?xml version="1.0" encoding="UTF-8"?><svg id="_レイヤー_1" xmlns="http://www.w3.org/2000/svg" viewBox="0 0 751.15 731.27"><defs><style>.cls-1{fill:#f2b600;}.cls-1,.cls-2,.cls-3,.cls-4{stroke-width:0px;}.cls-2{fill:#1a1a1a;}.cls-3{fill:#fff;}.cls-4{fill:#577082;}</style></defs><rect class="cls-3" x="-2.44" y="-2.76" width="752.19" height="733.55"/><path class="cls-2" d="M53.45,420.13c2.68-2.07,4.53-5.63,5.5-8.8l2.82,1.06c-1.06,3.43-2.77,7.22-5.68,9.59l-2.64-1.85ZM87.43,407.9h-26.89v-21.04h10.21c.53-1.32,1.1-2.95,1.41-4.05l3.78.66c-.62,1.19-1.23,2.38-1.8,3.39h13.29v21.04ZM84.13,389.46h-20.42v3.57h20.42v-3.57ZM84.13,395.53h-20.42v3.65h20.42v-3.65ZM84.13,401.65h-20.42v3.65h20.42v-3.65ZM78.93,420.26c1.85,0,2.16-.53,2.29-4.22.75.48,2.11.92,2.99,1.14-.44,4.84-1.41,5.98-5.06,5.98h-8.54c-4.53,0-5.72-.88-5.72-4.27v-7.22h3.21v7.22c0,1.14.35,1.36,2.73,1.36h8.1ZM71.8,408.47c2.55,1.67,5.41,4.18,6.73,6.16l-2.51,1.89c-1.28-1.98-4.09-4.62-6.65-6.42l2.42-1.63ZM86.06,410.89c3.21,2.68,6.64,6.47,8.05,9.29l-2.77,1.8c-1.36-2.73-4.66-6.69-7.83-9.46l2.55-1.63Z"/><path class="cls-2" d="M136.68,406.05h-18.13v13.16c0,2.2-.57,3.21-2.2,3.74-1.63.53-4.49.62-8.67.57-.26-.92-.84-2.42-1.41-3.34,3.52.13,6.78.13,7.7.09.97-.04,1.23-.26,1.23-1.06v-13.16h-18.17v-3.26h18.17v-7.04h2.07c3.12-1.72,6.51-4.05,9.07-6.25h-24.78v-3.17h28.21l.79-.18,2.38,1.8c-3.74,3.79-9.5,7.88-14.39,10.52v4.31h18.13v3.26Z"/><path class="cls-2" d="M149.27,386.6c-.26.7-.62,2.16-.75,2.95-.88,4.05-2.16,12.67-2.16,17.56,0,2.11.09,3.83.4,5.94.7-1.98,1.72-4.58,2.46-6.34l1.85,1.45c-1.1,3.04-2.64,7.48-3.08,9.64-.13.57-.26,1.41-.22,1.94,0,.44.09,1.06.13,1.5l-3.12.26c-.88-3.12-1.67-7.92-1.67-13.82,0-6.38,1.45-14.7,1.98-18.31.18-1.01.31-2.16.31-3.08l3.87.31ZM177.61,418.33c-2.16-2.02-4.31-3.74-6.56-4.97v.79c0,3.61-1.67,7.13-7.57,7.13s-9.07-2.42-9.07-6.29c0-3.65,3.26-6.65,8.98-6.65,1.45,0,2.82.13,4.05.4-.13-3.34-.4-7.53-.44-11.13-1.41.04-2.77.09-4.18.09-2.46,0-4.75-.13-7.3-.26v-3.34c2.46.26,4.84.4,7.39.4,1.36,0,2.73-.04,4.09-.09v-5.41c0-.75-.09-1.89-.22-2.64h4c-.13.84-.22,1.72-.26,2.6-.04,1.19-.09,3.21-.13,5.24,2.64-.18,5.19-.53,7.53-1.01v3.43c-2.38.4-4.93.66-7.53.84.04,4.36.35,8.71.53,12.37,3.52,1.41,6.29,3.65,8.58,5.68l-1.89,2.86ZM167.57,411.86c-1.41-.48-2.9-.7-4.44-.7-3.26,0-5.5,1.45-5.5,3.48,0,2.16,2.11,3.39,5.24,3.39,3.7,0,4.75-1.8,4.75-4.71,0-.4,0-.92-.04-1.45Z"/><path class="cls-2" d="M193.28,406.84c-.53,1.76-.88,3.34-.88,4.97,0,3.26,3.34,5.54,10.3,5.54,6.03,0,11.62-.66,14.92-1.67l.04,3.78c-3.12.84-8.67,1.5-14.87,1.5-8.85,0-13.99-2.9-13.99-8.36,0-2.29.48-4.31.88-6.12l3.61.35ZM191.48,389.24c3.17.4,7.17.57,11.53.57s8.62-.31,11.75-.62v3.61c-2.95.22-7.75.53-11.75.53-4.36,0-8.05-.18-11.53-.48v-3.61Z"/><path class="cls-2" d="M245.57,417.93c1.36-.09,2.68-.31,3.74-.53,5.59-1.23,11.04-5.37,11.04-12.89,0-6.6-4.18-12.01-11.57-12.63-.57,4.05-1.41,8.45-2.6,12.54-2.68,8.93-6.16,13.55-10.21,13.55s-7.79-4.49-7.79-11.66c0-9.46,8.45-17.73,19.1-17.73s16.72,7.22,16.72,16.02-6.03,15.27-16.42,16.63l-2.02-3.3ZM242.71,403.67c1.1-3.61,1.94-7.75,2.42-11.75-8.36,1.06-13.47,8.23-13.47,14.08,0,5.5,2.55,7.92,4.44,7.92s4.36-2.9,6.6-10.25Z"/><path class="cls-2" d="M304.01,400.15c.97,0,2.55-.09,3.48-.18v3.65c-.97-.09-2.29-.18-3.39-.18h-12.28c-.48,8.23-3.7,14.04-11.27,18.44l-3.43-2.42c6.91-3.21,10.56-8.14,11.09-16.02h-13.07c-1.41,0-2.9.09-3.92.18v-3.65c.97.09,2.51.18,3.83.18h13.25v-8.01c-4.44.44-9.42.57-12.81.62l-.88-3.26c3.34.13,10.03-.04,14.79-.66,4-.57,9.2-1.63,11.35-2.55l2.33,3.04-2.51.66c-2.16.57-5.54,1.23-8.71,1.72v8.45h12.15Z"/><path class="cls-2" d="M344.77,416.92c1.06,0,2.07-.09,2.95-.22v3.7c-.88-.09-2.24-.13-2.95-.13h-24.34c-.97,0-2.11.04-3.17.13v-3.7c1.01.13,2.2.22,3.17.22h10.12v-16.2h-8.1c-.7,0-2.11.04-3.04.13v-3.52c.92.13,2.33.18,3.04.18h20.24c1.1,0,2.2-.09,3.12-.18v3.52c-.97-.09-2.11-.13-3.12-.13h-8.58v16.2h10.65Z"/><path class="cls-2" d="M394.55,390.34c-.31.44-.88,1.1-1.19,1.58-1.76,2.99-5.94,8.67-10.96,12.15l-2.9-2.33c4.05-2.38,8.18-7.13,9.59-9.86h-25.04c-1.63,0-3.26.09-5.02.26v-3.96c1.54.18,3.39.35,5.02.35h25.26c.84,0,2.42-.13,3.08-.26l2.16,2.07ZM376.99,396.15c0,11.93-1.06,19.98-12.28,25.57l-3.21-2.64c1.19-.4,2.68-1.1,3.92-1.94,6.82-4.18,7.79-10.47,7.79-17.82,0-1.06-.04-2.02-.18-3.17h3.96Z"/><path class="cls-2" d="M418.1,417.93c1.36-.09,2.68-.31,3.74-.53,5.59-1.23,11.04-5.37,11.04-12.89,0-6.6-4.18-12.01-11.57-12.63-.57,4.05-1.41,8.45-2.6,12.54-2.68,8.93-6.16,13.55-10.21,13.55s-7.79-4.49-7.79-11.66c0-9.46,8.45-17.73,19.1-17.73s16.72,7.22,16.72,16.02-6.03,15.27-16.42,16.63l-2.02-3.3ZM415.23,403.67c1.1-3.61,1.94-7.75,2.42-11.75-8.36,1.06-13.47,8.23-13.47,14.08,0,5.5,2.55,7.92,4.44,7.92s4.36-2.9,6.6-10.25Z"/><path class="cls-2" d="M459.34,393.95c-.13,2.38-.31,4.8-.66,7.22h17.51s-.04,1.06-.09,1.58c-.88,12.54-1.76,17.38-3.48,19.14-1.01,1.06-2.07,1.36-3.74,1.45-1.54.09-4.4.04-7.35-.13-.09-.92-.53-2.29-1.14-3.17,3.12.31,6.25.31,7.35.31,1.01,0,1.63-.04,2.07-.48,1.32-1.14,2.16-5.46,2.9-15.62h-14.52c-1.54,7.79-5.06,15.05-13.99,19.36-.48-.84-1.5-2.02-2.33-2.68,12.15-5.46,13.42-16.85,13.95-26.98h-13.51v-3.12h17.74v-7.66h3.3v7.66h18.04v3.12h-22.05Z"/><path class="cls-2" d="M501.72,386.03c-.18.84-.4,1.72-.53,2.6-.26,1.28-.66,3.83-1.14,6.16,2.02-.18,3.83-.31,4.88-.31,3.92,0,7.08,1.54,7.08,7.44,0,5.19-.7,12.06-2.51,15.71-1.41,2.91-3.56,3.61-6.38,3.61-1.67,0-3.74-.31-5.15-.62l-.57-3.74c1.85.62,4.14.97,5.37.97,1.58,0,2.86-.35,3.78-2.24,1.41-2.9,2.07-8.58,2.07-13.29,0-3.96-1.8-4.67-4.62-4.67-1.06,0-2.77.13-4.67.31-1.58,6.25-4.58,16.06-9.15,23.37l-3.56-1.45c4.44-5.94,7.66-15.75,9.15-21.56-2.29.22-4.36.44-5.5.57-1.06.13-2.82.31-3.92.53l-.35-3.83c1.36.04,2.46.04,3.87,0,1.45-.04,3.96-.26,6.6-.48.62-3.12,1.14-6.51,1.1-9.46l4.14.4ZM516.68,391c2.73,3.52,6.51,11.44,7.96,15.49l-3.39,1.67c-1.32-4.49-4.75-12.1-7.79-15.67l3.21-1.5ZM518.49,391.7c-.88-1.76-2.38-4.45-3.56-6.12l2.33-.97c1.1,1.54,2.73,4.27,3.65,6.03l-2.42,1.06ZM523.46,389.9c-.97-1.89-2.42-4.4-3.65-6.07l2.33-.97c1.14,1.58,2.86,4.36,3.7,5.99l-2.38,1.06Z"/><path class="cls-2" d="M561.88,420c2.86,0,3.3-.7,3.61-4.75.7.48,1.98.97,2.82,1.14-.53,5.1-1.58,6.38-6.29,6.38h-13.2c-6.03,0-7.57-.92-7.57-4.71v-11h-3.3c-.66,7-2.29,13.16-8.32,16.59-.44-.7-1.41-1.89-2.07-2.46,5.46-2.82,6.91-8.27,7.44-14.13h-4.53v-10.56l-.7.66c-.48-.57-1.5-1.5-2.2-1.89,4.18-3.52,6.87-8.27,8.27-12.01l2.99.48c-.4.97-.84,1.98-1.32,2.99h6.03l.48-.13,1.94,1.19c-.79,1.98-2.02,4.31-3.26,6.25h6.91v-1.76h5.41c.09-2.68.13-5.54.13-8.58h3.08c-.04,2.99-.09,5.9-.18,8.58h9.02v1.45c-.53,14.35-.92,19.27-2.2,20.9-.7.92-1.5,1.28-2.64,1.41-1.01.13-2.77.13-4.49.04-.09-.97-.4-2.24-.88-3.08,1.72.13,3.26.18,3.96.18.66,0,1.01-.09,1.36-.62.88-1.01,1.36-5.32,1.76-17.21h-6.03c-.62,9.77-2.46,17.16-8.62,21.78-.35-.7-1.41-1.8-2.11-2.24,5.5-4.09,7.17-10.74,7.7-19.54h-5.28v11.71h-5.32v10.96c0,1.63.66,1.98,4.49,1.98h13.11ZM536.05,389.37c-.92,1.58-2.02,3.17-3.26,4.67h6.69c.97-1.41,1.94-3.08,2.64-4.67h-6.07ZM533.41,404.29h5.11v-7.53h-5.11v7.53ZM546.57,396.76h-5.24v7.53h5.24v-7.53Z"/><path class="cls-2" d="M584.29,403.94s0,.97-.04,1.45c-.57,11.09-1.01,15.18-2.29,16.63-.75.92-1.54,1.19-2.82,1.28-1.19.13-3.26.13-5.41,0-.09-.97-.44-2.29-.97-3.17,2.2.22,4.27.22,5.06.22.75,0,1.19-.09,1.54-.48.79-.88,1.36-4.31,1.8-13.07h-6.64c-.09.7-.18,1.36-.26,1.98l-2.9-.48c.53-3.39,1.14-8.98,1.41-13.11h8.36v-6.69h-9.15v-2.95h12.28v12.59h-8.84c-.13,1.94-.35,3.92-.53,5.81h9.42ZM609.33,423.83c-.35-.88-.88-1.94-1.5-3.04-8.05.7-16.5,1.36-22.27,1.85l-.44-3.21c3.08-.18,7.08-.44,11.49-.75v-7.22h-9.55v-11.79h9.55v-4.58c-3.87.26-7.48.48-10.43.66l-.44-3.12,3.74-.18c1.72-2.73,3.61-6.51,4.75-9.33l3.43.92c-1.41,2.68-3.17,5.76-4.75,8.27,3.74-.18,7.96-.4,12.19-.66-1.06-1.28-2.16-2.55-3.26-3.65l2.68-1.32c2.73,2.64,5.76,6.34,7.13,8.84l-2.86,1.54c-.4-.79-.97-1.72-1.67-2.68-2.46.18-4.97.35-7.39.48v4.8h9.73v11.79h-9.73v7l6.29-.48c-.97-1.45-2.11-2.9-3.17-4.18l2.64-1.28c2.64,3.04,5.5,7.13,6.6,9.95l-2.77,1.36ZM596.61,408.69v-6.25h-6.56v6.25h6.56ZM599.73,402.44v6.25h6.6v-6.25h-6.6Z"/><path class="cls-2" d="M631.12,386.03c-.18.84-.4,1.72-.53,2.6-.26,1.28-.66,3.83-1.14,6.16,2.02-.18,3.83-.31,4.88-.31,3.92,0,7.08,1.54,7.08,7.44,0,5.19-.7,12.06-2.51,15.71-1.41,2.91-3.56,3.61-6.38,3.61-1.67,0-3.74-.31-5.15-.62l-.57-3.74c1.85.62,4.14.97,5.37.97,1.58,0,2.86-.35,3.79-2.24,1.41-2.9,2.07-8.58,2.07-13.29,0-3.96-1.8-4.67-4.62-4.67-1.06,0-2.77.13-4.67.31-1.58,6.25-4.58,16.06-9.15,23.37l-3.56-1.45c4.45-5.94,7.66-15.75,9.15-21.56-2.29.22-4.36.44-5.5.57-1.06.13-2.82.31-3.92.53l-.35-3.83c1.36.04,2.46.04,3.87,0,1.45-.04,3.96-.26,6.6-.48.62-3.12,1.14-6.51,1.1-9.46l4.14.4ZM646.08,391c2.73,3.52,6.51,11.44,7.96,15.49l-3.39,1.67c-1.32-4.49-4.75-12.1-7.79-15.67l3.21-1.5ZM647.88,391.7c-.88-1.76-2.38-4.45-3.56-6.12l2.33-.97c1.1,1.54,2.73,4.27,3.65,6.03l-2.42,1.06ZM652.86,389.9c-.97-1.89-2.42-4.4-3.65-6.07l2.33-.97c1.14,1.58,2.86,4.36,3.7,5.99l-2.38,1.06Z"/><path class="cls-2" d="M666.86,386.6c-.26.7-.62,2.16-.75,2.95-.88,4.05-2.16,12.67-2.16,17.56,0,2.11.09,3.83.4,5.94.7-1.98,1.72-4.58,2.46-6.34l1.85,1.45c-1.1,3.04-2.64,7.48-3.08,9.64-.13.57-.26,1.41-.22,1.94,0,.44.09,1.06.13,1.5l-3.12.26c-.88-3.12-1.67-7.92-1.67-13.82,0-6.38,1.45-14.7,1.98-18.31.18-1.01.31-2.16.31-3.08l3.87.31ZM695.2,418.33c-2.16-2.02-4.31-3.74-6.56-4.97v.79c0,3.61-1.67,7.13-7.57,7.13s-9.07-2.42-9.07-6.29c0-3.65,3.26-6.65,8.98-6.65,1.45,0,2.82.13,4.05.4-.13-3.34-.4-7.53-.44-11.13-1.41.04-2.77.09-4.18.09-2.46,0-4.75-.13-7.3-.26v-3.34c2.46.26,4.84.4,7.39.4,1.36,0,2.73-.04,4.09-.09v-5.41c0-.75-.09-1.89-.22-2.64h4c-.13.84-.22,1.72-.26,2.6-.04,1.19-.09,3.21-.13,5.24,2.64-.18,5.19-.53,7.53-1.01v3.43c-2.38.4-4.93.66-7.53.84.04,4.36.35,8.71.53,12.37,3.52,1.41,6.29,3.65,8.58,5.68l-1.89,2.86ZM685.16,411.86c-1.41-.48-2.9-.7-4.44-.7-3.26,0-5.5,1.45-5.5,3.48,0,2.16,2.11,3.39,5.24,3.39,3.7,0,4.75-1.8,4.75-4.71,0-.4,0-.92-.04-1.45Z"/><path class="cls-2" d="M70.97,458.89c-.18.79-.35,1.72-.53,2.55-.22,1.28-.62,3.83-1.1,6.16,2.02-.13,3.83-.26,4.88-.26,3.87,0,7.08,1.5,7.08,7.39,0,5.19-.75,12.06-2.55,15.71-1.36,2.9-3.52,3.65-6.38,3.65-1.63,0-3.74-.35-5.1-.66l-.57-3.7c1.8.57,4.14.97,5.33.97,1.63,0,2.9-.35,3.83-2.25,1.36-2.95,2.02-8.58,2.02-13.33,0-3.96-1.8-4.66-4.58-4.66-1.06,0-2.77.13-4.67.31-1.58,6.25-4.53,16.02-9.15,23.41l-3.61-1.45c4.44-5.94,7.7-15.8,9.15-21.61-2.24.22-4.36.44-5.5.57-1.01.13-2.77.35-3.92.53l-.35-3.83c1.36.09,2.51.04,3.87,0,1.45-.04,4-.26,6.64-.48.62-3.12,1.1-6.51,1.1-9.46l4.09.44ZM85.97,463.52c2.73,3.52,6.47,11.53,7.96,15.58l-3.43,1.63c-1.28-4.49-4.71-12.15-7.79-15.8l3.26-1.41Z"/><path class="cls-2" d="M127.65,468.05c-.97.62-2.02,1.19-3.3,1.85-2.95,1.54-7.79,3.78-12.06,6.6-4.05,2.68-6.47,5.5-6.47,8.8,0,3.61,3.43,5.85,10.3,5.85,4.75,0,10.56-.62,13.95-1.5l-.04,3.96c-3.26.57-8.32,1.06-13.77,1.06-8.14,0-14.13-2.46-14.13-8.98,0-4.49,2.86-8.1,7.53-11.35-1.98-3.56-4.27-8.67-6.29-13.33l3.48-1.45c1.72,4.8,3.92,9.46,5.81,12.89,3.83-2.33,7.79-4.22,10.17-5.54,1.28-.75,2.2-1.32,3.08-2.07l1.76,3.21ZM128.53,458.98c1.1,1.58,2.68,4.27,3.61,6.07l-2.38,1.06c-.88-1.8-2.38-4.45-3.61-6.12l2.38-1.01ZM133.38,457.22c1.19,1.63,2.86,4.36,3.7,5.99l-2.38,1.1c-.92-1.94-2.38-4.44-3.65-6.07l2.33-1.01Z"/><path class="cls-2" d="M170.88,462.55c-.79.53-1.76,1.19-2.42,1.67-2.16,1.63-8.01,6.78-11.35,9.59,1.98-.66,3.96-.92,5.9-.92,7.26,0,12.5,4.4,12.5,10.3,0,7.04-5.85,11.62-15.05,11.62-5.94,0-9.59-2.64-9.59-6.25,0-2.99,2.68-5.72,6.73-5.72,5.46,0,8.41,3.65,8.98,7.7,3.43-1.32,5.41-3.83,5.41-7.39,0-4.27-4.31-7.39-9.81-7.39-7.17,0-11.13,3.04-16.68,8.67l-2.55-2.6c3.61-2.99,9.2-7.66,11.75-9.77,2.42-2.02,7.83-6.6,9.99-8.54-2.29.09-10.87.48-13.11.62-1.01.04-2.02.09-2.95.26l-.09-3.65c.97.13,2.2.13,3.08.13,2.25,0,12.59-.31,14.88-.53,1.28-.13,1.89-.22,2.38-.35l2.02,2.55ZM163.35,491.37c-.4-3.43-2.46-5.81-5.76-5.81-1.98,0-3.48,1.19-3.48,2.68,0,2.16,2.51,3.39,5.76,3.39,1.23,0,2.42-.09,3.48-.26Z"/><path class="cls-2" d="M215.86,466.9c-.97.62-2.07,1.19-3.34,1.85-2.9,1.5-8.98,4.36-13.25,7.17-4.05,2.64-6.47,5.5-6.47,8.8,0,3.61,3.43,5.85,10.3,5.85,4.75,0,10.56-.62,13.95-1.5v3.96c-3.3.57-8.32,1.06-13.77,1.06-8.19,0-14.13-2.46-14.13-8.98,0-4.49,2.86-8.05,7.53-11.31-2.02-3.56-4.31-8.67-6.34-13.42l3.48-1.41c1.76,4.75,3.96,9.46,5.85,12.89,4.09-2.46,8.8-4.75,11.18-6.12,1.28-.7,2.2-1.28,3.12-2.07l1.89,3.21Z"/><path class="cls-2" d="M245.57,490.93c1.36-.09,2.68-.31,3.74-.53,5.59-1.23,11.04-5.37,11.04-12.89,0-6.6-4.18-12.01-11.57-12.63-.57,4.05-1.41,8.45-2.6,12.54-2.68,8.93-6.16,13.55-10.21,13.55s-7.79-4.49-7.79-11.66c0-9.46,8.45-17.73,19.1-17.73s16.72,7.22,16.72,16.02-6.03,15.27-16.42,16.63l-2.02-3.3ZM242.71,476.67c1.1-3.61,1.94-7.75,2.42-11.75-8.36,1.06-13.47,8.23-13.47,14.08,0,5.5,2.55,7.92,4.44,7.92s4.36-2.9,6.6-10.25Z"/><path class="cls-2" d="M279.54,479.84c-.53,1.76-.88,3.34-.88,4.97,0,3.26,3.34,5.54,10.3,5.54,6.03,0,11.62-.66,14.92-1.67l.04,3.78c-3.12.84-8.67,1.5-14.87,1.5-8.85,0-13.99-2.9-13.99-8.36,0-2.29.48-4.31.88-6.12l3.61.35ZM277.74,462.24c3.17.4,7.17.57,11.53.57s8.62-.31,11.75-.62v3.61c-2.95.22-7.75.53-11.75.53-4.36,0-8.05-.18-11.53-.48v-3.61Z"/><path class="cls-2" d="M345.25,466.9c-.97.62-2.07,1.19-3.34,1.85-2.9,1.5-8.98,4.36-13.25,7.17-4.05,2.64-6.47,5.5-6.47,8.8,0,3.61,3.43,5.85,10.3,5.85,4.75,0,10.56-.62,13.95-1.5v3.96c-3.3.57-8.32,1.06-13.77,1.06-8.19,0-14.13-2.46-14.13-8.98,0-4.49,2.86-8.05,7.52-11.31-2.02-3.56-4.31-8.67-6.34-13.42l3.48-1.41c1.76,4.75,3.96,9.46,5.85,12.89,4.09-2.46,8.8-4.75,11.18-6.12,1.28-.7,2.2-1.28,3.12-2.07l1.89,3.21Z"/><path class="cls-2" d="M361.1,463.91c2.86-.26,11.09-1.06,19.1-1.76,4.75-.4,8.84-.62,11.75-.75v3.52c-2.51,0-6.29.04-8.54.7-6.2,1.98-9.95,8.62-9.95,13.77,0,8.49,7.92,11.18,15.01,11.44l-1.28,3.7c-8.05-.35-17.25-4.67-17.25-14.39,0-6.78,4.09-12.32,8.1-14.7-3.83.44-15.71,1.58-20.42,2.55l-.4-3.87c1.67-.04,3.04-.13,3.87-.22ZM389.4,476.37l-2.24,1.06c-1.01-2.11-2.29-4.4-3.61-6.21l2.24-.97c1.01,1.45,2.68,4.18,3.61,6.12ZM394.41,474.47l-2.29,1.06c-1.06-2.11-2.33-4.27-3.74-6.12l2.2-1.01c1.06,1.45,2.77,4.14,3.83,6.07Z"/><path class="cls-2" d="M422.8,484.15c3.96,3.7,10.3,6.91,16.02,8.49-.79.7-1.8,2.02-2.33,2.95-5.72-1.94-12.01-5.59-16.28-9.86v10.74h-3.21v-10.74c-4.22,4.14-10.52,7.7-16.11,9.59-.53-.84-1.5-2.07-2.24-2.77,5.59-1.58,11.88-4.8,15.8-8.41h-13.29v-2.86h6.34v-4.93h-8.14v-2.9h8.14v-4.8h-5.81v-2.86h15.31v-3.92c-4.8.4-9.77.62-14.3.75-.04-.79-.4-2.07-.75-2.77,10.52-.35,23.28-1.36,30.23-2.95l2.2,2.6c-3.87.92-8.89,1.58-14.17,2.11v4.18h15.89v2.86h-6.16v4.8h8.19v2.9h-8.19v4.93h6.69v2.86h-13.82ZM410.66,473.46h6.34v-4.8h-6.34v4.8ZM410.66,481.29h6.34v-4.93h-6.34v4.93ZM420.21,468.66v4.8h6.51v-4.8h-6.51ZM426.72,476.37h-6.51v4.93h6.51v-4.93Z"/><path class="cls-2" d="M451.11,474.38c3.12-.97,10.25-3.56,15.4-3.56,6.16,0,10.65,3.7,10.65,9.64,0,8.41-8.1,12.72-19.85,13.42l-1.41-3.39c9.42-.31,17.69-2.95,17.69-10.08,0-3.7-2.9-6.38-7.35-6.38-5.41,0-14.92,3.96-17.73,5.06l-1.45-3.65c1.28-.22,2.73-.62,4.05-1.06Z"/><path class="cls-2" d="M503.48,462.06v34.28h-3.17v-7.97c-5.54.92-11.18,1.76-15.36,2.46l-.57-3.3c1.23-.13,2.68-.31,4.27-.53v-24.95h-3.43v-3.04h21.34v3.04h-3.08ZM500.31,462.06h-8.58v5.85h8.58v-5.85ZM500.31,470.82h-8.58v6.12h8.58v-6.12ZM491.73,486.58c2.68-.35,5.63-.79,8.58-1.23v-5.41h-8.58v6.65ZM523.9,462.77c-1.14,9.42-3.61,16.72-7.13,22.31,2.42,3.52,5.41,6.34,9.07,8.18-.75.62-1.8,1.85-2.33,2.68-3.48-1.98-6.38-4.67-8.76-7.96-2.6,3.3-5.63,5.9-8.98,7.83-.48-.84-1.45-2.02-2.16-2.64,3.48-1.8,6.6-4.53,9.24-8.14-3.04-5.19-5.1-11.57-6.56-18.79l3.12-.57c1.14,6.07,2.9,11.62,5.41,16.28,2.55-4.49,4.45-9.99,5.46-16.46h-14.83v-3.21h15.71l.62-.13,2.11.62Z"/><path class="cls-2" d="M538.25,478.79c4.18-3.65,8.89-5.24,14.08-5.24,6.69,0,11.13,4,11.13,9.11,0,7.83-6.91,13.11-23.1,11.75l-1.06-3.61c13.73,1.67,20.46-2.29,20.46-8.23,0-3.48-3.21-5.9-7.66-5.9-5.81,0-10.39,2.11-13.47,5.76-.62.75-1.01,1.5-1.32,2.2l-3.3-.79c.88-3.96,1.94-13.11,2.2-17.69l3.74.48c-.57,2.99-1.32,9.33-1.72,12.15ZM540.94,458.72c3.74,1.19,12.98,2.99,16.85,3.34l-.84,3.43c-4.14-.57-13.6-2.51-16.94-3.43l.92-3.34Z"/><path class="cls-2" d="M611.88,489.57c-2.29,2.33-5.02,3.65-8.01,3.65s-4.84-1.94-4.84-5.54c0-4.84,1.63-12.01,1.63-16.24,0-2.51-1.28-3.56-3.48-3.56-3.52,0-8.8,4.09-12.81,8.41-.09,1.85-.13,3.56-.13,5.1,0,3.96,0,6.6.18,10.52.04.75.13,1.85.22,2.64h-3.83c.04-.62.13-1.89.13-2.6.04-4.18.04-6.34.13-11.18,0-.44.04-1.01.04-1.67-2.11,3.21-4.97,7.39-7.08,10.3l-2.2-3.04c2.42-3.04,7.44-9.81,9.64-13.25.09-1.41.18-2.82.26-4.18-1.98.22-5.76.75-8.49,1.1l-.35-3.65c.97.04,1.8.04,2.86-.04,1.41-.09,3.96-.35,6.21-.7.13-2.07.22-3.61.22-4.09,0-1.01.04-2.16-.18-3.26l4.18.13c-.22,1.06-.57,3.52-.88,6.56l.22-.09,1.28,1.54c-.53.79-1.28,1.98-1.94,3.04-.09.79-.13,1.63-.22,2.46,3.39-3.12,8.98-7.3,13.33-7.3,4.09,0,6.16,2.29,6.16,5.85,0,4.36-1.63,11.88-1.63,16.28,0,1.5.7,2.64,2.24,2.64,2.2,0,4.53-1.41,6.56-3.61l.57,3.78Z"/><path class="cls-2" d="M620.16,463.65c2.86-.26,11.09-1.1,19.1-1.76,4.75-.4,8.85-.62,11.75-.75v3.52c-2.46,0-6.29.04-8.54.7-6.21,1.98-9.95,8.58-9.95,13.73,0,8.54,7.92,11.22,15.01,11.49l-1.28,3.65c-8.05-.31-17.25-4.62-17.25-14.35,0-6.82,4.09-12.32,8.1-14.7-3.83.44-15.71,1.58-20.42,2.55l-.4-3.87c1.67-.04,3.04-.13,3.87-.22Z"/><path class="cls-2" d="M670.55,458.94c-.22,1.41-.35,2.95-.44,4.36-.18,4.93-.53,15.23-.53,21.74,0,4.8,3.08,6.47,7.13,6.47,8.01,0,12.54-4.49,15.67-9.02l2.42,3.04c-2.95,4.14-8.58,9.59-18.17,9.59-6.25,0-10.56-2.64-10.56-9.73,0-6.47.44-17.47.44-22.09,0-1.58-.13-3.12-.4-4.4l4.44.04Z"/><path class="cls-2" d="M87.6,565.56c-2.55-2.33-6.16-4.97-10.52-6.56.04,1.1.09,2.07.09,2.73,0,2.99-2.02,6.12-7.7,6.12-6.25,0-9.72-2.24-9.72-6.47,0-3.96,3.83-6.64,10.12-6.64,1.28,0,2.46.09,3.65.26-.09-1.94-.18-4-.22-5.81h-2.42c-2.99,0-7.83-.26-10.96-.62v-3.34c2.95.53,8.1.84,10.96.84h2.33v-6.25h-2.16c-3.04,0-7.66-.35-10.25-.66v-3.26c2.64.48,7.3.84,10.21.84h2.24v-2.86c0-.7-.04-1.98-.13-2.6h3.74c-.13.79-.18,1.63-.22,2.9-.04.53-.04,1.36-.04,2.42,3.79-.13,7.35-.48,11.18-1.06l.04,3.21c-3.43.35-7.17.7-11.27.92v6.25c4.18-.18,8.19-.57,12.1-1.14l.04,3.3c-4.09.53-7.97.84-12.1,1.01.09,2.24.22,4.53.31,6.6,5.76,1.58,10.21,4.8,12.67,6.78l-1.98,3.08ZM73.65,558.04c-1.36-.26-2.77-.4-4.22-.4-4.14,0-6.38,1.58-6.38,3.56s1.72,3.52,6.03,3.52c2.51,0,4.62-.75,4.62-3.74,0-.75-.04-1.76-.04-2.95Z"/><path class="cls-2" d="M104.38,539.68c-.04,2.73,0,6.73.31,10.3.7,7.31,2.82,12.1,5.9,12.1,2.25,0,4.27-4.49,5.41-8.89l2.77,3.17c-2.6,7.39-5.28,9.9-8.27,9.9-4.09,0-8.05-4.09-9.24-15.4-.44-3.78-.48-9.06-.48-11.62,0-1.01-.04-2.82-.26-3.87l4.22.09c-.18,1.06-.31,3.08-.35,4.22ZM135.09,557.99l-3.56,1.41c-.75-7.83-3.39-16.46-7.52-21.56l3.43-1.19c3.92,5.06,7.04,13.99,7.66,21.34Z"/><path class="cls-2" d="M173.87,565.56c-2.55-2.33-6.16-4.97-10.52-6.56.04,1.1.09,2.07.09,2.73,0,2.99-2.02,6.12-7.7,6.12-6.25,0-9.72-2.24-9.72-6.47,0-3.96,3.83-6.64,10.12-6.64,1.28,0,2.46.09,3.65.26-.09-1.94-.18-4-.22-5.81h-2.42c-2.99,0-7.83-.26-10.96-.62v-3.34c2.95.53,8.1.84,10.96.84h2.33v-6.25h-2.16c-3.04,0-7.66-.35-10.25-.66v-3.26c2.64.48,7.3.84,10.21.84h2.24v-2.86c0-.7-.04-1.98-.13-2.6h3.74c-.13.79-.18,1.63-.22,2.9-.04.53-.04,1.36-.04,2.42,3.79-.13,7.35-.48,11.18-1.06l.04,3.21c-3.43.35-7.17.7-11.27.92v6.25c4.18-.18,8.19-.57,12.1-1.14l.04,3.3c-4.09.53-7.97.84-12.1,1.01.09,2.24.22,4.53.31,6.6,5.76,1.58,10.21,4.8,12.67,6.78l-1.98,3.08ZM159.92,558.04c-1.36-.26-2.77-.4-4.22-.4-4.14,0-6.38,1.58-6.38,3.56s1.72,3.52,6.03,3.52c2.51,0,4.62-.75,4.62-3.74,0-.75-.04-1.76-.04-2.95Z"/><path class="cls-2" d="M196.1,531.94c-.22,1.41-.35,2.95-.44,4.36-.18,4.93-.53,15.23-.53,21.74,0,4.8,3.08,6.47,7.13,6.47,8.01,0,12.54-4.49,15.67-9.02l2.42,3.04c-2.95,4.14-8.58,9.59-18.17,9.59-6.25,0-10.56-2.64-10.56-9.73,0-6.47.44-17.47.44-22.09,0-1.58-.13-3.12-.4-4.4l4.44.04Z"/><path class="cls-2" d="M250.64,540.17c-2.86.66-5.99,1.14-9.02,1.5-.4,1.89-.88,3.92-1.36,5.77-1.58,6.25-4.53,15.23-6.82,19.98l-3.87-1.28c2.6-4.49,5.68-13.33,7.3-19.5.4-1.45.75-3.04,1.1-4.62-1.41.09-2.73.13-3.96.13-1.94,0-3.52-.09-5.06-.18l-.13-3.43c2.07.26,3.65.31,5.24.31,1.45,0,2.99-.09,4.67-.18.31-1.58.53-2.95.66-3.83.13-1.23.22-2.68.13-3.61l4.27.35c-.31.97-.62,2.6-.79,3.48l-.66,3.21c2.82-.35,5.68-.88,8.32-1.58v3.48ZM248.92,555.44c-.4,1.45-.62,2.82-.62,3.92,0,2.07.97,4.05,7.17,4.05,2.82,0,5.85-.35,8.49-.84l-.13,3.56c-2.33.31-5.24.57-8.41.57-6.86,0-10.47-2.11-10.47-6.42,0-1.67.26-3.3.66-5.15l3.3.31ZM247.82,544.83c2.29-.22,5.15-.35,7.96-.35,2.51,0,5.19.09,7.53.35l-.09,3.34c-2.2-.26-4.8-.53-7.35-.53-2.73,0-5.37.18-8.05.48v-3.3Z"/><path class="cls-2" d="M282.58,562.04c0,3.7-2.99,6.73-6.73,6.73s-6.69-3.04-6.69-6.73,3.04-6.69,6.69-6.69,6.73,2.99,6.73,6.69ZM280.29,562.04c0-2.42-1.94-4.44-4.44-4.44s-4.44,2.02-4.44,4.44,2.02,4.49,4.44,4.49,4.44-1.98,4.44-4.49Z"/><path class="cls-2" d="M321.74,542.68c1.19,1.67,4.22,6.51,4.97,7.79l-2.07,2.38c-.57-1.32-1.8-3.74-2.9-5.85v22.44h-2.99v-21.3c-1.36,4.84-3.17,9.51-5.02,12.41-.4-.92-1.14-2.38-1.72-3.17,2.55-3.7,5.1-10.61,6.29-16.59h-5.59v-3.08h6.03v-8.45h2.99v8.45h4.84v3.08h-4.84v1.89ZM352.41,548.22h-3.26v17.51c0,1.8-.4,2.68-1.8,3.21-1.41.48-3.65.53-7.22.53-.18-.88-.75-2.16-1.23-2.99,2.86.09,5.33.09,6.12.04.7-.04.92-.22.92-.88v-17.43h-18.97v-2.77h2.33c-.35-.75-1.1-1.8-1.67-2.38,6.07-1.32,8.76-3.56,9.99-7.22h-8.85v-2.73h9.46c.22-1.14.31-2.42.4-3.83h3.17c-.09,1.36-.18,2.68-.35,3.83h9.29v2.73h-9.86c-.09.44-.22.88-.4,1.23,3.61,1.85,8.23,4.31,10.74,5.98l-2.16,2.24c-2.2-1.45-6.21-3.83-9.73-5.76-1.76,2.77-4.75,4.67-9.86,5.9h22.93v2.77ZM332.69,561.78v2.46h-2.82v-12.76h11.97v10.3h-9.15ZM332.69,553.9v5.41h6.29v-5.41h-6.29Z"/><path class="cls-2" d="M395.46,552.05h-18.13v13.16c0,2.2-.57,3.21-2.2,3.74-1.63.53-4.49.62-8.67.57-.26-.92-.84-2.42-1.41-3.34,3.52.13,6.78.13,7.7.09.97-.04,1.23-.26,1.23-1.06v-13.16h-18.17v-3.26h18.17v-7.04h2.07c3.12-1.72,6.51-4.05,9.07-6.25h-24.78v-3.17h28.21l.79-.18,2.38,1.8c-3.74,3.79-9.5,7.88-14.39,10.52v4.31h18.13v3.26Z"/><path class="cls-2" d="M418.08,563.93c1.36-.09,2.68-.31,3.74-.53,5.59-1.23,11.04-5.37,11.04-12.89,0-6.6-4.18-12.01-11.57-12.63-.57,4.05-1.41,8.45-2.6,12.54-2.68,8.93-6.16,13.55-10.21,13.55s-7.79-4.49-7.79-11.66c0-9.46,8.45-17.73,19.1-17.73s16.72,7.22,16.72,16.02-6.03,15.27-16.42,16.63l-2.02-3.3ZM415.22,549.67c1.1-3.61,1.94-7.75,2.42-11.75-8.36,1.06-13.47,8.23-13.47,14.08,0,5.5,2.55,7.92,4.44,7.92s4.36-2.9,6.6-10.25Z"/><path class="cls-2" d="M481.46,564.11v3.26h-39.21v-3.26h16.42v-34.15h3.43v13.47h16.37v3.26h-16.37v17.43h19.36Z"/><path class="cls-2" d="M490.49,536.91c2.86-.26,11.09-1.06,19.1-1.76,4.75-.4,8.84-.62,11.75-.75v3.52c-2.51,0-6.29.04-8.54.7-6.2,1.98-9.95,8.62-9.95,13.77,0,8.49,7.92,11.18,15.01,11.44l-1.28,3.7c-8.05-.35-17.25-4.67-17.25-14.39,0-6.78,4.09-12.32,8.1-14.7-3.83.44-15.71,1.58-20.42,2.55l-.4-3.87c1.67-.04,3.04-.13,3.87-.22ZM518.79,549.37l-2.24,1.06c-1.01-2.11-2.29-4.4-3.61-6.21l2.24-.97c1.01,1.45,2.68,4.18,3.61,6.12ZM523.8,547.47l-2.29,1.06c-1.06-2.11-2.33-4.27-3.74-6.12l2.2-1.01c1.06,1.45,2.77,4.14,3.83,6.07Z"/><path class="cls-2" d="M557.08,544.48c5.46,1.45,8.71,5.5,8.71,10.3,0,6.25-4.14,11.71-14.26,13.29l-1.89-2.95c7.83-.84,12.67-4.88,12.67-10.52,0-3.3-2.16-6.29-6.25-7.39-2.42,6.16-5.94,10.96-9.64,14.08.35,1.23.7,2.42,1.06,3.52l-3.21.97c-.22-.75-.48-1.54-.7-2.42-2.38,1.45-4.97,2.38-7.31,2.38-2.95,0-5.19-1.76-5.19-5.5,0-5.59,4.88-11.35,10.87-14.08.09-2.2.31-4.4.48-6.42-.92.04-1.8.04-2.64.04-1.89,0-5.28-.18-7.04-.26l-.09-3.3c1.5.22,5.33.53,7.17.53.97,0,1.94,0,2.9-.04.13-1.28.26-2.42.35-3.34.09-.71.13-1.54.13-2.07l3.7.09c-.22.57-.4,1.36-.53,1.94-.18.92-.35,2.02-.53,3.3,5.5-.26,10.78-.84,15.27-1.85l.04,3.3c-4.58.75-10.39,1.32-15.71,1.58-.18,1.67-.31,3.52-.44,5.37,2.42-.75,5.1-1.14,7.3-1.14.53,0,1.06,0,1.58.04l.13-.4c.18-.66.4-1.8.44-2.51l3.52.88c-.26.57-.62,1.76-.88,2.42l-.04.18ZM541.81,549.45c-4.22,2.42-7.44,6.73-7.44,10.25,0,1.76.84,2.64,2.46,2.64s3.79-.75,5.99-2.29c-.62-3.12-1.01-6.6-1.01-9.86v-.75ZM552.28,546.72c-2.82,0-5.32.62-7.39,1.36v1.72c0,2.77.31,5.41.75,7.92,2.86-2.68,5.46-6.21,7.35-11h-.7Z"/><path class="cls-2" d="M599.56,533.74c-.92.7-2.24,1.85-2.99,2.46-2.99,2.6-9.24,7.61-12.45,10.25-2.64,2.29-2.68,2.95.13,5.28,3.96,3.17,12.06,9.86,16.28,14.08l-3.12,2.86c-.88-1.06-2.07-2.16-2.99-3.17-2.38-2.55-9.68-8.76-13.73-12.1-4.14-3.43-3.65-5.41.26-8.71,3.3-2.77,9.9-7.97,12.85-10.96.88-.88,1.98-2.11,2.51-2.9l3.26,2.9ZM601.18,547.52l-2.46,1.06c-.92-1.8-2.55-4.8-3.7-6.51l2.33-1.01c1.1,1.63,2.9,4.8,3.83,6.47ZM606.38,545.41l-2.38,1.06c-1.01-1.85-2.64-4.66-3.87-6.34l2.38-1.06c1.14,1.54,2.95,4.58,3.87,6.34Z"/><path class="cls-2" d="M624.51,551.79c4.18-3.65,8.89-5.24,14.08-5.24,6.69,0,11.13,4,11.13,9.11,0,7.83-6.91,13.11-23.1,11.75l-1.06-3.61c13.73,1.67,20.46-2.29,20.46-8.23,0-3.48-3.21-5.9-7.66-5.9-5.81,0-10.39,2.11-13.47,5.76-.62.75-1.01,1.5-1.32,2.2l-3.3-.79c.88-3.96,1.94-13.11,2.2-17.69l3.74.48c-.57,2.99-1.32,9.33-1.72,12.15ZM627.2,531.72c3.74,1.19,12.98,2.99,16.85,3.34l-.84,3.43c-4.14-.57-13.6-2.51-16.94-3.43l.92-3.34Z"/><path class="cls-2" d="M674.25,532.03c-.18.84-.4,1.72-.53,2.6-.26,1.28-.66,3.83-1.14,6.16,2.02-.18,3.83-.31,4.88-.31,3.92,0,7.08,1.54,7.08,7.44,0,5.19-.7,12.06-2.51,15.71-1.41,2.91-3.56,3.61-6.38,3.61-1.67,0-3.74-.31-5.15-.62l-.57-3.74c1.85.62,4.14.97,5.37.97,1.58,0,2.86-.35,3.78-2.24,1.41-2.9,2.07-8.58,2.07-13.29,0-3.96-1.8-4.67-4.62-4.67-1.06,0-2.77.13-4.67.31-1.58,6.25-4.58,16.06-9.15,23.37l-3.56-1.45c4.44-5.94,7.66-15.75,9.15-21.56-2.29.22-4.36.44-5.5.57-1.06.13-2.82.31-3.92.53l-.35-3.83c1.36.04,2.46.04,3.87,0,1.45-.04,3.96-.26,6.6-.48.62-3.12,1.14-6.51,1.1-9.46l4.14.4ZM689.21,537c2.73,3.52,6.51,11.44,7.96,15.49l-3.39,1.67c-1.32-4.49-4.75-12.1-7.79-15.67l3.21-1.5ZM691.02,537.7c-.88-1.76-2.38-4.45-3.56-6.12l2.33-.97c1.1,1.54,2.73,4.27,3.65,6.03l-2.42,1.06ZM695.99,535.9c-.97-1.89-2.42-4.4-3.65-6.07l2.33-.97c1.14,1.58,2.86,4.36,3.7,5.99l-2.38,1.06Z"/><path class="cls-2" d="M70.97,604.89c-.18.79-.35,1.72-.53,2.55-.22,1.28-.62,3.83-1.1,6.16,2.02-.13,3.83-.26,4.88-.26,3.87,0,7.08,1.5,7.08,7.39,0,5.19-.75,12.06-2.55,15.71-1.36,2.9-3.52,3.65-6.38,3.65-1.63,0-3.74-.35-5.1-.66l-.57-3.7c1.8.57,4.14.97,5.33.97,1.63,0,2.9-.35,3.83-2.25,1.36-2.95,2.02-8.58,2.02-13.33,0-3.96-1.8-4.66-4.58-4.66-1.06,0-2.77.13-4.67.31-1.58,6.25-4.53,16.02-9.15,23.41l-3.61-1.45c4.44-5.94,7.7-15.8,9.15-21.61-2.24.22-4.36.44-5.5.57-1.01.13-2.77.35-3.92.53l-.35-3.83c1.36.09,2.51.04,3.87,0,1.45-.04,4-.26,6.64-.48.62-3.12,1.1-6.51,1.1-9.46l4.09.44ZM85.97,609.52c2.73,3.52,6.47,11.53,7.96,15.58l-3.43,1.63c-1.28-4.49-4.71-12.15-7.79-15.8l3.26-1.41Z"/><path class="cls-2" d="M106.17,605.55c-.26.79-.57,1.98-.79,2.82-1.36,6.34-2.82,15.8-1.23,22.93.62-1.85,1.5-4.44,2.29-6.6l1.94,1.19c-1.06,3.04-2.38,7.44-2.82,9.59-.13.66-.22,1.45-.22,1.94l.13,1.5-2.99.35c-.88-2.64-2.29-8.32-2.29-13.82,0-7.04,1.1-13.77,1.63-17.38.18-1.01.22-2.16.22-2.9l4.14.4ZM135.17,616.6c-1.98.35-4.44.62-7.04.79v1.5c0,10.03,0,17.12-9.24,22.58l-3.21-2.55c1.36-.57,3.17-1.63,4.27-2.73,4.66-4.05,4.88-8.93,4.88-17.34v-1.28c-1.85.09-3.74.13-5.54.13-2.07,0-5.15-.13-7.04-.31v-3.52c1.89.31,4.66.48,7,.48,1.8,0,3.65-.04,5.5-.13-.09-2.73-.18-5.63-.26-6.73-.09-.97-.26-1.94-.4-2.6h4.09c-.09.75-.09,1.58-.13,2.55s0,3.83.04,6.56c2.55-.22,5.02-.53,7.08-1.01v3.61Z"/><path class="cls-2" d="M170.85,608.55c-.79.53-1.76,1.19-2.42,1.67-2.16,1.63-8.01,6.78-11.35,9.59,1.98-.66,3.96-.92,5.9-.92,7.26,0,12.5,4.4,12.5,10.3,0,7.04-5.85,11.62-15.05,11.62-5.94,0-9.59-2.64-9.59-6.25,0-2.99,2.68-5.72,6.73-5.72,5.46,0,8.41,3.65,8.98,7.7,3.43-1.32,5.41-3.83,5.41-7.39,0-4.27-4.31-7.39-9.81-7.39-7.17,0-11.13,3.04-16.68,8.67l-2.55-2.6c3.61-2.99,9.2-7.66,11.75-9.77,2.42-2.02,7.83-6.6,9.99-8.54-2.29.09-10.87.48-13.11.62-1.01.04-2.02.09-2.95.26l-.09-3.65c.97.13,2.2.13,3.08.13,2.25,0,12.59-.31,14.88-.53,1.28-.13,1.89-.22,2.38-.35l2.02,2.55ZM163.32,637.37c-.4-3.43-2.46-5.81-5.76-5.81-1.98,0-3.48,1.19-3.48,2.68,0,2.16,2.51,3.39,5.76,3.39,1.23,0,2.42-.09,3.48-.26Z"/><path class="cls-2" d="M202.4,636.93c1.36-.09,2.68-.31,3.74-.53,5.59-1.23,11.04-5.37,11.04-12.89,0-6.6-4.18-12.01-11.57-12.63-.57,4.05-1.41,8.45-2.6,12.54-2.68,8.93-6.16,13.55-10.21,13.55s-7.79-4.49-7.79-11.66c0-9.46,8.45-17.73,19.1-17.73s16.72,7.22,16.72,16.02-6.03,15.27-16.42,16.63l-2.02-3.3ZM199.54,622.67c1.1-3.61,1.94-7.75,2.42-11.75-8.36,1.06-13.47,8.23-13.47,14.08,0,5.5,2.55,7.92,4.44,7.92s4.36-2.9,6.6-10.25Z"/><path class="cls-2" d="M242.88,605.03c-.18.84-.4,1.72-.53,2.6-.26,1.28-.66,3.83-1.14,6.16,2.02-.18,3.83-.31,4.88-.31,3.92,0,7.08,1.54,7.08,7.44,0,5.19-.7,12.06-2.51,15.71-1.41,2.91-3.56,3.61-6.38,3.61-1.67,0-3.74-.31-5.15-.62l-.57-3.74c1.85.62,4.14.97,5.37.97,1.58,0,2.86-.35,3.79-2.24,1.41-2.9,2.07-8.58,2.07-13.29,0-3.96-1.8-4.67-4.62-4.67-1.06,0-2.77.13-4.67.31-1.58,6.25-4.58,16.06-9.15,23.37l-3.56-1.45c4.45-5.94,7.66-15.75,9.15-21.56-2.29.22-4.36.44-5.5.57-1.06.13-2.82.31-3.92.53l-.35-3.83c1.36.04,2.46.04,3.87,0,1.45-.04,3.96-.26,6.6-.48.62-3.12,1.14-6.51,1.1-9.46l4.14.4ZM257.84,610c2.73,3.52,6.51,11.44,7.96,15.49l-3.39,1.67c-1.32-4.49-4.75-12.1-7.79-15.67l3.21-1.5ZM259.64,610.7c-.88-1.76-2.38-4.45-3.56-6.12l2.33-.97c1.1,1.54,2.73,4.27,3.65,6.03l-2.42,1.06ZM264.62,608.9c-.97-1.89-2.42-4.4-3.65-6.07l2.33-.97c1.14,1.58,2.86,4.36,3.7,5.99l-2.38,1.06Z"/><path class="cls-2" d="M307.07,625.27c-1.36,4.18-3.65,7.61-6.47,10.34,2.51,1.94,5.5,3.39,8.89,4.22-.7.62-1.58,1.8-1.98,2.55-3.52-1.01-6.6-2.68-9.2-4.84-2.68,2.07-5.68,3.56-8.76,4.62-.35-.75-1.14-1.89-1.72-2.46v2.73h-3.12v-4.27c-5.37.66-10.74,1.28-14.83,1.76l-.31-2.9c1.23-.09,2.64-.22,4.18-.4v-14.79h-3.78v-2.73h38.46v2.73h-20.59v17.82c2.9-.88,5.76-2.29,8.27-4.18-2.02-2.2-3.65-4.8-4.84-7.75l1.89-.57h-3.79v-2.6h15.14l.57-.09,1.98.79ZM303.51,616.64h-28.3v-12.98h28.3v12.98ZM276.75,621.84v2.95h7.96v-2.95h-7.96ZM276.75,630.33h7.96v-3.08h-7.96v3.08ZM276.75,636.32c2.51-.26,5.24-.53,7.96-.84v-2.68h-7.96v3.52ZM300.3,605.99h-22v3.04h22v-3.04ZM300.3,611.23h-22v3.08h22v-3.08ZM294,627.16c1.01,2.42,2.51,4.62,4.31,6.47,1.98-1.85,3.61-4,4.75-6.47h-9.07Z"/><path class="cls-2" d="M351.34,606.44v2.86h-37.93v-2.86h17.08v-4.18h3.3v4.18h17.56ZM349.67,638.56c0,1.76-.4,2.73-1.76,3.3-1.45.48-3.74.48-7.39.48-.18-.88-.62-2.2-1.06-3.04,2.82.09,5.28.09,6.07,0,.75,0,.88-.22.88-.84v-12.19h-27.94v16.15h-3.12v-18.92h34.33v15.05ZM344.17,611.76v8.98h-23.54v-8.98h23.54ZM340.91,614.09h-17.16v4.27h17.16v-4.27ZM326.96,638.38v2.2h-2.91v-11.49h16.63v9.29h-13.73ZM326.96,631.47v4.49h10.83v-4.49h-10.83Z"/><path class="cls-2" d="M374.88,636.93c1.36-.09,2.68-.31,3.74-.53,5.59-1.23,11.04-5.37,11.04-12.89,0-6.6-4.18-12.01-11.57-12.63-.57,4.05-1.41,8.45-2.6,12.54-2.68,8.93-6.16,13.55-10.21,13.55s-7.79-4.49-7.79-11.66c0-9.46,8.45-17.73,19.1-17.73s16.72,7.22,16.72,16.02-6.03,15.27-16.42,16.63l-2.02-3.3ZM372.02,622.67c1.1-3.61,1.94-7.75,2.42-11.75-8.36,1.06-13.47,8.23-13.47,14.08,0,5.5,2.55,7.92,4.44,7.92s4.36-2.9,6.6-10.25Z"/><path class="cls-2" d="M420.11,616.95c0,2.86.22,7.08.44,10.87,5.59,1.54,10.39,4.58,13.55,7.44l-2.11,3.26c-2.77-2.82-6.78-5.59-11.31-7.17.04,1.14.09,2.11.09,2.9,0,3.56-2.2,6.65-8.01,6.65s-10.43-1.94-10.43-6.91c0-3.92,3.43-7.17,10.96-7.17,1.23,0,2.46.09,3.7.26-.18-3.52-.35-7.53-.35-10.12s0-6.12-.04-7.97c-.04-1.58-.18-3.48-.35-4.31h4.22c-.18.92-.31,2.99-.35,4.31-.04,1.19,0,2.73,0,4.45,3.48-.09,8.98-.31,12.89-.84l.13,3.34c-3.87.35-9.46.62-13.03.7v.31ZM417.12,630.37c-1.41-.31-2.82-.44-4.27-.44-4.49,0-7.04,1.54-7.04,3.92s2.42,3.74,6.6,3.74c3.21,0,4.75-1.5,4.75-4.49,0-.71-.04-1.63-.04-2.73Z"/><path class="cls-2" d="M463.84,618.1c-5.02,0-9.29,1.5-11.88,2.24-1.32.35-2.6.88-3.65,1.28l-1.1-4.05c1.19-.13,2.68-.4,3.96-.66,3.08-.7,8.05-2.11,13.03-2.11,6.21,0,10.83,3.48,10.83,9.68,0,9.46-8.41,14.83-19.71,16.5l-2.07-3.34c10.56-1.32,18.04-5.46,18.04-13.29,0-3.65-2.95-6.25-7.44-6.25ZM471.55,606.74l-.53,3.39c-4.84-.31-13.64-1.19-18.57-2.07l.57-3.34c4.8,1.1,14.26,1.98,18.53,2.02Z"/><path class="cls-2" d="M490.37,609.91c2.86-.26,11.09-1.06,19.1-1.76,4.75-.4,8.84-.62,11.75-.75v3.52c-2.51,0-6.29.04-8.54.7-6.2,1.98-9.95,8.62-9.95,13.77,0,8.49,7.92,11.18,15.01,11.44l-1.28,3.7c-8.05-.35-17.25-4.67-17.25-14.39,0-6.78,4.09-12.32,8.1-14.7-3.83.44-15.71,1.58-20.42,2.55l-.4-3.87c1.67-.04,3.04-.13,3.87-.22ZM518.67,622.37l-2.24,1.06c-1.01-2.11-2.29-4.4-3.61-6.21l2.24-.97c1.01,1.45,2.68,4.18,3.61,6.12ZM523.69,620.47l-2.29,1.06c-1.06-2.11-2.33-4.27-3.74-6.12l2.2-1.01c1.06,1.45,2.77,4.14,3.83,6.07Z"/><path class="cls-2" d="M553.25,613.04c0,2.46.04,5.15.09,7.13.92,1.5,1.41,3.43,1.41,5.59,0,5.9-2.86,12.45-12.98,15.49l-3.04-2.95c5.72-1.32,9.77-3.7,11.57-7.57-1.06.75-2.29,1.1-3.74,1.1-3.7,0-7.22-2.6-7.22-7.31,0-4.31,3.56-7.61,7.7-7.61,1.06,0,2.02.18,2.9.48,0-1.28,0-2.82-.04-4.31-6.6.04-13.99.35-19.45.75l-.09-3.43c4.84-.09,13.03-.35,19.5-.44,0-1.23-.04-2.25-.09-2.86-.04-.92-.18-2.2-.26-2.73h4l-.22,2.73c0,.66-.04,1.67-.04,2.82h.66c5.28,0,10.65.04,12.76.04l-.04,3.3c-2.46-.13-6.42-.22-12.81-.22h-.57ZM550.92,622.59c-.7-1.89-2.16-2.68-3.87-2.68-2.24,0-4.4,1.76-4.4,4.58s2.02,4.31,4.44,4.31c2.55,0,4.22-2.07,3.83-6.2Z"/><path class="cls-2" d="M584.36,635.04c0,3.7-2.99,6.73-6.73,6.73s-6.69-3.04-6.69-6.73,3.04-6.69,6.69-6.69,6.73,2.99,6.73,6.69ZM582.07,635.04c0-2.42-1.94-4.44-4.44-4.44s-4.44,2.02-4.44,4.44,2.02,4.49,4.44,4.49,4.44-1.98,4.44-4.49Z"/><path class="cls-4" d="M98.68,207.49v5.76h-51.59v-5.76h51.59ZM55.06,231.72h35.69v18.18h-7.01v-1.82h-22v2h-6.67v-18.36ZM89.78,221.12h-33.75v-5.36h33.75v5.36ZM56.03,223.74h33.75v5.3h-33.75v-5.3ZM88.81,204.93h-31.7v-5.3h31.7v5.3ZM61.73,237.37v5.13h22v-5.13h-22Z"/><path class="cls-4" d="M129.58,210.12c-.74.97-1.94,2.79-2.91,4.28-.06.57-.06,1.08-.11,1.65,5.7-4.28,11.52-5.87,16.59-5.87,8.72,0,15.56,6.16,15.56,15.22,0,11.4-7.13,18.24-21.15,21.04l-3.36-6.84c9.92-1.54,16.99-5.53,16.99-14.37,0-4.39-3.53-8.38-9.18-8.38-5.99,0-11.29,2.85-16.02,7.24-.06,1.6-.11,3.19-.11,4.67,0,4.62,0,9.35.34,14.65.06,1.03.29,3.08.4,4.33h-7.75c.11-1.2.17-3.25.17-4.16.11-4.39.11-7.64.23-12.43-2.39,3.59-5.19,7.7-7.13,10.43l-4.45-6.27c3.19-3.88,8.89-11.4,12.09-16.13l.23-3.93c-2.74.34-7.07.91-10.26,1.31l-.68-7.24c1.6.06,2.91.06,4.9-.06,1.65-.11,4.11-.4,6.5-.74.11-2.11.23-3.71.23-4.33,0-1.6.06-3.31-.23-5.02l8.27.23c-.34,1.6-.8,4.5-1.25,8.04l2.11,2.68Z"/><path class="cls-4" d="M198.57,211.94c-2.57.68-6.04,1.43-9.8,1.94-2.68,7.92-7.53,17.73-12.09,24.17l-6.9-3.48c4.56-5.53,9.01-13.85,11.52-19.95-.97.06-1.94.06-2.91.06-2.34,0-4.62-.06-7.07-.17l-.51-6.61c2.45.29,5.47.4,7.52.4,1.65,0,3.36-.06,5.07-.17.8-3.13,1.42-6.56,1.54-9.46l7.81.8c-.46,1.82-1.14,4.67-1.94,7.7,2.74-.46,5.36-1.08,7.58-1.77l.17,6.56ZM205.98,217.01c-.17,2.39-.06,4.73,0,7.24.06,1.6.17,4.33.34,7.13,4.85,1.82,8.84,4.67,11.69,7.24l-3.76,6.04c-2-1.82-4.56-4.1-7.64-5.99v.51c0,5.24-2.85,9.35-10.89,9.35-7.01,0-12.54-3.13-12.54-9.35,0-5.53,4.62-9.81,12.48-9.81,1.31,0,2.62.11,3.82.23-.17-4.22-.46-9.18-.63-12.6h7.13ZM199.77,235.71c-1.48-.34-2.96-.57-4.56-.57-3.25,0-5.36,1.37-5.36,3.36,0,2.11,1.77,3.53,4.85,3.53,3.82,0,5.07-2.22,5.07-5.24v-1.08ZM215.67,220.04c-3.25-2.62-9.69-6.33-13.57-8.04l3.65-5.59c4.05,1.77,11.06,5.59,13.91,7.64l-3.99,5.99Z"/><path class="cls-4" d="M268.36,204.24c-1.77,1.31-3.65,2.79-4.96,3.82-3.65,2.96-11.12,8.72-14.88,11.97-3.02,2.57-2.96,3.19.11,5.81,4.22,3.59,15.11,12.2,20.69,17.62l-6.56,6.04c-1.6-1.77-3.36-3.53-4.96-5.24-3.08-3.25-11.69-10.6-16.87-14.99-5.59-4.73-5.13-7.87.51-12.54,4.39-3.59,12.14-9.86,15.96-13.62,1.6-1.54,3.42-3.42,4.33-4.73l6.61,5.87Z"/><path class="cls-4" d="M297.27,205.78c4.67-.46,14.02-1.25,24.34-2.17,5.81-.46,12.03-.8,15.96-.97l.06,7.3c-3.02,0-7.87.06-10.89.74-6.78,1.82-11.92,9.12-11.92,15.79,0,9.29,8.72,12.6,18.24,13.11l-2.62,7.81c-11.86-.8-23.03-7.18-23.03-19.38,0-8.15,4.56-14.54,8.32-17.39-4.84.51-16.76,1.77-23.32,3.19l-.68-7.75c2.22-.06,4.39-.17,5.53-.29Z"/><path class="cls-4" d="M393.34,220.15c3.76,4.79,5.47,8.78,5.47,13.57,0,8.49-7.64,14.65-20.01,14.65-8.89,0-15.16-3.88-15.16-13.28,0-1.37.17-3.36.4-5.7-4.1-.4-7.81-1.03-10.83-1.88l.4-6.84c3.65,1.25,7.47,1.88,11.12,2.22.34-2.51.63-5.13.97-7.7-3.93-.4-7.92-1.08-11.23-2l.4-6.56c3.25,1.08,7.47,1.77,11.57,2.11.23-1.71.34-3.25.46-4.5.11-1.54.23-3.14.11-5.02l7.92.46c-.46,2.05-.74,3.53-.97,5.02-.17.97-.34,2.45-.63,4.28,4.05-.06,7.7-.29,10.38-.68l-.23,6.73c-3.36.34-6.44.51-11,.51-.34,2.51-.68,5.19-.97,7.7h.4c3.48,0,7.64-.29,11.34-.68l-.17,6.73c-3.19.29-6.5.51-9.98.51h-2.28c-.11,1.65-.23,3.08-.23,4.1,0,4.62,2.85,7.18,8.44,7.18,7.87,0,12.2-3.59,12.2-8.27,0-3.82-2.17-7.47-5.81-10.95l7.92-1.71Z"/><path class="cls-4" d="M463.07,208.06s0,1.82-.06,2.62c-.4,17.79-.91,24.51-2.45,26.62-.4.57-.8,1.03-1.25,1.37,1.48.74,3.65,1.43,5.07,1.71-.91,7.18-2.85,8.84-9.98,8.84h-14.94c-9.24,0-11.52-1.65-11.52-8.04v-12.48h-2.68c-.74,8.61-2.79,16.87-11.06,21.72-.8-1.6-2.62-4.05-4.05-5.24,7.07-3.59,8.61-9.98,9.29-16.47h-5.64v-14.31c-1.03-1.2-2.57-2.62-3.71-3.31,5.07-4.1,8.38-9.69,10.21-14.31l6.04.97c-.4.91-.8,1.88-1.25,2.79h5.87l.85-.23,3.99,2.34c-.97,2.39-2.45,5.25-4.05,7.81h7.98v-2.39h5.7c.06-3.25.11-6.73.11-10.43h6.33c-.06,3.65-.06,7.13-.17,10.43h11.34ZM422.31,205.67c-1.03,1.65-2.17,3.25-3.48,4.79h6.5c.97-1.48,1.88-3.19,2.68-4.79h-5.7ZM423.96,223.28v-7.41h-4.22v7.41h4.22ZM434.05,215.87h-4.39v7.41h4.39v-7.41ZM454,243.52c3.31,0,4.05-.63,4.45-4.33-.51.28-1.08.46-1.71.57-1.42.29-3.71.34-6.04.23-.06-1.94-.8-4.56-1.71-6.33,1.82.23,3.36.23,4.28.23.74.06,1.2-.17,1.71-.86.85-1.14,1.31-5.93,1.71-18.64h-5.25c-.74,12.31-3.13,21.32-10.77,27.25-.74-1.54-2.79-3.88-4.22-4.9,6.27-4.84,8.21-12.14,8.78-22.35h-4.9v14.31h-6.21v12.37c0,2.11.74,2.45,5.59,2.45h14.31Z"/><path class="cls-4" d="M473,199.97h17.04v18.36h-10.77c-.17,1.71-.29,3.48-.46,5.13h11.23s-.06,1.71-.11,2.57c-.57,13.8-1.2,19.55-2.85,21.61-1.25,1.48-2.51,2-4.33,2.28-1.54.23-4.16.23-6.9.17-.17-2.11-.97-4.79-2.05-6.67,2.45.23,4.79.23,5.93.23.91.06,1.42-.06,2-.68.91-.91,1.48-4.67,1.94-13.68h-5.42l-.34,2.74-5.93-.91c.8-4.96,1.48-12.66,1.82-18.81h9.86v-6.33h-10.66v-5.99ZM519.74,250.42c-.29-1.08-.8-2.34-1.43-3.71-9.75.86-19.89,1.6-27.25,2.11l-.8-6.56c3.76-.11,8.49-.4,13.62-.74v-7.35h-11.46v-16.36h11.46v-4.45c-4.39.34-8.49.57-11.97.8l-.91-6.33,5.02-.23c1.94-3.36,3.93-7.53,5.07-10.77l7.3,1.65c-1.6,2.96-3.48,6.04-5.24,8.78,3.48-.17,7.13-.34,10.83-.57-.91-1.2-1.88-2.45-2.79-3.53l5.7-2.51c3.25,3.65,6.9,8.61,8.38,12.2l-6.1,2.79c-.34-.97-.91-2.11-1.54-3.31-2.45.17-4.85.4-7.24.57v4.9h11.97v16.36h-11.97v6.9l4.67-.34c-.8-1.31-1.65-2.57-2.51-3.76l5.47-2.28c3.19,3.99,6.44,9.41,7.64,13.11l-5.93,2.62ZM503.89,228.64v-5.24h-5.36v5.24h5.36ZM510.39,223.4v5.24h5.53v-5.24h-5.53Z"/><path class="cls-4" d="M583.54,212.62c-3.42-.17-8.72-.29-16.36-.29.06,2.85.06,5.93.06,8.38,1.43,2.11,2.11,4.85,2.11,7.81,0,7.35-4.33,16.7-18.13,20.58l-5.99-6.04c5.7-1.2,10.66-3.08,13.79-6.44-.8.17-1.65.29-2.56.29-4.39,0-9.75-3.48-9.75-10.38,0-6.38,5.13-10.55,11.29-10.55.8,0,1.54.06,2.22.17l-.06-3.76c-8.55.11-17.27.46-24.23.86l-.17-6.84c6.44,0,16.7-.29,24.28-.4,0-.68,0-1.31-.06-1.71-.11-1.82-.29-3.99-.51-4.9h8.21c-.17.91-.34,3.93-.4,4.85,0,.46-.06,1.03-.06,1.71,5.7,0,13.4-.06,16.36,0l-.06,6.67ZM557.83,230.64c2.34,0,4.45-1.77,3.71-6.67-.8-1.37-2.11-2-3.71-2-2.17,0-4.33,1.48-4.33,4.45,0,2.62,2.11,4.22,4.33,4.22Z"/><path class="cls-4" d="M635.37,206.07c-1.37.85-2.68,1.71-3.93,2.57-3.02,2.11-8.95,7.12-12.48,9.98,1.88-.51,3.48-.63,5.3-.63,9.58,0,16.87,5.99,16.87,14.19,0,8.89-6.78,15.96-20.41,15.96-7.87,0-13.8-3.59-13.8-9.24,0-4.56,4.16-8.78,10.15-8.78,6.95,0,11.17,4.28,12.03,9.63,3.08-1.65,4.62-4.28,4.62-7.7,0-5.07-5.13-8.49-11.69-8.49-8.67,0-14.31,4.62-20.35,11.46l-5.13-5.3c3.99-3.25,10.77-9.01,14.14-11.74,3.13-2.62,9.01-7.35,11.8-9.8-2.91.06-10.66.4-13.62.63-1.54.06-3.31.23-4.62.46l-.23-7.35c1.6.17,3.53.29,5.13.29,2.96,0,15.05-.29,18.24-.57,2.34-.17,3.65-.4,4.33-.57l3.65,5.02ZM622.6,241.58c-.34-3.65-2.45-6.04-5.53-6.04-2.11,0-3.48,1.25-3.48,2.68,0,2.11,2.39,3.54,5.7,3.54,1.2,0,2.28-.06,3.31-.17Z"/><path class="cls-4" d="M697.46,245.46c-3.19-3.19-7.47-6.56-12.48-8.84.06.74.06,1.37.06,1.94,0,4.96-2.57,9.75-12.03,9.75-8.04,0-14.65-2.62-14.65-10.32,0-5.87,5.02-10.55,15.39-10.55,1.14,0,2.28.06,3.36.17-.17-4.39-.4-9.23-.4-12.2,0-3.42-.06-6.78-.11-9.18-.06-2.79-.23-5.19-.57-6.61h8.49c-.23,1.65-.4,4.39-.51,6.61v4.1c4.45-.11,11.06-.34,15.73-.86l.28,6.73c-4.73.46-11.46.68-16.02.8.11,3.42.34,7.87.63,12.03,7.18,2.17,13.28,6.04,17.16,9.69l-4.33,6.73ZM677.34,234.17c-1.48-.23-3.08-.4-4.67-.4-4.39,0-7.01,1.48-7.01,3.88,0,2.79,2.85,3.82,6.78,3.82,3.65,0,4.96-1.65,4.96-5.36,0-.51,0-1.2-.06-1.94Z"/><path class="cls-4" d="M75.02,287.65c-6.21,0-11.8,1.88-14.71,2.74-1.65.51-3.82,1.37-5.47,1.94l-2.11-8.04c1.88-.17,4.33-.57,6.16-.97,4.16-.91,10.49-2.57,17.04-2.57,8.95,0,15.22,5.07,15.22,13.91,0,12.09-11.17,19.61-26.85,21.78l-4.1-7.07c14.02-1.6,22.97-6.16,22.97-14.99,0-3.71-2.85-6.78-8.15-6.73ZM86.42,269.81l-1.14,6.96c-6.61-.46-18.87-1.54-25.37-2.68l1.14-6.84c6.56,1.43,19.38,2.57,25.37,2.57Z"/><path class="cls-4" d="M118.16,269.64c-.46,1.14-1.14,3.99-1.37,5.02-.8,3.76-2.74,15.05-2.74,20.69,0,1.08.06,2.45.23,3.65.8-2,1.71-3.88,2.51-5.7l3.53,2.74c-1.6,4.73-3.48,10.83-4.05,13.85-.17.8-.34,2.05-.34,2.62.06.63.06,1.54.11,2.34l-6.5.46c-1.14-3.93-2.22-10.83-2.22-18.47,0-8.49,1.71-18.01,2.34-22.35.23-1.6.57-3.76.57-5.53l7.92.68ZM131.39,297.51c-.46,1.82-.68,3.19-.68,4.73,0,2.51,2.17,3.99,7.87,3.99,5.07,0,9.24-.46,14.14-1.48l.17,7.64c-3.65.68-8.21,1.14-14.59,1.14-9.75,0-14.37-3.54-14.37-9.29,0-2.34.4-4.73.97-7.35l6.5.63ZM151.11,273.34v7.3c-6.96.63-17.16.63-24.23,0l-.06-7.3c6.96.97,18.19.74,24.29,0Z"/><path class="cls-4" d="M191.01,279.9c-2.57.68-6.04,1.43-9.8,1.94-2.68,7.92-7.53,17.73-12.09,24.17l-6.9-3.48c4.56-5.53,9.01-13.85,11.52-19.95-.97.06-1.94.06-2.91.06-2.34,0-4.62-.06-7.07-.17l-.51-6.61c2.45.29,5.47.4,7.52.4,1.65,0,3.36-.06,5.07-.17.8-3.13,1.42-6.56,1.54-9.46l7.81.8c-.46,1.82-1.14,4.67-1.94,7.7,2.74-.46,5.36-1.08,7.58-1.77l.17,6.56ZM198.42,284.97c-.17,2.39-.06,4.73,0,7.24.06,1.6.17,4.33.34,7.13,4.85,1.82,8.84,4.67,11.69,7.24l-3.76,6.04c-2-1.82-4.56-4.1-7.64-5.99v.51c0,5.24-2.85,9.35-10.89,9.35-7.01,0-12.54-3.13-12.54-9.35,0-5.53,4.62-9.81,12.48-9.81,1.31,0,2.62.11,3.82.23-.17-4.22-.46-9.18-.63-12.6h7.13ZM192.21,303.67c-1.48-.34-2.96-.57-4.56-.57-3.25,0-5.36,1.37-5.36,3.36,0,2.11,1.77,3.53,4.85,3.53,3.82,0,5.07-2.22,5.07-5.24v-1.08ZM208.11,287.99c-3.25-2.62-9.69-6.33-13.57-8.04l3.65-5.59c4.05,1.77,11.06,5.59,13.91,7.64l-3.99,5.99Z"/><path class="cls-4" d="M259.36,274.03c-1.37.85-2.68,1.71-3.93,2.57-3.02,2.11-8.95,7.12-12.48,9.98,1.88-.51,3.48-.63,5.3-.63,9.58,0,16.87,5.99,16.87,14.19,0,8.89-6.78,15.96-20.41,15.96-7.87,0-13.8-3.59-13.8-9.24,0-4.56,4.16-8.78,10.15-8.78,6.95,0,11.17,4.28,12.03,9.63,3.08-1.65,4.62-4.28,4.62-7.7,0-5.07-5.13-8.49-11.69-8.49-8.67,0-14.31,4.62-20.35,11.46l-5.13-5.3c3.99-3.25,10.77-9.01,14.14-11.74,3.13-2.62,9.01-7.35,11.8-9.8-2.91.06-10.66.4-13.62.63-1.54.06-3.31.23-4.62.46l-.23-7.35c1.6.17,3.53.29,5.13.29,2.96,0,15.05-.29,18.24-.57,2.34-.17,3.65-.4,4.33-.57l3.65,5.02ZM246.59,309.54c-.34-3.65-2.45-6.04-5.53-6.04-2.11,0-3.48,1.25-3.48,2.68,0,2.11,2.39,3.54,5.7,3.54,1.2,0,2.28-.06,3.31-.17Z"/><path class="cls-4" d="M319.89,286.17c1.2,0,3.93-.23,5.19-.34v7.35c-1.54-.11-3.48-.23-5.02-.23h-14.76c-.85,9.58-4.96,17.67-14.59,23.43l-7.24-4.9c8.66-3.99,13.22-10.09,14.31-18.53h-15.68c-1.77,0-3.88.11-5.36.23v-7.35c1.54.17,3.48.34,5.25.34h16.08v-8.1c-5.47.46-11.46.63-15.28.74l-1.77-6.61c4.33.11,13.17,0,19.44-.91,5.7-.8,11.52-2.11,14.37-3.42l4.67,6.27c-1.94.46-3.42.85-4.39,1.08-2.79.74-6.16,1.37-9.58,1.88v9.06h14.37Z"/><path class="cls-4" d="M373.76,307.54c1.6,0,3.19-.23,4.33-.34v7.47c-1.2-.23-3.31-.29-4.33-.29h-31.47c-1.37,0-3.14.06-4.67.29v-7.47c1.48.17,3.25.34,4.67.34h11.63v-18.36h-8.89c-1.2,0-3.25.11-4.5.23v-7.18c1.25.23,3.25.29,4.5.29h26.11c1.37,0,3.08-.11,4.45-.29v7.18c-1.42-.11-3.19-.23-4.45-.23h-9.75v18.36h12.37Z"/><path class="cls-4" d="M440.73,274.54c-.63.74-1.71,2.11-2.22,2.96-2.68,4.45-8.1,11.63-13.74,15.62l-5.87-4.73c4.56-2.79,9.01-7.81,10.49-10.6h-29.7c-2.39,0-4.28.17-6.96.4v-7.92c2.17.34,4.56.57,6.96.57h30.73c1.6,0,4.73-.17,5.76-.51l4.56,4.22ZM417.47,282.23c0,14.14-.29,25.77-15.85,34.09l-6.61-5.42c1.82-.63,3.88-1.6,5.99-3.13,7.24-5.02,8.61-11.06,8.61-20.41,0-1.77-.11-3.31-.4-5.13h8.27Z"/><path class="cls-1" d="M106.97,101.88c-.42-1.31-1.64-2.19-3.01-2.19h-18.18l-5.54-17.24c-.42-1.31-1.64-2.2-3.01-2.2s-2.59.89-3.01,2.2l-5.54,17.24h-18.18c-1.37,0-2.59.89-3.01,2.19-.42,1.31.05,2.74,1.17,3.54l14.74,10.58-5.67,17.23c-.43,1.31.03,2.74,1.14,3.55,1.11.81,2.62.81,3.73,0l14.63-10.72,14.63,10.72c1.11.81,2.62.82,3.73,0,1.11-.81,1.58-2.24,1.15-3.55l-5.68-17.23,14.74-10.58c1.12-.8,1.59-2.23,1.17-3.54Z"/><path class="cls-1" d="M172.02,101.88c-.42-1.31-1.64-2.19-3.01-2.19h-18.18l-5.54-17.24c-.42-1.31-1.64-2.2-3.01-2.2s-2.59.89-3.01,2.2l-5.54,17.24h-18.18c-1.37,0-2.59.89-3.01,2.19-.42,1.31.05,2.74,1.17,3.54l14.74,10.58-5.67,17.23c-.43,1.31.03,2.74,1.14,3.55,1.11.81,2.62.81,3.73,0l14.63-10.72,14.63,10.72c1.11.81,2.62.82,3.73,0,1.11-.81,1.58-2.24,1.15-3.55l-5.68-17.23,14.74-10.58c1.12-.8,1.59-2.23,1.17-3.54Z"/><path class="cls-1" d="M233.75,101.88c-.42-1.31-1.64-2.19-3.01-2.19h-18.18l-5.54-17.24c-.42-1.31-1.64-2.2-3.01-2.2s-2.59.89-3.01,2.2l-5.54,17.24h-18.18c-1.37,0-2.59.89-3.01,2.19-.42,1.31.05,2.74,1.17,3.54l14.74,10.58-5.67,17.23c-.43,1.31.03,2.74,1.14,3.55,1.11.81,2.62.81,3.73,0l14.63-10.72,14.63,10.72c1.11.81,2.62.82,3.73,0,1.11-.81,1.58-2.24,1.15-3.55l-5.68-17.23,14.74-10.58c1.12-.8,1.59-2.23,1.17-3.54Z"/><path class="cls-1" d="M299,101.88c-.42-1.31-1.64-2.19-3.01-2.19h-18.18l-5.54-17.24c-.42-1.31-1.64-2.2-3.01-2.2s-2.59.89-3.01,2.2l-5.54,17.24h-18.18c-1.37,0-2.59.89-3.01,2.19-.42,1.31.05,2.74,1.17,3.54l14.74,10.58-5.67,17.23c-.43,1.31.03,2.74,1.14,3.55,1.11.81,2.62.81,3.73,0l14.63-10.72,14.63,10.72c1.11.81,2.62.82,3.73,0,1.11-.81,1.58-2.24,1.15-3.55l-5.68-17.23,14.74-10.58c1.12-.8,1.59-2.23,1.17-3.54Z"/><path class="cls-1" d="M364.25,101.88c-.42-1.31-1.64-2.19-3.01-2.19h-18.18l-5.54-17.24c-.42-1.31-1.64-2.2-3.01-2.2s-2.59.89-3.01,2.2l-5.54,17.24h-18.18c-1.37,0-2.59.89-3.01,2.19-.42,1.31.05,2.74,1.17,3.54l14.74,10.58-5.67,17.23c-.43,1.31.03,2.74,1.14,3.55,1.11.81,2.62.81,3.73,0l14.63-10.72,14.63,10.72c1.11.81,2.62.82,3.73,0,1.11-.81,1.58-2.24,1.15-3.55l-5.68-17.23,14.74-10.58c1.12-.8,1.59-2.23,1.17-3.54Z"/></svg>