<?xml version="1.0" encoding="UTF-8"?><svg id="_レイヤー_1" xmlns="http://www.w3.org/2000/svg" viewBox="0 0 751.15 731.27"><defs><style>.cls-1{fill:#f2b600;}.cls-1,.cls-2,.cls-3,.cls-4{stroke-width:0px;}.cls-2{fill:#1a1a1a;}.cls-3{fill:#fff;}.cls-4{fill:#577082;}</style></defs><rect class="cls-3" x="-2.44" y="-2.76" width="752.19" height="733.55"/><path class="cls-2" d="M59.88,390.96v9.11c0,6.69-.48,16.59-4.09,23.24-.57-.53-1.98-1.5-2.73-1.8,3.34-6.29,3.7-15.14,3.7-21.47v-12.1h16.5v-4.62h3.34v4.62h16.68v3.04h-33.4ZM78.19,419.43h15.23v2.9h-33.31v-2.9h14.92v-6.56h-12.06v-2.82h12.06v-17.29h3.17v12.85c3.61-2.68,5.72-6.82,6.6-12.15l2.95.35c-.31,1.94-.79,3.7-1.41,5.37,2.55,2.11,5.59,4.75,7.17,6.56l-2.07,2.16c-1.36-1.63-3.87-4-6.29-6.07-1.23,2.33-2.77,4.27-4.71,5.81-.44-.53-1.54-1.5-2.24-1.94v4.36h12.54v2.82h-12.54v6.56ZM70.26,393.77c-.31,1.98-.75,3.83-1.36,5.54,2.02,1.8,4.27,4.05,5.46,5.54l-1.98,2.11c-1.01-1.32-2.77-3.26-4.58-5.02-1.19,2.51-2.77,4.58-4.75,6.25-.48-.48-1.76-1.5-2.46-1.94,3.74-2.77,5.81-7.22,6.6-12.81l3.08.31Z"/><path class="cls-2" d="M118.15,389.33c-.53,1.85-1.14,3.83-1.72,5.5h17.65v28.65h-3.3v-2.33h-28.12v2.33h-3.17v-28.65h13.6c.48-1.67.92-3.7,1.28-5.5h-16.85v-3.12h38.68v3.12h-18.04ZM102.66,418.11h6.25v-20.24h-6.25v20.24ZM121.19,397.86h-9.29v4.84h9.29v-4.84ZM121.19,405.39h-9.29v4.93h9.29v-4.93ZM111.9,418.11h9.29v-5.1h-9.29v5.1ZM130.78,397.86h-6.6v20.24h6.6v-20.24Z"/><path class="cls-2" d="M156.66,386.03c-.18.84-.4,1.72-.53,2.6-.26,1.28-.66,3.83-1.14,6.16,2.02-.18,3.83-.31,4.88-.31,3.92,0,7.08,1.54,7.08,7.44,0,5.19-.7,12.06-2.51,15.71-1.41,2.91-3.56,3.61-6.38,3.61-1.67,0-3.74-.31-5.15-.62l-.57-3.74c1.85.62,4.14.97,5.37.97,1.58,0,2.86-.35,3.79-2.24,1.41-2.9,2.07-8.58,2.07-13.29,0-3.96-1.8-4.67-4.62-4.67-1.06,0-2.77.13-4.67.31-1.58,6.25-4.58,16.06-9.15,23.37l-3.56-1.45c4.45-5.94,7.66-15.75,9.15-21.56-2.29.22-4.36.44-5.5.57-1.06.13-2.82.31-3.92.53l-.35-3.83c1.36.04,2.46.04,3.87,0,1.45-.04,3.96-.26,6.6-.48.62-3.12,1.14-6.51,1.1-9.46l4.14.4ZM171.62,391c2.73,3.52,6.51,11.44,7.96,15.49l-3.39,1.67c-1.32-4.49-4.75-12.1-7.79-15.67l3.21-1.5ZM173.43,391.7c-.88-1.76-2.38-4.45-3.56-6.12l2.33-.97c1.1,1.54,2.73,4.27,3.65,6.03l-2.42,1.06ZM178.4,389.9c-.97-1.89-2.42-4.4-3.65-6.07l2.33-.97c1.14,1.58,2.86,4.36,3.7,5.99l-2.38,1.06Z"/><path class="cls-2" d="M190.07,392.45v8.49c0,6.6-.66,16.19-4.75,22.53-.57-.53-1.94-1.5-2.77-1.8,3.92-6.03,4.27-14.61,4.27-20.73v-11.66h15.8v-5.98h3.39v5.98h16.77v3.17h-32.7ZM220.17,423.61c-.44-1.19-1.06-2.55-1.8-4.05-10.12.66-20.64,1.23-27.77,1.63l-.35-3.34c1.58-.04,3.39-.13,5.33-.18,2.46-6.12,5.37-15.49,6.91-22.44l3.65.84c-1.94,6.91-4.75,15.45-7.22,21.47,5.46-.26,11.71-.57,17.82-.88-1.8-3.17-4.05-6.47-6.21-9.24l2.9-1.32c3.92,4.93,8.23,11.57,9.99,15.93l-3.26,1.58Z"/><path class="cls-2" d="M233.77,393.68c-.04,2.73,0,6.73.31,10.3.7,7.31,2.82,12.1,5.9,12.1,2.25,0,4.27-4.49,5.41-8.89l2.77,3.17c-2.6,7.39-5.28,9.9-8.27,9.9-4.09,0-8.05-4.09-9.24-15.4-.44-3.78-.48-9.06-.48-11.62,0-1.01-.04-2.82-.26-3.87l4.22.09c-.18,1.06-.31,3.08-.35,4.22ZM264.49,411.99l-3.56,1.41c-.75-7.83-3.39-16.46-7.53-21.56l3.43-1.19c3.92,5.06,7.04,13.99,7.66,21.34Z"/><path class="cls-2" d="M288.7,417.93c1.36-.09,2.68-.31,3.74-.53,5.59-1.23,11.04-5.37,11.04-12.89,0-6.6-4.18-12.01-11.57-12.63-.57,4.05-1.41,8.45-2.6,12.54-2.68,8.93-6.16,13.55-10.21,13.55s-7.79-4.49-7.79-11.66c0-9.46,8.45-17.73,19.1-17.73s16.72,7.22,16.72,16.02-6.03,15.27-16.42,16.63l-2.02-3.3ZM285.84,403.67c1.1-3.61,1.94-7.75,2.42-11.75-8.36,1.06-13.47,8.23-13.47,14.08,0,5.5,2.55,7.92,4.44,7.92s4.36-2.9,6.6-10.25Z"/><path class="cls-2" d="M317.97,390.91c2.86-.26,11.09-1.06,19.1-1.76,4.75-.4,8.84-.62,11.75-.75v3.52c-2.51,0-6.29.04-8.54.7-6.2,1.98-9.95,8.62-9.95,13.77,0,8.49,7.92,11.18,15.01,11.44l-1.28,3.7c-8.05-.35-17.25-4.67-17.25-14.39,0-6.78,4.09-12.32,8.1-14.7-3.83.44-15.71,1.58-20.42,2.55l-.4-3.87c1.67-.04,3.04-.13,3.87-.22ZM346.27,403.37l-2.24,1.06c-1.01-2.11-2.29-4.4-3.61-6.21l2.24-.97c1.01,1.45,2.68,4.18,3.61,6.12ZM351.28,401.47l-2.29,1.06c-1.06-2.11-2.33-4.27-3.74-6.12l2.2-1.01c1.06,1.45,2.77,4.14,3.83,6.07Z"/><path class="cls-2" d="M395.25,399.93v2.73h-39.25v-2.73h13.55v-8.62h-11.09v-2.73h8.27c-.66-1.32-1.76-3.04-2.86-4.27l2.82-1.1c1.41,1.41,2.77,3.39,3.34,4.84l-1.23.53h13.47l-1.5-.53c1.01-1.32,2.38-3.43,3.12-4.84l3.21,1.01c-1.01,1.58-2.16,3.17-3.17,4.36h9.11v2.73h-11.79v8.62h13.99ZM363.3,391.92c1.63,1.98,3.08,4.8,3.7,6.69l-2.9,1.14c-.48-1.89-1.94-4.75-3.43-6.82l2.64-1.01ZM362.47,405.35h26.45v17.87h-3.43v-1.32h-19.71v1.5h-3.3v-18.04ZM365.77,407.94v4.31h19.71v-4.31h-19.71ZM385.48,419.25v-4.45h-19.71v4.45h19.71ZM372.59,399.93h5.63v-8.62h-5.63v8.62ZM383.77,398.74c1.32-1.89,3.04-4.93,3.92-7.04l2.95,1.01c-1.32,2.42-3.04,5.15-4.36,6.91l-2.51-.88Z"/><path class="cls-2" d="M408.19,414.63c2.11,3.3,5.9,4.75,11.05,4.93,4.8.22,14.83.09,20.07-.26-.35.75-.84,2.24-1.01,3.21-4.88.22-14.21.31-19.05.09-5.76-.22-9.73-1.76-12.41-5.24-2.24,1.94-4.58,3.83-7.08,5.68l-1.58-3.17c2.11-1.32,4.62-3.17,6.87-4.97v-11.31h-6.34v-3.08h9.5v14.13ZM406.74,393.6c-1.36-2.16-4.53-5.24-7.3-7.3l2.29-2.02c2.77,1.98,6.03,4.93,7.44,7.08l-2.42,2.24ZM415.81,416.87h-3.08v-22.62h12.54c-2.6-1.28-5.72-2.68-8.36-3.65l2.07-1.85c1.89.66,4.05,1.54,6.12,2.42,2.11-.92,4.27-2.2,6.03-3.48h-18.35v-2.6h21.47l.62-.18,2.02,1.54c-2.33,2.2-5.63,4.4-8.89,6.03,1.28.62,2.42,1.23,3.39,1.76h5.54v19.36c0,1.58-.35,2.38-1.5,2.86-1.14.44-2.99.48-5.94.48-.13-.79-.53-1.94-.92-2.68,2.07.09,3.96.04,4.49.04.57,0,.75-.18.75-.75v-4h-7.66v7.13h-2.95v-7.13h-7.39v7.3ZM415.81,396.76v3.87h7.39v-3.87h-7.39ZM423.2,407.06v-4h-7.39v4h7.39ZM433.81,396.76h-7.66v3.87h7.66v-3.87ZM433.81,407.06v-4h-7.66v4h7.66Z"/><path class="cls-2" d="M461.23,417.93c1.36-.09,2.68-.31,3.74-.53,5.59-1.23,11.04-5.37,11.04-12.89,0-6.6-4.18-12.01-11.57-12.63-.57,4.05-1.41,8.45-2.6,12.54-2.68,8.93-6.16,13.55-10.21,13.55s-7.79-4.49-7.79-11.66c0-9.46,8.45-17.73,19.1-17.73s16.72,7.22,16.72,16.02-6.03,15.27-16.42,16.63l-2.02-3.3ZM458.37,403.67c1.1-3.61,1.94-7.75,2.42-11.75-8.36,1.06-13.47,8.23-13.47,14.08,0,5.5,2.55,7.92,4.44,7.92s4.36-2.9,6.6-10.25Z"/><path class="cls-2" d="M516.68,401.38c2.99,3.3,4.49,6.34,4.49,10.08,0,6.47-5.85,10.43-14.43,10.43-5.94,0-10.74-2.6-10.74-9.73,0-1.19.13-2.95.35-5.02-3.26-.26-6.42-.75-9.07-1.58l.18-3.34c2.86,1.01,6.12,1.54,9.2,1.76.31-2.55.66-5.28.97-7.83-3.12-.26-6.56-.79-9.29-1.5l.18-3.26c2.73.88,6.25,1.41,9.5,1.58.22-1.76.4-3.34.48-4.53.09-1.01.13-1.98.04-3.04l3.96.22c-.31,1.19-.44,2.07-.57,3.04-.13,1.1-.35,2.64-.57,4.45,3.3,0,6.25-.18,8.8-.53l-.09,3.3c-2.77.26-5.37.44-8.85.44h-.31c-.35,2.55-.66,5.28-.97,7.79h.84c2.95,0,6.03-.13,9.07-.53l-.09,3.34c-2.9.31-5.59.4-8.54.4h-1.58c-.18,1.72-.26,3.26-.26,4.31,0,4.14,2.38,6.78,7.35,6.78,6.6,0,10.83-2.82,10.83-7.35,0-2.95-1.58-6.21-4.8-8.89l3.92-.79Z"/><path class="cls-2" d="M547.49,417.93c1.36-.09,2.68-.31,3.74-.53,5.59-1.23,11.04-5.37,11.04-12.89,0-6.6-4.18-12.01-11.57-12.63-.57,4.05-1.41,8.45-2.6,12.54-2.68,8.93-6.16,13.55-10.21,13.55s-7.79-4.49-7.79-11.66c0-9.46,8.45-17.73,19.1-17.73s16.72,7.22,16.72,16.02-6.03,15.27-16.42,16.63l-2.02-3.3ZM544.63,403.67c1.1-3.61,1.94-7.75,2.42-11.75-8.36,1.06-13.47,8.23-13.47,14.08,0,5.5,2.55,7.92,4.44,7.92s4.36-2.9,6.6-10.25Z"/><path class="cls-2" d="M592.74,397.95c0,2.86.22,7.08.44,10.87,5.59,1.54,10.39,4.58,13.55,7.44l-2.11,3.26c-2.77-2.82-6.78-5.59-11.31-7.17.04,1.14.09,2.11.09,2.9,0,3.56-2.2,6.65-8.01,6.65s-10.43-1.94-10.43-6.91c0-3.92,3.43-7.17,10.96-7.17,1.23,0,2.46.09,3.7.26-.18-3.52-.35-7.53-.35-10.12s0-6.12-.04-7.97c-.04-1.58-.18-3.48-.35-4.31h4.22c-.18.92-.31,2.99-.35,4.31-.04,1.19,0,2.73,0,4.45,3.48-.09,8.98-.31,12.89-.84l.13,3.34c-3.87.35-9.46.62-13.03.7v.31ZM589.75,411.37c-1.41-.31-2.82-.44-4.27-.44-4.49,0-7.04,1.54-7.04,3.92s2.42,3.74,6.6,3.74c3.21,0,4.75-1.5,4.75-4.49,0-.71-.04-1.63-.04-2.73Z"/><path class="cls-2" d="M627.38,385.5c-.92,3.21-1.76,9.07-2.02,12.1,1.72-4.49,6.29-9.9,11.79-9.9,5.81,0,9.99,5.81,9.99,14.96,0,12.1-7.61,17.43-18.44,19.41l-2.07-3.17c9.46-1.45,16.85-5.24,16.85-16.19,0-6.86-2.29-11.79-6.91-11.79-5.41,0-10.43,7.88-10.96,13.6-.22,1.67-.22,3.17.09,5.32l-3.43.26c-.22-1.63-.44-4.09-.44-6.91,0-4.14.79-10.56,1.32-14.08.18-1.36.31-2.68.35-3.74l3.87.13Z"/><path class="cls-2" d="M679.4,419.08c2.33.48,4.88.66,7.66.66,1.36,0,8.84,0,10.69-.04-.48.79-1.01,2.25-1.19,3.17h-9.68c-9.33,0-16.06-1.67-20.24-9.29-1.45,3.92-3.61,7.48-6.73,9.9-.53-.66-1.63-1.76-2.29-2.2,5.19-4,7.3-11.4,7.92-17.69l3.48.4c-.26,1.8-.62,3.65-1.1,5.5,1.76,4.62,4.53,7.26,8.18,8.67v-17.82h-13.07v-14.92h29.92v14.92h-13.55v6.78h14.74v3.04h-14.74v8.93ZM666.24,397.2h23.32v-8.63h-23.32v8.63Z"/><path class="cls-2" d="M74.31,489.15c.13-1.67.18-4.49.18-6.78-4.05,2.2-6.86,4.44-6.86,7.3,0,3.43,3.39,3.92,7.88,3.92,3.39,0,8.05-.4,11.88-1.06l-.09,3.56c-3.3.4-8.14.7-11.93.7-6.25,0-11.27-1.32-11.27-6.64s5.19-8.41,10.25-11.05c-.44-1.8-2.02-2.68-3.92-2.68-2.86,0-5.5,1.41-7.53,3.21-1.23,1.19-2.46,2.82-3.96,4.58l-2.99-2.25c5.54-5.37,8.41-9.86,10.03-13.29h-1.8c-1.85,0-4.8-.09-7.17-.26v-3.3c2.33.26,5.37.44,7.35.44.92,0,1.85,0,2.86-.04.62-1.94,1.01-3.92,1.1-5.41l3.61.31c-.31,1.23-.7,3.04-1.32,5.02,4.44-.22,9.2-.62,13.33-1.32l-.04,3.26c-4.31.66-9.68,1.06-14.43,1.23-.97,2.25-2.33,4.67-3.92,6.69,1.58-1.01,4.09-1.63,6.03-1.63,2.82,0,5.11,1.36,5.76,3.96,2.99-1.41,5.63-2.46,7.92-3.52,1.32-.57,2.38-1.1,3.61-1.72l1.41,3.3c-1.1.31-2.68.92-3.83,1.36-2.46.97-5.59,2.25-8.89,3.79.04,2.51.09,6.21.13,8.32h-3.39Z"/><path class="cls-2" d="M110.84,474.05c-.75,6.29-2.16,11.35-4.18,15.4,4.4,3.87,10.47,4.71,17.65,4.75,1.8,0,10.65,0,12.94-.09-.53.79-1.14,2.29-1.32,3.21h-11.71c-7.92,0-14.35-1.01-19.05-5.19-1.8,2.82-3.92,4.93-6.29,6.51-.48-.7-1.72-1.85-2.46-2.29,2.55-1.58,4.75-3.74,6.51-6.56-1.8-2.29-3.3-5.19-4.45-8.93l2.55-.97c.88,2.91,2.02,5.24,3.43,7.08,1.32-2.9,2.33-6.42,2.95-10.52h-5.94l-1.1,1.94-2.99-.92c2.46-4.18,5.41-9.59,7.44-13.51h-8.1v-2.9h9.81l.53-.18,2.25.75c-1.63,3.3-3.96,7.75-6.25,11.97h5.28l.62-.09,1.89.53ZM136.68,489.06h-25.66v-3.04h3.56v-16.28h3.12v16.28h5.41v-22.4c-3.39.48-6.87.88-10.08,1.19-.09-.79-.53-1.94-.92-2.68,7.39-.75,16.11-2.02,20.9-3.7l2.38,2.6c-2.55.79-5.68,1.5-9.07,2.07v9.11h9.5v2.95h-9.5v10.87h10.34v3.04Z"/><path class="cls-2" d="M148.21,462.08c-.26.7-.57,2.11-.75,2.9-.88,4.05-2.16,12.67-2.16,17.56,0,2.16.09,3.87.4,5.99.7-1.98,1.72-4.58,2.46-6.34l1.85,1.45c-1.1,3.04-2.64,7.48-3.08,9.64-.13.57-.26,1.41-.22,1.94.04.4.09,1.06.13,1.5l-3.12.26c-.88-3.12-1.67-7.92-1.67-13.82,0-6.42,1.45-14.74,2.02-18.31.13-1.06.26-2.2.26-3.12l3.87.35ZM176.86,472.07c-2.38.4-4.93.66-7.52.84.04,4.36.35,8.71.53,12.37,3.52,1.41,6.29,3.65,8.58,5.68l-1.89,2.86c-2.16-2.07-4.31-3.78-6.56-5.02v.84c0,3.61-1.67,7.13-7.57,7.13s-9.07-2.42-9.07-6.34c0-3.65,3.26-6.6,8.98-6.6,1.45,0,2.82.13,4.05.4-.13-3.34-.4-7.53-.44-11.13-1.41.04-2.77.09-4.18.09-2.46,0-4.75-.13-7.3-.31v-3.3c2.46.26,4.84.4,7.39.4,1.36,0,2.73-.04,4.09-.09v-5.41c0-.75-.09-1.89-.18-2.68h3.96c-.13.88-.22,1.76-.26,2.64-.04,1.19-.09,3.21-.13,5.24,2.68-.22,5.24-.57,7.52-1.01v3.43ZM166.52,487.3c-1.41-.44-2.91-.66-4.45-.66-3.26,0-5.5,1.45-5.5,3.48,0,2.16,2.11,3.39,5.24,3.39,3.7,0,4.75-1.8,4.75-4.71,0-.4,0-.92-.04-1.5ZM173.96,467.14c-.66-1.89-1.67-4.53-2.51-6.25l2.16-.66c.79,1.58,1.98,4.36,2.6,6.12l-2.24.79ZM178,458.87c.84,1.63,2.02,4.31,2.68,6.07l-2.24.79c-.7-1.94-1.67-4.49-2.6-6.16l2.16-.7Z"/><path class="cls-2" d="M196.1,460.94c-.22,1.41-.35,2.95-.44,4.36-.18,4.93-.53,15.23-.53,21.74,0,4.8,3.08,6.47,7.13,6.47,8.01,0,12.54-4.49,15.67-9.02l2.42,3.04c-2.95,4.14-8.58,9.59-18.17,9.59-6.25,0-10.56-2.64-10.56-9.73,0-6.47.44-17.47.44-22.09,0-1.58-.13-3.12-.4-4.4l4.44.04Z"/><path class="cls-2" d="M250.63,469.17c-2.86.66-5.99,1.14-9.02,1.5-.4,1.89-.88,3.92-1.36,5.77-1.58,6.25-4.53,15.23-6.82,19.98l-3.87-1.28c2.6-4.49,5.68-13.33,7.3-19.5.4-1.45.75-3.04,1.1-4.62-1.41.09-2.73.13-3.96.13-1.94,0-3.52-.09-5.06-.18l-.13-3.43c2.07.26,3.65.31,5.24.31,1.45,0,2.99-.09,4.67-.18.31-1.58.53-2.95.66-3.83.13-1.23.22-2.68.13-3.61l4.27.35c-.31.97-.62,2.6-.79,3.48l-.66,3.21c2.82-.35,5.68-.88,8.32-1.58v3.48ZM248.91,484.44c-.4,1.45-.62,2.82-.62,3.92,0,2.07.97,4.05,7.17,4.05,2.82,0,5.85-.35,8.49-.84l-.13,3.56c-2.33.31-5.24.57-8.41.57-6.86,0-10.47-2.11-10.47-6.42,0-1.67.26-3.3.66-5.15l3.3.31ZM247.81,473.83c2.29-.22,5.15-.35,7.96-.35,2.51,0,5.19.09,7.53.35l-.09,3.34c-2.2-.26-4.8-.53-7.35-.53-2.73,0-5.37.18-8.05.48v-3.3Z"/><path class="cls-2" d="M302.12,468.9c-.97.62-2.07,1.19-3.34,1.85-2.9,1.5-8.98,4.36-13.25,7.17-4.05,2.64-6.47,5.5-6.47,8.8,0,3.61,3.43,5.85,10.3,5.85,4.75,0,10.56-.62,13.95-1.5v3.96c-3.3.57-8.32,1.06-13.77,1.06-8.19,0-14.13-2.46-14.13-8.98,0-4.49,2.86-8.05,7.52-11.31-2.02-3.56-4.31-8.67-6.34-13.42l3.48-1.41c1.76,4.75,3.96,9.46,5.85,12.89,4.09-2.46,8.8-4.75,11.18-6.12,1.28-.7,2.2-1.28,3.12-2.07l1.89,3.21Z"/><path class="cls-2" d="M348.16,474.54c-1.94.66-4.45,1.28-7.39,1.85,1.28,2.77,2.68,5.72,3.92,8.01l-1.72,2.16c-2.2-.4-5.72-.88-8.49-1.23l.31-2.68c2.11.26,4.18.48,5.54.62-.84-1.72-1.85-4-2.86-6.29-5.63.75-12.76.84-19.49.4l-.13-3.21c6.65.62,13.11.57,18.31-.09l-1.54-3.56c-.35-.75-.66-1.54-.97-2.24-4.4.4-9.9.4-15.31-.09l-.22-3.21c5.19.57,10.08.66,14.26.35-.22-.48-.4-.92-.57-1.32-.66-1.36-1.06-2.16-1.63-3.08l3.96-.84c.4,1.5.97,3.17,1.63,4.84,3.04-.48,6.12-1.14,8.67-2.07l.62,3.12c-2.24.7-5.1,1.36-8.1,1.85l.79,1.8c.35.92.97,2.29,1.72,3.92,3.43-.62,6.07-1.41,8.05-2.16l.66,3.17ZM323.12,483.6c-.53,1.36-1.01,3.3-1.01,4.44,0,3.34,2.64,5.46,8.84,5.46,3.52,0,7.66-.31,10.74-1.01l-.09,3.56c-2.73.48-6.95.84-10.52.84-7.79,0-12.37-2.68-12.37-8.14,0-1.85.53-3.87,1.01-5.46l3.39.31Z"/><path class="cls-2" d="M365.41,462.08c-.26.75-.66,2.16-.84,2.95-.84,4-2.11,11.79-2.11,16.68,0,2.11.09,3.87.35,5.99.75-1.98,1.72-4.53,2.42-6.25l1.89,1.41c-1.1,3.08-2.68,7.7-3.08,9.77-.13.62-.22,1.45-.22,1.94l.13,1.54-3.17.22c-.88-3.08-1.58-8.1-1.58-13.99,0-6.42,1.41-13.91,1.94-17.47.13-1.01.31-2.16.31-3.08l3.96.31ZM375.36,483.21c-.4,1.58-.57,2.82-.57,4,0,1.98,1.32,3.92,7.3,3.92,3.92,0,7.26-.35,10.78-1.14l.04,3.7c-2.68.53-6.34.88-10.87.88-7.3,0-10.56-2.42-10.56-6.51,0-1.58.31-3.3.7-5.15l3.17.31ZM373.64,465.43c4.75.79,13.55.62,17.91,0v3.61c-4.67.48-13.11.48-17.87,0l-.04-3.61Z"/><path class="cls-2" d="M430.15,478.1c-1.36,4.93-3.56,8.71-6.51,11.62,4.84,1.98,9.29,4.14,12.37,6.07l-2.38,2.73c-3.04-2.07-7.66-4.36-12.76-6.51-4.66,3.34-10.83,5.28-18.53,6.51-.31-.75-1.32-2.24-1.98-2.95,7.04-.88,12.67-2.38,16.99-4.97-2.9-1.14-5.85-2.2-8.62-3.04-.4.66-.75,1.28-1.1,1.85l-3.3-.88c1.67-2.77,3.74-6.56,5.76-10.43h-10.74v-3.08h12.37c1.23-2.51,2.46-4.93,3.48-7.09l3.34.75c-.92,1.98-2.02,4.14-3.12,6.34h22.71v3.08h-7.97ZM403.93,472.29h-3.3v-9.37h16.28v-4.66h3.39v4.66h16.72v9.37h-3.39v-6.34h-29.7v6.34ZM413.83,478.1c-1.23,2.38-2.51,4.75-3.7,6.87,3.26.97,6.73,2.16,10.17,3.43,2.91-2.55,4.93-5.9,6.12-10.3h-12.59Z"/><path class="cls-2" d="M463.47,494.08c2.16.4,4.58.53,7.13.53,1.58,0,9.15,0,11.27-.04-.53.79-1.1,2.33-1.23,3.3h-10.21c-9.11,0-15.67-1.58-19.67-9.02-1.54,4.05-3.7,7.31-6.56,9.81-.53-.57-1.89-1.72-2.68-2.2,4.88-3.78,7.26-10.03,8.23-17.91l3.34.31c-.26,2.07-.62,4-1.06,5.85,1.67,4.62,4.49,7.13,8.1,8.49v-18.44h-10.91v-3.08h25.48v3.08h-11.22v7.31h13.03v3.04h-13.03v8.98ZM446.79,472.82h-3.21v-9.5h16.5v-5.02h3.39v5.02h16.63v9.5h-3.34v-6.42h-29.97v6.42Z"/><path class="cls-2" d="M505.86,482.85h-11.79v-9.2h11.97v9.06c2.07-1.36,3.96-3.08,5.63-5.06-1.72-3.34-3.12-7.57-3.96-12.23h-15.97v3.87c0,5.06-.79,12.23-4.8,17.16-.4-.62-1.72-1.67-2.38-2.02,3.7-4.53,4.18-10.69,4.18-15.18v-6.56h18.57c-.18-1.45-.31-2.95-.4-4.44h3.12c.04,1.5.18,2.99.35,4.44h8.01c-1.41-1.01-3.65-2.11-5.59-2.77l1.72-1.94c2.16.7,4.84,1.94,6.25,3.08l-1.36,1.63h4.84v2.73h-13.42c.66,3.61,1.67,6.82,2.86,9.5,1.5-2.24,2.68-4.71,3.56-7.39l3.04.7c-1.23,3.61-2.95,6.87-5.02,9.68,1.85,2.99,3.87,4.71,5.68,4.71,1.1-.04,1.54-1.58,1.76-5.54.62.57,1.72,1.19,2.55,1.45-.53,5.5-1.72,7.04-4.49,7.04s-5.28-1.94-7.48-5.15c-1.58,1.85-3.34,3.43-5.19,4.75-.48-.57-1.67-1.72-2.38-2.24l.13-.09ZM484.87,495.75c2.95-2.02,4.84-5.37,5.85-8.58l2.82.97c-1.1,3.48-2.82,7.17-5.98,9.42l-2.68-1.8ZM506.74,470.66h-13.42v-2.29h13.42v2.29ZM510.21,494.96c1.94,0,2.24-.53,2.38-4.62.7.53,2.07,1.01,2.99,1.19-.44,5.15-1.41,6.38-5.1,6.38h-8.54c-4.53,0-5.72-.88-5.72-4.22v-6.82h3.26v6.78c0,1.1.35,1.32,2.73,1.32h8.01ZM503.26,475.95h-6.47v4.58h6.47v-4.58ZM501.72,483.6c2.73,1.28,5.98,3.39,7.52,5.06l-2.24,2.07c-1.5-1.67-4.67-3.92-7.44-5.33l2.16-1.8ZM517.34,486.68c3.17,2.51,6.42,6.07,7.79,8.8l-2.9,1.58c-1.19-2.68-4.4-6.34-7.57-8.93l2.68-1.45Z"/><path class="cls-2" d="M544.85,461.03c-.18.84-.4,1.72-.53,2.6-.26,1.28-.66,3.83-1.14,6.16,2.02-.18,3.83-.31,4.88-.31,3.92,0,7.08,1.54,7.08,7.44,0,5.19-.7,12.06-2.51,15.71-1.41,2.91-3.56,3.61-6.38,3.61-1.67,0-3.74-.31-5.15-.62l-.57-3.74c1.85.62,4.14.97,5.37.97,1.58,0,2.86-.35,3.79-2.24,1.41-2.9,2.07-8.58,2.07-13.29,0-3.96-1.8-4.67-4.62-4.67-1.06,0-2.77.13-4.67.31-1.58,6.25-4.58,16.06-9.15,23.37l-3.56-1.45c4.45-5.94,7.66-15.75,9.15-21.56-2.29.22-4.36.44-5.5.57-1.06.13-2.82.31-3.92.53l-.35-3.83c1.36.04,2.46.04,3.87,0,1.45-.04,3.96-.26,6.6-.48.62-3.12,1.14-6.51,1.1-9.46l4.14.4ZM559.81,466c2.73,3.52,6.51,11.44,7.96,15.49l-3.39,1.67c-1.32-4.49-4.75-12.1-7.79-15.67l3.21-1.5ZM561.62,466.7c-.88-1.76-2.38-4.45-3.56-6.12l2.33-.97c1.1,1.54,2.73,4.27,3.65,6.03l-2.42,1.06ZM566.59,464.9c-.97-1.89-2.42-4.4-3.65-6.07l2.33-.97c1.14,1.58,2.86,4.36,3.7,5.99l-2.38,1.06Z"/><path class="cls-2" d="M600.22,473.48c5.46,1.45,8.71,5.5,8.71,10.3,0,6.25-4.14,11.71-14.26,13.29l-1.89-2.95c7.83-.84,12.67-4.88,12.67-10.52,0-3.3-2.16-6.29-6.25-7.39-2.42,6.16-5.94,10.96-9.64,14.08.35,1.23.7,2.42,1.06,3.52l-3.21.97c-.22-.75-.48-1.54-.7-2.42-2.38,1.45-4.97,2.38-7.31,2.38-2.95,0-5.19-1.76-5.19-5.5,0-5.59,4.88-11.35,10.87-14.08.09-2.2.31-4.4.48-6.42-.92.04-1.8.04-2.64.04-1.89,0-5.28-.18-7.04-.26l-.09-3.3c1.5.22,5.33.53,7.17.53.97,0,1.94,0,2.9-.04.13-1.28.26-2.42.35-3.34.09-.71.13-1.54.13-2.07l3.7.09c-.22.57-.4,1.36-.53,1.94-.18.92-.35,2.02-.53,3.3,5.5-.26,10.78-.84,15.27-1.85l.04,3.3c-4.58.75-10.39,1.32-15.71,1.58-.18,1.67-.31,3.52-.44,5.37,2.42-.75,5.1-1.14,7.3-1.14.53,0,1.06,0,1.58.04l.13-.4c.18-.66.4-1.8.44-2.51l3.52.88c-.26.57-.62,1.76-.88,2.42l-.04.18ZM584.95,478.45c-4.22,2.42-7.44,6.73-7.44,10.25,0,1.76.84,2.64,2.46,2.64s3.79-.75,5.99-2.29c-.62-3.12-1.01-6.6-1.01-9.86v-.75ZM595.42,475.72c-2.82,0-5.32.62-7.39,1.36v1.72c0,2.77.31,5.41.75,7.92,2.86-2.68,5.46-6.21,7.35-11h-.7Z"/><path class="cls-2" d="M627.38,460.5c-.92,3.21-1.76,9.07-2.02,12.1,1.72-4.49,6.29-9.9,11.79-9.9,5.81,0,9.99,5.81,9.99,14.96,0,12.1-7.61,17.43-18.44,19.41l-2.07-3.17c9.46-1.45,16.85-5.24,16.85-16.19,0-6.86-2.29-11.79-6.91-11.79-5.41,0-10.43,7.88-10.96,13.6-.22,1.67-.22,3.17.09,5.32l-3.43.26c-.22-1.63-.44-4.09-.44-6.91,0-4.14.79-10.56,1.32-14.08.18-1.36.31-2.68.35-3.74l3.87.13Z"/><path class="cls-2" d="M691.46,494.56c-2.55-2.33-6.16-4.97-10.52-6.56.04,1.1.09,2.07.09,2.73,0,2.99-2.02,6.12-7.7,6.12-6.25,0-9.73-2.24-9.73-6.47,0-3.96,3.83-6.64,10.12-6.64,1.28,0,2.46.09,3.65.26-.09-1.94-.18-4-.22-5.81h-2.42c-2.99,0-7.83-.26-10.96-.62v-3.34c2.95.53,8.1.84,10.96.84h2.33v-6.25h-2.16c-3.04,0-7.66-.35-10.25-.66v-3.26c2.64.48,7.3.84,10.21.84h2.25v-2.86c0-.7-.04-1.98-.13-2.6h3.74c-.13.79-.18,1.63-.22,2.9-.04.53-.04,1.36-.04,2.42,3.79-.13,7.35-.48,11.18-1.06l.04,3.21c-3.43.35-7.17.7-11.27.92v6.25c4.18-.18,8.19-.57,12.1-1.14l.04,3.3c-4.09.53-7.97.84-12.1,1.01.09,2.24.22,4.53.31,6.6,5.76,1.58,10.21,4.8,12.67,6.78l-1.98,3.08ZM677.51,487.04c-1.36-.26-2.77-.4-4.22-.4-4.14,0-6.38,1.58-6.38,3.56s1.72,3.52,6.03,3.52c2.51,0,4.62-.75,4.62-3.74,0-.75-.04-1.76-.04-2.95Z"/><path class="cls-2" d="M78.93,544.04c0,2.46.04,5.15.09,7.13.92,1.5,1.41,3.43,1.41,5.59,0,5.9-2.86,12.45-12.98,15.49l-3.04-2.95c5.72-1.32,9.77-3.7,11.57-7.57-1.06.75-2.29,1.1-3.74,1.1-3.7,0-7.22-2.6-7.22-7.31,0-4.31,3.56-7.61,7.7-7.61,1.06,0,2.02.18,2.9.48,0-1.28,0-2.82-.04-4.31-6.6.04-13.99.35-19.45.75l-.09-3.43c4.84-.09,13.03-.35,19.5-.44,0-1.23-.04-2.25-.09-2.86-.04-.92-.18-2.2-.26-2.73h4l-.22,2.73c0,.66-.04,1.67-.04,2.82h.66c5.28,0,10.65.04,12.76.04l-.04,3.3c-2.46-.13-6.42-.22-12.81-.22h-.57ZM76.6,553.59c-.7-1.89-2.16-2.68-3.87-2.68-2.24,0-4.4,1.76-4.4,4.58s2.02,4.31,4.44,4.31c2.55,0,4.22-2.07,3.83-6.2Z"/><path class="cls-2" d="M110.04,566.04c0,3.7-2.99,6.73-6.73,6.73s-6.69-3.04-6.69-6.73,3.04-6.69,6.69-6.69,6.73,2.99,6.73,6.69ZM107.75,566.04c0-2.42-1.94-4.44-4.44-4.44s-4.44,2.02-4.44,4.44,2.02,4.49,4.44,4.49,4.44-1.98,4.44-4.49Z"/><path class="cls-4" d="M59.57,276.17c-2,4.16-5.36,8.61-8.44,11.4-1.25-1.2-3.88-3.14-5.42-4.05,2.96-2.22,5.93-5.81,7.53-9.24l6.33,1.88ZM74.16,273.89h-27.99v-5.93h5.13v-21.15h-4.45v-5.93h4.45v-6.04h6.1v6.04h7.07v-6.04h6.21v6.04h3.88v5.93h-3.88v21.15h3.48v5.93ZM57.4,246.82v3.31h7.07v-3.31h-7.07ZM57.4,258.9h7.07v-3.59h-7.07v3.59ZM57.4,267.97h7.07v-3.88h-7.07v3.88ZM97.59,279.88c0,3.36-.63,5.13-2.62,6.21s-4.9,1.25-9.12,1.2c-.23-1.77-1.08-4.73-1.94-6.44,2.45.17,5.19.11,5.99.11.86,0,1.14-.29,1.14-1.2v-11.23h-8.67c-.63,6.73-2.05,13.85-5.13,18.98-1.08-1.2-3.88-3.25-5.36-3.82.17-.34.4-.63.57-.97l-4.73,2.68c-1.14-2.22-3.88-5.99-6.1-8.61l5.13-2.79c2.05,2.28,4.73,5.42,6.16,7.75,3.31-7.13,3.59-16.76,3.59-24.17v-20.92h21.09v43.21ZM91.04,262.49v-7.01h-8.21v2.11c0,1.48,0,3.14-.06,4.9h8.27ZM82.83,242.83v6.67h8.21v-6.67h-8.21Z"/><path class="cls-4" d="M149.35,257.93v4.5h6.73v6.16h-6.73v11.63c0,3.42-.63,5.07-2.91,6.1-2.22.97-5.42,1.08-9.69,1.08-.29-1.88-1.25-4.56-2.11-6.38,2.79.11,5.93.11,6.84.06.86,0,1.14-.17,1.14-.97v-11.52h-22.06v-6.16h22.06v-4.5h-22.63v-5.36c-.86,1.2-1.71,2.39-2.68,3.65v31.12h-6.5v-23.66c-1.77,1.77-3.48,3.31-5.19,4.67-.46-1.54-2.17-5.36-3.13-7.01,4.96-3.53,10.49-9.12,13.68-14.65l5.93,2.57c-.51.8-1.03,1.65-1.6,2.51h14.37v-4.96h-11.69v-6.16h11.69v-6.21h6.73v6.21h12.26v6.16h-12.26v4.96h14.99v6.16h-7.24ZM121.19,236.9c-3.76,5.25-9.52,10.83-14.82,14.25-.68-1.54-2.28-4.28-3.36-5.76,4.5-2.68,9.41-7.35,11.74-11.12l6.44,2.62ZM129.28,268.93c2.57,2.91,5.47,6.9,6.67,9.69l-5.93,3.19c-1.03-2.74-3.82-6.96-6.27-9.98l5.53-2.91Z"/><path class="cls-4" d="M184.63,271.33c-7.52,3.36-15.96,6.96-22.4,9.63l-2.28-7.24c2.17-.74,4.73-1.65,7.58-2.79l-1.14-33.29,7.07-.29,1.03,30.84c2.85-1.2,5.76-2.39,8.61-3.53l1.54,6.67ZM208.23,287.35c-2.11-3.71-6.44-8.95-10.66-13.74-4.16,5.93-9.8,10.49-17.33,13.85-.97-1.48-3.76-4.56-5.42-5.99,18.07-6.84,23.94-20.64,26.05-44.07l7.47.68c-1.2,11.69-3.25,21.21-6.95,28.96,4.73,4.9,10.03,10.66,12.66,14.65l-5.82,5.64ZM186.85,258.1c-1.43-3.93-5.07-9.92-8.49-14.14l6.16-3.08c3.71,4.16,7.3,9.75,9.01,13.68l-6.67,3.53Z"/><path class="cls-4" d="M269.73,277.77v6.84h-51.82v-6.84h20.41v-42.93h7.3v16.3h20.12v6.9h-20.12v19.72h24.11Z"/><path class="cls-4" d="M281.98,243.17c4.73-.4,14.08-1.25,24.4-2.17,5.81-.46,11.97-.8,15.96-.97l.06,7.3c-3.02,0-7.87.06-10.89.74-6.84,1.82-11.91,9.12-11.91,15.79,0,9.29,8.67,12.66,18.24,13.11l-2.62,7.81c-11.86-.74-23.03-7.13-23.03-19.38,0-8.15,4.5-14.54,8.32-17.39-4.9.51-16.76,1.77-23.32,3.19l-.74-7.75c2.28-.06,4.45-.17,5.53-.29ZM319.04,260.55l-4.33,1.94c-1.42-3.14-2.62-5.36-4.45-7.92l4.22-1.77c1.37,2.05,3.48,5.47,4.56,7.75ZM325.65,257.76l-4.28,2.05c-1.54-3.08-2.85-5.19-4.67-7.7l4.16-1.94c1.42,2,3.59,5.36,4.79,7.58Z"/><path class="cls-4" d="M350.55,237.41c-.4,2.39-.68,5.24-.74,7.52-.29,6.04-.68,18.7-.68,25.71,0,5.7,3.42,7.53,7.75,7.53,9.35,0,15.28-5.36,19.33-11.52l5.13,6.33c-3.65,5.36-11.63,12.88-24.51,12.88-9.24,0-15.22-4.05-15.22-13.68,0-7.58.57-22.4.57-27.25,0-2.68-.23-5.42-.74-7.64l9.12.11Z"/><path class="cls-4" d="M421.12,249.84c-3.36.74-7.18,1.37-10.95,1.82-.51,2.45-1.08,4.96-1.71,7.24-2.05,7.92-5.87,19.5-8.95,26.11l-7.92-2.62c3.36-5.64,7.64-17.5,9.75-25.43.4-1.48.8-3.08,1.2-4.67-1.31.06-2.57.11-3.71.11-2.74,0-4.84-.11-6.84-.23l-.17-7.07c2.91.34,4.79.46,7.13.46,1.65,0,3.31-.06,5.02-.17.23-1.25.4-2.34.51-3.25.29-2.11.34-4.39.23-5.7l8.61.68c-.4,1.54-.91,4.05-1.2,5.3l-.46,2.17c3.19-.51,6.38-1.14,9.46-1.88v7.13ZM419.98,268.36c-.46,1.6-.8,3.48-.8,4.73,0,2.45,1.43,4.28,7.47,4.28,3.76,0,7.7-.4,11.74-1.14l-.29,7.24c-3.19.4-7.01.8-11.52.8-9.52,0-14.37-3.31-14.37-9.01,0-2.57.51-5.3.97-7.53l6.78.63ZM416.68,254.17c3.13-.29,7.18-.57,10.83-.57,3.19,0,6.61.17,9.92.51l-.17,6.78c-2.79-.34-6.27-.68-9.69-.68-3.93,0-7.35.17-10.89.63v-6.67Z"/><path class="cls-4" d="M463.53,277.54c0,5.07-4.1,9.23-9.24,9.23s-9.18-4.16-9.18-9.23,4.16-9.24,9.18-9.24,9.24,4.16,9.24,9.24ZM459.42,277.54c0-2.85-2.28-5.13-5.13-5.13s-5.07,2.28-5.07,5.13,2.34,5.07,5.07,5.07,5.13-2.22,5.13-5.07Z"/><path class="cls-1" d="M106.97,101.88c-.42-1.31-1.64-2.19-3.01-2.19h-18.18l-5.54-17.24c-.42-1.31-1.64-2.2-3.01-2.2s-2.59.89-3.01,2.2l-5.54,17.24h-18.18c-1.37,0-2.59.89-3.01,2.19-.42,1.31.05,2.74,1.17,3.54l14.74,10.58-5.67,17.23c-.43,1.31.03,2.74,1.14,3.55,1.11.81,2.62.81,3.73,0l14.63-10.72,14.63,10.72c1.11.81,2.62.82,3.73,0,1.11-.81,1.58-2.24,1.15-3.55l-5.68-17.23,14.74-10.58c1.12-.8,1.59-2.23,1.17-3.54Z"/><path class="cls-1" d="M172.02,101.88c-.42-1.31-1.64-2.19-3.01-2.19h-18.18l-5.54-17.24c-.42-1.31-1.64-2.2-3.01-2.2s-2.59.89-3.01,2.2l-5.54,17.24h-18.18c-1.37,0-2.59.89-3.01,2.19-.42,1.31.05,2.74,1.17,3.54l14.74,10.58-5.67,17.23c-.43,1.31.03,2.74,1.14,3.55,1.11.81,2.62.81,3.73,0l14.63-10.72,14.63,10.72c1.11.81,2.62.82,3.73,0,1.11-.81,1.58-2.24,1.15-3.55l-5.68-17.23,14.74-10.58c1.12-.8,1.59-2.23,1.17-3.54Z"/><path class="cls-1" d="M233.75,101.88c-.42-1.31-1.64-2.19-3.01-2.19h-18.18l-5.54-17.24c-.42-1.31-1.64-2.2-3.01-2.2s-2.59.89-3.01,2.2l-5.54,17.24h-18.18c-1.37,0-2.59.89-3.01,2.19-.42,1.31.05,2.74,1.17,3.54l14.74,10.58-5.67,17.23c-.43,1.31.03,2.74,1.14,3.55,1.11.81,2.62.81,3.73,0l14.63-10.72,14.63,10.72c1.11.81,2.62.82,3.73,0,1.11-.81,1.58-2.24,1.15-3.55l-5.68-17.23,14.74-10.58c1.12-.8,1.59-2.23,1.17-3.54Z"/><path class="cls-1" d="M299,101.88c-.42-1.31-1.64-2.19-3.01-2.19h-18.18l-5.54-17.24c-.42-1.31-1.64-2.2-3.01-2.2s-2.59.89-3.01,2.2l-5.54,17.24h-18.18c-1.37,0-2.59.89-3.01,2.19-.42,1.31.05,2.74,1.17,3.54l14.74,10.58-5.67,17.23c-.43,1.31.03,2.74,1.14,3.55,1.11.81,2.62.81,3.73,0l14.63-10.72,14.63,10.72c1.11.81,2.62.82,3.73,0,1.11-.81,1.58-2.24,1.15-3.55l-5.68-17.23,14.74-10.58c1.12-.8,1.59-2.23,1.17-3.54Z"/><path class="cls-1" d="M364.25,101.88c-.42-1.31-1.64-2.19-3.01-2.19h-18.18l-5.54-17.24c-.42-1.31-1.64-2.2-3.01-2.2s-2.59.89-3.01,2.2l-5.54,17.24h-18.18c-1.37,0-2.59.89-3.01,2.19-.42,1.31.05,2.74,1.17,3.54l14.74,10.58-5.67,17.23c-.43,1.31.03,2.74,1.14,3.55,1.11.81,2.62.81,3.73,0l14.63-10.72,14.63,10.72c1.11.81,2.62.82,3.73,0,1.11-.81,1.58-2.24,1.15-3.55l-5.68-17.23,14.74-10.58c1.12-.8,1.59-2.23,1.17-3.54Z"/></svg>