<?xml version="1.0" encoding="UTF-8"?><svg id="_レイヤー_1" xmlns="http://www.w3.org/2000/svg" viewBox="0 0 751.15 731.27"><defs><style>.cls-1{fill:#f2b600;}.cls-1,.cls-2,.cls-3,.cls-4{stroke-width:0px;}.cls-2{fill:#1a1a1a;}.cls-3{fill:#fff;}.cls-4{fill:#577082;}</style></defs><rect class="cls-3" x="-2.44" y="-2.76" width="752.19" height="733.55"/><path class="cls-2" d="M59.88,390.96v9.11c0,6.69-.48,16.59-4.09,23.23-.57-.53-1.98-1.5-2.73-1.8,3.34-6.29,3.7-15.14,3.7-21.47v-12.1h16.5v-4.62h3.34v4.62h16.68v3.04h-33.4ZM78.18,419.43h15.23v2.9h-33.31v-2.9h14.92v-6.56h-12.06v-2.82h12.06v-17.29h3.17v12.85c3.61-2.68,5.72-6.82,6.6-12.14l2.95.35c-.31,1.94-.79,3.7-1.41,5.37,2.55,2.11,5.59,4.75,7.17,6.56l-2.07,2.16c-1.36-1.63-3.87-4-6.29-6.07-1.23,2.33-2.77,4.27-4.71,5.81-.44-.53-1.54-1.5-2.24-1.94v4.36h12.54v2.82h-12.54v6.56ZM70.26,393.77c-.31,1.98-.75,3.83-1.36,5.54,2.02,1.8,4.27,4.05,5.46,5.54l-1.98,2.11c-1.01-1.32-2.77-3.26-4.58-5.02-1.19,2.51-2.77,4.58-4.75,6.25-.48-.48-1.76-1.5-2.46-1.94,3.74-2.77,5.81-7.22,6.6-12.8l3.08.31Z"/><path class="cls-2" d="M118.15,389.33c-.53,1.85-1.14,3.83-1.72,5.5h17.65v28.65h-3.3v-2.33h-28.12v2.33h-3.17v-28.65h13.6c.48-1.67.92-3.7,1.28-5.5h-16.85v-3.12h38.68v3.12h-18.04ZM102.66,418.11h6.25v-20.24h-6.25v20.24ZM121.19,397.86h-9.29v4.84h9.29v-4.84ZM121.19,405.39h-9.29v4.93h9.29v-4.93ZM111.9,418.11h9.29v-5.1h-9.29v5.1ZM130.78,397.86h-6.6v20.24h6.6v-20.24Z"/><path class="cls-2" d="M156.66,386.03c-.18.84-.4,1.72-.53,2.6-.26,1.28-.66,3.83-1.14,6.16,2.02-.18,3.83-.31,4.88-.31,3.92,0,7.08,1.54,7.08,7.44,0,5.19-.7,12.06-2.51,15.71-1.41,2.91-3.56,3.61-6.38,3.61-1.67,0-3.74-.31-5.15-.62l-.57-3.74c1.85.62,4.14.97,5.37.97,1.58,0,2.86-.35,3.79-2.24,1.41-2.9,2.07-8.58,2.07-13.29,0-3.96-1.8-4.67-4.62-4.67-1.06,0-2.77.13-4.67.31-1.58,6.25-4.58,16.06-9.15,23.37l-3.56-1.45c4.45-5.94,7.66-15.76,9.15-21.56-2.29.22-4.36.44-5.5.57-1.06.13-2.82.31-3.92.53l-.35-3.83c1.36.04,2.46.04,3.87,0,1.45-.04,3.96-.26,6.6-.48.62-3.12,1.14-6.51,1.1-9.46l4.14.4ZM171.62,391c2.73,3.52,6.51,11.44,7.96,15.49l-3.39,1.67c-1.32-4.49-4.75-12.1-7.79-15.67l3.21-1.5ZM173.43,391.7c-.88-1.76-2.38-4.45-3.56-6.12l2.33-.97c1.1,1.54,2.73,4.27,3.65,6.03l-2.42,1.06ZM178.4,389.9c-.97-1.89-2.42-4.4-3.65-6.07l2.33-.97c1.14,1.58,2.86,4.36,3.7,5.98l-2.38,1.06Z"/><path class="cls-2" d="M200.36,385.89c-.18.79-.35,1.72-.53,2.55-.22,1.28-.62,3.83-1.1,6.16,2.02-.13,3.83-.27,4.88-.27,3.87,0,7.08,1.5,7.08,7.39,0,5.19-.75,12.06-2.55,15.71-1.36,2.9-3.52,3.65-6.38,3.65-1.63,0-3.74-.35-5.1-.66l-.57-3.7c1.8.57,4.14.97,5.33.97,1.63,0,2.9-.35,3.83-2.25,1.36-2.95,2.02-8.58,2.02-13.33,0-3.96-1.8-4.66-4.58-4.66-1.06,0-2.77.13-4.67.31-1.58,6.25-4.53,16.02-9.15,23.41l-3.61-1.45c4.44-5.94,7.7-15.8,9.15-21.61-2.24.22-4.36.44-5.5.57-1.01.13-2.77.35-3.92.53l-.35-3.83c1.36.09,2.51.04,3.87,0,1.45-.04,4-.26,6.64-.48.62-3.12,1.1-6.51,1.1-9.46l4.09.44ZM215.37,390.51c2.73,3.52,6.47,11.53,7.96,15.58l-3.43,1.63c-1.28-4.49-4.71-12.15-7.79-15.8l3.26-1.41Z"/><path class="cls-2" d="M249.26,393.68c-2.29.66-5.02,1.23-7.88,1.59-2.16,6.16-6.03,13.73-9.5,18.44l-3.43-1.76c3.65-4.22,7.35-11.18,9.33-16.28-1.28.09-2.55.13-3.83.13-1.63,0-3.43-.04-5.06-.13l-.26-3.3c1.63.22,3.48.31,5.37.31,1.54,0,3.17-.09,4.84-.22.66-2.42,1.28-5.19,1.36-7.53l3.92.35c-.44,1.58-1.01,4.22-1.72,6.73,2.29-.35,4.58-.88,6.78-1.58l.09,3.26ZM254.37,398.75c-.13,1.8-.09,3.08-.04,4.71.04,1.59.22,4.45.31,7.09,3.74,1.36,6.78,3.52,9.02,5.46l-1.89,2.99c-1.85-1.67-4.18-3.61-7-4.97.04.66.04,1.28.04,1.76,0,3.48-2.29,6.34-7.66,6.34-4.8,0-8.71-1.98-8.71-6.29,0-4.01,3.79-6.6,8.71-6.6,1.45,0,2.86.13,4.14.4-.13-3.56-.35-7.83-.44-10.87h3.52ZM251.42,412.69c-1.36-.4-2.86-.62-4.4-.62-3.21,0-5.32,1.45-5.32,3.43s1.63,3.39,5.02,3.39c3.56,0,4.75-1.98,4.75-4.14,0-.57,0-1.28-.04-2.07ZM263.04,399.93c-2.33-1.98-7.04-4.66-9.95-5.98l1.72-2.73c3.17,1.41,8.14,4.22,10.21,5.81l-1.98,2.9Z"/><path class="cls-2" d="M282.32,385.5c-.92,3.21-1.76,9.06-2.02,12.1,1.72-4.49,6.29-9.9,11.79-9.9,5.81,0,9.99,5.81,9.99,14.96,0,12.1-7.61,17.43-18.44,19.41l-2.07-3.17c9.46-1.45,16.85-5.24,16.85-16.2,0-6.86-2.29-11.79-6.91-11.79-5.41,0-10.43,7.88-10.96,13.6-.22,1.67-.22,3.17.09,5.32l-3.43.27c-.22-1.63-.44-4.09-.44-6.91,0-4.14.79-10.56,1.32-14.08.18-1.36.31-2.68.35-3.74l3.87.13Z"/><path class="cls-2" d="M319.46,392.45v8.49c0,6.6-.66,16.2-4.75,22.53-.57-.53-1.94-1.5-2.77-1.8,3.92-6.03,4.27-14.61,4.27-20.73v-11.66h15.8v-5.98h3.39v5.98h16.77v3.17h-32.7ZM349.57,423.61c-.44-1.19-1.06-2.55-1.8-4.05-10.12.66-20.64,1.23-27.77,1.63l-.35-3.35c1.58-.04,3.39-.13,5.33-.18,2.46-6.12,5.37-15.49,6.91-22.44l3.65.84c-1.94,6.91-4.75,15.45-7.22,21.47,5.46-.26,11.71-.57,17.82-.88-1.8-3.17-4.05-6.47-6.21-9.24l2.9-1.32c3.92,4.93,8.23,11.57,9.99,15.93l-3.26,1.58Z"/><path class="cls-2" d="M384.51,387.74c-.97.7-2.29,1.85-2.99,2.46-3.04,2.6-9.29,7.61-12.5,10.25-2.64,2.29-2.64,2.95.18,5.28,3.96,3.17,12.01,9.86,16.28,14.08l-3.17,2.86c-.88-1.06-2.07-2.16-2.99-3.17-2.38-2.55-9.64-8.76-13.73-12.1-4.09-3.43-3.65-5.41.31-8.71,3.26-2.77,9.86-7.96,12.81-10.96.88-.88,2.02-2.11,2.51-2.9l3.3,2.9Z"/><path class="cls-2" d="M427.69,398.48c5.46,1.45,8.71,5.5,8.71,10.3,0,6.25-4.14,11.71-14.26,13.29l-1.89-2.95c7.83-.84,12.67-4.88,12.67-10.52,0-3.3-2.16-6.29-6.25-7.39-2.42,6.16-5.94,10.96-9.64,14.08.35,1.23.7,2.42,1.06,3.52l-3.21.97c-.22-.75-.48-1.54-.7-2.42-2.38,1.45-4.97,2.38-7.31,2.38-2.95,0-5.19-1.76-5.19-5.5,0-5.59,4.88-11.35,10.87-14.08.09-2.2.31-4.4.48-6.43-.92.04-1.8.04-2.64.04-1.89,0-5.28-.18-7.04-.27l-.09-3.3c1.5.22,5.33.53,7.17.53.97,0,1.94,0,2.91-.04.13-1.28.26-2.42.35-3.34.09-.71.13-1.54.13-2.07l3.7.09c-.22.57-.4,1.37-.53,1.94-.18.93-.35,2.03-.53,3.3,5.5-.26,10.78-.84,15.27-1.85l.04,3.3c-4.58.75-10.39,1.32-15.71,1.58-.18,1.67-.31,3.52-.44,5.37,2.42-.75,5.1-1.14,7.3-1.14.53,0,1.06,0,1.58.04l.13-.39c.18-.66.4-1.8.44-2.51l3.52.88c-.26.57-.62,1.76-.88,2.42l-.04.18ZM412.42,403.45c-4.22,2.42-7.44,6.73-7.44,10.25,0,1.76.84,2.64,2.46,2.64s3.79-.75,5.99-2.29c-.62-3.12-1.01-6.6-1.01-9.86v-.75ZM422.89,400.72c-2.82,0-5.32.62-7.39,1.37v1.72c0,2.77.31,5.41.75,7.92,2.86-2.68,5.46-6.21,7.35-11h-.7Z"/><path class="cls-2" d="M470.16,387.74c-.92.7-2.24,1.85-2.99,2.46-2.99,2.6-9.24,7.61-12.45,10.25-2.64,2.29-2.68,2.95.13,5.28,3.96,3.17,12.06,9.86,16.28,14.08l-3.12,2.86c-.88-1.06-2.07-2.16-2.99-3.17-2.38-2.55-9.68-8.76-13.73-12.1-4.14-3.43-3.65-5.41.26-8.71,3.3-2.77,9.9-7.96,12.85-10.96.88-.88,1.98-2.11,2.51-2.9l3.26,2.9ZM471.79,401.52l-2.46,1.06c-.92-1.8-2.55-4.8-3.7-6.51l2.33-1.01c1.1,1.63,2.9,4.8,3.83,6.47ZM476.98,399.41l-2.38,1.05c-1.01-1.85-2.64-4.66-3.87-6.34l2.38-1.06c1.14,1.54,2.95,4.58,3.87,6.34Z"/><path class="cls-2" d="M495.12,405.79c4.18-3.65,8.89-5.24,14.08-5.24,6.69,0,11.13,4.01,11.13,9.11,0,7.83-6.91,13.12-23.1,11.75l-1.06-3.61c13.73,1.67,20.46-2.29,20.46-8.23,0-3.48-3.21-5.9-7.66-5.9-5.81,0-10.39,2.11-13.47,5.77-.62.75-1.01,1.5-1.32,2.2l-3.3-.79c.88-3.96,1.94-13.12,2.2-17.69l3.74.48c-.57,2.99-1.32,9.33-1.72,12.15ZM497.8,385.72c3.74,1.19,12.98,2.99,16.85,3.35l-.84,3.43c-4.14-.57-13.6-2.51-16.94-3.43l.92-3.35Z"/><path class="cls-2" d="M533.63,390.91c2.86-.26,11.09-1.06,19.1-1.76,4.75-.4,8.84-.62,11.75-.75v3.52c-2.51,0-6.29.04-8.54.71-6.2,1.98-9.95,8.62-9.95,13.77,0,8.49,7.92,11.18,15.01,11.44l-1.28,3.7c-8.05-.35-17.25-4.67-17.25-14.39,0-6.78,4.09-12.32,8.1-14.7-3.83.44-15.71,1.58-20.42,2.55l-.4-3.87c1.67-.04,3.04-.13,3.87-.22ZM561.93,403.36l-2.24,1.06c-1.01-2.11-2.29-4.4-3.61-6.21l2.24-.97c1.01,1.45,2.68,4.18,3.61,6.12ZM566.94,401.47l-2.29,1.05c-1.06-2.11-2.33-4.27-3.74-6.12l2.2-1.01c1.06,1.45,2.77,4.14,3.83,6.07Z"/><path class="cls-2" d="M602.95,401.38c2.99,3.3,4.49,6.34,4.49,10.08,0,6.47-5.85,10.43-14.43,10.43-5.94,0-10.74-2.6-10.74-9.72,0-1.19.13-2.95.35-5.02-3.26-.26-6.42-.75-9.07-1.58l.18-3.34c2.86,1.01,6.12,1.54,9.2,1.76.31-2.55.66-5.28.97-7.83-3.12-.26-6.56-.79-9.29-1.5l.18-3.26c2.73.88,6.25,1.41,9.5,1.58.22-1.76.4-3.34.48-4.53.09-1.01.13-1.98.04-3.04l3.96.22c-.31,1.19-.44,2.07-.57,3.04-.13,1.1-.35,2.64-.57,4.45,3.3,0,6.25-.18,8.8-.53l-.09,3.3c-2.77.26-5.37.44-8.84.44h-.31c-.35,2.55-.66,5.28-.97,7.79h.84c2.95,0,6.03-.13,9.07-.53l-.09,3.34c-2.9.31-5.59.4-8.54.4h-1.58c-.18,1.72-.26,3.26-.26,4.31,0,4.14,2.38,6.78,7.35,6.78,6.6,0,10.83-2.82,10.83-7.35,0-2.95-1.58-6.21-4.8-8.89l3.92-.79Z"/><path class="cls-2" d="M628.26,419.65c0,1.67-.35,2.64-1.45,3.21-1.06.48-2.64.57-5.46.53-.09-.75-.53-2.16-.92-2.99,1.94.09,3.61.09,4.14.04.53-.04.75-.22.75-.84v-10.96h-5.81c-.35,5.15-1.19,10.61-3.04,14.74-.53-.44-1.8-1.19-2.55-1.45,2.82-6.16,2.99-14.96,2.99-21.39v-15.67h11.35v34.77ZM625.31,405.65v-7.53h-5.54v2.42c0,1.58,0,3.3-.09,5.11h5.63ZM619.76,387.87v7.26h5.54v-7.26h-5.54ZM643.22,397.43c3.04,3.52,7.57,6.56,11.88,8.1-.57.71-1.32,1.85-1.76,2.64-4.09-1.8-8.89-5.06-11.57-8.4-2.46,3.21-6.91,6.64-11.53,8.8-.35-.75-1.06-1.89-1.58-2.55,4.62-1.89,9.07-5.28,11.4-8.62v-5.68c-2.6,3.21-6.29,6.2-9.59,7.83-.44-.75-1.41-1.85-2.07-2.42,3.34-1.37,7.08-4,9.55-6.87h-7.92v-2.82h10.03v-4.09h3.17v4.09h10.56v2.82h-8.32c2.46,2.73,6.16,5.37,9.33,6.78-.7.53-1.63,1.63-2.11,2.38-3.21-1.67-6.91-4.8-9.46-7.97v5.99ZM639.13,416.52c-2.95,1.58-5.94,3.26-8.54,4.62l-1.41-2.64c2.38-1.06,5.76-2.77,9.2-4.45l.75,2.46ZM634.37,407.55c1.54,1.32,3.21,3.21,3.87,4.66l-2.42,1.5c-.62-1.45-2.2-3.43-3.74-4.8l2.29-1.36ZM640.09,405.13h2.95v15.36c0,1.41-.26,2.11-1.32,2.51-1.06.44-2.68.44-5.19.44-.13-.71-.57-1.76-.92-2.46,1.8.04,3.39.04,3.92.04.44-.04.57-.18.57-.62v-15.27ZM645.07,413.84c2.95,1.54,6.69,3.92,8.58,5.59l-2.02,2.2c-1.8-1.67-5.5-4.18-8.45-5.85l1.89-1.94ZM644.8,412.21c1.28-1.36,3.04-3.61,3.96-5.1l2.51,1.54c-1.36,1.8-3.04,3.65-4.36,4.93l-2.11-1.37Z"/><path class="cls-2" d="M678.17,414.15c.13-1.67.18-4.49.18-6.78-4.05,2.2-6.86,4.44-6.86,7.3,0,3.43,3.39,3.92,7.88,3.92,3.39,0,8.05-.4,11.88-1.06l-.09,3.56c-3.3.4-8.14.71-11.93.71-6.25,0-11.27-1.32-11.27-6.64s5.19-8.41,10.25-11.05c-.44-1.8-2.02-2.68-3.92-2.68-2.86,0-5.5,1.41-7.53,3.21-1.23,1.19-2.46,2.82-3.96,4.58l-2.99-2.24c5.54-5.37,8.41-9.86,10.03-13.29h-1.8c-1.85,0-4.8-.09-7.17-.26v-3.3c2.33.27,5.37.44,7.35.44.92,0,1.85,0,2.86-.04.62-1.94,1.01-3.92,1.1-5.41l3.61.31c-.31,1.23-.7,3.04-1.32,5.02,4.44-.22,9.2-.62,13.33-1.32l-.04,3.26c-4.31.66-9.68,1.05-14.43,1.23-.97,2.25-2.33,4.67-3.92,6.69,1.58-1.01,4.09-1.63,6.03-1.63,2.82,0,5.11,1.36,5.77,3.96,2.99-1.41,5.63-2.46,7.92-3.52,1.32-.57,2.38-1.1,3.61-1.72l1.41,3.3c-1.1.31-2.68.92-3.83,1.36-2.46.97-5.59,2.25-8.89,3.79.04,2.51.09,6.21.13,8.32h-3.39Z"/><path class="cls-2" d="M93.28,491.33v3.21h-39.17v-3.21h22.22c2.2-5.63,4.67-14.74,5.94-21.21l3.7.7c-1.67,6.69-4.14,14.96-6.25,20.51h13.55ZM92,468.05h-36.44v-3.17h16.33v-8.58h3.34v8.58h16.77v3.17ZM65.51,489.13c-.22-4.84-1.89-12.28-4.05-17.95l3.04-.79c2.33,5.77,3.96,13.03,4.31,17.96l-3.3.79Z"/><path class="cls-2" d="M104.26,463.65c2.86-.26,11.09-1.1,19.1-1.76,4.75-.4,8.85-.62,11.75-.75v3.52c-2.46,0-6.29.04-8.54.71-6.21,1.98-9.95,8.58-9.95,13.73,0,8.54,7.92,11.22,15.01,11.49l-1.28,3.65c-8.05-.31-17.25-4.62-17.25-14.35,0-6.82,4.09-12.32,8.1-14.7-3.83.44-15.71,1.59-20.42,2.55l-.4-3.87c1.67-.04,3.04-.13,3.87-.22Z"/><path class="cls-2" d="M149.09,463.65c2.86-.26,11.09-1.1,19.1-1.76,4.75-.4,8.85-.62,11.75-.75v3.52c-2.46,0-6.29.04-8.54.71-6.21,1.98-9.95,8.58-9.95,13.73,0,8.54,7.92,11.22,15.01,11.49l-1.28,3.65c-8.05-.31-17.25-4.62-17.25-14.35,0-6.82,4.09-12.32,8.1-14.7-3.83.44-15.71,1.59-20.42,2.55l-.4-3.87c1.67-.04,3.04-.13,3.87-.22Z"/><path class="cls-2" d="M194.36,463.96v9.11c0,6.69-.48,16.59-4.09,23.23-.57-.53-1.98-1.5-2.73-1.8,3.34-6.29,3.7-15.14,3.7-21.47v-12.1h16.5v-4.62h3.34v4.62h16.68v3.04h-33.4ZM212.66,492.43h15.23v2.9h-33.31v-2.9h14.92v-6.56h-12.06v-2.82h12.06v-17.29h3.17v12.85c3.61-2.68,5.72-6.82,6.6-12.14l2.95.35c-.31,1.94-.79,3.7-1.41,5.37,2.55,2.11,5.59,4.75,7.17,6.56l-2.07,2.16c-1.36-1.63-3.87-4-6.29-6.07-1.23,2.33-2.77,4.27-4.71,5.81-.44-.53-1.54-1.5-2.24-1.94v4.36h12.54v2.82h-12.54v6.56ZM204.74,466.77c-.31,1.98-.75,3.83-1.36,5.54,2.02,1.8,4.27,4.05,5.46,5.54l-1.98,2.11c-1.01-1.32-2.77-3.26-4.58-5.02-1.19,2.51-2.77,4.58-4.75,6.25-.48-.48-1.76-1.5-2.46-1.94,3.74-2.77,5.81-7.22,6.6-12.8l3.08.31Z"/><path class="cls-2" d="M242.22,474.38c3.12-.97,10.25-3.56,15.4-3.56,6.16,0,10.65,3.7,10.65,9.64,0,8.4-8.1,12.72-19.85,13.42l-1.41-3.39c9.42-.31,17.69-2.95,17.69-10.08,0-3.7-2.9-6.38-7.35-6.38-5.41,0-14.92,3.96-17.73,5.06l-1.45-3.65c1.28-.22,2.73-.62,4.05-1.06Z"/><path class="cls-2" d="M283.57,463.65c2.86-.26,11.09-1.1,19.1-1.76,4.75-.4,8.85-.62,11.75-.75v3.52c-2.46,0-6.29.04-8.54.71-6.21,1.98-9.95,8.58-9.95,13.73,0,8.54,7.92,11.22,15.01,11.49l-1.28,3.65c-8.05-.31-17.25-4.62-17.25-14.35,0-6.82,4.09-12.32,8.1-14.7-3.83.44-15.71,1.59-20.42,2.55l-.4-3.87c1.67-.04,3.04-.13,3.87-.22Z"/><path class="cls-2" d="M354.31,474.38c2.99,3.3,4.49,6.34,4.49,10.08,0,6.47-5.85,10.43-14.43,10.43-5.94,0-10.74-2.6-10.74-9.72,0-1.19.13-2.95.35-5.02-3.26-.26-6.42-.75-9.07-1.58l.18-3.34c2.86,1.01,6.12,1.54,9.2,1.76.31-2.55.66-5.28.97-7.83-3.12-.26-6.56-.79-9.29-1.5l.18-3.26c2.73.88,6.25,1.41,9.5,1.58.22-1.76.4-3.34.48-4.53.09-1.01.13-1.98.04-3.04l3.96.22c-.31,1.19-.44,2.07-.57,3.04-.13,1.1-.35,2.64-.57,4.45,3.3,0,6.25-.18,8.8-.53l-.09,3.3c-2.77.26-5.37.44-8.84.44h-.31c-.35,2.55-.66,5.28-.97,7.79h.84c2.95,0,6.03-.13,9.07-.53l-.09,3.34c-2.9.31-5.59.4-8.54.4h-1.58c-.18,1.72-.26,3.26-.26,4.31,0,4.14,2.38,6.78,7.35,6.78,6.6,0,10.83-2.82,10.83-7.35,0-2.95-1.58-6.21-4.8-8.89l3.92-.79Z"/><path class="cls-2" d="M388.97,481.25v11.27c0,1.89-.48,2.86-1.85,3.39-1.36.48-3.56.57-7.04.53-.18-.88-.75-2.29-1.28-3.08,2.64.09,5.15.04,5.85.04.7-.04.97-.22.97-.88v-11.27h-15.89v-3.04h15.89v-5.59h-9.73v-2.86c-2.16,1.45-4.4,2.82-6.69,3.96-.4-.79-1.28-1.94-1.98-2.64,7.48-3.48,14.79-9.51,18.22-14.7h3.26c4.67,5.9,12.28,11.4,19.1,14.21-.79.79-1.58,1.94-2.11,2.86-6.6-3.26-14.3-8.84-18.44-14.04-2.51,3.34-6.56,7.08-11.22,10.25h22.62v2.95h-9.68v5.59h16.55v3.04h-16.55ZM380.17,485.08c-2.64,3.65-6.69,7.35-10.21,9.68-.53-.57-1.76-1.67-2.51-2.2,3.61-2.11,7.35-5.32,9.68-8.54l3.04,1.06ZM396.63,483.76c3.56,2.64,7.97,6.47,10.08,9.06l-2.77,2.02c-2.02-2.64-6.34-6.6-9.9-9.37l2.6-1.71Z"/><path class="cls-2" d="M428.61,473.64c-1.19,1.72-2.46,3.61-3.56,5.02,1.14,1.36,2.16,2.68,2.55,3.21l-1.85,2.33c-.79-1.37-2.68-4-4.22-6.07v18.31h-3.08v-16.06c-1.63,2.02-3.34,3.78-5.02,5.19-.35-.79-1.19-2.29-1.67-2.77,4.27-3.39,8.76-9.29,11.22-15.23h-10.21v-2.99h5.54v-8.05h3.08v8.05h3.08l.57-.13,1.72,1.1c-1.1,3.34-2.73,6.64-4.62,9.64.48.53,1.01,1.14,1.58,1.85,1.01-1.5,2.2-3.43,2.9-4.75l1.98,1.36ZM441.15,465.76c2.95,4.97,7.61,10.52,11.93,13.47-.66.79-1.41,1.94-1.89,2.9-.75-.57-1.54-1.23-2.29-1.94v16.15h-3.12v-1.63h-11.53v1.8h-3.08v-16.37c-.84.75-1.67,1.5-2.55,2.16-.35-.84-1.19-1.98-1.76-2.68,4.58-3.39,9.11-9.24,11.27-13.86h3.04ZM437.41,457.75c-1.76,4.09-4.58,8.1-7.39,10.69-.57-.48-1.85-1.45-2.6-1.94,2.82-2.33,5.46-5.9,6.91-9.5l3.08.75ZM448.01,479.36c-3.21-3.17-6.34-7.04-8.23-10.25-1.67,3.21-4.53,7.04-7.79,10.25h16.02ZM445.77,491.72v-9.37h-11.53v9.37h11.53ZM449.11,467.96c-1.23-2.64-4.22-6.87-6.91-9.99l2.68-1.32c2.64,2.95,5.72,7.04,7.08,9.77l-2.86,1.54Z"/><path class="cls-2" d="M473.83,459.03c-.18.84-.4,1.72-.53,2.6-.26,1.28-.66,3.83-1.14,6.16,2.02-.18,3.83-.31,4.88-.31,3.92,0,7.08,1.54,7.08,7.44,0,5.19-.7,12.06-2.51,15.71-1.41,2.91-3.56,3.61-6.38,3.61-1.67,0-3.74-.31-5.15-.62l-.57-3.74c1.85.62,4.14.97,5.37.97,1.58,0,2.86-.35,3.79-2.24,1.41-2.9,2.07-8.58,2.07-13.29,0-3.96-1.8-4.67-4.62-4.67-1.06,0-2.77.13-4.67.31-1.58,6.25-4.58,16.06-9.15,23.37l-3.56-1.45c4.45-5.94,7.66-15.76,9.15-21.56-2.29.22-4.36.44-5.5.57-1.06.13-2.82.31-3.92.53l-.35-3.83c1.36.04,2.46.04,3.87,0,1.45-.04,3.96-.26,6.6-.48.62-3.12,1.14-6.51,1.1-9.46l4.14.4ZM488.79,464c2.73,3.52,6.51,11.44,7.96,15.49l-3.39,1.67c-1.32-4.49-4.75-12.1-7.79-15.67l3.21-1.5ZM490.59,464.7c-.88-1.76-2.38-4.45-3.56-6.12l2.33-.97c1.1,1.54,2.73,4.27,3.65,6.03l-2.42,1.06ZM495.57,462.9c-.97-1.89-2.42-4.4-3.65-6.07l2.33-.97c1.14,1.58,2.86,4.36,3.7,5.98l-2.38,1.06Z"/><path class="cls-2" d="M530.89,471.48c5.46,1.45,8.71,5.5,8.71,10.3,0,6.25-4.14,11.71-14.26,13.29l-1.89-2.95c7.83-.84,12.67-4.88,12.67-10.52,0-3.3-2.16-6.29-6.25-7.39-2.42,6.16-5.94,10.96-9.64,14.08.35,1.23.7,2.42,1.06,3.52l-3.21.97c-.22-.75-.48-1.54-.7-2.42-2.38,1.45-4.97,2.38-7.31,2.38-2.95,0-5.19-1.76-5.19-5.5,0-5.59,4.88-11.35,10.87-14.08.09-2.2.31-4.4.48-6.43-.92.04-1.8.04-2.64.04-1.89,0-5.28-.18-7.04-.27l-.09-3.3c1.5.22,5.33.53,7.17.53.97,0,1.94,0,2.9-.04.13-1.28.26-2.42.35-3.34.09-.71.13-1.54.13-2.07l3.7.09c-.22.57-.4,1.37-.53,1.94-.18.93-.35,2.03-.53,3.3,5.5-.26,10.78-.84,15.27-1.85l.04,3.3c-4.58.75-10.39,1.32-15.71,1.58-.18,1.67-.31,3.52-.44,5.37,2.42-.75,5.1-1.14,7.3-1.14.53,0,1.06,0,1.58.04l.13-.39c.18-.66.4-1.8.44-2.51l3.52.88c-.26.57-.62,1.76-.88,2.42l-.04.18ZM515.62,476.45c-4.22,2.42-7.44,6.73-7.44,10.25,0,1.76.84,2.64,2.46,2.64s3.79-.75,5.99-2.29c-.62-3.12-1.01-6.6-1.01-9.86v-.75ZM526.09,473.72c-2.82,0-5.32.62-7.39,1.37v1.72c0,2.77.31,5.41.75,7.92,2.86-2.68,5.46-6.21,7.35-11h-.7Z"/><path class="cls-2" d="M559.74,458.5c-.92,3.21-1.76,9.06-2.02,12.1,1.72-4.49,6.29-9.9,11.79-9.9,5.81,0,9.99,5.81,9.99,14.96,0,12.1-7.61,17.43-18.44,19.41l-2.07-3.17c9.46-1.45,16.85-5.24,16.85-16.2,0-6.86-2.29-11.79-6.91-11.79-5.41,0-10.43,7.88-10.96,13.6-.22,1.67-.22,3.17.09,5.32l-3.43.27c-.22-1.63-.44-4.09-.44-6.91,0-4.14.79-10.56,1.32-14.08.18-1.36.31-2.68.35-3.74l3.87.13Z"/><path class="cls-2" d="M625.51,492.56c-2.55-2.33-6.16-4.97-10.52-6.56.04,1.1.09,2.07.09,2.73,0,2.99-2.02,6.12-7.7,6.12-6.25,0-9.73-2.24-9.73-6.47,0-3.96,3.83-6.64,10.12-6.64,1.28,0,2.46.09,3.65.26-.09-1.94-.18-4-.22-5.81h-2.42c-2.99,0-7.83-.26-10.96-.62v-3.35c2.95.53,8.1.84,10.96.84h2.33v-6.25h-2.16c-3.04,0-7.66-.35-10.25-.66v-3.26c2.64.48,7.3.84,10.21.84h2.25v-2.86c0-.7-.04-1.98-.13-2.6h3.74c-.13.79-.18,1.63-.22,2.9-.04.53-.04,1.37-.04,2.42,3.79-.13,7.35-.48,11.18-1.05l.04,3.21c-3.43.35-7.17.71-11.27.92v6.25c4.18-.18,8.19-.57,12.1-1.14l.04,3.3c-4.09.53-7.97.84-12.1,1.01.09,2.24.22,4.53.31,6.6,5.76,1.58,10.21,4.8,12.67,6.78l-1.98,3.08ZM611.56,485.03c-1.36-.26-2.77-.4-4.22-.4-4.14,0-6.38,1.58-6.38,3.56s1.72,3.52,6.03,3.52c2.51,0,4.62-.75,4.62-3.74,0-.75-.04-1.76-.04-2.95Z"/><path class="cls-2" d="M661.67,467.04c0,2.46.04,5.15.09,7.13.92,1.5,1.41,3.43,1.41,5.59,0,5.9-2.86,12.46-12.98,15.49l-3.04-2.95c5.72-1.32,9.77-3.7,11.57-7.57-1.06.75-2.29,1.1-3.74,1.1-3.7,0-7.22-2.6-7.22-7.31,0-4.31,3.56-7.61,7.7-7.61,1.06,0,2.02.18,2.9.48,0-1.28,0-2.82-.04-4.31-6.6.04-13.99.35-19.45.75l-.09-3.43c4.84-.09,13.03-.35,19.5-.44,0-1.23-.04-2.25-.09-2.86-.04-.92-.18-2.2-.26-2.73h4l-.22,2.73c0,.66-.04,1.67-.04,2.82h.66c5.28,0,10.65.04,12.76.04l-.04,3.3c-2.46-.13-6.42-.22-12.81-.22h-.57ZM659.33,476.59c-.7-1.89-2.16-2.68-3.87-2.68-2.24,0-4.4,1.76-4.4,4.58s2.02,4.31,4.44,4.31c2.55,0,4.22-2.07,3.83-6.21Z"/><path class="cls-2" d="M692.77,489.04c0,3.7-2.99,6.73-6.73,6.73s-6.69-3.04-6.69-6.73,3.04-6.69,6.69-6.69,6.73,2.99,6.73,6.69ZM690.48,489.04c0-2.42-1.94-4.44-4.44-4.44s-4.44,2.02-4.44,4.44,2.02,4.49,4.44,4.49,4.44-1.98,4.44-4.49Z"/><path class="cls-2" d="M84.92,565.91c4.22,0,4.88-1.19,5.41-6.51.88.57,2.24,1.01,3.26,1.23-.75,6.43-2.11,8.32-8.58,8.32h-17.07c-7.08,0-9.24-1.23-9.24-6.47v-19.5c-.92.84-1.94,1.58-2.95,2.33-.48-.75-1.58-1.8-2.38-2.29,5.99-4.09,10.39-9.51,12.72-13.91l3.61.7c-.48.79-1.01,1.59-1.54,2.42h10.87l.62-.22,2.2,1.41c-1.1,2.2-2.6,4.62-4.14,6.69h12.41v15.89h-3.3v-1.98h-24.86v8.49c0,2.73.92,3.39,5.76,3.39h17.21ZM66.13,535.06c-1.28,1.71-2.73,3.43-4.36,5.06h12.1c1.19-1.45,2.38-3.35,3.34-5.06h-11.09ZM61.95,551.08h10.43v-7.96h-10.43v7.96ZM86.81,543.12h-11.18v7.96h11.18v-7.96Z"/><path class="cls-2" d="M131.7,541.44c-2.07,5.76-5.85,12.54-9.55,17.47,2.46,1.71,4.71,3.43,6.21,5.02l-2.33,2.99c-3.34-3.65-10.61-8.49-16.81-11.48l2.11-2.64c2.51,1.14,5.28,2.64,7.88,4.22,2.95-3.87,5.85-9.11,7.7-13.47h-14.92c-2.6,5.15-5.81,9.99-9.59,13.69-.75-.62-2.16-1.5-3.08-1.94,6.56-6.07,11.35-15.8,13.82-23.94l3.65.84c-.88,2.64-1.98,5.37-3.21,8.05h15.01l.66-.13,2.46,1.32Z"/><path class="cls-2" d="M152.13,530.35c-1.06,3.12-2.42,6.29-3.92,9.29v29.75h-3.12v-24.34c-1.19,1.85-2.46,3.56-3.74,5.06-.35-.75-1.32-2.46-1.89-3.21,3.87-4.27,7.44-10.83,9.64-17.47l3.04.92ZM168.72,541.27c2.6,7.35,7.13,14.65,11.88,18.48-.79.57-1.89,1.71-2.46,2.6-4.62-4.22-8.84-11.62-11.53-19.28v15.27h7.08v2.99h-7.08v7.88h-3.17v-7.88h-7.17v-2.99h7.17v-14.96c-2.82,7.61-7.04,14.83-11.66,19.05-.57-.75-1.63-1.89-2.38-2.46,4.8-3.83,9.37-11.27,12.06-18.7h-10.34v-3.17h12.32v-8.67h3.17v8.67h13.11v3.17h-11Z"/><path class="cls-2" d="M202.34,552.23c-6.86.57-13.86,1.14-18.88,1.54l-.18-2.51c2.33-.13,5.33-.31,8.58-.57v-2.99h-6.64v-2.2h6.64v-2.42h2.99v2.42h6.86v2.2h-6.86v2.82l7.52-.57-.04,2.29ZM191.61,538.67c-.75,3.26-3.3,5.15-6.91,6.21-.22-.57-.84-1.58-1.36-2.11,2.9-.66,5.06-1.85,5.72-4.09h-5.5v-2.29h8.32v-2.38h-6.56v-2.16h6.56v-2.6h2.99v2.6h6.69v2.16h-6.69v2.38h8.49v2.29h-5.85v2.03c0,.7.09.75.75.75h2.07c.66,0,.79-.18.88-1.54.48.35,1.45.66,2.11.75-.18,2.16-.88,2.77-2.55,2.77h-2.86c-2.42,0-2.95-.48-2.95-2.73v-2.03h-3.34ZM219.2,557.95c-.7,6.43-1.41,9.2-2.6,10.34-.88.79-1.72,1.01-3.12,1.1-1.23.04-3.7.04-6.21-.09-.04-.88-.44-2.16-.97-2.95,2.51.22,5.02.27,5.9.27s1.32-.04,1.72-.35c.75-.66,1.32-2.68,1.85-7.13h-12.63c-2.16,5.5-6.73,8.76-17.95,10.39-.22-.71-.92-2.03-1.5-2.69,9.77-1.23,13.95-3.65,15.97-7.7h-13.55v-2.64h14.52c.22-.84.4-1.71.53-2.64h3.3c-.13.92-.31,1.8-.53,2.64h15.4l-.13,1.45ZM219.24,534.49c0,9.77,0,17.03,1.8,17.03.53,0,.75-2.33.79-5.5.57.66,1.41,1.41,1.94,1.76-.26,4.75-.75,6.51-2.99,6.51-4.05,0-4.36-6.95-4.44-17.12h-4.49c-.18,2.24-.44,4.31-.88,6.16,1.8,1.14,3.43,2.38,4.49,3.39l-1.54,2.42c-.92-.97-2.25-2.07-3.74-3.12-1.19,3.12-2.99,5.59-5.9,7.44-.31-.62-1.23-1.67-1.89-2.07,2.73-1.72,4.36-4.01,5.37-7-1.41-.84-2.82-1.63-4.14-2.29l1.45-2.07c1.06.53,2.2,1.1,3.34,1.76.31-1.41.48-2.95.62-4.62h-4.67v-2.68h4.84c.04-1.63.09-3.39.13-5.24h2.86c-.04,1.85-.09,3.61-.18,5.24h7.22Z"/><path class="cls-2" d="M242.93,532.03c-.18.84-.4,1.72-.53,2.6-.26,1.28-.66,3.83-1.14,6.16,2.02-.18,3.83-.31,4.88-.31,3.92,0,7.08,1.54,7.08,7.44,0,5.19-.7,12.06-2.51,15.71-1.41,2.91-3.56,3.61-6.38,3.61-1.67,0-3.74-.31-5.15-.62l-.57-3.74c1.85.62,4.14.97,5.37.97,1.58,0,2.86-.35,3.78-2.24,1.41-2.9,2.07-8.58,2.07-13.29,0-3.96-1.8-4.67-4.62-4.67-1.06,0-2.77.13-4.67.31-1.58,6.25-4.58,16.06-9.15,23.37l-3.56-1.45c4.44-5.94,7.66-15.76,9.15-21.56-2.29.22-4.36.44-5.5.57-1.06.13-2.82.31-3.92.53l-.35-3.83c1.36.04,2.46.04,3.87,0,1.45-.04,3.96-.26,6.6-.48.62-3.12,1.14-6.51,1.1-9.46l4.14.4ZM257.89,537c2.73,3.52,6.51,11.44,7.96,15.49l-3.39,1.67c-1.32-4.49-4.75-12.1-7.79-15.67l3.21-1.5ZM259.69,537.7c-.88-1.76-2.38-4.45-3.56-6.12l2.33-.97c1.1,1.54,2.73,4.27,3.65,6.03l-2.42,1.06ZM264.66,535.9c-.97-1.89-2.42-4.4-3.65-6.07l2.33-.97c1.14,1.58,2.86,4.36,3.7,5.98l-2.38,1.06Z"/><path class="cls-2" d="M279.94,539.82c-1.85,3.3-5.02,6.69-8.23,8.76-.57-.57-1.58-1.45-2.24-1.94,3.04-1.8,6.03-4.93,7.39-7.7l3.08.88ZM302.21,553.63c-2.2,3.83-5.46,6.82-9.37,9.15,4.67,1.94,10.3,3.21,16.63,3.74-.7.7-1.54,2.11-1.89,2.99-7.04-.75-13.16-2.38-18.13-4.97-5.46,2.55-11.84,4.09-18.35,5.02-.22-.79-.97-2.24-1.58-2.86,6.03-.75,11.88-1.98,16.81-4.01-2.33-1.63-4.36-3.52-5.99-5.68-2.24,1.54-4.75,2.99-7.66,4.22-.44-.79-1.41-1.85-2.07-2.38,6.73-2.6,11.49-6.42,13.95-9.86l3.52.62c-.71.92-1.45,1.8-2.29,2.68h13.64l.62-.13,2.16,1.45ZM284.34,536.65h-14.08v-2.99h17.38v-4.36h3.3v4.36h17.6v2.99h-11.88v9.68c0,1.63-.26,2.46-1.5,2.99-1.19.44-3.21.44-6.12.44-.13-.84-.53-2.02-.92-2.86,2.2.04,4.09.04,4.66.04.57-.04.7-.18.7-.66v-9.64h-6.07v.26c0,4.49-.7,10.34-7.61,14.52-.48-.7-1.63-1.71-2.38-2.2,6.38-3.74,6.91-8.67,6.91-12.37v-.22ZM282.62,555.31c1.72,2.29,4.05,4.27,6.95,5.9,3.12-1.67,5.81-3.7,7.75-6.16h-14.43l-.26.26ZM301.46,538.76c2.86,2.51,6.25,6.07,7.83,8.49l-2.73,1.72c-1.45-2.42-4.8-6.12-7.61-8.71l2.51-1.5Z"/><path class="cls-2" d="M339.97,545.93c-1.67,1.5-6.51,5.98-8.14,7.7.44-.04,1.23,0,1.63.13,1.72.18,2.73,1.32,3.34,3.12.4,1.28.97,3.48,1.45,4.88.48,1.63,1.5,2.33,3.74,2.33,2.86,0,6.21-.39,8.23-.92l-.22,3.74c-1.85.31-5.85.62-8.18.62-3.48,0-5.68-.79-6.65-3.7-.4-1.28-1.06-3.83-1.45-5.1-.53-1.5-1.45-2.29-2.64-2.29s-2.2.62-3.21,1.58c-1.63,1.58-6.34,6.51-8.8,9.64l-3.39-2.29c.57-.44,1.36-1.14,2.16-1.98,1.76-1.72,13.64-13.6,17.96-17.91-3.43.22-10.74.88-13.42,1.1-1.41.09-2.55.26-3.52.4l-.31-3.87c1.01.09,2.33.13,3.7.09,2.51-.04,12.63-.75,15.93-1.14.75-.09,1.67-.31,2.07-.48l2.11,2.38c-.79.57-1.89,1.5-2.38,1.98ZM341.47,533.79l-.48,3.26c-4.36-.4-11.97-1.37-17.29-2.33l.57-3.21c4.75,1.01,13.07,2.02,17.21,2.29Z"/><path class="cls-2" d="M365.72,551.79c4.18-3.65,8.89-5.24,14.08-5.24,6.69,0,11.13,4.01,11.13,9.11,0,7.83-6.91,13.12-23.1,11.75l-1.06-3.61c13.73,1.67,20.46-2.29,20.46-8.23,0-3.48-3.21-5.9-7.66-5.9-5.81,0-10.39,2.11-13.47,5.77-.62.75-1.01,1.5-1.32,2.2l-3.3-.79c.88-3.96,1.94-13.12,2.2-17.69l3.74.48c-.57,2.99-1.32,9.33-1.72,12.15ZM368.41,531.72c3.74,1.19,12.98,2.99,16.85,3.35l-.84,3.43c-4.14-.57-13.6-2.51-16.94-3.43l.92-3.35Z"/><path class="cls-2" d="M439.35,562.57c-2.29,2.33-5.02,3.65-8.01,3.65s-4.84-1.94-4.84-5.54c0-4.84,1.63-12.01,1.63-16.24,0-2.51-1.28-3.56-3.48-3.56-3.52,0-8.8,4.09-12.81,8.4-.09,1.85-.13,3.56-.13,5.11,0,3.96,0,6.6.18,10.52.04.75.13,1.85.22,2.64h-3.83c.04-.62.13-1.89.13-2.6.04-4.18.04-6.34.13-11.18,0-.44.04-1.01.04-1.67-2.11,3.21-4.97,7.39-7.08,10.3l-2.2-3.04c2.42-3.04,7.44-9.81,9.64-13.25.09-1.41.18-2.82.26-4.18-1.98.22-5.76.75-8.49,1.1l-.35-3.65c.97.04,1.8.04,2.86-.04,1.41-.09,3.96-.35,6.21-.7.13-2.07.22-3.61.22-4.09,0-1.01.04-2.16-.18-3.26l4.18.13c-.22,1.05-.57,3.52-.88,6.56l.22-.09,1.28,1.54c-.53.79-1.28,1.98-1.94,3.04-.09.79-.13,1.63-.22,2.46,3.39-3.12,8.98-7.3,13.33-7.3,4.09,0,6.16,2.29,6.16,5.85,0,4.36-1.63,11.88-1.63,16.28,0,1.5.7,2.64,2.24,2.64,2.2,0,4.53-1.41,6.56-3.61l.57,3.79Z"/><path class="cls-2" d="M472.8,535.55c-.79.53-1.76,1.19-2.42,1.67-2.16,1.63-8.01,6.78-11.35,9.59,1.98-.66,3.96-.93,5.9-.93,7.26,0,12.5,4.4,12.5,10.3,0,7.04-5.85,11.62-15.05,11.62-5.94,0-9.59-2.64-9.59-6.25,0-2.99,2.68-5.72,6.73-5.72,5.46,0,8.41,3.65,8.98,7.7,3.43-1.32,5.41-3.83,5.41-7.39,0-4.27-4.31-7.39-9.81-7.39-7.17,0-11.13,3.04-16.68,8.67l-2.55-2.6c3.61-2.99,9.2-7.66,11.75-9.77,2.42-2.02,7.83-6.6,9.99-8.54-2.29.09-10.87.48-13.11.62-1.01.04-2.02.09-2.95.26l-.09-3.65c.97.13,2.2.13,3.08.13,2.25,0,12.59-.31,14.88-.53,1.28-.13,1.89-.22,2.38-.35l2.02,2.55ZM465.28,564.37c-.4-3.43-2.46-5.81-5.76-5.81-1.98,0-3.48,1.19-3.48,2.69,0,2.16,2.51,3.39,5.76,3.39,1.23,0,2.42-.09,3.48-.26Z"/><path class="cls-2" d="M504.36,563.93c1.36-.09,2.68-.31,3.74-.53,5.59-1.23,11.04-5.37,11.04-12.89,0-6.6-4.18-12.01-11.57-12.63-.57,4.05-1.41,8.45-2.6,12.54-2.68,8.93-6.16,13.55-10.21,13.55s-7.79-4.49-7.79-11.66c0-9.46,8.45-17.73,19.1-17.73s16.72,7.22,16.72,16.02-6.03,15.27-16.42,16.63l-2.02-3.3ZM501.5,549.67c1.1-3.61,1.94-7.74,2.42-11.75-8.36,1.06-13.47,8.23-13.47,14.08,0,5.5,2.55,7.92,4.44,7.92s4.36-2.9,6.6-10.25Z"/><path class="cls-2" d="M537.46,532.6c-.26.7-.62,2.16-.75,2.95-.88,4.05-2.16,12.67-2.16,17.56,0,2.11.09,3.83.4,5.94.7-1.98,1.72-4.58,2.46-6.34l1.85,1.45c-1.1,3.04-2.64,7.48-3.08,9.64-.13.57-.26,1.41-.22,1.94,0,.44.09,1.06.13,1.5l-3.12.26c-.88-3.12-1.67-7.92-1.67-13.82,0-6.38,1.45-14.7,1.98-18.31.18-1.01.31-2.16.31-3.08l3.87.31ZM565.8,564.33c-2.16-2.02-4.31-3.74-6.56-4.97v.79c0,3.61-1.67,7.13-7.57,7.13s-9.07-2.42-9.07-6.29c0-3.65,3.26-6.65,8.98-6.65,1.45,0,2.82.13,4.05.4-.13-3.34-.4-7.53-.44-11.13-1.41.04-2.77.09-4.18.09-2.46,0-4.75-.13-7.3-.26v-3.35c2.46.26,4.84.4,7.39.4,1.36,0,2.73-.04,4.09-.09v-5.41c0-.75-.09-1.89-.22-2.64h4c-.13.84-.22,1.71-.26,2.6-.04,1.19-.09,3.21-.13,5.24,2.64-.18,5.19-.53,7.53-1.01v3.43c-2.38.39-4.93.66-7.53.84.04,4.36.35,8.71.53,12.37,3.52,1.41,6.29,3.65,8.58,5.68l-1.89,2.86ZM555.77,557.86c-1.41-.48-2.9-.71-4.44-.71-3.26,0-5.5,1.45-5.5,3.48,0,2.16,2.11,3.39,5.24,3.39,3.7,0,4.75-1.8,4.75-4.71,0-.39,0-.92-.04-1.45Z"/><path class="cls-2" d="M600.22,544.48c5.46,1.45,8.71,5.5,8.71,10.3,0,6.25-4.14,11.71-14.26,13.29l-1.89-2.95c7.83-.84,12.67-4.88,12.67-10.52,0-3.3-2.16-6.29-6.25-7.39-2.42,6.16-5.94,10.96-9.64,14.08.35,1.23.7,2.42,1.06,3.52l-3.21.97c-.22-.75-.48-1.54-.7-2.42-2.38,1.45-4.97,2.38-7.31,2.38-2.95,0-5.19-1.76-5.19-5.5,0-5.59,4.88-11.35,10.87-14.08.09-2.2.31-4.4.48-6.43-.92.04-1.8.04-2.64.04-1.89,0-5.28-.18-7.04-.27l-.09-3.3c1.5.22,5.33.53,7.17.53.97,0,1.94,0,2.9-.04.13-1.28.26-2.42.35-3.34.09-.71.13-1.54.13-2.07l3.7.09c-.22.57-.4,1.37-.53,1.94-.18.93-.35,2.03-.53,3.3,5.5-.26,10.78-.84,15.27-1.85l.04,3.3c-4.58.75-10.39,1.32-15.71,1.58-.18,1.67-.31,3.52-.44,5.37,2.42-.75,5.1-1.14,7.3-1.14.53,0,1.06,0,1.58.04l.13-.39c.18-.66.4-1.8.44-2.51l3.52.88c-.26.57-.62,1.76-.88,2.42l-.04.18ZM584.95,549.45c-4.22,2.42-7.44,6.73-7.44,10.25,0,1.76.84,2.64,2.46,2.64s3.79-.75,5.99-2.29c-.62-3.12-1.01-6.6-1.01-9.86v-.75ZM595.42,546.72c-2.82,0-5.32.62-7.39,1.37v1.72c0,2.77.31,5.41.75,7.92,2.86-2.68,5.46-6.21,7.35-11h-.7Z"/><path class="cls-2" d="M627.38,531.5c-.92,3.21-1.76,9.06-2.02,12.1,1.72-4.49,6.29-9.9,11.79-9.9,5.81,0,9.99,5.81,9.99,14.96,0,12.1-7.61,17.43-18.44,19.41l-2.07-3.17c9.46-1.45,16.85-5.24,16.85-16.2,0-6.86-2.29-11.79-6.91-11.79-5.41,0-10.43,7.88-10.96,13.6-.22,1.67-.22,3.17.09,5.32l-3.43.27c-.22-1.63-.44-4.09-.44-6.91,0-4.14.79-10.56,1.32-14.08.18-1.36.31-2.68.35-3.74l3.87.13Z"/><path class="cls-2" d="M674.25,532.03c-.18.84-.4,1.72-.53,2.6-.26,1.28-.66,3.83-1.14,6.16,2.02-.18,3.83-.31,4.88-.31,3.92,0,7.08,1.54,7.08,7.44,0,5.19-.7,12.06-2.51,15.71-1.41,2.91-3.56,3.61-6.38,3.61-1.67,0-3.74-.31-5.15-.62l-.57-3.74c1.85.62,4.14.97,5.37.97,1.58,0,2.86-.35,3.78-2.24,1.41-2.9,2.07-8.58,2.07-13.29,0-3.96-1.8-4.67-4.62-4.67-1.06,0-2.77.13-4.67.31-1.58,6.25-4.58,16.06-9.15,23.37l-3.56-1.45c4.44-5.94,7.66-15.76,9.15-21.56-2.29.22-4.36.44-5.5.57-1.06.13-2.82.31-3.92.53l-.35-3.83c1.36.04,2.46.04,3.87,0,1.45-.04,3.96-.26,6.6-.48.62-3.12,1.14-6.51,1.1-9.46l4.14.4ZM689.21,537c2.73,3.52,6.51,11.44,7.96,15.49l-3.39,1.67c-1.32-4.49-4.75-12.1-7.79-15.67l3.21-1.5ZM691.02,537.7c-.88-1.76-2.38-4.45-3.56-6.12l2.33-.97c1.1,1.54,2.73,4.27,3.65,6.03l-2.42,1.06ZM695.99,535.9c-.97-1.89-2.42-4.4-3.65-6.07l2.33-.97c1.14,1.58,2.86,4.36,3.7,5.98l-2.38,1.06Z"/><path class="cls-2" d="M78.1,613.17c-2.86.66-5.99,1.14-9.02,1.5-.4,1.89-.88,3.92-1.36,5.77-1.58,6.25-4.53,15.23-6.82,19.98l-3.87-1.28c2.6-4.49,5.68-13.33,7.3-19.5.4-1.45.75-3.04,1.1-4.62-1.41.09-2.73.13-3.96.13-1.94,0-3.52-.09-5.06-.18l-.13-3.43c2.07.26,3.65.31,5.24.31,1.45,0,2.99-.09,4.67-.18.31-1.58.53-2.95.66-3.83.13-1.23.22-2.68.13-3.61l4.27.35c-.31.97-.62,2.6-.79,3.48l-.66,3.21c2.82-.35,5.68-.88,8.32-1.58v3.48ZM76.38,628.44c-.4,1.45-.62,2.82-.62,3.92,0,2.07.97,4.05,7.17,4.05,2.82,0,5.85-.35,8.49-.84l-.13,3.56c-2.33.31-5.24.57-8.41.57-6.86,0-10.47-2.11-10.47-6.43,0-1.67.26-3.3.66-5.15l3.3.31ZM75.28,617.83c2.29-.22,5.15-.35,7.96-.35,2.51,0,5.19.09,7.53.35l-.09,3.34c-2.2-.26-4.8-.53-7.35-.53-2.73,0-5.37.18-8.05.48v-3.3Z"/><path class="cls-2" d="M104.36,612.68c-.04,2.73,0,6.73.31,10.3.7,7.3,2.82,12.1,5.9,12.1,2.25,0,4.27-4.49,5.41-8.89l2.77,3.17c-2.6,7.39-5.28,9.9-8.27,9.9-4.09,0-8.05-4.09-9.24-15.4-.44-3.78-.48-9.06-.48-11.62,0-1.01-.04-2.82-.26-3.87l4.22.09c-.18,1.06-.31,3.08-.35,4.22ZM135.08,630.99l-3.56,1.41c-.75-7.83-3.39-16.46-7.53-21.56l3.43-1.19c3.92,5.06,7.04,13.99,7.66,21.34Z"/><path class="cls-2" d="M145.41,609.91c2.86-.26,11.09-1.06,19.1-1.76,4.75-.4,8.84-.62,11.75-.75v3.52c-2.51,0-6.29.04-8.54.71-6.2,1.98-9.95,8.62-9.95,13.77,0,8.49,7.92,11.18,15.01,11.44l-1.28,3.7c-8.05-.35-17.25-4.67-17.25-14.39,0-6.78,4.09-12.32,8.1-14.7-3.83.44-15.71,1.58-20.42,2.55l-.4-3.87c1.67-.04,3.04-.13,3.87-.22ZM173.71,622.36l-2.24,1.06c-1.01-2.11-2.29-4.4-3.61-6.21l2.24-.97c1.01,1.45,2.68,4.18,3.61,6.12ZM178.73,620.47l-2.29,1.05c-1.06-2.11-2.33-4.27-3.74-6.12l2.2-1.01c1.06,1.45,2.77,4.14,3.83,6.07Z"/><path class="cls-2" d="M208.29,613.04c0,2.46.04,5.15.09,7.13.92,1.5,1.41,3.43,1.41,5.59,0,5.9-2.86,12.46-12.98,15.49l-3.04-2.95c5.72-1.32,9.77-3.7,11.57-7.57-1.06.75-2.29,1.1-3.74,1.1-3.7,0-7.22-2.6-7.22-7.31,0-4.31,3.56-7.61,7.7-7.61,1.06,0,2.02.18,2.9.48,0-1.28,0-2.82-.04-4.31-6.6.04-13.99.35-19.45.75l-.09-3.43c4.84-.09,13.03-.35,19.5-.44,0-1.23-.04-2.25-.09-2.86-.04-.92-.18-2.2-.26-2.73h4l-.22,2.73c0,.66-.04,1.67-.04,2.82h.66c5.28,0,10.65.04,12.76.04l-.04,3.3c-2.46-.13-6.42-.22-12.81-.22h-.57ZM205.96,622.59c-.7-1.89-2.16-2.68-3.87-2.68-2.24,0-4.4,1.76-4.4,4.58s2.02,4.31,4.44,4.31c2.55,0,4.22-2.07,3.83-6.21Z"/><path class="cls-2" d="M239.4,635.04c0,3.7-2.99,6.73-6.73,6.73s-6.69-3.04-6.69-6.73,3.04-6.69,6.69-6.69,6.73,2.99,6.73,6.69ZM237.11,635.04c0-2.42-1.94-4.44-4.44-4.44s-4.44,2.02-4.44,4.44,2.02,4.49,4.44,4.49,4.44-1.98,4.44-4.49Z"/><path class="cls-4" d="M86.87,247.82c-.29.63-.68,1.82-1.03,2.91,6.55,2.17,10.89,7.24,10.89,13.85,0,7.92-4.73,15.73-18.58,17.79l-3.76-5.93c10.89-1.2,15.34-6.67,15.34-12.2,0-3.42-2-6.44-5.81-7.92-3.14,7.7-7.64,13.57-11.92,17.1.4,1.48.86,2.85,1.31,4.22l-6.5,1.94c-.23-.68-.51-1.48-.74-2.28-2.74,1.37-5.76,2.28-8.72,2.28-4.16,0-7.64-2.51-7.64-8.27,0-7.18,5.99-14.82,13.85-18.53.17-2.39.34-4.79.57-7.07h-1.82c-2.96,0-7.35-.23-9.97-.34l-.23-6.56c1.99.29,6.96.74,10.43.74h2.17l.34-3.02c.12-1.03.23-2.39.17-3.36l7.41.17c-.4,1.14-.63,2.17-.8,3.02-.23.91-.4,1.94-.57,3.02,6.84-.23,12.94-.91,19.15-2.39l.06,6.5c-5.53,1.03-13.11,1.71-20.07,2.05-.17,1.65-.34,3.36-.4,5.07,2.68-.63,5.64-1.03,8.44-1.03h.97c.23-1.14.46-2.57.51-3.36l6.96,1.6ZM64.64,270.85c-.63-3.53-1.08-7.41-1.2-11.29-4.22,2.85-7.07,7.18-7.07,10.38,0,1.77.8,2.74,2.62,2.74,1.6,0,3.53-.63,5.64-1.82ZM69.77,256.71c0,3.48.23,6.56.63,9.35,2.74-2.74,5.24-6.16,7.13-10.72-2.96.06-5.59.57-7.75,1.25v.11Z"/><path class="cls-4" d="M142.16,238.13c-1.82,1.31-3.65,2.79-5.02,3.82-3.65,2.96-11.06,8.72-14.82,11.97-3.02,2.57-2.96,3.19.06,5.81,4.28,3.59,15.11,12.2,20.69,17.62l-6.56,6.04c-1.54-1.77-3.31-3.53-4.9-5.24-3.13-3.25-11.74-10.6-16.88-14.99-5.64-4.73-5.19-7.87.46-12.54,4.45-3.59,12.14-9.86,15.96-13.62,1.6-1.54,3.48-3.42,4.33-4.73l6.67,5.87ZM143.42,254.54l-4.68,2c-1.2-2.34-3.13-6.33-4.67-8.61l4.56-1.82c1.48,2.11,3.71,6.38,4.79,8.44ZM150.37,251.81l-4.62,1.94c-1.31-2.39-3.3-6.21-4.9-8.44l4.68-1.94c1.48,2.11,3.71,6.33,4.85,8.44Z"/><path class="cls-4" d="M175.68,257.85c5.13-3.71,10.72-5.36,16.59-5.36,9.92,0,15.68,6.1,15.68,12.94,0,10.32-8.15,18.24-31.64,16.19l-2.17-7.41c16.93,2.39,25.88-1.77,25.88-8.95,0-3.65-3.48-6.33-8.44-6.33-6.38,0-12.03,2.34-15.56,6.61-1.03,1.25-1.65,2.17-2.11,3.31l-6.56-1.65c1.08-5.53,2.45-16.53,2.79-23.54l7.64,1.03c-.74,3.13-1.71,9.92-2.11,13.17ZM177.44,233.34c5.36,1.65,17.62,3.82,22.57,4.39l-1.71,6.96c-5.7-.74-18.3-3.36-22.69-4.5l1.82-6.84Z"/><path class="cls-4" d="M241.23,234.59c-.34,1.48-.69,3.25-.97,4.67-.34,1.71-.8,3.76-1.2,5.81,1.88-.11,3.59-.23,4.73-.23,5.99,0,10.21,2.68,10.21,10.77,0,6.67-.8,15.68-3.19,20.58-1.88,3.93-4.96,5.19-9.29,5.19-2.11,0-4.84-.34-6.73-.8l-1.25-7.47c2.17.63,5.47,1.2,6.96,1.2,1.88,0,3.31-.57,4.22-2.45,1.54-3.14,2.28-9.86,2.28-15.45,0-4.5-1.94-5.13-5.47-5.13-.91,0-2.28.11-3.88.23-2.22,8.55-6.33,21.83-11.52,30.16l-7.35-2.96c5.47-7.41,9.35-18.7,11.34-26.39-2,.23-3.76.46-4.85.63-1.6.17-4.5.57-6.27.86l-.63-7.64c2.05.17,3.93.06,5.99,0,1.77-.06,4.45-.23,7.3-.46.8-4.33,1.25-8.44,1.2-11.97l8.38.86ZM261.47,241.32c3.31,5.19,7.53,14.71,9.18,19.67l-7.18,3.36c-1.48-6.27-5.47-16.25-9.52-21.26l5.25-2.22c-1.14-2.17-2.57-4.9-3.88-6.73l4.5-1.88c1.42,2.11,3.42,5.7,4.56,7.81l-2.91,1.25ZM266.65,239.44c-1.2-2.39-3.02-5.76-4.62-7.87l4.5-1.88c1.54,2.17,3.65,5.76,4.62,7.75l-4.5,2Z"/><path class="cls-4" d="M293.55,234.02c-.4,2.39-.68,5.24-.74,7.52-.29,6.04-.69,18.7-.69,25.71,0,5.7,3.42,7.53,7.75,7.53,9.35,0,15.28-5.36,19.33-11.52l5.13,6.33c-3.65,5.36-11.63,12.88-24.51,12.88-9.24,0-15.22-4.05-15.22-13.68,0-7.58.57-22.4.57-27.25,0-2.68-.23-5.42-.74-7.64l9.12.11Z"/><path class="cls-4" d="M343.88,236.87c.51,1.03,1.65,3.36,2.28,4.39.86,1.65,1.77,3.48,2.62,5.36,6.84-3.02,13.68-5.7,19.44-5.7,8.78,0,14.02,5.3,14.02,11.86,0,7.92-5.41,12.88-14.08,12.88-3.02,0-6.55-.8-8.66-1.6l.17-7.07c2.51,1.08,5.36,1.88,7.75,1.88,4.33,0,7.35-2.28,7.35-6.33,0-2.91-2.45-5.25-6.73-5.25s-10.55,2.34-16.59,5.13l1.6,3.48c2.62,6.16,6.96,18.24,8.89,24.57l-7.81,2c-1.77-7.07-4.67-16.7-7.58-23.43l-1.48-3.48c-4.05,2-7.64,3.93-10.03,5.02l-3.31-7.24c2.17-.51,4.68-1.37,5.59-1.82,1.65-.63,3.36-1.37,5.07-2.11-.85-1.71-1.65-3.31-2.51-4.79-.8-1.43-2.17-3.48-3.31-4.96l7.3-2.79ZM358.53,242.12c-1.99-2-5.13-5.07-7.35-6.73l5.19-3.65c2.05,1.54,5.53,4.5,7.53,6.5l-5.36,3.88Z"/><path class="cls-4" d="M439.31,246.51c-3.42-.17-8.72-.29-16.36-.29.06,2.85.06,5.93.06,8.38,1.43,2.11,2.11,4.85,2.11,7.81,0,7.35-4.33,16.7-18.13,20.58l-5.98-6.04c5.7-1.2,10.66-3.08,13.79-6.44-.8.17-1.65.29-2.56.29-4.39,0-9.75-3.48-9.75-10.38,0-6.38,5.13-10.55,11.29-10.55.8,0,1.54.06,2.22.17l-.06-3.76c-8.55.11-17.27.46-24.23.86l-.17-6.84c6.44,0,16.7-.29,24.29-.4,0-.68,0-1.31-.06-1.71-.11-1.82-.29-3.99-.51-4.9h8.21c-.17.91-.34,3.93-.4,4.85,0,.46-.06,1.03-.06,1.71,5.7,0,13.4-.06,16.36,0l-.06,6.67ZM413.6,264.52c2.34,0,4.45-1.77,3.71-6.67-.8-1.37-2.11-2-3.71-2-2.17,0-4.33,1.48-4.33,4.45,0,2.62,2.11,4.22,4.33,4.22Z"/><path class="cls-4" d="M457.54,245.31c-.06,3.65,0,7.92.34,11.97.8,8.15,2.51,13.68,6.04,13.68,2.68,0,4.9-6.61,5.99-11.06l5.7,6.84c-3.76,9.81-7.3,13.28-11.86,13.28-6.16,0-11.57-5.59-13.17-20.75-.51-5.19-.63-11.74-.63-15.22,0-1.6-.06-3.99-.4-5.7l8.66.11c-.4,2-.68,5.3-.68,6.84ZM496.76,268.51l-7.47,2.85c-.86-9.06-3.88-22.35-10.03-29.3l7.18-2.39c5.36,6.56,9.69,20.18,10.32,28.85Z"/><path class="cls-4" d="M522.86,273.98c0-3.25,2.57-5.64,5.93-5.64s5.93,2.39,5.93,5.64-2.56,5.59-5.93,5.59-5.93-2.28-5.93-5.59ZM523.83,244.91l-.23-8.49h10.43l-.29,8.49-1.99,19.5h-5.87l-2.05-19.5Z"/><path class="cls-1" d="M106.97,101.88c-.42-1.31-1.64-2.19-3.01-2.19h-18.18l-5.54-17.24c-.42-1.31-1.64-2.2-3.01-2.2s-2.59.89-3.01,2.2l-5.54,17.24h-18.18c-1.37,0-2.59.89-3.01,2.19-.42,1.31.05,2.74,1.17,3.54l14.74,10.58-5.67,17.23c-.43,1.31.03,2.74,1.14,3.55,1.11.81,2.62.81,3.73,0l14.63-10.72,14.63,10.72c1.11.81,2.62.82,3.73,0,1.11-.81,1.58-2.24,1.15-3.55l-5.68-17.23,14.74-10.58c1.12-.8,1.59-2.23,1.17-3.54Z"/><path class="cls-1" d="M172.02,101.88c-.42-1.31-1.64-2.19-3.01-2.19h-18.18l-5.54-17.24c-.42-1.31-1.64-2.2-3.01-2.2s-2.59.89-3.01,2.2l-5.54,17.24h-18.18c-1.37,0-2.59.89-3.01,2.19-.42,1.31.05,2.74,1.17,3.54l14.74,10.58-5.67,17.23c-.43,1.31.03,2.74,1.14,3.55,1.11.81,2.62.81,3.73,0l14.63-10.72,14.63,10.72c1.11.81,2.62.82,3.73,0,1.11-.81,1.58-2.24,1.15-3.55l-5.68-17.23,14.74-10.58c1.12-.8,1.59-2.23,1.17-3.54Z"/><path class="cls-1" d="M233.75,101.88c-.42-1.31-1.64-2.19-3.01-2.19h-18.18l-5.54-17.24c-.42-1.31-1.64-2.2-3.01-2.2s-2.59.89-3.01,2.2l-5.54,17.24h-18.18c-1.37,0-2.59.89-3.01,2.19-.42,1.31.05,2.74,1.17,3.54l14.74,10.58-5.67,17.23c-.43,1.31.03,2.74,1.14,3.55,1.11.81,2.62.81,3.73,0l14.63-10.72,14.63,10.72c1.11.81,2.62.82,3.73,0,1.11-.81,1.58-2.24,1.15-3.55l-5.68-17.23,14.74-10.58c1.12-.8,1.59-2.23,1.17-3.54Z"/><path class="cls-1" d="M299,101.88c-.42-1.31-1.64-2.19-3.01-2.19h-18.18l-5.54-17.24c-.42-1.31-1.64-2.2-3.01-2.2s-2.59.89-3.01,2.2l-5.54,17.24h-18.18c-1.37,0-2.59.89-3.01,2.19-.42,1.31.05,2.74,1.17,3.54l14.74,10.58-5.67,17.23c-.43,1.31.03,2.74,1.14,3.55,1.11.81,2.62.81,3.73,0l14.63-10.72,14.63,10.72c1.11.81,2.62.82,3.73,0,1.11-.81,1.58-2.24,1.15-3.55l-5.68-17.23,14.74-10.58c1.12-.8,1.59-2.23,1.17-3.54Z"/><path class="cls-1" d="M364.25,101.88c-.42-1.31-1.64-2.19-3.01-2.19h-18.18l-5.54-17.24c-.42-1.31-1.64-2.2-3.01-2.2s-2.59.89-3.01,2.2l-5.54,17.24h-18.18c-1.37,0-2.59.89-3.01,2.19-.42,1.31.05,2.74,1.17,3.54l14.74,10.58-5.67,17.23c-.43,1.31.03,2.74,1.14,3.55,1.11.81,2.62.81,3.73,0l14.63-10.72,14.63,10.72c1.11.81,2.62.82,3.73,0,1.11-.81,1.58-2.24,1.15-3.55l-5.68-17.23,14.74-10.58c1.12-.8,1.59-2.23,1.17-3.54Z"/></svg>