<?xml version="1.0" encoding="UTF-8"?><svg id="_レイヤー_1" xmlns="http://www.w3.org/2000/svg" viewBox="0 0 751.15 731.27"><defs><style>.cls-1{fill:#f2b600;}.cls-1,.cls-2,.cls-3,.cls-4{stroke-width:0px;}.cls-5{fill:none;stroke:#f2b600;stroke-miterlimit:10;stroke-width:5px;}.cls-2{fill:#1a1a1a;}.cls-3{fill:#fff;}.cls-4{fill:#577082;}</style></defs><rect class="cls-3" x="-2.44" y="-2.76" width="752.19" height="733.55"/><path class="cls-2" d="M65.42,387.04c-.09.84-.13,2.11-.13,3.17v14.7c0,1.1.04,2.55.13,3.34h-4.05c.04-.66.18-2.07.18-3.39v-14.65c0-.79-.09-2.33-.18-3.17h4.05ZM85.8,386.73c-.09,1.05-.18,2.33-.18,3.78v7.13c0,10.56-1.41,14.04-4.58,17.82-2.86,3.43-7.26,5.33-10.47,6.43l-2.86-3.04c4.05-1.01,7.83-2.77,10.56-5.85,3.17-3.65,3.7-7.22,3.7-15.54v-6.95c0-1.45-.13-2.73-.22-3.78h4.05Z"/><path class="cls-2" d="M106.84,413.88c0,2.24.92,2.82,3.08,3.26,1.36.22,3.65.35,5.81.35,4.66,0,11.4-.44,15.05-1.41v4c-3.83.57-10.43.92-15.23.92-2.6,0-5.24-.13-7.04-.44-3.39-.62-5.28-2.16-5.28-5.72v-24.2c0-1.06-.04-2.55-.26-3.56h4.09c-.13,1.01-.22,2.33-.22,3.56v9.95c5.19-1.28,12.15-3.39,16.72-5.37,1.36-.57,2.64-1.23,3.87-1.98l1.54,3.52c-1.23.53-2.82,1.23-4.14,1.71-4.93,1.98-12.54,4.31-18,5.72v9.68ZM128.05,392.72c-.88-1.8-2.38-4.45-3.56-6.12l2.33-.97c1.1,1.54,2.68,4.22,3.61,5.99l-2.38,1.1ZM131.66,383.83c1.14,1.63,2.86,4.36,3.7,5.99l-2.38,1.1c-.97-1.94-2.42-4.4-3.65-6.07l2.33-1.01Z"/><path class="cls-2" d="M161.72,410.89c6.78-4.27,12.15-10.78,14.7-16.19l2.11,3.74c-3.04,5.5-8.14,11.49-14.79,15.62-4.4,2.82-9.95,5.5-17.29,6.87l-2.33-3.61c7.7-1.14,13.42-3.83,17.6-6.43ZM159.13,396.94l-2.77,2.77c-2.2-2.29-7.7-7-10.96-9.2l2.51-2.68c3.12,2.07,8.76,6.64,11.22,9.11Z"/><path class="cls-2" d="M211.85,392.27c1.19,0,2.16-.13,2.86-.39l2.9,1.76c-.35.62-.79,1.63-1.01,2.33-1.19,4.45-3.87,10.38-7.79,15.18-4,4.88-9.29,8.89-17.51,11.97l-3.21-2.9c8.1-2.38,13.6-6.34,17.6-11.05,3.43-4,6.12-9.72,7-13.73h-14.83c-2.68,3.74-6.34,7.66-11.18,10.82l-3.04-2.24c7.57-4.53,11.88-10.96,13.82-14.87.44-.79,1.1-2.38,1.36-3.52l4.05,1.37c-.7,1.14-1.5,2.64-1.94,3.43-.31.62-.66,1.23-1.01,1.85h11.93ZM214.71,384.88c1.1,1.58,2.68,4.22,3.61,6.03l-2.38,1.06c-.88-1.76-2.38-4.45-3.56-6.07l2.33-1.01ZM219.55,383.12c1.14,1.63,2.86,4.36,3.65,5.98l-2.33,1.06c-.97-1.89-2.42-4.4-3.65-6.03l2.33-1.01Z"/><path class="cls-2" d="M231.7,390.91c2.86-.26,11.09-1.06,19.1-1.76,4.75-.4,8.84-.62,11.75-.75v3.52c-2.51,0-6.29.04-8.54.71-6.2,1.98-9.95,8.62-9.95,13.77,0,8.49,7.92,11.18,15.01,11.44l-1.28,3.7c-8.05-.35-17.25-4.67-17.25-14.39,0-6.78,4.09-12.32,8.1-14.7-3.83.44-15.71,1.58-20.42,2.55l-.4-3.87c1.67-.04,3.04-.13,3.87-.22ZM260,403.36l-2.24,1.06c-1.01-2.11-2.29-4.4-3.61-6.21l2.24-.97c1.01,1.45,2.68,4.18,3.61,6.12ZM265.02,401.47l-2.29,1.05c-1.06-2.11-2.33-4.27-3.74-6.12l2.2-1.01c1.06,1.45,2.77,4.14,3.83,6.07Z"/><path class="cls-2" d="M304.14,398.79c.92,0,2.38-.04,3.43-.22v3.65c-.97-.04-2.38-.09-3.43-.09h-11.97c-.13,4.75-.84,8.76-2.6,12.02-1.58,2.95-4.93,6.12-8.67,8.01l-3.26-2.38c3.43-1.41,6.6-3.96,8.32-6.73,1.94-3.08,2.42-6.78,2.55-10.91h-13.16c-1.36,0-2.64,0-3.83.09v-3.65c1.19.13,2.46.22,3.83.22h28.78ZM280.78,391.04c-1.45,0-2.9.04-4,.13v-3.65c1.23.13,2.55.26,3.96.26h17.82c1.23,0,2.82-.09,4.09-.26v3.65c-1.28-.09-2.82-.13-4.09-.13h-17.78Z"/><path class="cls-2" d="M320.21,418.68c.31-.7.44-1.28.44-2.16v-25.17c0-1.19-.22-3.12-.35-4h4.31c-.18,1.1-.31,2.73-.31,4v24.95c8.41-2.11,18.61-7.92,24.07-15.01l1.98,3.08c-5.72,7.08-14.79,12.5-25.74,15.71-.48.13-1.19.35-1.85.79l-2.55-2.2Z"/><path class="cls-2" d="M392.13,390.74c-.18.44-.48,1.63-.57,2.02-.79,5.24-1.72,11.49-4.88,16.46-3.56,5.63-9.59,10.12-16.68,12.41l-2.99-3.04c6.47-1.72,12.76-5.54,16.37-11.18,2.51-3.92,3.74-9.55,4.18-14.74h-24.29v8.8c0,.66.04,1.76.13,2.82h-4c.13-1.06.18-1.98.18-2.82v-9.38c0-1.01-.04-1.98-.18-2.95,1.19.09,2.82.13,4.71.13h22.58c.97,0,2.02-.09,2.77-.26l2.68,1.72Z"/><path class="cls-2" d="M401.2,401.03c1.32.09,3.65.22,6.12.22h24.12c2.2,0,3.79-.13,4.75-.22v4.31c-.88-.04-2.73-.22-4.71-.22h-24.16c-2.42,0-4.75.09-6.12.22v-4.31Z"/><path class="cls-2" d="M478.22,392.58c-.35.62-.79,1.63-1.06,2.33-1.19,4.4-3.87,10.39-7.79,15.14-4,4.88-9.24,8.93-17.51,11.97l-3.17-2.86c8.05-2.38,13.55-6.38,17.56-11.04,3.43-4.05,6.12-9.73,7-13.73h-14.87c-2.64,3.7-6.34,7.61-11.13,10.83l-3.04-2.29c7.61-4.53,11.93-10.91,13.82-14.88.48-.75,1.1-2.33,1.36-3.47l4.09,1.36c-.75,1.14-1.54,2.6-1.98,3.43-.31.62-.66,1.23-1.06,1.85h11.97c1.19,0,2.16-.13,2.86-.4l2.95,1.76Z"/><path class="cls-2" d="M505.64,414.15c.13-1.67.18-4.49.18-6.78-4.05,2.2-6.86,4.44-6.86,7.3,0,3.43,3.39,3.92,7.88,3.92,3.39,0,8.05-.4,11.88-1.06l-.09,3.56c-3.3.4-8.14.71-11.93.71-6.25,0-11.27-1.32-11.27-6.64s5.19-8.41,10.25-11.05c-.44-1.8-2.02-2.68-3.92-2.68-2.86,0-5.5,1.41-7.53,3.21-1.23,1.19-2.46,2.82-3.96,4.58l-2.99-2.24c5.54-5.37,8.41-9.86,10.03-13.29h-1.8c-1.85,0-4.8-.09-7.17-.26v-3.3c2.33.27,5.37.44,7.35.44.92,0,1.85,0,2.86-.04.62-1.94,1.01-3.92,1.1-5.41l3.61.31c-.31,1.23-.7,3.04-1.32,5.02,4.44-.22,9.2-.62,13.33-1.32l-.04,3.26c-4.31.66-9.68,1.05-14.43,1.23-.97,2.25-2.33,4.67-3.92,6.69,1.58-1.01,4.09-1.63,6.03-1.63,2.82,0,5.11,1.36,5.77,3.96,2.99-1.41,5.63-2.46,7.92-3.52,1.32-.57,2.38-1.1,3.61-1.72l1.41,3.3c-1.1.31-2.68.92-3.83,1.36-2.46.97-5.59,2.25-8.89,3.79.04,2.51.09,6.21.13,8.32h-3.39Z"/><path class="cls-2" d="M553.39,394.04c0,2.46.04,5.15.09,7.13.92,1.5,1.41,3.43,1.41,5.59,0,5.9-2.86,12.46-12.98,15.49l-3.04-2.95c5.72-1.32,9.77-3.7,11.57-7.57-1.06.75-2.29,1.1-3.74,1.1-3.7,0-7.22-2.6-7.22-7.31,0-4.31,3.56-7.61,7.7-7.61,1.06,0,2.02.18,2.9.48,0-1.28,0-2.82-.04-4.31-6.6.04-13.99.35-19.45.75l-.09-3.43c4.84-.09,13.03-.35,19.5-.44,0-1.23-.04-2.25-.09-2.86-.04-.92-.18-2.2-.26-2.73h4l-.22,2.73c0,.66-.04,1.67-.04,2.82h.66c5.28,0,10.65.04,12.76.04l-.04,3.3c-2.46-.13-6.42-.22-12.81-.22h-.57ZM551.06,403.59c-.7-1.89-2.16-2.68-3.87-2.68-2.24,0-4.4,1.76-4.4,4.58s2.02,4.31,4.44,4.31c2.55,0,4.22-2.07,3.83-6.21Z"/><path class="cls-2" d="M602.2,389.55c-.79.53-1.76,1.19-2.42,1.67-2.16,1.63-8.01,6.78-11.35,9.59,1.98-.66,3.96-.93,5.9-.93,7.26,0,12.5,4.4,12.5,10.3,0,7.04-5.85,11.62-15.05,11.62-5.94,0-9.59-2.64-9.59-6.25,0-2.99,2.68-5.72,6.73-5.72,5.46,0,8.41,3.65,8.98,7.7,3.43-1.32,5.41-3.83,5.41-7.39,0-4.27-4.31-7.39-9.81-7.39-7.17,0-11.13,3.04-16.68,8.67l-2.55-2.6c3.61-2.99,9.2-7.66,11.75-9.77,2.42-2.02,7.83-6.6,9.99-8.54-2.29.09-10.87.48-13.11.62-1.01.04-2.02.09-2.95.26l-.09-3.65c.97.13,2.2.13,3.08.13,2.25,0,12.59-.31,14.88-.53,1.28-.13,1.89-.22,2.38-.35l2.02,2.55ZM594.67,418.37c-.4-3.43-2.46-5.81-5.76-5.81-1.98,0-3.48,1.19-3.48,2.69,0,2.16,2.51,3.39,5.76,3.39,1.23,0,2.42-.09,3.48-.26Z"/><path class="cls-2" d="M653.17,408.21c-.79,9.06-1.63,12.63-2.99,14.04-.75.79-1.58,1.06-2.82,1.14-1.1.13-3.21.09-5.41-.04-.04-.84-.35-2.11-.84-2.91,2.11.22,4.09.22,4.93.22.7,0,1.14-.04,1.54-.44.92-.88,1.63-3.65,2.33-10.52h-26.36c-2.33,1.94-4.88,3.7-7.7,5.19-.4-.79-1.19-2.07-1.76-2.73,8.14-4.22,14.26-10.83,18.53-18.31h-15.62v-2.9h8.71c-.62-1.76-2.02-4.4-3.39-6.38l2.77-1.1c1.45,1.98,3.04,4.67,3.61,6.43l-2.42,1.06h7.88c1.23-2.51,2.29-5.11,3.12-7.7l3.21.92c-.84,2.29-1.76,4.58-2.82,6.78h9.02c-.44,2.6-.97,5.63-1.5,7.92h5.06c-.44,2.55-.92,5.59-1.41,7.92h4.44l-.13,1.41ZM616.11,421.32c2.68-2.02,4.31-5.63,5.11-9.06l2.77.88c-.92,3.65-2.38,7.57-5.32,9.86l-2.55-1.67ZM631.21,401.69c-1.41,1.8-2.86,3.52-4.49,5.11h19.14c.31-1.5.62-3.3.92-5.11h-15.58ZM629.58,413.18c.84,2.55,1.28,5.9,1.28,8.01l-2.9.39c.13-2.16-.31-5.46-1.06-8.05l2.68-.35ZM636.22,393.86c-.92,1.71-1.94,3.39-3.04,5.02h8.98c.4-1.45.75-3.26,1.06-5.02h-7ZM636.14,412.43c1.14,2.2,2.07,5.15,2.46,7.08l-2.73.71c-.31-1.89-1.23-4.88-2.29-7.17l2.55-.62ZM643.26,418.19c-.57-1.67-1.89-4.14-3.26-5.98l2.29-.84c1.41,1.76,2.77,4.22,3.34,5.77l-2.38,1.05Z"/><path class="cls-2" d="M667.34,387.08c-.26.75-.66,2.16-.84,2.95-.84,4.01-2.11,11.79-2.11,16.68,0,2.11.09,3.87.35,5.98.75-1.98,1.72-4.53,2.42-6.25l1.89,1.41c-1.1,3.08-2.68,7.7-3.08,9.77-.13.62-.22,1.45-.22,1.94l.13,1.54-3.17.22c-.88-3.08-1.58-8.1-1.58-13.99,0-6.42,1.41-13.91,1.94-17.47.13-1.01.31-2.16.31-3.08l3.96.31ZM677.29,408.21c-.4,1.58-.57,2.82-.57,4,0,1.98,1.32,3.92,7.31,3.92,3.92,0,7.26-.35,10.78-1.14l.04,3.7c-2.68.53-6.34.88-10.87.88-7.3,0-10.56-2.42-10.56-6.51,0-1.58.31-3.3.7-5.15l3.17.31ZM675.57,390.43c4.75.79,13.55.62,17.91,0v3.61c-4.67.48-13.11.48-17.87,0l-.04-3.61Z"/><path class="cls-2" d="M60.54,489.01c-1.01,3.61-2.91,7.13-4.88,9.46-.53-.48-1.76-1.32-2.46-1.76,2.02-2.07,3.56-5.19,4.4-8.36l2.95.66ZM67.8,487.43h-12.37v-27.5h12.37v27.5ZM64.85,462.66h-6.56v5.59h6.56v-5.59ZM64.85,470.8h-6.56v5.63h6.56v-5.63ZM64.85,479.02h-6.56v5.72h6.56v-5.72ZM65.56,488.31c1.45,2.11,2.95,4.93,3.65,6.78l-2.6,1.23c-.62-1.85-2.16-4.8-3.52-6.91l2.46-1.1ZM93.76,491.21h-2.64v3.83c0,1.58-.35,2.42-1.45,2.9-1.23.44-3.21.44-6.38.44-.13-.75-.53-1.89-.92-2.64,2.29.04,4.4.04,5.02.04.53-.04.75-.18.75-.75v-3.83h-13.91v7.26h-2.95v-7.26h-2.86v-2.51h2.86v-11.18h8.32v-2.55h-11v-2.46h6.34v-2.9h-4.18v-2.42h4.18v-2.64h-5.32v-2.46h5.32v-3.79h2.9v3.79h6.51v-3.79h2.95v3.79h5.37v2.46h-5.37v2.64h4.66v2.42h-4.66v2.9h6.29v2.46h-11.09v2.55h8.62v11.18h2.64v2.51ZM74.22,479.99v3.12h5.37v-3.12h-5.37ZM74.22,488.71h5.37v-3.3h-5.37v3.3ZM77.83,467.19h6.51v-2.64h-6.51v2.64ZM77.83,472.51h6.51v-2.9h-6.51v2.9ZM82.5,479.99v3.12h5.63v-3.12h-5.63ZM88.13,488.71v-3.3h-5.63v3.3h5.63Z"/><path class="cls-2" d="M118.9,460.94c0,7.79,1.01,24.38,18.26,34.63-.75.53-2.07,1.94-2.64,2.73-10.83-6.56-15.49-16.19-17.47-24.51-3.26,11.4-8.8,19.41-17.56,24.56-.62-.66-2.07-2.03-2.95-2.6,9.73-5.06,15.14-13.91,17.82-26.23l1.94.31c-.31-2.02-.48-3.96-.57-5.63h-10.83v-3.26h13.99Z"/><path class="cls-2" d="M152.97,460.94c-.22,1.41-.35,2.95-.44,4.36-.18,4.93-.53,15.22-.53,21.74,0,4.8,3.08,6.47,7.13,6.47,8.01,0,12.54-4.49,15.67-9.02l2.42,3.04c-2.95,4.14-8.58,9.59-18.17,9.59-6.25,0-10.56-2.64-10.56-9.73,0-6.47.44-17.47.44-22.09,0-1.59-.13-3.12-.4-4.4l4.44.04Z"/><path class="cls-2" d="M217.01,494.56c-2.55-2.33-6.16-4.97-10.52-6.56.04,1.1.09,2.07.09,2.73,0,2.99-2.02,6.12-7.7,6.12-6.25,0-9.73-2.24-9.73-6.47,0-3.96,3.83-6.64,10.12-6.64,1.28,0,2.46.09,3.65.26-.09-1.94-.18-4-.22-5.81h-2.42c-2.99,0-7.83-.26-10.96-.62v-3.35c2.95.53,8.1.84,10.96.84h2.33v-6.25h-2.16c-3.04,0-7.66-.35-10.25-.66v-3.26c2.64.48,7.3.84,10.21.84h2.25v-2.86c0-.7-.04-1.98-.13-2.6h3.74c-.13.79-.18,1.63-.22,2.9-.04.53-.04,1.37-.04,2.42,3.79-.13,7.35-.48,11.18-1.05l.04,3.21c-3.43.35-7.17.71-11.27.92v6.25c4.18-.18,8.19-.57,12.1-1.14l.04,3.3c-4.09.53-7.97.84-12.1,1.01.09,2.24.22,4.53.31,6.6,5.76,1.58,10.21,4.8,12.67,6.78l-1.98,3.08ZM203.06,487.03c-1.36-.26-2.77-.4-4.22-.4-4.14,0-6.38,1.58-6.38,3.56s1.72,3.52,6.03,3.52c2.51,0,4.62-.75,4.62-3.74,0-.75-.04-1.76-.04-2.95Z"/><path class="cls-2" d="M239.24,460.94c-.22,1.41-.35,2.95-.44,4.36-.18,4.93-.53,15.22-.53,21.74,0,4.8,3.08,6.47,7.13,6.47,8.01,0,12.54-4.49,15.67-9.02l2.42,3.04c-2.95,4.14-8.58,9.59-18.17,9.59-6.25,0-10.56-2.64-10.56-9.73,0-6.47.44-17.47.44-22.09,0-1.59-.13-3.12-.4-4.4l4.44.04Z"/><path class="cls-2" d="M293.77,469.17c-2.86.66-5.99,1.14-9.02,1.5-.4,1.89-.88,3.92-1.36,5.77-1.58,6.25-4.53,15.23-6.82,19.98l-3.87-1.28c2.6-4.49,5.68-13.33,7.3-19.5.4-1.45.75-3.04,1.1-4.62-1.41.09-2.73.13-3.96.13-1.94,0-3.52-.09-5.06-.18l-.13-3.43c2.07.26,3.65.31,5.24.31,1.45,0,2.99-.09,4.67-.18.31-1.58.53-2.95.66-3.83.13-1.23.22-2.68.13-3.61l4.27.35c-.31.97-.62,2.6-.79,3.48l-.66,3.21c2.82-.35,5.68-.88,8.32-1.58v3.48ZM292.05,484.44c-.4,1.45-.62,2.82-.62,3.92,0,2.07.97,4.05,7.17,4.05,2.82,0,5.85-.35,8.49-.84l-.13,3.56c-2.33.31-5.24.57-8.41.57-6.86,0-10.47-2.11-10.47-6.43,0-1.67.26-3.3.66-5.15l3.3.31ZM290.95,473.83c2.29-.22,5.15-.35,7.96-.35,2.51,0,5.19.09,7.53.35l-.09,3.34c-2.2-.26-4.8-.53-7.35-.53-2.73,0-5.37.18-8.05.48v-3.3Z"/><path class="cls-2" d="M325.71,491.04c0,3.7-2.99,6.73-6.73,6.73s-6.69-3.04-6.69-6.73,3.04-6.69,6.69-6.69,6.73,2.99,6.73,6.69ZM323.42,491.04c0-2.42-1.94-4.44-4.44-4.44s-4.44,2.02-4.44,4.44,2.02,4.49,4.44,4.49,4.44-1.98,4.44-4.49Z"/><path class="cls-2" d="M361.79,465.96v9.11c0,6.69-.48,16.59-4.09,23.23-.57-.53-1.98-1.5-2.73-1.8,3.34-6.29,3.7-15.14,3.7-21.47v-12.1h16.5v-4.62h3.34v4.62h16.68v3.04h-33.4ZM380.1,494.43h15.23v2.9h-33.31v-2.9h14.92v-6.56h-12.06v-2.82h12.06v-17.29h3.17v12.85c3.61-2.68,5.72-6.82,6.6-12.14l2.95.35c-.31,1.94-.79,3.7-1.41,5.37,2.55,2.11,5.59,4.75,7.17,6.56l-2.07,2.16c-1.36-1.63-3.87-4-6.29-6.07-1.23,2.33-2.77,4.27-4.71,5.81-.44-.53-1.54-1.5-2.24-1.94v4.36h12.54v2.82h-12.54v6.56ZM372.18,468.77c-.31,1.98-.75,3.83-1.36,5.54,2.02,1.8,4.27,4.05,5.46,5.54l-1.98,2.11c-1.01-1.32-2.77-3.26-4.58-5.02-1.19,2.51-2.77,4.58-4.75,6.25-.48-.48-1.76-1.5-2.46-1.94,3.74-2.77,5.81-7.22,6.6-12.8l3.08.31Z"/><path class="cls-2" d="M420.06,464.33c-.53,1.85-1.14,3.83-1.72,5.5h17.65v28.65h-3.3v-2.33h-28.12v2.33h-3.17v-28.65h13.6c.48-1.67.92-3.7,1.28-5.5h-16.85v-3.12h38.68v3.12h-18.04ZM404.57,493.11h6.25v-20.24h-6.25v20.24ZM423.1,472.86h-9.29v4.84h9.29v-4.84ZM423.1,480.39h-9.29v4.93h9.29v-4.93ZM413.81,493.11h9.29v-5.1h-9.29v5.1ZM432.69,472.86h-6.6v20.24h6.6v-20.24Z"/><path class="cls-2" d="M458.58,461.03c-.18.84-.4,1.72-.53,2.6-.26,1.28-.66,3.83-1.14,6.16,2.02-.18,3.83-.31,4.88-.31,3.92,0,7.08,1.54,7.08,7.44,0,5.19-.7,12.06-2.51,15.71-1.41,2.91-3.56,3.61-6.38,3.61-1.67,0-3.74-.31-5.15-.62l-.57-3.74c1.85.62,4.14.97,5.37.97,1.58,0,2.86-.35,3.79-2.24,1.41-2.9,2.07-8.58,2.07-13.29,0-3.96-1.8-4.67-4.62-4.67-1.06,0-2.77.13-4.67.31-1.58,6.25-4.58,16.06-9.15,23.37l-3.56-1.45c4.45-5.94,7.66-15.76,9.15-21.56-2.29.22-4.36.44-5.5.57-1.06.13-2.82.31-3.92.53l-.35-3.83c1.36.04,2.46.04,3.87,0,1.45-.04,3.96-.26,6.6-.48.62-3.12,1.14-6.51,1.1-9.46l4.14.4ZM473.54,466c2.73,3.52,6.51,11.44,7.96,15.49l-3.39,1.67c-1.32-4.49-4.75-12.1-7.79-15.67l3.21-1.5ZM475.34,466.7c-.88-1.76-2.38-4.45-3.56-6.12l2.33-.97c1.1,1.54,2.73,4.27,3.65,6.03l-2.42,1.06ZM480.32,464.9c-.97-1.89-2.42-4.4-3.65-6.07l2.33-.97c1.14,1.58,2.86,4.36,3.7,5.98l-2.38,1.06Z"/><path class="cls-2" d="M491.99,467.45v8.49c0,6.6-.66,16.2-4.75,22.53-.57-.53-1.94-1.5-2.77-1.8,3.92-6.03,4.27-14.61,4.27-20.73v-11.66h15.8v-5.98h3.39v5.98h16.77v3.17h-32.7ZM522.09,498.61c-.44-1.19-1.06-2.55-1.8-4.05-10.12.66-20.64,1.23-27.77,1.63l-.35-3.35c1.58-.04,3.39-.13,5.33-.18,2.46-6.12,5.37-15.49,6.91-22.44l3.65.84c-1.94,6.91-4.75,15.45-7.22,21.47,5.46-.26,11.71-.57,17.82-.88-1.8-3.17-4.05-6.47-6.21-9.24l2.9-1.32c3.92,4.93,8.23,11.57,9.99,15.93l-3.26,1.58Z"/><path class="cls-2" d="M557.04,462.74c-.97.7-2.29,1.85-2.99,2.46-3.04,2.6-9.29,7.61-12.5,10.25-2.64,2.29-2.64,2.95.18,5.28,3.96,3.17,12.01,9.86,16.28,14.08l-3.17,2.86c-.88-1.06-2.07-2.16-2.99-3.17-2.38-2.55-9.64-8.76-13.73-12.1-4.09-3.43-3.65-5.41.31-8.71,3.26-2.77,9.86-7.96,12.81-10.96.88-.88,2.02-2.11,2.51-2.9l3.3,2.9Z"/><path class="cls-2" d="M577.02,465.65c2.86-.26,11.09-1.1,19.1-1.76,4.75-.4,8.85-.62,11.75-.75v3.52c-2.46,0-6.29.04-8.54.71-6.21,1.98-9.95,8.58-9.95,13.73,0,8.54,7.92,11.22,15.01,11.49l-1.28,3.65c-8.05-.31-17.25-4.62-17.25-14.35,0-6.82,4.09-12.32,8.1-14.7-3.83.44-15.71,1.59-20.42,2.55l-.4-3.87c1.67-.04,3.04-.13,3.87-.22Z"/><path class="cls-2" d="M627.07,472.12c-4,2.11-8.23,4.31-11.57,6.03l-1.14-2.86c3.08-1.32,7.61-3.56,12.01-5.81l.7,2.64ZM632.83,478.28c-.75,1.14-1.54,2.38-2.38,3.65h23.76v2.77h-8.8c-1.23,2.86-2.99,5.15-5.28,6.95,4.93,1.32,9.42,2.77,12.76,4.09l-1.98,2.69c-3.7-1.54-8.58-3.12-14.04-4.62-4.97,2.64-11.71,4-20.51,4.66-.26-.92-.75-2.16-1.28-2.9,7.13-.4,12.76-1.28,17.12-2.95-2.6-.62-5.28-1.19-8.01-1.71l-.92,1.23-3.04-1.06c1.32-1.72,2.95-4,4.58-6.38h-10.25v-2.77h12.1c.53-.79,1.01-1.54,1.5-2.33-.44.13-.88.26-1.36.4-.35-.7-1.19-1.85-1.76-2.51,11.93-2.73,13.07-9.33,13.07-11.27v-.88h-4.88c-1.23,1.98-2.6,3.74-4,5.11-.53-.48-1.8-1.45-2.51-1.89,2.77-2.51,5.15-6.34,6.56-10.25l2.99.75c-.44,1.23-.97,2.42-1.54,3.61h15.75l.53-.18,2.38.88c-1.19,2.69-2.68,5.77-3.92,7.75l-2.82-1.06c.75-1.28,1.63-2.99,2.38-4.71h-7.57v.88c0,1.85,1.28,8.4,13.11,11.13-.62.71-1.41,1.94-1.85,2.64-8.93-2.2-12.19-7.26-12.94-10.03-.53,2.11-2.55,5.59-7.66,8.14l.7.18ZM624.91,466.31c-1.8-1.5-5.5-3.48-8.49-4.67l1.63-2.24c2.9,1.1,6.64,2.95,8.58,4.45l-1.72,2.46ZM628.61,484.7c-.88,1.28-1.76,2.55-2.64,3.79,3.48.62,6.91,1.36,10.25,2.2,2.42-1.54,4.22-3.52,5.54-5.98h-13.16Z"/><path class="cls-2" d="M676.8,481.23c-6.86.57-13.86,1.14-18.88,1.54l-.18-2.51c2.33-.13,5.33-.31,8.58-.57v-2.99h-6.64v-2.2h6.64v-2.42h2.99v2.42h6.86v2.2h-6.86v2.82l7.52-.57-.04,2.29ZM666.06,467.67c-.75,3.26-3.3,5.15-6.91,6.21-.22-.57-.84-1.58-1.36-2.11,2.9-.66,5.06-1.85,5.72-4.09h-5.5v-2.29h8.32v-2.38h-6.56v-2.16h6.56v-2.6h2.99v2.6h6.69v2.16h-6.69v2.38h8.49v2.29h-5.85v2.03c0,.7.09.75.75.75h2.07c.66,0,.79-.18.88-1.54.48.35,1.45.66,2.11.75-.18,2.16-.88,2.77-2.55,2.77h-2.86c-2.42,0-2.95-.48-2.95-2.73v-2.03h-3.34ZM693.66,486.95c-.7,6.43-1.41,9.2-2.6,10.34-.88.79-1.72,1.01-3.12,1.1-1.23.04-3.7.04-6.21-.09-.04-.88-.44-2.16-.97-2.95,2.51.22,5.02.27,5.9.27s1.32-.04,1.72-.35c.75-.66,1.32-2.68,1.85-7.13h-12.63c-2.16,5.5-6.73,8.76-17.95,10.39-.22-.71-.92-2.03-1.5-2.69,9.77-1.23,13.95-3.65,15.97-7.7h-13.55v-2.64h14.52c.22-.84.4-1.71.53-2.64h3.3c-.13.92-.31,1.8-.53,2.64h15.4l-.13,1.45ZM693.7,463.49c0,9.77,0,17.03,1.8,17.03.53,0,.75-2.33.79-5.5.57.66,1.41,1.41,1.94,1.76-.26,4.75-.75,6.51-2.99,6.51-4.05,0-4.36-6.95-4.44-17.12h-4.49c-.18,2.24-.44,4.31-.88,6.16,1.8,1.14,3.43,2.38,4.49,3.39l-1.54,2.42c-.92-.97-2.25-2.07-3.74-3.12-1.19,3.12-2.99,5.59-5.9,7.44-.31-.62-1.23-1.67-1.89-2.07,2.73-1.72,4.36-4.01,5.37-7-1.41-.84-2.82-1.63-4.14-2.29l1.45-2.07c1.06.53,2.2,1.1,3.34,1.76.31-1.41.48-2.95.62-4.62h-4.67v-2.68h4.84c.04-1.63.09-3.39.13-5.24h2.86c-.04,1.85-.09,3.61-.18,5.24h7.22Z"/><path class="cls-2" d="M73.04,567.93c1.36-.09,2.68-.31,3.74-.53,5.59-1.23,11.04-5.37,11.04-12.89,0-6.6-4.18-12.01-11.57-12.63-.57,4.05-1.41,8.45-2.6,12.54-2.68,8.93-6.16,13.55-10.21,13.55s-7.79-4.49-7.79-11.66c0-9.46,8.45-17.73,19.1-17.73s16.72,7.22,16.72,16.02-6.03,15.27-16.42,16.63l-2.02-3.3ZM70.18,553.67c1.1-3.61,1.94-7.74,2.42-11.75-8.36,1.06-13.47,8.23-13.47,14.08,0,5.5,2.55,7.92,4.44,7.92s4.36-2.9,6.6-10.25Z"/><path class="cls-2" d="M132.17,539.24v34.06h-3.39v-2.24h-23.46v2.46h-3.26v-34.28h11.05c.66-1.94,1.36-4.31,1.72-6.03l3.74.48c-.66,1.89-1.45,3.87-2.2,5.54h15.8ZM105.33,542.36v6.56h23.46v-6.56h-23.46ZM105.33,552v6.38h23.46v-6.38h-23.46ZM128.79,567.98v-6.51h-23.46v6.51h23.46Z"/><path class="cls-2" d="M176.79,541.79v31.46h-3.3v-2.51h-27.2v2.73h-3.26v-31.68h15.09v-8.45h3.26v8.45h15.4ZM146.29,545.05v9.51h11.84v-9.51h-11.84ZM146.29,567.53h11.84v-9.77h-11.84v9.77ZM161.39,545.05v9.51h12.1v-9.51h-12.1ZM173.49,567.53v-9.77h-12.1v9.77h12.1Z"/><path class="cls-2" d="M189.55,540.6v9.59c0,6.78-.53,16.68-4.31,23.32-.57-.57-1.94-1.5-2.68-1.85,3.61-6.25,3.92-15.14,3.92-21.47v-12.59h16.15v-4.31h3.34v4.31h16.42v2.99h-32.83ZM219.07,559.22c-1.98,3.79-5.06,6.6-8.85,8.76,3.83,1.36,8.23,2.29,12.94,2.77-.7.66-1.54,1.94-1.89,2.77-5.37-.71-10.3-1.94-14.48-3.87-4.67,1.94-10.03,3.12-15.49,3.79-.22-.79-.88-2.03-1.36-2.73,4.75-.48,9.42-1.37,13.55-2.82-2.82-1.67-5.15-3.79-6.91-6.29l1.76-.66h-6.78v-2.69h24.86l.57-.13,2.07,1.1ZM198.04,555.48v-7.26h-7v-2.68h7v-3.83h3.12v3.83h10.65v-3.83h3.17v3.83h7.08v2.68h-7.08v7.26h-16.94ZM199.71,560.93c1.67,2.24,4.14,4.09,7.13,5.59,3.04-1.45,5.63-3.26,7.44-5.59h-14.57ZM201.16,548.22v4.62h10.65v-4.62h-10.65Z"/><path class="cls-2" d="M242.88,536.03c-.18.84-.4,1.72-.53,2.6-.26,1.28-.66,3.83-1.14,6.16,2.02-.18,3.83-.31,4.88-.31,3.92,0,7.08,1.54,7.08,7.44,0,5.19-.7,12.06-2.51,15.71-1.41,2.91-3.56,3.61-6.38,3.61-1.67,0-3.74-.31-5.15-.62l-.57-3.74c1.85.62,4.14.97,5.37.97,1.58,0,2.86-.35,3.79-2.24,1.41-2.9,2.07-8.58,2.07-13.29,0-3.96-1.8-4.67-4.62-4.67-1.06,0-2.77.13-4.67.31-1.58,6.25-4.58,16.06-9.15,23.37l-3.56-1.45c4.45-5.94,7.66-15.76,9.15-21.56-2.29.22-4.36.44-5.5.57-1.06.13-2.82.31-3.92.53l-.35-3.83c1.36.04,2.46.04,3.87,0,1.45-.04,3.96-.26,6.6-.48.62-3.12,1.14-6.51,1.1-9.46l4.14.4ZM257.84,541c2.73,3.52,6.51,11.44,7.96,15.49l-3.39,1.67c-1.32-4.49-4.75-12.1-7.79-15.67l3.21-1.5ZM259.64,541.7c-.88-1.76-2.38-4.45-3.56-6.12l2.33-.97c1.1,1.54,2.73,4.27,3.65,6.03l-2.42,1.06ZM264.62,539.9c-.97-1.89-2.42-4.4-3.65-6.07l2.33-.97c1.14,1.58,2.86,4.36,3.7,5.98l-2.38,1.06Z"/><path class="cls-2" d="M308.22,537.43v2.86h-37.93v-2.86h17.08v-4.18h3.3v4.18h17.56ZM306.55,569.56c0,1.76-.4,2.73-1.76,3.3-1.45.48-3.74.48-7.39.48-.18-.88-.62-2.2-1.06-3.04,2.82.09,5.28.09,6.07,0,.75,0,.88-.22.88-.84v-12.19h-27.94v16.15h-3.12v-18.92h34.33v15.05ZM301.05,542.76v8.98h-23.54v-8.98h23.54ZM297.79,545.09h-17.16v4.27h17.16v-4.27ZM283.84,569.38v2.2h-2.91v-11.48h16.63v9.29h-13.73ZM283.84,562.47v4.49h10.83v-4.49h-10.83Z"/><path class="cls-2" d="M341.31,537.74c-.97.7-2.29,1.85-2.99,2.46-3.04,2.6-9.29,7.61-12.5,10.25-2.64,2.29-2.64,2.95.18,5.28,3.96,3.17,12.01,9.86,16.28,14.08l-3.17,2.86c-.88-1.06-2.07-2.16-2.99-3.17-2.38-2.55-9.64-8.76-13.73-12.1-4.09-3.43-3.65-5.41.31-8.71,3.26-2.77,9.86-7.96,12.81-10.96.88-.88,2.02-2.11,2.51-2.9l3.3,2.9Z"/><path class="cls-2" d="M365.5,572.55c-2.82-3.52-6.6-7.26-9.73-9.81l2.86-2.51c3.17,2.55,7.13,6.56,9.86,9.77l-2.99,2.55Z"/><path class="cls-2" d="M410.47,543.9c-.97.62-2.07,1.19-3.34,1.85-2.9,1.5-8.98,4.36-13.25,7.17-4.05,2.64-6.47,5.5-6.47,8.8,0,3.61,3.43,5.85,10.3,5.85,4.75,0,10.56-.62,13.95-1.5v3.96c-3.3.57-8.32,1.05-13.77,1.05-8.19,0-14.13-2.46-14.13-8.98,0-4.49,2.86-8.05,7.53-11.31-2.02-3.56-4.31-8.67-6.34-13.42l3.48-1.41c1.76,4.75,3.96,9.46,5.85,12.89,4.09-2.46,8.8-4.75,11.18-6.12,1.28-.7,2.2-1.28,3.12-2.07l1.89,3.21Z"/><path class="cls-2" d="M426.57,540.65c2.86-.26,11.09-1.1,19.1-1.76,4.75-.4,8.85-.62,11.75-.75v3.52c-2.46,0-6.29.04-8.54.71-6.21,1.98-9.95,8.58-9.95,13.73,0,8.54,7.92,11.22,15.01,11.49l-1.28,3.65c-8.05-.31-17.25-4.62-17.25-14.35,0-6.82,4.09-12.32,8.1-14.7-3.83.44-15.71,1.59-20.42,2.55l-.4-3.87c1.67-.04,3.04-.13,3.87-.22Z"/><path class="cls-2" d="M495.61,551.38c2.99,3.3,4.49,6.34,4.49,10.08,0,6.47-5.85,10.43-14.43,10.43-5.94,0-10.74-2.6-10.74-9.72,0-1.19.13-2.95.35-5.02-3.26-.26-6.42-.75-9.07-1.58l.18-3.34c2.86,1.01,6.12,1.54,9.2,1.76.31-2.55.66-5.28.97-7.83-3.12-.26-6.56-.79-9.29-1.5l.18-3.26c2.73.88,6.25,1.41,9.5,1.58.22-1.76.4-3.34.48-4.53.09-1.01.13-1.98.04-3.04l3.96.22c-.31,1.19-.44,2.07-.57,3.04-.13,1.1-.35,2.64-.57,4.45,3.3,0,6.25-.18,8.8-.53l-.09,3.3c-2.77.26-5.37.44-8.85.44h-.31c-.35,2.55-.66,5.28-.97,7.79h.84c2.95,0,6.03-.13,9.07-.53l-.09,3.34c-2.9.31-5.59.4-8.54.4h-1.58c-.18,1.72-.26,3.26-.26,4.31,0,4.14,2.38,6.78,7.35,6.78,6.6,0,10.83-2.82,10.83-7.35,0-2.95-1.58-6.21-4.8-8.89l3.92-.79Z"/><path class="cls-2" d="M514.79,552.53c-1.72-1.41-5.15-3.26-8.01-4.31l1.8-2.51c2.73.97,6.25,2.64,8.05,4l-1.85,2.82ZM507.97,570.84c2.07-3.34,5.02-9.06,7.17-14.04l2.46,1.94c-1.94,4.62-4.53,10.03-6.78,14.13l-2.86-2.03ZM516.42,540.96c-1.5-1.54-4.75-3.61-7.48-4.88l1.89-2.33c2.68,1.19,5.99,3.12,7.61,4.71l-2.02,2.51ZM533.76,548.57v3.7h11.75v17.65c0,1.63-.31,2.51-1.5,2.99-1.23.44-3.26.44-6.38.44-.13-.79-.48-1.94-.88-2.77,2.24.09,4.31.09,4.93.09.62-.04.79-.22.79-.75v-14.74h-9.02v8.93h3.7v-6.56h2.16v11.09h-2.16v-2.03h-9.77v2.64h-2.2v-11.71h2.2v6.56h3.52v-8.93h-8.63v18.22h-2.95v-21.12h11.27v-3.7h-13.11v-2.95h7.79v-4.93h-6.29v-2.86h6.29v-4.53h3.04v4.53h7.79v-4.53h3.12v4.53h6.51v2.86h-6.51v4.93h7.7v2.95h-13.16ZM528.3,545.62h7.79v-4.93h-7.79v4.93Z"/><path class="cls-2" d="M572.04,569.08c2.33.48,4.88.66,7.66.66,1.36,0,8.84,0,10.69-.04-.48.79-1.01,2.25-1.19,3.17h-9.68c-9.33,0-16.06-1.67-20.24-9.29-1.45,3.92-3.61,7.48-6.73,9.9-.53-.66-1.63-1.76-2.29-2.2,5.19-4.01,7.3-11.4,7.92-17.69l3.48.4c-.26,1.8-.62,3.65-1.1,5.5,1.76,4.62,4.53,7.26,8.18,8.67v-17.82h-13.07v-14.92h29.92v14.92h-13.55v6.78h14.74v3.04h-14.74v8.93ZM558.88,547.2h23.32v-8.62h-23.32v8.62Z"/><path class="cls-2" d="M598.79,540.91c2.86-.26,11.09-1.06,19.1-1.76,4.75-.4,8.84-.62,11.75-.75v3.52c-2.51,0-6.29.04-8.54.71-6.2,1.98-9.95,8.62-9.95,13.77,0,8.49,7.92,11.18,15.01,11.44l-1.28,3.7c-8.05-.35-17.25-4.67-17.25-14.39,0-6.78,4.09-12.32,8.1-14.7-3.83.44-15.71,1.58-20.42,2.55l-.4-3.87c1.67-.04,3.04-.13,3.87-.22ZM627.08,553.36l-2.24,1.06c-1.01-2.11-2.29-4.4-3.61-6.21l2.24-.97c1.01,1.45,2.68,4.18,3.61,6.12ZM632.1,551.47l-2.29,1.05c-1.06-2.11-2.33-4.27-3.74-6.12l2.2-1.01c1.06,1.45,2.77,4.14,3.83,6.07Z"/><path class="cls-2" d="M661.67,544.04c0,2.46.04,5.15.09,7.13.92,1.5,1.41,3.43,1.41,5.59,0,5.9-2.86,12.46-12.98,15.49l-3.04-2.95c5.72-1.32,9.77-3.7,11.57-7.57-1.06.75-2.29,1.1-3.74,1.1-3.7,0-7.22-2.6-7.22-7.31,0-4.31,3.56-7.61,7.7-7.61,1.06,0,2.02.18,2.9.48,0-1.28,0-2.82-.04-4.31-6.6.04-13.99.35-19.45.75l-.09-3.43c4.84-.09,13.03-.35,19.5-.44,0-1.23-.04-2.25-.09-2.86-.04-.92-.18-2.2-.26-2.73h4l-.22,2.73c0,.66-.04,1.67-.04,2.82h.66c5.28,0,10.65.04,12.76.04l-.04,3.3c-2.46-.13-6.42-.22-12.81-.22h-.57ZM659.33,553.59c-.7-1.89-2.16-2.68-3.87-2.68-2.24,0-4.4,1.76-4.4,4.58s2.02,4.31,4.44,4.31c2.55,0,4.22-2.07,3.83-6.21Z"/><path class="cls-2" d="M692.77,566.04c0,3.7-2.99,6.73-6.73,6.73s-6.69-3.04-6.69-6.73,3.04-6.69,6.69-6.69,6.73,2.99,6.73,6.69ZM690.48,566.04c0-2.42-1.94-4.44-4.44-4.44s-4.44,2.02-4.44,4.44,2.02,4.49,4.44,4.49,4.44-1.98,4.44-4.49Z"/><path class="cls-4" d="M97.08,221.86c-3.25,2.45-7.18,5.02-10.49,6.9,3.14,5.02,7.35,9.06,12.71,11.46-1.48,1.31-3.65,3.99-4.73,5.87-10.15-5.42-15.79-15.91-19.04-29.19h-.11c-1.43,1.2-3.02,2.28-4.73,3.31,10.77,9.35,10.32,23.54,4.67,27.65-2.11,1.82-3.99,2.39-6.95,2.39-1.43.06-3.19,0-4.85-.11-.11-1.88-.68-4.62-1.94-6.5,2.17.17,3.99.29,5.47.29s2.51-.17,3.42-1.2c1.31-1.03,2.11-3.36,1.88-6.38-6.21,4.56-14.65,8.84-21.78,11.29-.8-1.71-2.28-4.16-3.54-5.64,8.21-2.05,18.13-6.73,23.77-11.52-.34-.68-.68-1.37-1.08-2-4.85,3.25-11.86,6.67-17.27,8.55-.74-1.48-2.17-3.82-3.42-5.13,5.76-1.37,13.34-4.5,17.61-7.41-.46-.46-.91-.91-1.42-1.37-4.33,2-9.01,3.65-13.51,4.85-.68-1.31-2.39-3.99-3.48-5.3,6.1-1.2,12.43-3.19,17.44-5.76h-8.32v-5.7h30.61v5.7h-6.5c.63,2.28,1.42,4.5,2.34,6.61,2.85-1.94,5.87-4.28,7.92-6.21l5.3,4.56ZM55.41,214.11h-6.67v-12.71h20.52v-4.45h6.96v4.45h20.86v12.71h-6.95v-6.56h-34.72v6.56Z"/><path class="cls-4" d="M130.21,218.49s-.06,1.82-.11,2.68c-.63,17.5-1.25,24.17-2.85,26.34-1.14,1.54-2.28,2.11-3.93,2.34-1.37.29-3.59.34-5.87.23-.11-1.88-.74-4.45-1.71-6.16,1.82.23,3.42.23,4.28.23.74,0,1.2-.17,1.71-.85.91-1.2,1.54-5.93,1.94-18.64h-4.9c-.8,10.03-2.74,19.1-7.53,25.54-1.03-1.6-3.02-3.65-4.73-4.73,5.76-7.64,6.27-20.12,6.44-33.12h-5.53v-6.27h9.41v-9.12h6.56v9.12h7.41v3.48c2.62-3.59,4.73-8.21,5.99-12.77l6.16,1.37c-.51,1.82-1.2,3.71-1.94,5.47h18.41v6.1h-21.38c-1.48,2.57-3.08,4.9-4.67,6.73-1.14-1.03-3.76-2.79-5.3-3.65l.46-.46h-9.18c-.06,2.05-.11,4.1-.17,6.16h11.06ZM149.99,233.32c2.22,5.07,6.1,9.41,11.17,11.57-1.42,1.2-3.31,3.53-4.28,5.19-4.39-2.34-7.75-6.27-10.15-11.06-2.17,3.99-5.87,7.92-12.2,11.06-.86-1.42-2.85-3.48-4.33-4.62,7.92-3.36,10.95-7.92,12.09-12.14h-10.2v-6.04h10.89v-5.87h-2.68c-1.03,1.94-2.17,3.76-3.31,5.19-1.14-1.03-3.76-2.68-5.24-3.48,2.91-3.19,5.13-8.04,6.33-12.88l6.1,1.37c-.34,1.31-.8,2.62-1.25,3.88h15.85v5.93h-9.35v5.87h10.2v6.04h-9.63Z"/><path class="cls-4" d="M191.79,200.71c-.34,1.48-.68,3.25-.97,4.67-.34,1.71-.8,3.76-1.2,5.81,1.88-.11,3.59-.23,4.73-.23,5.99,0,10.2,2.68,10.2,10.77,0,6.67-.8,15.68-3.19,20.58-1.88,3.93-4.96,5.19-9.29,5.19-2.11,0-4.84-.34-6.73-.8l-1.25-7.47c2.17.63,5.47,1.2,6.96,1.2,1.88,0,3.31-.57,4.22-2.45,1.54-3.14,2.28-9.86,2.28-15.45,0-4.5-1.94-5.13-5.47-5.13-.91,0-2.28.11-3.88.23-2.22,8.55-6.33,21.83-11.52,30.16l-7.35-2.96c5.47-7.41,9.35-18.7,11.34-26.39-2,.23-3.76.46-4.85.63-1.6.17-4.5.57-6.27.86l-.63-7.64c2.05.17,3.93.06,5.99,0,1.77-.06,4.45-.23,7.3-.46.8-4.33,1.25-8.44,1.2-11.97l8.38.86ZM212.02,207.44c3.31,5.19,7.52,14.71,9.18,19.67l-7.18,3.36c-1.48-6.27-5.47-16.25-9.52-21.26l5.25-2.22c-1.14-2.17-2.57-4.9-3.88-6.73l4.5-1.88c1.42,2.11,3.42,5.7,4.56,7.81l-2.91,1.25ZM217.21,205.55c-1.2-2.39-3.02-5.76-4.62-7.87l4.5-1.88c1.54,2.17,3.65,5.76,4.62,7.75l-4.5,2Z"/><path class="cls-4" d="M263.68,226.25v4.67h13.34v19.15h-6.78v-1.65h-19.33v1.71h-6.5v-19.21h12.54v-4.67h-15.11v-6.04h15.11v-4.79h-15.68v.97c0,9.86-.91,24.63-7.12,33.92-1.31-1.14-4.39-2.85-6.04-3.54,5.87-8.66,6.38-21.38,6.38-30.38v-16.7h43.04v15.73h-13.85v4.79h16.99v6.04h-16.99ZM241.28,209.49h29.36v-3.88h-29.36v3.88ZM270.24,236.85h-19.33v5.64h19.33v-5.64Z"/><path class="cls-4" d="M331.47,206.07c-1.37.85-2.68,1.71-3.93,2.57-3.02,2.11-8.95,7.12-12.48,9.98,1.88-.51,3.48-.63,5.3-.63,9.58,0,16.87,5.99,16.87,14.19,0,8.89-6.78,15.96-20.41,15.96-7.87,0-13.79-3.59-13.79-9.24,0-4.56,4.16-8.78,10.15-8.78,6.96,0,11.17,4.28,12.03,9.63,3.08-1.65,4.62-4.28,4.62-7.7,0-5.07-5.13-8.49-11.69-8.49-8.67,0-14.31,4.62-20.35,11.46l-5.13-5.3c3.99-3.25,10.77-9.01,14.14-11.74,3.14-2.62,9.01-7.35,11.8-9.8-2.91.06-10.66.4-13.62.63-1.54.06-3.31.23-4.62.46l-.23-7.35c1.6.17,3.53.29,5.13.29,2.96,0,15.05-.29,18.24-.57,2.34-.17,3.65-.4,4.33-.57l3.65,5.02ZM318.71,241.58c-.34-3.65-2.45-6.04-5.53-6.04-2.11,0-3.48,1.25-3.48,2.68,0,2.11,2.39,3.54,5.7,3.54,1.2,0,2.28-.06,3.31-.17Z"/><path class="cls-4" d="M394.36,212c-1.71,1.03-3.53,2-5.59,3.02-3.53,1.77-10.6,5.07-15.73,8.38-4.73,3.08-7.87,6.33-7.87,10.26s3.93,6.21,11.74,6.21c5.81,0,13.45-.91,18.47-2.05l-.11,8.15c-4.79.8-10.77,1.37-18.13,1.37-11.23,0-19.72-3.13-19.72-12.83,0-6.27,3.93-10.89,9.35-14.88-2.62-4.85-5.36-10.83-7.92-16.82l7.13-2.91c2.17,5.87,4.79,11.29,7.07,15.62,4.62-2.68,9.52-5.19,12.2-6.67,2.11-1.25,3.76-2.22,5.19-3.42l3.93,6.56Z"/><path class="cls-4" d="M458.51,219.18c-2.34.86-5.42,1.6-8.72,2.28,1.42,3.02,3.02,6.33,4.67,9.41l-3.36,4.28c-3.13-.57-8.55-1.42-12.31-1.88l.63-5.42c2.22.29,4.45.46,5.99.63l-2.57-5.87c-7.07.8-16.25.97-24.8.34l-.29-6.5c8.44.8,16.13.8,22.52.11l-.97-2.22-1.37-3.19c-5.53.46-12.6.46-19.44-.23l-.34-6.44c6.44.68,12.09.91,17.1.63v-.06c-1.03-2.05-1.77-3.31-2.74-4.85l8.04-1.54c.4,1.71,1.03,3.65,1.77,5.64,3.82-.63,7.47-1.48,10.83-2.62l1.2,6.33c-2.91.85-5.99,1.65-9.69,2.28l1.08,2.45,1.31,2.85c4.33-.85,7.58-1.82,10.09-2.79l1.37,6.38ZM426.87,229.78c-.74,1.71-1.37,4.1-1.37,5.47,0,3.53,2.51,5.93,9.86,5.93,5.36,0,10.95-.46,14.94-1.25l-.23,7.24c-3.13.51-8.89,1.08-14.54,1.08-10.55,0-17.04-3.59-17.04-11.4,0-2.57.74-5.59,1.37-7.7l7.01.63Z"/><path class="cls-4" d="M486.05,201.34c-.46,1.14-1.14,3.99-1.37,5.02-.85,3.76-2.68,16.19-2.68,21.83,0,1.14.06,2.51.23,3.65.74-2,1.65-3.88,2.51-5.76l3.48,2.79c-1.6,4.62-3.42,10.38-4.05,13.45-.17.8-.34,2-.29,2.62,0,.57,0,1.54.06,2.34l-6.38.46c-1.14-3.93-2.22-10.38-2.22-18.01,0-8.55,1.65-19.21,2.34-23.54.23-1.6.51-3.76.51-5.53l7.87.68ZM520.71,243.92c-2.34-2.22-4.62-4.1-6.84-5.64-.34,5.36-3.42,9.23-11.06,9.23s-12.66-3.31-12.66-9.23,4.85-9.69,12.54-9.69c1.31,0,2.57.06,3.71.23-.17-3.48-.34-7.58-.4-11.57-1.37.06-2.74.06-4.05.06-3.31,0-6.5-.11-9.86-.34v-6.73c3.25.34,6.5.51,9.86.51,1.31,0,2.68,0,3.99-.06-.06-2.79-.06-5.07-.11-6.27,0-.86-.17-2.57-.34-3.71h8.09c-.17,1.08-.28,2.45-.34,3.65-.06,1.25-.17,3.36-.17,5.87,3.08-.34,6.04-.74,8.72-1.31v7.01c-2.74.4-5.7.74-8.78.97.11,5.47.4,9.98.63,13.8,4.73,1.94,8.27,4.85,10.89,7.3l-3.82,5.93ZM506.69,234.74c-1.48-.4-3.02-.63-4.56-.63-3.19,0-5.36,1.31-5.36,3.42,0,2.28,2.28,3.31,5.24,3.31,3.48,0,4.67-1.82,4.67-5.13v-.97Z"/><path class="cls-4" d="M584.4,205.04c-1.2,12.43-3.93,22.23-8.21,29.87,2.79,3.82,6.21,7.01,10.32,9.24-1.54,1.25-3.65,3.82-4.67,5.59-3.88-2.34-7.07-5.24-9.8-8.72-2.91,3.53-6.27,6.38-10.15,8.72-.85-1.48-2.39-3.59-3.76-4.96v5.36h-6.56v-9.12c-6.56,1.14-13.23,2.17-18.47,2.96l-1.31-6.78c1.54-.17,3.31-.34,5.25-.57v-30.27h-3.88v-6.27h28.62v4.05h17.05l1.14-.17,4.45,1.08ZM543.47,206.35v5.42h8.09v-5.42h-8.09ZM543.47,223.57h8.09v-5.7h-8.09v5.7ZM543.47,235.82c2.62-.34,5.36-.74,8.09-1.08v-5.13h-8.09v6.21ZM558.12,243.86c3.76-2.11,7.07-5.19,9.86-9.06-3.48-6.33-5.93-13.97-7.7-22.58l6.5-1.31c1.14,6.1,2.85,11.86,5.24,16.87,2.22-4.9,3.93-10.6,4.9-16.99h-16.82v-4.45h-2v37.51Z"/><path class="cls-4" d="M612,199.57c-.8,2.79-1.94,8.55-2.28,11.69,2.68-4.33,7.58-9.12,13.97-9.12,7.87,0,13.97,7.7,13.97,20.12,0,15.96-9.81,23.6-24.74,26.34l-4.28-6.56c12.54-1.94,21.32-6.04,21.32-19.72,0-8.72-2.91-13.57-7.58-13.57-6.67,0-12.48,10.03-12.77,17.44-.06,1.54-.06,3.36.29,5.99l-7.01.46c-.29-2.17-.68-5.64-.68-9.41,0-5.25.74-12.26,1.6-18.07.29-2.05.4-4.33.46-5.93l7.75.34Z"/><path class="cls-4" d="M683.61,196.95c6.1,8.72,15.33,15.96,24.4,19.61-1.65,1.77-3.19,3.99-4.39,6.1-2.91-1.48-5.87-3.36-8.72-5.42v3.93h-28.39v-3.99c-2.79,2.05-5.81,3.93-8.84,5.59-.91-1.65-2.79-4.1-4.28-5.53,9.8-4.73,18.93-13.34,23.2-20.29h7.01ZM662.75,226.82h36.14v23.37h-6.96v-2.11h-22.52v2.11h-6.67v-23.37ZM692.1,215.19c-4.73-3.71-8.95-7.81-11.69-11.57-2.68,3.82-6.67,7.87-11.34,11.57h23.03ZM669.42,232.8v9.29h22.52v-9.29h-22.52Z"/><path class="cls-4" d="M58.54,279.38c-.06,3.65,0,7.92.34,11.97.8,8.15,2.51,13.68,6.04,13.68,2.68,0,4.9-6.61,5.99-11.06l5.7,6.84c-3.76,9.81-7.3,13.28-11.86,13.28-6.16,0-11.57-5.59-13.17-20.75-.51-5.19-.63-11.74-.63-15.22,0-1.6-.06-3.99-.4-5.7l8.67.11c-.4,2-.68,5.3-.68,6.84ZM97.76,302.59l-7.47,2.85c-.86-9.06-3.88-22.35-10.03-29.3l7.18-2.39c5.36,6.56,9.69,20.18,10.32,28.85Z"/><path class="cls-4" d="M118.16,269.64c-.46,1.14-1.14,3.99-1.37,5.02-.8,3.76-2.74,15.05-2.74,20.69,0,1.08.06,2.45.23,3.65.8-2,1.71-3.88,2.51-5.7l3.53,2.74c-1.6,4.73-3.48,10.83-4.05,13.85-.17.8-.34,2.05-.34,2.62.06.63.06,1.54.11,2.34l-6.5.46c-1.14-3.93-2.22-10.83-2.22-18.47,0-8.49,1.71-18.01,2.34-22.35.23-1.6.57-3.76.57-5.53l7.92.68ZM131.39,297.51c-.46,1.82-.68,3.19-.68,4.73,0,2.51,2.17,3.99,7.87,3.99,5.07,0,9.24-.46,14.14-1.48l.17,7.64c-3.65.68-8.21,1.14-14.59,1.14-9.75,0-14.37-3.54-14.37-9.29,0-2.34.4-4.73.97-7.35l6.5.63ZM151.11,273.34v7.3c-6.96.63-17.16.63-24.23,0l-.06-7.3c6.96.97,18.19.74,24.29,0Z"/><path class="cls-4" d="M191.01,279.9c-2.57.68-6.04,1.43-9.8,1.94-2.68,7.92-7.53,17.73-12.09,24.17l-6.9-3.48c4.56-5.53,9.01-13.85,11.52-19.95-.97.06-1.94.06-2.91.06-2.34,0-4.62-.06-7.07-.17l-.51-6.61c2.45.29,5.47.4,7.52.4,1.65,0,3.36-.06,5.07-.17.8-3.13,1.42-6.56,1.54-9.46l7.81.8c-.46,1.82-1.14,4.67-1.94,7.7,2.74-.46,5.36-1.08,7.58-1.77l.17,6.56ZM198.42,284.97c-.17,2.39-.06,4.73,0,7.24.06,1.6.17,4.33.34,7.13,4.85,1.82,8.84,4.67,11.69,7.24l-3.76,6.04c-2-1.82-4.56-4.1-7.64-5.99v.51c0,5.24-2.85,9.35-10.89,9.35-7.01,0-12.54-3.13-12.54-9.35,0-5.53,4.62-9.81,12.48-9.81,1.31,0,2.62.11,3.82.23-.17-4.22-.46-9.18-.63-12.6h7.13ZM192.21,303.67c-1.48-.34-2.96-.57-4.56-.57-3.25,0-5.36,1.37-5.36,3.36,0,2.11,1.77,3.53,4.85,3.53,3.82,0,5.07-2.22,5.07-5.24v-1.08ZM208.11,287.99c-3.25-2.62-9.69-6.33-13.57-8.04l3.65-5.59c4.05,1.77,11.06,5.59,13.91,7.64l-3.99,5.99Z"/><path class="cls-4" d="M235.98,267.53c-.8,2.79-1.94,8.55-2.28,11.69,2.68-4.33,7.58-9.12,13.97-9.12,7.87,0,13.97,7.7,13.97,20.12,0,15.96-9.81,23.6-24.74,26.34l-4.28-6.56c12.54-1.94,21.32-6.04,21.32-19.72,0-8.72-2.91-13.57-7.58-13.57-6.67,0-12.48,10.03-12.77,17.44-.06,1.54-.06,3.36.29,5.99l-7.01.46c-.29-2.17-.68-5.64-.68-9.41,0-5.25.74-12.26,1.6-18.07.29-2.05.4-4.33.46-5.93l7.75.34Z"/><path class="cls-4" d="M318.01,313.42c-3.02-2.85-6.9-5.76-11.4-7.81.06.74.06,1.43.06,2,0,4.85-3.65,8.55-11.12,8.55-9.01,0-13.8-3.42-13.8-9.41s5.25-9.69,13.97-9.69c1.2,0,2.34.06,3.48.17-.11-1.71-.17-3.48-.23-5.13h-2.91c-3.31,0-9.8-.29-13.57-.74l.06-6.67c3.25.63,10.6,1.03,13.62,1.03h2.68v-5.87h-2.68c-3.59,0-9.01-.34-12.26-.86l-.06-6.44c3.53.68,8.78,1.08,12.26,1.08h2.79v-2.57c0-1.03-.06-2.79-.29-3.88h7.7c-.17,1.14-.34,2.57-.4,3.99l-.06,2.22c4.39-.17,8.55-.63,13.45-1.37l.17,6.5c-3.71.34-8.27.8-13.68,1.08l-.06,5.87c5.7-.23,10.43-.74,15.05-1.31v6.67c-5.07.57-9.46.97-14.94,1.14.11,2.11.23,4.39.4,6.56,7.12,2.05,12.54,5.81,15.79,8.55l-4.05,6.33ZM299.43,303.27c-1.48-.23-3.02-.4-4.62-.4-3.99,0-6.16,1.54-6.16,3.48,0,2.11,2,3.48,5.87,3.48,3.02,0,4.96-.91,4.96-4.16,0-.63,0-1.42-.06-2.39Z"/><path class="cls-4" d="M382.31,280.58c-3.42-.17-8.72-.29-16.36-.29.06,2.85.06,5.93.06,8.38,1.42,2.11,2.11,4.85,2.11,7.81,0,7.35-4.33,16.7-18.13,20.58l-5.99-6.04c5.7-1.2,10.66-3.08,13.8-6.44-.8.17-1.65.29-2.57.29-4.39,0-9.75-3.48-9.75-10.38,0-6.38,5.13-10.55,11.29-10.55.8,0,1.54.06,2.22.17l-.06-3.76c-8.55.11-17.27.46-24.23.86l-.17-6.84c6.44,0,16.7-.29,24.29-.4,0-.68,0-1.31-.06-1.71-.11-1.82-.29-3.99-.51-4.9h8.21c-.17.91-.34,3.93-.4,4.85,0,.46-.06,1.03-.06,1.71,5.7,0,13.4-.06,16.36,0l-.06,6.67ZM356.6,298.59c2.34,0,4.45-1.77,3.71-6.67-.8-1.37-2.11-2-3.71-2-2.17,0-4.33,1.48-4.33,4.45,0,2.62,2.11,4.22,4.33,4.22Z"/><path class="cls-1" d="M106.97,101.88c-.42-1.31-1.64-2.19-3.01-2.19h-18.18l-5.54-17.24c-.42-1.31-1.64-2.2-3.01-2.2s-2.59.89-3.01,2.2l-5.54,17.24h-18.18c-1.37,0-2.59.89-3.01,2.19-.42,1.31.05,2.74,1.17,3.54l14.74,10.58-5.67,17.23c-.43,1.31.03,2.74,1.14,3.55,1.11.81,2.62.81,3.73,0l14.63-10.72,14.63,10.72c1.11.81,2.62.82,3.73,0,1.11-.81,1.58-2.24,1.15-3.55l-5.68-17.23,14.74-10.58c1.12-.8,1.59-2.23,1.17-3.54Z"/><path class="cls-1" d="M172.02,101.88c-.42-1.31-1.64-2.19-3.01-2.19h-18.18l-5.54-17.24c-.42-1.31-1.64-2.2-3.01-2.2s-2.59.89-3.01,2.2l-5.54,17.24h-18.18c-1.37,0-2.59.89-3.01,2.19-.42,1.31.05,2.74,1.17,3.54l14.74,10.58-5.67,17.23c-.43,1.31.03,2.74,1.14,3.55,1.11.81,2.62.81,3.73,0l14.63-10.72,14.63,10.72c1.11.81,2.62.82,3.73,0,1.11-.81,1.58-2.24,1.15-3.55l-5.68-17.23,14.74-10.58c1.12-.8,1.59-2.23,1.17-3.54Z"/><path class="cls-1" d="M233.75,101.88c-.42-1.31-1.64-2.19-3.01-2.19h-18.18l-5.54-17.24c-.42-1.31-1.64-2.2-3.01-2.2s-2.59.89-3.01,2.2l-5.54,17.24h-18.18c-1.37,0-2.59.89-3.01,2.19-.42,1.31.05,2.74,1.17,3.54l14.74,10.58-5.67,17.23c-.43,1.31.03,2.74,1.14,3.55,1.11.81,2.62.81,3.73,0l14.63-10.72,14.63,10.72c1.11.81,2.62.82,3.73,0,1.11-.81,1.58-2.24,1.15-3.55l-5.68-17.23,14.74-10.58c1.12-.8,1.59-2.23,1.17-3.54Z"/><path class="cls-1" d="M299,101.88c-.42-1.31-1.64-2.19-3.01-2.19h-18.18l-5.54-17.24c-.42-1.31-1.64-2.2-3.01-2.2s-2.59.89-3.01,2.2l-5.54,17.24h-18.18c-1.37,0-2.59.89-3.01,2.19-.42,1.31.05,2.74,1.17,3.54l14.74,10.58-5.67,17.23c-.43,1.31.03,2.74,1.14,3.55,1.11.81,2.62.81,3.73,0l14.63-10.72,14.63,10.72c1.11.81,2.62.82,3.73,0,1.11-.81,1.58-2.24,1.15-3.55l-5.68-17.23,14.74-10.58c1.12-.8,1.59-2.23,1.17-3.54Z"/><path class="cls-5" d="M364.25,101.88c-.42-1.31-1.64-2.19-3.01-2.19h-18.18l-5.54-17.24c-.42-1.31-1.64-2.2-3.01-2.2s-2.59.89-3.01,2.2l-5.54,17.24h-18.18c-1.37,0-2.59.89-3.01,2.19-.42,1.31.05,2.74,1.17,3.54l14.74,10.58-5.67,17.23c-.43,1.31.03,2.74,1.14,3.55,1.11.81,2.62.81,3.73,0l14.63-10.72,14.63,10.72c1.11.81,2.62.82,3.73,0,1.11-.81,1.58-2.24,1.15-3.55l-5.68-17.23,14.74-10.58c1.12-.8,1.59-2.23,1.17-3.54Z"/></svg>