<?xml version="1.0" encoding="UTF-8"?><svg id="_レイヤー_1" xmlns="http://www.w3.org/2000/svg" viewBox="0 0 751.15 731.27"><defs><style>.cls-1{fill:#f2b600;}.cls-1,.cls-2,.cls-3,.cls-4{stroke-width:0px;}.cls-2{fill:#1a1a1a;}.cls-3{fill:#fff;}.cls-4{fill:#577082;}</style></defs><rect class="cls-3" x="-2.44" y="-2.76" width="752.19" height="733.55"/><path class="cls-2" d="M63.88,406.84c-.53,1.76-.88,3.34-.88,4.97,0,3.26,3.34,5.54,10.3,5.54,6.03,0,11.62-.66,14.92-1.67l.04,3.78c-3.12.84-8.67,1.5-14.87,1.5-8.85,0-13.99-2.9-13.99-8.36,0-2.29.48-4.31.88-6.12l3.61.35ZM62.08,389.24c3.17.4,7.17.57,11.53.57s8.62-.31,11.75-.62v3.61c-2.95.22-7.75.53-11.75.53-4.36,0-8.05-.18-11.53-.48v-3.61Z"/><path class="cls-2" d="M116.16,417.93c1.36-.09,2.68-.31,3.74-.53,5.59-1.23,11.04-5.37,11.04-12.89,0-6.6-4.18-12.01-11.57-12.63-.57,4.05-1.41,8.45-2.6,12.54-2.68,8.93-6.16,13.55-10.21,13.55s-7.79-4.49-7.79-11.66c0-9.46,8.45-17.73,19.1-17.73s16.72,7.22,16.72,16.02-6.03,15.27-16.42,16.63l-2.02-3.3ZM113.3,403.67c1.1-3.61,1.94-7.75,2.42-11.75-8.36,1.06-13.47,8.23-13.47,14.08,0,5.5,2.55,7.92,4.44,7.92s4.36-2.9,6.6-10.25Z"/><path class="cls-2" d="M175.78,388.36c-3.04,3.08-7.26,6.69-11.79,9.55v18.83c0,1.67.09,3.83.26,4.71h-4.31c.13-.84.26-3.04.26-4.71v-16.63c-4.71,2.6-10.78,5.15-16.55,6.86l-2.02-3.43c7.35-1.72,14.83-5.06,19.67-8.1,4.49-2.77,9.11-6.6,11.57-9.73l2.9,2.64Z"/><path class="cls-2" d="M216.21,390.65c-.26.35-.84,1.32-1.1,1.94-1.5,3.78-4.27,8.93-7.39,12.89,4.62,3.96,9.99,9.68,12.85,13.11l-3.08,2.68c-2.95-3.87-7.61-9.07-12.1-13.07-4.71,5.06-10.65,9.9-17.16,12.85l-2.82-2.95c7.08-2.77,13.6-8.01,18.13-13.07,2.99-3.39,6.21-8.63,7.3-12.23h-17.16c-1.54,0-3.96.18-4.44.22v-4c.62.09,3.12.31,4.44.31h16.99c1.45,0,2.6-.18,3.3-.4l2.24,1.72Z"/><path class="cls-2" d="M266.2,401.16v3.56h-39.96v-3.56h39.96Z"/><path class="cls-2" d="M279.13,407.15v12.32c0,1.94-.48,2.86-1.72,3.39-1.19.48-3.12.57-6.51.57-.09-.84-.53-2.2-.97-2.99,2.33.09,4.49.04,5.15,0,.62-.04.92-.22.92-.92v-11.57l-6.29,1.58-.84-3.21c2.02-.4,4.45-.97,7.13-1.58v-9.5h-6.56v-3.04h6.56v-8.89h3.12v8.89h5.98v3.04h-5.98v8.76l5.98-1.41.31,2.99-6.29,1.58ZM299.2,403.41c1.76,7.79,5.19,14.39,10.91,17.29-.75.62-1.76,1.94-2.29,2.82-6.34-3.61-9.95-10.96-11.84-20.11h-5.5c-.26,6.65-1.54,14.65-6.73,20.02-.53-.62-1.8-1.8-2.51-2.2,5.54-5.72,6.07-14.04,6.07-20.55v-14.92h20.38v17.65h-8.49ZM290.53,388.84v11.44h13.95v-11.44h-13.95Z"/><path class="cls-2" d="M329.69,385.89c-.18.79-.35,1.72-.53,2.55-.22,1.28-.62,3.83-1.1,6.16,2.02-.13,3.83-.26,4.88-.26,3.87,0,7.08,1.5,7.08,7.39,0,5.19-.75,12.06-2.55,15.71-1.36,2.9-3.52,3.65-6.38,3.65-1.63,0-3.74-.35-5.1-.66l-.57-3.7c1.8.57,4.14.97,5.33.97,1.63,0,2.9-.35,3.83-2.25,1.36-2.95,2.02-8.58,2.02-13.33,0-3.96-1.8-4.66-4.58-4.66-1.06,0-2.77.13-4.67.31-1.58,6.25-4.53,16.02-9.15,23.41l-3.61-1.45c4.44-5.94,7.7-15.8,9.15-21.61-2.24.22-4.36.44-5.5.57-1.01.13-2.77.35-3.92.53l-.35-3.83c1.36.09,2.51.04,3.87,0,1.45-.04,4-.26,6.64-.48.62-3.12,1.1-6.51,1.1-9.46l4.09.44ZM344.69,390.52c2.73,3.52,6.47,11.53,7.96,15.58l-3.43,1.63c-1.28-4.49-4.71-12.15-7.79-15.8l3.26-1.41Z"/><path class="cls-2" d="M388.3,393.9c-.97.62-2.07,1.19-3.34,1.85-2.9,1.5-8.98,4.36-13.25,7.17-4.05,2.64-6.47,5.5-6.47,8.8,0,3.61,3.43,5.85,10.3,5.85,4.75,0,10.56-.62,13.95-1.5v3.96c-3.3.57-8.32,1.06-13.77,1.06-8.19,0-14.13-2.46-14.13-8.98,0-4.49,2.86-8.05,7.52-11.31-2.02-3.56-4.31-8.67-6.34-13.42l3.48-1.41c1.76,4.75,3.96,9.46,5.85,12.89,4.09-2.46,8.8-4.75,11.18-6.12,1.28-.7,2.2-1.28,3.12-2.07l1.89,3.21Z"/><path class="cls-2" d="M398.9,419.65c2.16-2.73,3.83-7.04,4.8-10.47l2.9,1.01c-1.06,3.61-2.6,8.19-4.75,11l-2.95-1.54ZM433.75,404.91h-30.63v-19.71h30.63v19.71ZM406.2,393.64h10.69v-5.54h-10.69v5.54ZM406.2,402h10.69v-5.59h-10.69v5.59ZM423.89,419.52c2.16,0,2.51-.7,2.73-5.63.75.53,2.11,1.01,3.04,1.23-.44,5.94-1.5,7.44-5.5,7.44h-8.84c-4.71,0-5.94-.97-5.94-4.45v-8.71h3.26v8.67c0,1.23.44,1.45,2.9,1.45h8.36ZM422.53,414.19c-1.89-1.98-5.85-4.67-9.11-6.43l2.16-1.98c3.26,1.58,7.22,4.22,9.2,6.2l-2.24,2.2ZM430.54,388.1h-10.43v5.54h10.43v-5.54ZM430.54,396.41h-10.43v5.59h10.43v-5.59ZM432.08,408.69c2.55,3.3,5.19,7.75,6.21,10.74l-3.17,1.41c-.88-2.95-3.43-7.53-5.94-10.96l2.9-1.19Z"/><path class="cls-2" d="M449.32,393.68c-.04,2.73,0,6.73.31,10.3.7,7.31,2.82,12.1,5.9,12.1,2.25,0,4.27-4.49,5.41-8.89l2.77,3.17c-2.6,7.39-5.28,9.9-8.27,9.9-4.09,0-8.05-4.09-9.24-15.4-.44-3.78-.48-9.06-.48-11.62,0-1.01-.04-2.82-.26-3.87l4.22.09c-.18,1.06-.31,3.08-.35,4.22ZM480.04,411.99l-3.56,1.41c-.75-7.83-3.39-16.46-7.52-21.56l3.43-1.19c3.92,5.06,7.04,13.99,7.66,21.34Z"/><path class="cls-2" d="M518.8,419.56c-2.55-2.33-6.16-4.97-10.52-6.56.04,1.1.09,2.07.09,2.73,0,2.99-2.02,6.12-7.7,6.12-6.25,0-9.73-2.24-9.73-6.47,0-3.96,3.83-6.64,10.12-6.64,1.28,0,2.46.09,3.65.26-.09-1.94-.18-4-.22-5.81h-2.42c-2.99,0-7.83-.26-10.96-.62v-3.34c2.95.53,8.1.84,10.96.84h2.33v-6.25h-2.16c-3.04,0-7.66-.35-10.25-.66v-3.26c2.64.48,7.3.84,10.21.84h2.25v-2.86c0-.7-.04-1.98-.13-2.6h3.74c-.13.79-.18,1.63-.22,2.9-.04.53-.04,1.36-.04,2.42,3.79-.13,7.35-.48,11.18-1.06l.04,3.21c-3.43.35-7.17.7-11.27.92v6.25c4.18-.18,8.19-.57,12.1-1.14l.04,3.3c-4.09.53-7.97.84-12.1,1.01.09,2.24.22,4.53.31,6.6,5.76,1.58,10.21,4.8,12.67,6.78l-1.98,3.08ZM504.85,412.04c-1.36-.26-2.77-.4-4.22-.4-4.14,0-6.38,1.58-6.38,3.56s1.72,3.52,6.03,3.52c2.51,0,4.62-.75,4.62-3.74,0-.75-.04-1.76-.04-2.95Z"/><path class="cls-2" d="M553.25,394.04c0,2.46.04,5.15.09,7.13.92,1.5,1.41,3.43,1.41,5.59,0,5.9-2.86,12.45-12.98,15.49l-3.04-2.95c5.72-1.32,9.77-3.7,11.57-7.57-1.06.75-2.29,1.1-3.74,1.1-3.7,0-7.22-2.6-7.22-7.31,0-4.31,3.56-7.61,7.7-7.61,1.06,0,2.02.18,2.9.48,0-1.28,0-2.82-.04-4.31-6.6.04-13.99.35-19.45.75l-.09-3.43c4.84-.09,13.03-.35,19.5-.44,0-1.23-.04-2.25-.09-2.86-.04-.92-.18-2.2-.26-2.73h4l-.22,2.73c0,.66-.04,1.67-.04,2.82h.66c5.28,0,10.65.04,12.76.04l-.04,3.3c-2.46-.13-6.42-.22-12.81-.22h-.57ZM550.92,403.59c-.7-1.89-2.16-2.68-3.87-2.68-2.24,0-4.4,1.76-4.4,4.58s2.02,4.31,4.44,4.31c2.55,0,4.22-2.07,3.83-6.2Z"/><path class="cls-2" d="M584.36,416.04c0,3.7-2.99,6.73-6.73,6.73s-6.69-3.04-6.69-6.73,3.04-6.69,6.69-6.69,6.73,2.99,6.73,6.69ZM582.07,416.04c0-2.42-1.94-4.44-4.44-4.44s-4.44,2.02-4.44,4.44,2.02,4.49,4.44,4.49,4.44-1.98,4.44-4.49Z"/><path class="cls-2" d="M82.63,473.48c5.46,1.45,8.71,5.5,8.71,10.3,0,6.25-4.14,11.71-14.26,13.29l-1.89-2.95c7.83-.84,12.67-4.88,12.67-10.52,0-3.3-2.16-6.29-6.25-7.39-2.42,6.16-5.94,10.96-9.64,14.08.35,1.23.7,2.42,1.06,3.52l-3.21.97c-.22-.75-.48-1.54-.7-2.42-2.38,1.45-4.97,2.38-7.31,2.38-2.95,0-5.19-1.76-5.19-5.5,0-5.59,4.88-11.35,10.87-14.08.09-2.2.31-4.4.48-6.42-.92.04-1.8.04-2.64.04-1.89,0-5.28-.18-7.04-.26l-.09-3.3c1.5.22,5.33.53,7.17.53.97,0,1.94,0,2.9-.04.13-1.28.26-2.42.35-3.34.09-.71.13-1.54.13-2.07l3.7.09c-.22.57-.4,1.36-.53,1.94-.18.92-.35,2.02-.53,3.3,5.5-.26,10.78-.84,15.27-1.85l.04,3.3c-4.58.75-10.39,1.32-15.71,1.58-.18,1.67-.31,3.52-.44,5.37,2.42-.75,5.1-1.14,7.3-1.14.53,0,1.06,0,1.58.04l.13-.4c.18-.66.4-1.8.44-2.51l3.52.88c-.26.57-.62,1.76-.88,2.42l-.04.18ZM67.36,478.45c-4.22,2.42-7.44,6.73-7.44,10.25,0,1.76.84,2.64,2.46,2.64s3.79-.75,5.99-2.29c-.62-3.12-1.01-6.6-1.01-9.86v-.75ZM77.83,475.72c-2.82,0-5.32.62-7.39,1.36v1.72c0,2.77.31,5.41.75,7.92,2.86-2.68,5.46-6.21,7.35-11h-.7Z"/><path class="cls-2" d="M128.02,462.74c-.92.7-2.24,1.85-2.99,2.46-2.99,2.6-9.24,7.61-12.45,10.25-2.64,2.29-2.68,2.95.13,5.28,3.96,3.17,12.06,9.86,16.28,14.08l-3.12,2.86c-.88-1.06-2.07-2.16-2.99-3.17-2.38-2.55-9.68-8.76-13.73-12.1-4.14-3.43-3.65-5.41.26-8.71,3.3-2.77,9.9-7.97,12.85-10.96.88-.88,1.98-2.11,2.51-2.9l3.26,2.9ZM129.65,476.52l-2.46,1.06c-.92-1.8-2.55-4.8-3.7-6.51l2.33-1.01c1.1,1.63,2.9,4.8,3.83,6.47ZM134.84,474.41l-2.38,1.06c-1.01-1.85-2.64-4.66-3.87-6.34l2.38-1.06c1.14,1.54,2.95,4.58,3.87,6.34Z"/><path class="cls-2" d="M155.9,480.79c4.18-3.65,8.89-5.24,14.08-5.24,6.69,0,11.13,4,11.13,9.11,0,7.83-6.91,13.11-23.1,11.75l-1.06-3.61c13.73,1.67,20.46-2.29,20.46-8.23,0-3.48-3.21-5.9-7.66-5.9-5.81,0-10.39,2.11-13.47,5.76-.62.75-1.01,1.5-1.32,2.2l-3.3-.79c.88-3.96,1.94-13.11,2.2-17.69l3.74.48c-.57,2.99-1.32,9.33-1.72,12.15ZM158.58,460.72c3.74,1.19,12.98,2.99,16.85,3.34l-.84,3.43c-4.14-.57-13.6-2.51-16.94-3.43l.92-3.34Z"/><path class="cls-2" d="M208.55,461.03c-.18.84-.4,1.72-.53,2.6-.26,1.28-.66,3.83-1.14,6.16,2.02-.18,3.83-.31,4.88-.31,3.92,0,7.08,1.54,7.08,7.44,0,5.19-.7,12.06-2.51,15.71-1.41,2.91-3.56,3.61-6.38,3.61-1.67,0-3.74-.31-5.15-.62l-.57-3.74c1.85.62,4.14.97,5.37.97,1.58,0,2.86-.35,3.79-2.24,1.41-2.9,2.07-8.58,2.07-13.29,0-3.96-1.8-4.67-4.62-4.67-1.06,0-2.77.13-4.67.31-1.58,6.25-4.58,16.06-9.15,23.37l-3.56-1.45c4.45-5.94,7.66-15.75,9.15-21.56-2.29.22-4.36.44-5.5.57-1.06.13-2.82.31-3.92.53l-.35-3.83c1.36.04,2.46.04,3.87,0,1.45-.04,3.96-.26,6.6-.48.62-3.12,1.14-6.51,1.1-9.46l4.14.4ZM223.51,466c2.73,3.52,6.51,11.44,7.96,15.49l-3.39,1.67c-1.32-4.49-4.75-12.1-7.79-15.67l3.21-1.5ZM225.31,466.7c-.88-1.76-2.38-4.45-3.56-6.12l2.33-.97c1.1,1.54,2.73,4.27,3.65,6.03l-2.42,1.06ZM230.29,464.9c-.97-1.89-2.42-4.4-3.65-6.07l2.33-.97c1.14,1.58,2.86,4.36,3.7,5.99l-2.38,1.06Z"/><path class="cls-2" d="M243.38,465.91c2.86-.26,11.09-1.06,19.1-1.76,4.75-.4,8.84-.62,11.75-.75v3.52c-2.51,0-6.29.04-8.54.7-6.2,1.98-9.95,8.62-9.95,13.77,0,8.49,7.92,11.18,15.01,11.44l-1.28,3.7c-8.05-.35-17.25-4.67-17.25-14.39,0-6.78,4.09-12.32,8.1-14.7-3.83.44-15.71,1.58-20.42,2.55l-.4-3.87c1.67-.04,3.04-.13,3.87-.22ZM271.67,478.37l-2.24,1.06c-1.01-2.11-2.29-4.4-3.61-6.21l2.24-.97c1.01,1.45,2.68,4.18,3.61,6.12ZM276.69,476.47l-2.29,1.06c-1.06-2.11-2.33-4.27-3.74-6.12l2.2-1.01c1.06,1.45,2.77,4.14,3.83,6.07Z"/><path class="cls-2" d="M319.62,474.54c-1.94.66-4.45,1.28-7.39,1.85,1.28,2.77,2.68,5.72,3.92,8.01l-1.72,2.16c-2.2-.4-5.72-.88-8.49-1.23l.31-2.68c2.11.26,4.18.48,5.54.62-.84-1.72-1.85-4-2.86-6.29-5.63.75-12.76.84-19.49.4l-.13-3.21c6.64.62,13.11.57,18.31-.09l-1.54-3.56c-.35-.75-.66-1.54-.97-2.24-4.4.4-9.9.4-15.31-.09l-.22-3.21c5.19.57,10.08.66,14.26.35-.22-.48-.4-.92-.57-1.32-.66-1.36-1.06-2.16-1.63-3.08l3.96-.84c.4,1.5.97,3.17,1.63,4.84,3.04-.48,6.12-1.14,8.67-2.07l.62,3.12c-2.24.7-5.1,1.36-8.1,1.85l.79,1.8c.35.92.97,2.29,1.72,3.92,3.43-.62,6.07-1.41,8.05-2.16l.66,3.17ZM294.58,483.6c-.53,1.36-1.01,3.3-1.01,4.44,0,3.34,2.64,5.46,8.84,5.46,3.52,0,7.66-.31,10.74-1.01l-.09,3.56c-2.73.48-6.95.84-10.52.84-7.79,0-12.37-2.68-12.37-8.14,0-1.85.53-3.87,1.01-5.46l3.39.31Z"/><path class="cls-2" d="M360.92,464.55c-.79.53-1.76,1.19-2.42,1.67-2.16,1.63-8.01,6.78-11.35,9.59,1.98-.66,3.96-.92,5.9-.92,7.26,0,12.5,4.4,12.5,10.3,0,7.04-5.85,11.62-15.05,11.62-5.94,0-9.59-2.64-9.59-6.25,0-2.99,2.68-5.72,6.73-5.72,5.46,0,8.41,3.65,8.98,7.7,3.43-1.32,5.41-3.83,5.41-7.39,0-4.27-4.31-7.39-9.81-7.39-7.17,0-11.13,3.04-16.68,8.67l-2.55-2.6c3.61-2.99,9.2-7.66,11.75-9.77,2.42-2.02,7.83-6.6,9.99-8.54-2.29.09-10.87.48-13.11.62-1.01.04-2.02.09-2.95.26l-.09-3.65c.97.13,2.2.13,3.08.13,2.25,0,12.59-.31,14.88-.53,1.28-.13,1.89-.22,2.38-.35l2.02,2.55ZM353.39,493.37c-.4-3.43-2.46-5.81-5.76-5.81-1.98,0-3.48,1.19-3.48,2.68,0,2.16,2.51,3.39,5.76,3.39,1.23,0,2.42-.09,3.48-.26Z"/><path class="cls-2" d="M379.24,492.62c0-1.8,1.32-3.12,2.95-3.12s2.9,1.32,2.9,3.12-1.32,3.04-2.9,3.04-2.95-1.23-2.95-3.04ZM395.66,492.62c0-1.8,1.32-3.12,2.95-3.12s2.9,1.32,2.9,3.12-1.32,3.04-2.9,3.04-2.95-1.23-2.95-3.04ZM412.11,492.62c0-1.8,1.32-3.12,2.9-3.12s2.9,1.32,2.9,3.12-1.32,3.04-2.9,3.04-2.9-1.23-2.9-3.04Z"/><path class="cls-2" d="M437.48,481.84c-.53,1.76-.88,3.34-.88,4.97,0,3.26,3.34,5.54,10.3,5.54,6.03,0,11.62-.66,14.92-1.67l.04,3.78c-3.12.84-8.67,1.5-14.87,1.5-8.85,0-13.99-2.9-13.99-8.36,0-2.29.48-4.31.88-6.12l3.61.35ZM435.68,464.24c3.17.4,7.17.57,11.53.57s8.62-.31,11.75-.62v3.61c-2.95.22-7.75.53-11.75.53-4.36,0-8.05-.18-11.53-.48v-3.61Z"/><path class="cls-2" d="M492.68,492.93c1.36-.09,2.68-.31,3.74-.53,5.59-1.23,11.04-5.37,11.04-12.89,0-6.6-4.18-12.01-11.57-12.63-.57,4.05-1.41,8.45-2.6,12.54-2.68,8.93-6.16,13.55-10.21,13.55s-7.79-4.49-7.79-11.66c0-9.46,8.45-17.73,19.1-17.73s16.72,7.22,16.72,16.02-6.03,15.27-16.42,16.63l-2.02-3.3ZM489.82,478.67c1.1-3.61,1.94-7.75,2.42-11.75-8.36,1.06-13.47,8.23-13.47,14.08,0,5.5,2.55,7.92,4.44,7.92s4.36-2.9,6.6-10.25Z"/><path class="cls-2" d="M553.04,463.05c-.44.84-1.1,2.29-1.45,3.21-1.41,3.87-3.65,8.71-6.6,12.98,3.92,3.26,7.7,6.69,10.83,10.03l-2.77,3.08c-3.26-3.74-6.6-6.87-10.39-10.12-4.09,5.02-9.55,10.25-17.21,14.21l-3.12-2.77c7.7-3.65,13.16-8.49,17.47-13.82-3.26-2.68-8.14-6.29-12.37-8.89l2.33-2.77c3.74,2.38,8.84,5.98,12.32,8.67,2.82-4.09,4.62-8.23,5.94-11.97.31-.88.7-2.29.88-3.26l4.14,1.41Z"/><path class="cls-2" d="M577.18,462.04c-.09.84-.13,2.11-.13,3.17v14.7c0,1.1.04,2.55.13,3.34h-4.05c.04-.66.18-2.07.18-3.39v-14.65c0-.79-.09-2.33-.18-3.17h4.05ZM597.55,461.73c-.09,1.06-.18,2.33-.18,3.78v7.13c0,10.56-1.41,14.04-4.58,17.82-2.86,3.43-7.26,5.33-10.47,6.43l-2.86-3.04c4.05-1.01,7.83-2.77,10.56-5.85,3.17-3.65,3.7-7.22,3.7-15.53v-6.95c0-1.45-.13-2.73-.22-3.78h4.05Z"/><path class="cls-2" d="M624.5,481.89l-3.34,1.23c-.66-2.29-3.04-8.36-3.92-9.9l3.26-1.28c.88,1.89,3.17,7.66,4,9.95ZM646.64,472.2c-.31.92-.48,1.63-.66,2.2-1.19,4.84-3.08,9.55-6.25,13.51-4.05,5.15-9.42,8.58-14.35,10.47l-2.91-2.99c5.11-1.45,10.69-4.8,14.3-9.33,3.12-3.83,5.41-9.42,6.07-15.05l3.79,1.19ZM634.18,479.25l-3.26,1.14c-.48-1.98-2.51-7.57-3.43-9.55l3.21-1.1c.75,1.76,2.9,7.57,3.48,9.51Z"/><path class="cls-2" d="M691.28,483.78c-4.8-2.6-12.41-5.54-17.29-7.08l.04,14.52c0,1.41.09,3.74.26,5.19h-4.22c.18-1.41.26-3.56.26-5.19v-25.61c0-1.23-.09-3.21-.35-4.58h4.31c-.13,1.36-.31,3.26-.31,4.58v7.17c5.81,1.76,14.13,4.93,18.79,7.26l-1.5,3.74Z"/><path class="cls-2" d="M63,536.6c-.26.7-.62,2.16-.75,2.95-.88,4.05-2.16,12.67-2.16,17.56,0,2.11.09,3.83.4,5.94.7-1.98,1.72-4.58,2.46-6.34l1.85,1.45c-1.1,3.04-2.64,7.48-3.08,9.64-.13.57-.26,1.41-.22,1.94,0,.44.09,1.06.13,1.5l-3.12.26c-.88-3.12-1.67-7.92-1.67-13.82,0-6.38,1.45-14.7,1.98-18.31.18-1.01.31-2.16.31-3.08l3.87.31ZM91.34,568.33c-2.16-2.02-4.31-3.74-6.56-4.97v.79c0,3.61-1.67,7.13-7.57,7.13s-9.07-2.42-9.07-6.29c0-3.65,3.26-6.65,8.98-6.65,1.45,0,2.82.13,4.05.4-.13-3.34-.4-7.53-.44-11.13-1.41.04-2.77.09-4.18.09-2.46,0-4.75-.13-7.3-.26v-3.34c2.46.26,4.84.4,7.39.4,1.36,0,2.73-.04,4.09-.09v-5.41c0-.75-.09-1.89-.22-2.64h4c-.13.84-.22,1.72-.26,2.6-.04,1.19-.09,3.21-.13,5.24,2.64-.18,5.19-.53,7.53-1.01v3.43c-2.38.4-4.93.66-7.53.84.04,4.36.35,8.71.53,12.37,3.52,1.41,6.29,3.65,8.58,5.68l-1.89,2.86ZM81.31,561.86c-1.41-.48-2.9-.7-4.44-.7-3.26,0-5.5,1.45-5.5,3.48,0,2.16,2.11,3.39,5.24,3.39,3.7,0,4.75-1.8,4.75-4.71,0-.4,0-.92-.04-1.45Z"/><path class="cls-2" d="M105.33,558.87v-11.57c-1.94,3.61-4.4,6.95-6.87,8.98-.53-.75-1.45-1.76-2.11-2.29,3.21-2.29,6.47-6.82,8.41-11.31h-7.44v-2.86h8.01v-6.42h3.12v6.42h6.95v2.86h-6.95v2.46c1.67,1.06,6.16,4.4,7.31,5.28l-1.76,2.64c-1.14-1.1-3.61-3.26-5.54-4.88v10.69h-3.12ZM96.97,569.69c1.76-2.33,3.26-6.07,4.14-8.93l2.86,1.1c-.97,2.95-2.38,6.87-4.14,9.29l-2.86-1.45ZM122.18,569.56c2.11,0,2.46-.62,2.64-5.1.75.57,2.07,1.06,2.99,1.23-.44,5.5-1.45,6.82-5.41,6.82h-9.11c-4.75,0-5.98-.88-5.98-4.27v-7h3.21v6.95c0,1.14.44,1.36,2.99,1.36h8.67ZM115.32,558.07c2.02,1.85,4.71,4.58,6.07,6.21l-2.38,1.94c-1.28-1.67-3.96-4.49-5.98-6.47l2.29-1.67ZM134.37,558.43h-17.07v-22.84h17.07v22.84ZM131.25,538.27h-10.91v4.09h10.91v-4.09ZM131.25,544.92h-10.91v4.14h10.91v-4.14ZM131.25,551.56h-10.91v4.18h10.91v-4.18ZM131.25,559.88c1.8,2.77,4.18,6.56,5.28,8.8l-3.04,1.5c-1.01-2.29-3.3-6.12-5.06-9.02l2.82-1.28Z"/><path class="cls-2" d="M151.27,534.35c-.97,2.9-2.11,5.81-3.43,8.58v30.5h-3.12v-24.64c-1.32,2.2-2.68,4.18-4.14,5.9-.31-.79-1.19-2.51-1.72-3.3,3.79-4.4,7.26-11.09,9.37-17.87l3.04.84ZM179.61,554.91c-2.11,1.89-4.97,3.92-7.22,5.28,2.02,3.83,4.67,6.95,7.92,8.76-.7.62-1.72,1.8-2.16,2.6-5.9-3.7-9.73-11.18-11.79-19.93h-1.06c-.84.7-1.76,1.36-2.77,1.98,7.3,6.12,7.39,15.84,3.83,18.53-1.28,1.06-2.46,1.32-4.22,1.36-.92,0-2.16-.04-3.39-.13-.04-.75-.26-1.98-.79-2.77,1.41.13,2.73.18,3.57.18,1.1,0,1.89-.09,2.68-.75,1.23-.88,1.85-3.17,1.41-5.9-3.83,3.21-9.46,6.47-14.13,8.23-.44-.79-1.19-1.8-1.85-2.42,5.19-1.58,11.71-5.19,15.23-8.62-.31-.88-.75-1.76-1.32-2.64-3.12,2.42-7.7,4.84-11.4,6.21-.35-.66-1.06-1.67-1.67-2.25,3.83-1.14,8.76-3.48,11.75-5.81-.57-.66-1.19-1.28-1.94-1.89-2.68,1.5-5.63,2.82-8.27,3.79-.44-.62-1.36-1.72-1.94-2.29,3.74-1.1,7.88-2.82,11.05-4.8h-8.36v-6.56c-.4.35-.84.7-1.28,1.06-.57-.66-1.63-1.5-2.42-1.85,4.53-3.21,7.79-7.52,9.59-10.91l3.12.57c-.4.7-.84,1.45-1.32,2.2h8.62l.57-.18,2.02,1.36c-.88,1.54-2.02,3.17-3.17,4.58h9.77v9.73h-9.11c.57,2.2,1.28,4.31,2.11,6.25,2.11-1.41,4.49-3.39,6.03-4.88l2.29,1.94ZM155.76,549.27h8.05v-4.97h-8.05v4.97ZM158.79,538.58c-.84,1.1-1.72,2.2-2.73,3.3h8.84c.88-.92,1.72-2.16,2.42-3.3h-8.54ZM175.21,544.3h-8.41v4.97h8.41v-4.97Z"/><path class="cls-2" d="M201.47,560.89c-6.07,2.77-12.72,5.68-17.56,7.79l-1.19-3.39c1.72-.66,3.79-1.5,6.07-2.46l-.75-27.2,3.34-.13.66,25.96c2.82-1.19,5.76-2.46,8.67-3.7l.75,3.12ZM220.84,573.3c-2.02-3.04-6.12-7.66-9.86-11.62-3.43,5.19-8.23,9.02-15.09,11.88-.44-.66-1.8-2.16-2.6-2.82,15.09-5.54,19.76-16.19,21.7-35.21l3.56.35c-1.06,9.42-2.73,16.9-5.81,22.8,3.92,3.96,8.58,8.84,10.83,12.1l-2.73,2.51ZM203.89,550.9c-1.19-3.04-4-7.53-6.78-10.74l2.9-1.45c2.9,3.21,5.72,7.53,6.95,10.52l-3.08,1.67Z"/><path class="cls-2" d="M265.76,568.11v3.26h-39.21v-3.26h16.42v-34.15h3.43v13.47h16.37v3.26h-16.37v17.43h19.36Z"/><path class="cls-2" d="M274.77,540.91c2.86-.26,11.09-1.06,19.1-1.76,4.75-.4,8.84-.62,11.75-.75v3.52c-2.51,0-6.29.04-8.54.7-6.2,1.98-9.95,8.62-9.95,13.77,0,8.49,7.92,11.18,15.01,11.44l-1.28,3.7c-8.05-.35-17.25-4.67-17.25-14.39,0-6.78,4.09-12.32,8.1-14.7-3.83.44-15.71,1.58-20.42,2.55l-.4-3.87c1.67-.04,3.04-.13,3.87-.22ZM303.07,553.37l-2.24,1.06c-1.01-2.11-2.29-4.4-3.61-6.21l2.24-.97c1.01,1.45,2.68,4.18,3.61,6.12ZM308.09,551.47l-2.29,1.06c-1.06-2.11-2.33-4.27-3.74-6.12l2.2-1.01c1.06,1.45,2.77,4.14,3.83,6.07Z"/><path class="cls-2" d="M337.65,544.04c0,2.46.04,5.15.09,7.13.92,1.5,1.41,3.43,1.41,5.59,0,5.9-2.86,12.45-12.98,15.49l-3.04-2.95c5.72-1.32,9.77-3.7,11.57-7.57-1.06.75-2.29,1.1-3.74,1.1-3.7,0-7.22-2.6-7.22-7.31,0-4.31,3.56-7.61,7.7-7.61,1.06,0,2.02.18,2.9.48,0-1.28,0-2.82-.04-4.31-6.6.04-13.99.35-19.45.75l-.09-3.43c4.84-.09,13.03-.35,19.5-.44,0-1.23-.04-2.25-.09-2.86-.04-.92-.18-2.2-.26-2.73h4l-.22,2.73c0,.66-.04,1.67-.04,2.82h.66c5.28,0,10.65.04,12.76.04l-.04,3.3c-2.46-.13-6.42-.22-12.81-.22h-.57ZM335.32,553.59c-.7-1.89-2.16-2.68-3.87-2.68-2.24,0-4.4,1.76-4.4,4.58s2.02,4.31,4.44,4.31c2.55,0,4.22-2.07,3.83-6.2Z"/><path class="cls-2" d="M368.76,566.04c0,3.7-2.99,6.73-6.73,6.73s-6.69-3.04-6.69-6.73,3.04-6.69,6.69-6.69,6.73,2.99,6.73,6.69ZM366.47,566.04c0-2.42-1.94-4.44-4.44-4.44s-4.44,2.02-4.44,4.44,2.02,4.49,4.44,4.49,4.44-1.98,4.44-4.49Z"/><path class="cls-4" d="M64.47,236.38c-1.48,3.82-3.31,7.75-5.3,11.46v39.45h-6.73v-29.02c-1.2,1.6-2.39,3.02-3.59,4.28-.63-1.54-2.51-5.24-3.65-6.84,5.13-5.13,10.15-13.23,13-21.38l6.27,2.05ZM89.15,280.45c3.36,0,3.93-1.37,4.45-7.81,1.54,1.03,4.33,2.17,6.16,2.62-.91,8.44-2.91,11.29-10.09,11.29h-12.6c-8.1,0-10.43-2.22-10.43-10.03v-15.56l-4.28,1.65-2.62-5.99,6.9-2.68v-13.45h6.73v10.77l5.53-2.11v-14.76h6.33v12.26l5.76-2.17.86-.68,1.25-.86,4.62,1.77-.23,1.03c-.06,9.92-.17,16.76-.51,19.27-.28,2.85-1.31,4.33-3.19,5.13-1.77.8-4.45.86-6.44.8-.11-1.88-.68-4.73-1.48-6.21,1.25.06,2.85.11,3.48.11.8,0,1.2-.23,1.43-1.31.23-1.03.34-4.79.4-12.26l-5.93,2.34v20.29h-6.33v-17.79l-5.53,2.17v18.24c0,3.42.57,3.93,4.22,3.93h11.57Z"/><path class="cls-4" d="M118.16,238.95c-.46,1.14-1.14,3.99-1.37,5.02-.8,3.76-2.74,15.05-2.74,20.69,0,1.08.06,2.45.23,3.65.8-2,1.71-3.88,2.51-5.7l3.53,2.74c-1.6,4.73-3.48,10.83-4.05,13.85-.17.8-.34,2.05-.34,2.62.06.63.06,1.54.11,2.34l-6.5.46c-1.14-3.93-2.22-10.83-2.22-18.47,0-8.49,1.71-18.01,2.34-22.35.23-1.6.57-3.76.57-5.53l7.92.68ZM131.39,266.83c-.46,1.82-.68,3.19-.68,4.73,0,2.51,2.17,3.99,7.87,3.99,5.07,0,9.24-.46,14.14-1.48l.17,7.64c-3.65.68-8.21,1.14-14.59,1.14-9.75,0-14.37-3.54-14.37-9.29,0-2.34.4-4.73.97-7.35l6.5.63ZM151.11,242.65v7.3c-6.96.63-17.16.63-24.23,0l-.06-7.3c6.96.97,18.19.74,24.29,0Z"/><path class="cls-4" d="M174.59,238.61c-.46,1.14-1.14,3.99-1.37,5.02-.85,3.76-2.68,16.19-2.68,21.83,0,1.14.06,2.51.23,3.65.74-2,1.65-3.88,2.51-5.76l3.48,2.79c-1.6,4.62-3.42,10.38-4.05,13.45-.17.8-.34,2-.29,2.62,0,.57,0,1.54.06,2.34l-6.38.46c-1.14-3.93-2.22-10.38-2.22-18.01,0-8.55,1.65-19.21,2.34-23.54.23-1.6.51-3.76.51-5.53l7.87.68ZM209.25,281.19c-2.34-2.22-4.62-4.1-6.84-5.64-.34,5.36-3.42,9.23-11.06,9.23s-12.66-3.31-12.66-9.23,4.85-9.69,12.54-9.69c1.31,0,2.57.06,3.71.23-.17-3.48-.34-7.58-.4-11.57-1.37.06-2.74.06-4.05.06-3.31,0-6.5-.11-9.86-.34v-6.73c3.25.34,6.5.51,9.86.51,1.31,0,2.68,0,3.99-.06-.06-2.79-.06-5.07-.11-6.27,0-.86-.17-2.57-.34-3.71h8.09c-.17,1.08-.29,2.45-.34,3.65-.06,1.25-.17,3.36-.17,5.87,3.08-.34,6.04-.74,8.72-1.31v7.01c-2.74.4-5.7.74-8.78.97.11,5.47.4,9.98.63,13.8,4.73,1.94,8.27,4.85,10.89,7.3l-3.82,5.93ZM195.23,272.01c-1.48-.4-3.02-.63-4.56-.63-3.19,0-5.36,1.31-5.36,3.42,0,2.28,2.28,3.31,5.24,3.31,3.48,0,4.67-1.82,4.67-5.13v-.97Z"/><path class="cls-4" d="M248.01,249.21c-2.57.68-6.04,1.43-9.8,1.94-2.68,7.92-7.53,17.73-12.09,24.17l-6.9-3.48c4.56-5.53,9.01-13.85,11.52-19.95-.97.06-1.94.06-2.91.06-2.34,0-4.62-.06-7.07-.17l-.51-6.61c2.45.29,5.47.4,7.52.4,1.65,0,3.36-.06,5.07-.17.8-3.13,1.42-6.56,1.54-9.46l7.81.8c-.46,1.82-1.14,4.67-1.94,7.7,2.74-.46,5.36-1.08,7.58-1.77l.17,6.56ZM255.42,254.28c-.17,2.39-.06,4.73,0,7.24.06,1.6.17,4.33.34,7.13,4.85,1.82,8.84,4.67,11.69,7.24l-3.76,6.04c-2-1.82-4.56-4.1-7.64-5.99v.51c0,5.24-2.85,9.35-10.89,9.35-7.01,0-12.54-3.13-12.54-9.35,0-5.53,4.62-9.81,12.48-9.81,1.31,0,2.62.11,3.82.23-.17-4.22-.46-9.18-.63-12.6h7.13ZM249.21,272.98c-1.48-.34-2.96-.57-4.56-.57-3.25,0-5.36,1.37-5.36,3.36,0,2.11,1.77,3.53,4.85,3.53,3.82,0,5.07-2.22,5.07-5.24v-1.08ZM265.11,257.31c-3.25-2.62-9.69-6.33-13.57-8.04l3.65-5.59c4.05,1.77,11.06,5.59,13.91,7.64l-3.99,5.99Z"/><path class="cls-4" d="M286.54,248.7c-.06,3.65,0,7.92.34,11.97.8,8.15,2.51,13.68,6.04,13.68,2.68,0,4.9-6.61,5.99-11.06l5.7,6.84c-3.76,9.81-7.3,13.28-11.86,13.28-6.16,0-11.57-5.59-13.17-20.75-.51-5.19-.63-11.74-.63-15.22,0-1.6-.06-3.99-.4-5.7l8.67.11c-.4,2-.68,5.3-.68,6.84ZM325.76,271.9l-7.47,2.85c-.86-9.06-3.88-22.35-10.03-29.3l7.18-2.39c5.36,6.56,9.69,20.18,10.32,28.85Z"/><path class="cls-4" d="M343.83,286.38c-3.48-4.28-8.27-9.18-12.26-12.6l5.93-5.13c4.05,3.31,9.52,8.95,12.43,12.48l-6.1,5.25Z"/><path class="cls-4" d="M441.59,284.55h-24.06v2.91h-6.44v-30.44c-1.03,1.42-2.05,2.79-3.14,3.99-.28-.51-.74-1.31-1.31-2.17v13.57h-10.43v4.67h-6.1v-37.23h16.53v11.29c3.19-4.67,5.93-10.72,7.58-16.87l6.61,1.82c-.85,2.79-1.88,5.64-3.02,8.38h6.96c1.03-3.08,2-6.78,2.57-9.69l7.41,1.43c-1.03,2.79-2.22,5.7-3.42,8.27h9.35v6.04h-10.32v5.36h8.84v5.87h-8.84v5.36h8.84v5.93h-8.84v5.47h11.23v6.04ZM400.71,245.9h-4.5v20.29h4.5v-20.29ZM424.03,250.52h-6.5v5.36h6.5v-5.36ZM424.03,261.75h-6.5v5.36h6.5v-5.36ZM417.53,278.51h6.5v-5.47h-6.5v5.47Z"/><path class="cls-4" d="M498.07,256.56v7.35h-52.45v-7.35h52.45Z"/><path class="cls-4" d="M527.14,278.11c2.17-.29,3.76-.57,5.24-.91,7.24-1.71,12.83-6.9,12.83-15.11s-4.22-13.62-11.8-14.94c-.8,4.79-1.77,10.03-3.36,15.33-3.36,11.4-8.27,18.36-14.42,18.36s-11.52-6.9-11.52-16.42c0-13,11.34-24.17,26-24.17s22.8,9.75,22.8,22.06-7.3,20.29-21.55,22.46l-4.22-6.67ZM522.75,261.01c1.31-4.16,2.34-9.01,3.02-13.68-9.35,1.94-14.31,10.15-14.31,16.36,0,5.7,2.28,8.49,4.39,8.49,2.34,0,4.62-3.53,6.9-11.17Z"/><path class="cls-4" d="M600.62,244.65c-.91,1.65-1.77,3.19-2.51,4.45h11.34v30.9c0,3.36-.68,5.19-2.91,6.27-2.22,1.03-5.42,1.14-9.86,1.14-.29-1.6-1.14-4.05-1.94-5.76h-13.91v3.13h-5.99v-17.9h22.35v14.14c2,.06,3.76.06,4.45.06.97,0,1.25-.29,1.25-1.14v-17.5c-.86,1.71-2.28,2.28-4.56,2.28h-4.62c-5.07,0-6.1-1.54-6.1-6.16v-3.65h-4.62c-.51,6.33-2.62,9.98-11.29,11.97-.4-1.14-1.42-2.85-2.45-3.99v24.4h-6.44v-38.19h10.15c-.46-1.43-1.14-3.14-1.77-4.45h-10.32v-6.16h21.21v-4.28h6.9v4.28h21.78v6.16h-10.15ZM569.26,262.09c6.1-1.2,7.41-3.25,7.81-7.18h-7.81v7.18ZM590.64,249.1c.68-1.37,1.48-2.96,2.11-4.45h-14.25c.74,1.48,1.48,3.19,1.82,4.45h10.32ZM591.1,271.9h-10.26v4.79h10.26v-4.79ZM602.9,254.91h-9.46v3.59c0,1.2.17,1.37,1.14,1.37h2.96c.97,0,1.2-.4,1.37-3.14.85.57,2.57,1.2,3.99,1.6v-3.42Z"/><path class="cls-4" d="M618.39,261.75h21.72v25.37h-6.78v-2.57h-8.49v2.85h-6.44v-25.65ZM624.84,268.25v9.8h8.49v-9.8h-8.49ZM659.67,257.02h-33.41v-20.64h33.41v20.64ZM652.77,242.88h-19.95v7.7h19.95v-7.7ZM667.36,261.75v25.42h-6.84v-2.62h-9.06v2.85h-6.5v-25.65h22.4ZM660.52,278.06v-9.8h-9.06v9.8h9.06Z"/><path class="cls-1" d="M106.97,101.88c-.42-1.31-1.64-2.19-3.01-2.19h-18.18l-5.54-17.24c-.42-1.31-1.64-2.2-3.01-2.2s-2.59.89-3.01,2.2l-5.54,17.24h-18.18c-1.37,0-2.59.89-3.01,2.19-.42,1.31.05,2.74,1.17,3.54l14.74,10.58-5.67,17.23c-.43,1.31.03,2.74,1.14,3.55,1.11.81,2.62.81,3.73,0l14.63-10.72,14.63,10.72c1.11.81,2.62.82,3.73,0,1.11-.81,1.58-2.24,1.15-3.55l-5.68-17.23,14.74-10.58c1.12-.8,1.59-2.23,1.17-3.54Z"/><path class="cls-1" d="M172.02,101.88c-.42-1.31-1.64-2.19-3.01-2.19h-18.18l-5.54-17.24c-.42-1.31-1.64-2.2-3.01-2.2s-2.59.89-3.01,2.2l-5.54,17.24h-18.18c-1.37,0-2.59.89-3.01,2.19-.42,1.31.05,2.74,1.17,3.54l14.74,10.58-5.67,17.23c-.43,1.31.03,2.74,1.14,3.55,1.11.81,2.62.81,3.73,0l14.63-10.72,14.63,10.72c1.11.81,2.62.82,3.73,0,1.11-.81,1.58-2.24,1.15-3.55l-5.68-17.23,14.74-10.58c1.12-.8,1.59-2.23,1.17-3.54Z"/><path class="cls-1" d="M233.75,101.88c-.42-1.31-1.64-2.19-3.01-2.19h-18.18l-5.54-17.24c-.42-1.31-1.64-2.2-3.01-2.2s-2.59.89-3.01,2.2l-5.54,17.24h-18.18c-1.37,0-2.59.89-3.01,2.19-.42,1.31.05,2.74,1.17,3.54l14.74,10.58-5.67,17.23c-.43,1.31.03,2.74,1.14,3.55,1.11.81,2.62.81,3.73,0l14.63-10.72,14.63,10.72c1.11.81,2.62.82,3.73,0,1.11-.81,1.58-2.24,1.15-3.55l-5.68-17.23,14.74-10.58c1.12-.8,1.59-2.23,1.17-3.54Z"/><path class="cls-1" d="M299,101.88c-.42-1.31-1.64-2.19-3.01-2.19h-18.18l-5.54-17.24c-.42-1.31-1.64-2.2-3.01-2.2s-2.59.89-3.01,2.2l-5.54,17.24h-18.18c-1.37,0-2.59.89-3.01,2.19-.42,1.31.05,2.74,1.17,3.54l14.74,10.58-5.67,17.23c-.43,1.31.03,2.74,1.14,3.55,1.11.81,2.62.81,3.73,0l14.63-10.72,14.63,10.72c1.11.81,2.62.82,3.73,0,1.11-.81,1.58-2.24,1.15-3.55l-5.68-17.23,14.74-10.58c1.12-.8,1.59-2.23,1.17-3.54Z"/><path class="cls-1" d="M364.25,101.88c-.42-1.31-1.64-2.19-3.01-2.19h-18.18l-5.54-17.24c-.42-1.31-1.64-2.2-3.01-2.2s-2.59.89-3.01,2.2l-5.54,17.24h-18.18c-1.37,0-2.59.89-3.01,2.19-.42,1.31.05,2.74,1.17,3.54l14.74,10.58-5.67,17.23c-.43,1.31.03,2.74,1.14,3.55,1.11.81,2.62.81,3.73,0l14.63-10.72,14.63,10.72c1.11.81,2.62.82,3.73,0,1.11-.81,1.58-2.24,1.15-3.55l-5.68-17.23,14.74-10.58c1.12-.8,1.59-2.23,1.17-3.54Z"/></svg>