<?xml version="1.0" encoding="UTF-8"?><svg id="_レイヤー_1" xmlns="http://www.w3.org/2000/svg" viewBox="0 0 21.47 21.94"><defs><style>.cls-1{fill:#587083;}.cls-1,.cls-2{stroke-width:0px;}.cls-2{fill:#a8becc;}</style></defs><path class="cls-2" d="M19.67,6.31c-2.51,0-4.54-2.03-4.54-4.54h-3.41v13.18c0,1.53-1.24,2.78-2.78,2.78s-2.78-1.24-2.78-2.78,1.24-2.78,2.78-2.78c.29,0,.61.04.87.12v-3.47c-.29-.04-.58-.06-.87-.06-3.41,0-6.18,2.77-6.18,6.18s2.77,6.18,6.18,6.18,6.18-2.77,6.18-6.18v-6.98c1.24,1.01,2.82,1.62,4.54,1.62v-3.28Z"/><path class="cls-2" d="M18.7,5.35c-2.51,0-4.54-2.03-4.54-4.54h-3.41v13.18c0,1.53-1.24,2.78-2.78,2.78s-2.78-1.24-2.78-2.78,1.24-2.78,2.78-2.78c.29,0,.61.04.87.12v-3.47c-.29-.04-.58-.06-.87-.06-3.41,0-6.18,2.77-6.18,6.18s2.77,6.18,6.18,6.18,6.18-2.77,6.18-6.18v-6.98c1.24,1.01,2.82,1.62,4.54,1.62v-3.28Z"/><path class="cls-1" d="M18.7,6.21c-1.1-.24-2.05-.87-2.69-1.75-.87-.64-1.51-1.59-1.75-2.69h-2.54v13.18c0,1.53-1.24,2.78-2.78,2.78-1.01,0-1.9-.54-2.38-1.36-.81-.48-1.36-1.37-1.36-2.38,0-1.53,1.24-2.78,2.78-2.78.29,0,.61.04.87.12v-2.56c-3.37.05-6.09,2.8-6.09,6.18,0,1.46.51,2.8,1.35,3.86,1.06.85,2.4,1.35,3.86,1.35,3.41,0,6.18-2.77,6.18-6.18v-6.98c1.24,1.01,2.82,1.62,4.54,1.62v-2.42Z"/></svg>