<?xml version="1.0" encoding="UTF-8"?><svg id="_レイヤー_1" xmlns="http://www.w3.org/2000/svg" viewBox="0 0 33.32 21.94"><defs><style>.cls-1{fill:#587083;stroke-width:0px;}</style></defs><path class="cls-1" d="M31.51,3.53c-.36-1.33-1.41-2.38-2.74-2.74C26.35.15,16.66.15,16.66.15,16.66.15,6.97.15,4.56.79c-1.33.36-2.38,1.41-2.74,2.74-.65,2.42-.65,7.46-.65,7.46,0,0,0,5.04.65,7.46.36,1.33,1.41,2.38,2.74,2.74,2.42.65,12.1.65,12.1.65,0,0,9.69,0,12.1-.65,1.33-.36,2.38-1.41,2.74-2.74.65-2.42.65-7.46.65-7.46,0,0,0-5.04-.65-7.46ZM13.56,15.64V6.34l8.05,4.65-8.05,4.65Z"/></svg>